<svg width="200" height="200" xmlns="http://www.w3.org/2000/svg" xmlns:xlink="http://www.w3.org/1999/xlink" viewBox="0 0 375 812"><defs><style>.a{clip-path:url(#j);}.b,.g{fill:#0e0e11;}.b{stroke:#3b3b45;stroke-width:2px;}.c{fill:url(#c);}.d{fill:#f9f9fa;}.e{fill:#cfdce6;}.f{fill:#e4eaef;}.h,.m{fill:#fff;}.h{opacity:0.054;}.i{fill:url(#h);}.j{fill:#035a81;opacity:0.257;}.k{stroke:none;}.l{fill:none;}.n{filter:url(#f);}.o{filter:url(#d);}.p{filter:url(#a);}</style><filter id="a" x="-14" y="27" width="412" height="683.6" filterUnits="userSpaceOnUse"><feOffset dy="3" input="SourceAlpha"/><feGaussianBlur stdDeviation="25" result="b"/><feFlood flood-opacity="0.302"/><feComposite operator="in" in2="b"/><feComposite in="SourceGraphic"/></filter><linearGradient id="c" x1="0.088" y1="0.03" x2="0.971" y2="0.972" gradientUnits="objectBoundingBox"><stop offset="0" stop-color="#e33372"/><stop offset="0.16" stop-color="#f81b6c"/><stop offset="1" stop-color="#01228d"/></linearGradient><filter id="d" x="79.5" y="176.5" width="227" height="179" filterUnits="userSpaceOnUse"><feOffset dy="2" input="SourceAlpha"/><feGaussianBlur stdDeviation="2.5" result="e"/><feFlood flood-color="#c4c4c4"/><feComposite operator="in" in2="e"/><feComposite in="SourceGraphic"/></filter><filter id="f" x="79.5" y="360.5" width="227" height="179" filterUnits="userSpaceOnUse"><feOffset dy="2" input="SourceAlpha"/><feGaussianBlur stdDeviation="2.5" result="g"/><feFlood flood-color="#c4c4c4"/><feComposite operator="in" in2="g"/><feComposite in="SourceGraphic"/></filter><linearGradient id="h" x1="0.5" x2="0.5" y2="1" gradientUnits="objectBoundingBox"><stop offset="0" stop-opacity="0.251"/><stop offset="1" stop-color="#545454" stop-opacity="0.251"/></linearGradient><clipPath id="j"><rect width="375" height="812"/></clipPath></defs><g id="i" class="a"><rect class="m" width="375" height="812"/><g class="p" transform="matrix(1, 0, 0, 1, 0, 0)"><g class="b" transform="translate(61 99)"><rect class="k" width="262" height="533.6" rx="40"/><rect class="l" x="1" y="1" width="260" height="531.6" rx="39"/></g></g><rect class="c" width="234" height="505.643" rx="26" transform="translate(76 113)"/><rect class="d" width="234" height="505.643" rx="26" transform="translate(76 113)"/><path class="e" d="M26,0H208a26,26,0,0,1,26,26V57a0,0,0,0,1,0,0H0a0,0,0,0,1,0,0V26A26,26,0,0,1,26,0Z" transform="translate(76 113)"/><circle class="d" cx="12.5" cy="12.5" r="12.5" transform="translate(93 134)"/><g transform="translate(14 38)"><g class="o" transform="matrix(1, 0, 0, 1, -14, -38)"><rect class="f" width="212" height="164" rx="9" transform="translate(87 182)"/></g><rect class="d" width="202" height="105" transform="translate(78 172)"/><path class="e" d="M155.225,226h39.959L173.36,200.717l-9.836,16.6-11.373-13.832L144.774,226Z" transform="translate(9.226 11.283)"/></g><g transform="translate(0 -13)"><g class="n" transform="matrix(1, 0, 0, 1, 0, 13)"><rect class="f" width="212" height="164" rx="9" transform="translate(87 366)"/></g><rect class="d" width="202" height="105" transform="translate(92 407)"/><path class="e" d="M155.225,226h39.959L173.36,200.717l-9.836,16.6-11.373-13.832L144.774,226Z" transform="translate(23.226 246.283)"/><circle class="d" cx="6.5" cy="6.5" r="6.5" transform="translate(105 388)"/></g><path class="g" d="M21,21A16,16,0,0,1,5,5V3.875H5a3.976,3.976,0,0,0-1.211-2.74A3.977,3.977,0,0,0,1,0H133V5a16,16,0,0,1-16,16ZM133,4.006V0h4.02A4.14,4.14,0,0,0,133,4.006Z" transform="translate(123.001 112.9)"/><path class="g" d="M0,121V90a4,4,0,0,1,4-4v39A4,4,0,0,1,0,121ZM265.9,52a4,4,0,0,1,4,4v52a4,4,0,0,1-4,4ZM0,73V42a4,4,0,0,1,4-4V77A4,4,0,0,1,0,73ZM0,17V4A4,4,0,0,1,4,0V21A4,4,0,0,1,0,17Z" transform="translate(57.1 170)"/><g transform="translate(-6302 -8056)"><rect class="h" width="32" height="4.674" rx="2.337" transform="translate(6469.468 8172.475)"/><circle class="i" cx="4.674" cy="4.674" r="4.674" transform="translate(6508.877 8170.138)"/><circle class="j" cx="2.003" cy="2.003" r="2.003" transform="translate(6511.548 8172.809)"/></g><rect class="g" width="87" height="4" rx="2" transform="translate(149 603)"/></g></svg>