<?xml version="1.0" encoding="utf-8"?>
<!-- Generator: Adobe Illustrator 22.1.0, SVG Export Plug-In . SVG Version: 6.00 Build 0)  -->
<svg version="1.1" id="Camada_1" xmlns="http://www.w3.org/2000/svg" xmlns:xlink="http://www.w3.org/1999/xlink" x="0px" y="0px"
	 viewBox="0 0 1280 1024" style="enable-background:new 0 0 1280 1024;" xml:space="preserve">
<style type="text/css">
	.st0{fill:url(#SVGID_1_);}
	.st1{fill:url(#SVGID_2_);}
	.st2{fill:#FFFFFF;}
	.st3{fill:#E2E6E9;}
	.st4{fill:#DEE3E5;}
	.st5{fill:#FAFBFB;}
	.st6{fill:#F7F8F8;}
	.st7{fill:url(#SVGID_3_);}
	.st8{fill:url(#SVGID_4_);}
	.st9{fill:url(#SVGID_5_);}
	.st10{fill:url(#SVGID_6_);}
	.st11{fill:url(#SVGID_7_);}
	.st12{fill:url(#SVGID_8_);}
	.st13{fill:url(#SVGID_9_);}
	.st14{fill:url(#SVGID_10_);}
	.st15{fill:#444444;}
	.st16{fill:url(#SVGID_11_);}
	.st17{fill:url(#SVGID_12_);}
	.st18{fill:url(#SVGID_13_);}
	.st19{fill:url(#SVGID_14_);}
	.st20{fill:url(#SVGID_15_);}
	.st21{fill:url(#SVGID_16_);}
	.st22{fill:url(#SVGID_17_);}
	.st23{fill:#EAA537;}
	.st24{fill:url(#SVGID_18_);}
	.st25{fill:url(#SVGID_19_);}
	.st26{fill:url(#SVGID_20_);}
	.st27{fill:#325897;}
	.st28{fill:url(#SVGID_21_);}
	.st29{fill:url(#SVGID_22_);}
	.st30{fill:url(#SVGID_23_);}
	.st31{fill:url(#SVGID_24_);}
	.st32{fill:url(#SVGID_25_);}
	.st33{fill:url(#SVGID_26_);}
	.st34{fill:url(#SVGID_27_);}
	.st35{fill:url(#SVGID_28_);}
	.st36{fill:url(#SVGID_29_);}
	.st37{fill:url(#SVGID_30_);}
	.st38{fill:url(#SVGID_31_);}
	.st39{fill:url(#SVGID_32_);}
	.st40{fill:url(#SVGID_33_);}
	.st41{fill:url(#SVGID_34_);}
	.st42{fill:url(#SVGID_35_);}
	.st43{fill:url(#SVGID_36_);}
	.st44{fill:url(#SVGID_37_);}
	.st45{fill:url(#SVGID_38_);}
	.st46{fill:url(#SVGID_39_);}
	.st47{fill:url(#SVGID_40_);}
	.st48{fill:url(#SVGID_41_);}
	.st49{fill:#B3BDC3;}
	.st50{fill:url(#SVGID_42_);}
	.st51{fill:#F2CCD1;}
	.st52{fill:url(#SVGID_43_);}
	.st53{fill:url(#SVGID_44_);}
	.st54{fill:url(#SVGID_45_);}
	.st55{fill:url(#SVGID_46_);}
	.st56{fill:url(#SVGID_47_);}
	.st57{fill:url(#SVGID_48_);}
	.st58{fill:url(#SVGID_49_);}
	.st59{fill:url(#SVGID_50_);}
	.st60{fill:url(#SVGID_51_);}
	.st61{fill:#57423A;}
	.st62{fill:url(#SVGID_52_);}
	.st63{fill:url(#SVGID_53_);}
	.st64{fill:url(#SVGID_54_);}
	.st65{fill:url(#SVGID_55_);}
	.st66{fill:url(#SVGID_56_);}
	.st67{fill:url(#SVGID_57_);}
	.st68{fill:#EAA991;}
	.st69{fill:url(#SVGID_58_);}
	.st70{fill:url(#SVGID_59_);}
	.st71{fill:url(#SVGID_60_);}
	.st72{fill:url(#SVGID_61_);}
	.st73{fill:url(#SVGID_62_);}
	.st74{fill:url(#SVGID_63_);}
	.st75{fill:#AB9B88;}
	.st76{fill:url(#SVGID_64_);}
	.st77{fill:#38419B;}
	.st78{fill:#262626;}
	.st79{fill:url(#SVGID_65_);}
	.st80{fill:url(#SVGID_66_);}
	.st81{fill:url(#SVGID_67_);}
	.st82{fill:url(#SVGID_68_);}
	.st83{fill:#E6F7FA;}
	.st84{fill:url(#SVGID_69_);}
	.st85{fill:url(#SVGID_70_);}
	.st86{fill:url(#SVGID_71_);}
	.st87{fill:url(#SVGID_72_);}
	.st88{fill:url(#SVGID_73_);}
	.st89{fill:url(#SVGID_74_);}
	.st90{fill:url(#SVGID_75_);}
	.st91{fill:url(#SVGID_76_);}
	.st92{fill:url(#SVGID_77_);}
	.st93{fill:url(#SVGID_78_);}
	.st94{fill:url(#SVGID_79_);}
	.st95{fill:url(#SVGID_80_);}
	.st96{fill:url(#SVGID_81_);}
	.st97{fill:url(#SVGID_82_);}
	.st98{fill:url(#SVGID_83_);}
	.st99{fill:url(#SVGID_84_);}
	.st100{fill:url(#SVGID_85_);}
	.st101{fill:url(#SVGID_86_);}
	.st102{fill:url(#SVGID_87_);}
	.st103{fill:url(#SVGID_88_);}
	.st104{fill:url(#SVGID_89_);}
	.st105{fill:url(#SVGID_90_);}
	.st106{fill:#2E353A;}
	.st107{fill:#F0C32E;}
	.st108{fill:url(#SVGID_91_);}
	.st109{fill:url(#SVGID_92_);}
	.st110{fill:url(#SVGID_93_);}
	.st111{fill:url(#SVGID_94_);}
	.st112{fill:url(#SVGID_95_);}
	.st113{fill:url(#SVGID_96_);}
	.st114{fill:url(#SVGID_97_);}
	.st115{fill:url(#SVGID_98_);}
</style>
<radialGradient id="SVGID_1_" cx="776.1401" cy="1622.0381" r="56.473" gradientTransform="matrix(1.1283 0 0 0.182 4.4589 536.3855)" gradientUnits="userSpaceOnUse">
	<stop  offset="0" style="stop-color:#D0D7DB"/>
	<stop  offset="1" style="stop-color:#D0D7DB;stop-opacity:0"/>
</radialGradient>
<ellipse class="st0" cx="880.2" cy="831.6" rx="63.7" ry="10.3"/>
<radialGradient id="SVGID_2_" cx="561.0314" cy="1699.6089" r="56.473" gradientTransform="matrix(3.1129 0 0 0.182 -1098.3176 536.3855)" gradientUnits="userSpaceOnUse">
	<stop  offset="0" style="stop-color:#D0D7DB"/>
	<stop  offset="1" style="stop-color:#D0D7DB;stop-opacity:0"/>
</radialGradient>
<ellipse class="st1" cx="648.1" cy="845.7" rx="175.8" ry="10.3"/>
<g>
	<rect x="499.1" y="300.8" class="st2" width="62.5" height="76.9"/>
	<rect x="568.4" y="376.6" class="st3" width="33.5" height="33.5"/>
	<rect x="757.4" y="393.6" class="st3" width="33.5" height="33.5"/>
	<rect x="568.4" y="341.3" class="st4" width="23.8" height="23.8"/>
	<rect x="529.7" y="428.8" class="st4" width="56.7" height="23.8"/>
	<rect x="458.9" y="308.2" class="st5" width="33.5" height="56.9"/>
	<rect x="475.6" y="385.8" class="st6" width="89" height="33.5"/>
	<rect x="1124.4" y="314.3" class="st4" width="23.8" height="23.8"/>
	<rect x="1031.6" y="358.8" class="st6" width="89" height="33.5"/>
	<rect x="184.7" y="419.8" class="st4" width="56.7" height="23.8"/>
	<rect x="130.6" y="376.8" class="st6" width="89" height="33.5"/>
	<rect x="368.6" y="495" class="st4" width="304.4" height="4.7"/>
	<g>
		
			<radialGradient id="SVGID_3_" cx="1197.1692" cy="1505.6816" r="56.473" gradientTransform="matrix(0.7498 0 0 0.182 96.9172 536.3855)" gradientUnits="userSpaceOnUse">
			<stop  offset="0" style="stop-color:#D0D7DB"/>
			<stop  offset="1" style="stop-color:#D0D7DB;stop-opacity:0"/>
		</radialGradient>
		<ellipse class="st7" cx="994.6" cy="810.4" rx="42.3" ry="10.3"/>
		<g>
			<g>
				
					<linearGradient id="SVGID_4_" gradientUnits="userSpaceOnUse" x1="779.874" y1="432.4921" x2="934.8681" y2="432.4921" gradientTransform="matrix(-0.9592 -0.2829 -0.2829 0.9592 1834.2345 283.4448)">
					<stop  offset="0" style="stop-color:#3B695D"/>
					<stop  offset="1" style="stop-color:#98C686"/>
				</linearGradient>
				<path class="st8" d="M827.1,400.7c13.5,2.8,26.7,7.3,39.4,12.8c6.1,2.6,12.1,6.6,18.4,8.5c7.5,2.3,13,5.1,19.2,9.9
					c11.1,8.5,21.3,18.4,30.7,28.7c4.9,5.3,9.5,10.8,13.9,16.6c5.4,7,11.5,13.5,8.6,22.9c-1.6,5.1-6.6,9.1-12.1,8.9
					c-8.9-0.4-12.3-5.9-17.2-12.3c-4.1-5.4-8.5-10.6-13-15.7c-8.9-9.9-18.6-18.7-28.6-27.4c-5.2-4.6-9.1-8.9-13.4-14.3
					c-3.8-4.7-9.2-8.4-13.9-12.1c-10.8-8.3-22.1-15.6-33.7-22.7C823.4,403.1,824.9,400.2,827.1,400.7z"/>
				
					<linearGradient id="SVGID_5_" gradientUnits="userSpaceOnUse" x1="755.4172" y1="510.3284" x2="868.2747" y2="510.3284" gradientTransform="matrix(-0.9592 -0.2829 -0.2829 0.9592 1834.2345 283.4448)">
					<stop  offset="0" style="stop-color:#3B695D"/>
					<stop  offset="1" style="stop-color:#98C686"/>
				</linearGradient>
				<path class="st9" d="M854.9,535c3.1-3.7,4.7-8.3,8.8-11.1c3.4-2.3,7.8-3.7,11.8-4.6c10.4-2.2,21.4-0.9,31.6,1.6
					c18.9,4.7,41.4,14.9,53.4,30.9c4.1,5.4,4.9,11,1.7,17.1c-2.6,5.1-8.7,7.2-14.1,6.4c-6.7-1-9.8-6.5-14.5-10.6
					c-6.4-5.6-14.4-9.6-22.3-12.7c-9.5-3.7-18.8-7.3-28.1-11.6c-6.8-3.2-20.6-9.3-27.5-4.4C855,536.5,854.4,535.5,854.9,535z"/>
				
					<linearGradient id="SVGID_6_" gradientUnits="userSpaceOnUse" x1="667.5906" y1="475.6092" x2="743.9266" y2="475.6092" gradientTransform="matrix(-0.9592 -0.2829 -0.2829 0.9592 1834.2345 283.4448)">
					<stop  offset="0" style="stop-color:#3B695D"/>
					<stop  offset="1" style="stop-color:#98C686"/>
				</linearGradient>
				<path class="st10" d="M1018.9,506.6c19.8-1.6,36,16.3,43.6,32.9c0.3,0.6-0.2,1.5-1,1.2c-6.2-2.5-11.8-6.3-18.2-8.3
					c-5.6-1.8-12.6-2-18.4-1c-11.7,1.9-14.2,14-16.5,24c-1.7,7.5-10.6,11.7-17.6,9.6c-8-2.3-11-10.1-9.6-17.6
					C984.9,527.9,997.4,508.3,1018.9,506.6z"/>
				
					<linearGradient id="SVGID_7_" gradientUnits="userSpaceOnUse" x1="723.1907" y1="572.0117" x2="812.4045" y2="572.0117" gradientTransform="matrix(-0.9592 -0.2829 -0.2829 0.9592 1834.2345 283.4448)">
					<stop  offset="0" style="stop-color:#3B695D"/>
					<stop  offset="1" style="stop-color:#98C686"/>
				</linearGradient>
				<path class="st11" d="M888.1,620.1c4.6-6.9,8.4-13.4,15.3-18.2c7.3-5.1,16.4-8.5,25.4-8.6c19.5-0.3,41.9,13.4,48.1,32.3
					c4.5,13.7-14.3,21.8-23.4,12.7c-4-4-6.7-8.9-11.4-12.3c-4.9-3.5-10.4-5.8-16.2-7.2c-10.8-2.8-25.7-3.4-35.1,3.6
					C889.3,623.6,886.8,622,888.1,620.1z"/>
				
					<linearGradient id="SVGID_8_" gradientUnits="userSpaceOnUse" x1="653.3888" y1="543.5954" x2="703.3848" y2="543.5954" gradientTransform="matrix(-0.9592 -0.2829 -0.2829 0.9592 1834.2345 283.4448)">
					<stop  offset="0" style="stop-color:#3B695D"/>
					<stop  offset="1" style="stop-color:#98C686"/>
				</linearGradient>
				<path class="st12" d="M1024.4,585.1c6.7-3.8,14.1-5.3,21.6-3.3c7,1.9,10.2,6.5,15.1,11.1c1,0.9-0.1,3-1.5,2.4
					c-6.7-2.9-18.8,4.8-23.2,9.7c-6.3,6.9-7.5,17-7.1,25.8c0.8,17.9-28.3,17.6-28-0.5C1001.7,612.3,1008.1,594.4,1024.4,585.1z"/>
				
					<linearGradient id="SVGID_9_" gradientUnits="userSpaceOnUse" x1="702.1852" y1="632.4944" x2="774.1562" y2="632.4944" gradientTransform="matrix(-0.9592 -0.2829 -0.2829 0.9592 1834.2345 283.4448)">
					<stop  offset="0" style="stop-color:#3B695D"/>
					<stop  offset="1" style="stop-color:#98C686"/>
				</linearGradient>
				<path class="st13" d="M915.5,662.8c9.2-8,18.4-9,29.6-3.8c12.6,5.8,22,15.6,31.6,25.3c12.8,13.1-8.3,33.1-20.7,19.5
					c-6.9-7.5-12.9-15.5-19.4-23.4c-4.3-5.2-12.6-13.8-19.8-14.5C915.3,665.8,914.2,663.9,915.5,662.8z"/>
				
					<linearGradient id="SVGID_10_" gradientUnits="userSpaceOnUse" x1="613.5406" y1="614.1632" x2="670.5078" y2="614.1632" gradientTransform="matrix(-0.9592 -0.2829 -0.2829 0.9592 1834.2345 283.4448)">
					<stop  offset="0" style="stop-color:#3B695D"/>
					<stop  offset="1" style="stop-color:#98C686"/>
				</linearGradient>
				<path class="st14" d="M1023.3,689.1c4.5-0.8,7.4-4,10.3-7.3c4.8-5.4,9.8-10.9,16.4-14c5.3-2.5,10.7-3.4,16.5-2.4
					c6.2,1,8.7,3.5,12.1,8.4c1,1.5,0,3.4-1.9,3c-9.8-2.2-16,15-20,20.6c-6.8,9.3-15.6,17.5-27.3,19.6
					C1011.3,720.2,1005.2,692.4,1023.3,689.1z"/>
				<path class="st15" d="M889,531.8c37.2,8,70.2,32,89.7,64.6c2,3.3,3.9,6.8,5.7,10.3c-6-26.5-14.4-52.5-25-77.5
					c-9.2-21.6-20-42.5-32.3-62.6c-0.4-0.6,0.6-1.2,1-0.5c22.8,35.4,40.1,74.3,51.8,114.8c1.2,4.2,2.4,8.5,3.5,12.7
					c2.8-19.3,9.3-38.5,17.7-56c3.5-7.4,7-17.5,14.2-22.2c4.6-3,11.4-2.8,14.6,2.1c0,0.1-0.1,0.1-0.1,0.1c-2.5-3.4-6.7-4.2-10.6-3
					c-4.3,1.3-7.3,5.3-9.5,9c-4.4,7.4-7.7,15.6-10.8,23.6c-6.1,16.1-10.3,32.4-13.8,49.2c-0.1,0.4,2.2,13.2,3.5,19.5
					c1.2,3.2,2.7,11,2.1,11.1c3,16.9,6.5,55.9,6.6,57.3c0.1-0.3,0.2-0.5,0.3-0.8c0.2-0.4,0.4-0.6,0.7-0.7
					c10.3-15.2,12.9-32.8,16.8-50.5c3.2-14.1,8.2-35.1,23.4-41.1c0.1-0.1,0.2,0.1,0.1,0.2c-15.2,10.7-18.8,30-22.3,47.1
					c-3.3,16.3-6.1,34.2-17.2,47.3c-0.5,0.6-1.3,13.4-1.3,20.1c0,6.7,0.1,19.7,0.4,19.7c13.2,0.3,20.9-11.9,27.5-21.5
					c5.8-8.4,12.9-16.8,23.6-18.2c0.2,0,0.3,0.3,0.1,0.3c-23.9,4.2-24.8,42.6-51.3,42c-0.4,0-3.3,32-6.1,48
					c-0.1,0.8-1.5,0.6-1.3-0.2c2.3-16.3,3.8-32.7,4.5-49.2c-12.4-3.7-21.1-15.4-27.7-25.9c-7.7-12.1-13.9-24.5-25.7-33.2
					c-0.3-0.2,0-0.6,0.3-0.4c10.9,6,18,17.3,24.4,27.5c7.6,12.1,15.4,23.4,28.7,29.4c0.5-14.9,0.4-29.9-0.5-44.8
					c-7.3-2.6-12.8-10.6-16.2-17c-4.4-8.2-6.7-17.3-10-26c-3.7-9.7-8.9-18.5-17.8-24.3c-8.2-5.4-18.1-7.8-27.8-6.8
					c-0.2,0-0.2-0.3,0-0.4c18-2.7,35.3,6.5,43.9,22.3c4.8,8.8,7.2,18.6,11.1,27.8c2,4.7,4.4,9.4,7.6,13.4c2.6,3.3,5.7,5.5,9,7.8
					c-0.6-8.5-1.4-17.1-2.5-25.6c-1.3-9.9-2.8-19.8-4.7-29.7c-2.7-6.7-5.3-13.4-8.9-19.8c-4.6-8.2-10-16-16.2-23.1
					c-12.3-14.2-26.8-25.9-43.5-34.6c-9.5-4.9-19.6-8.8-30-11.4C888.5,532.3,888.6,531.8,889,531.8z"/>
			</g>
			<g>
				
					<linearGradient id="SVGID_11_" gradientUnits="userSpaceOnUse" x1="893.9322" y1="598.1104" x2="1018.7437" y2="598.1104" gradientTransform="matrix(-0.9579 0.2872 0.2872 0.9579 1527.6324 -238.0919)">
					<stop  offset="0" style="stop-color:#3B695D"/>
					<stop  offset="1" style="stop-color:#98C686"/>
				</linearGradient>
				<path class="st16" d="M717,599.8c10.3-4.1,21.3-6.8,32.2-8.7c5.3-0.9,11-0.9,16.2-2.4c6-1.7,11-2.3,17.3-1.8
					c11.2,0.9,22.5,3,33.4,5.8c5.6,1.5,11.2,3.1,16.6,5.1c6.7,2.4,13.7,4.1,15.9,11.7c1.2,4.1-0.5,9.1-4.2,11.3
					c-6.2,3.6-10.9,1.5-17-0.7c-5.2-1.8-10.4-3.5-15.7-4.9c-10.3-2.8-20.8-4.5-31.3-5.9c-5.5-0.8-10.1-2-15.3-3.8
					c-4.6-1.5-9.9-1.6-14.7-2c-10.9-0.9-21.8-0.8-32.7-0.5C715.6,603.1,715.4,600.5,717,599.8z"/>
				
					<linearGradient id="SVGID_12_" gradientUnits="userSpaceOnUse" x1="874.238" y1="660.7893" x2="965.1183" y2="660.7893" gradientTransform="matrix(-0.9579 0.2872 0.2872 0.9579 1527.6324 -238.0919)">
					<stop  offset="0" style="stop-color:#3B695D"/>
					<stop  offset="1" style="stop-color:#98C686"/>
				</linearGradient>
				<path class="st17" d="M794.9,678.2c0.5-3.8-0.5-7.7,1-11.3c1.3-3,3.6-5.9,5.9-8.3c6-6.1,14.1-10,22-12.8
					c14.8-5.2,34.5-8.2,49.6-2.7c5.1,1.9,8.1,5.3,8.7,10.8c0.5,4.6-2.7,8.7-6.7,10.5c-4.9,2.2-9.5-0.1-14.4-0.8
					c-6.8-0.9-13.9-0.2-20.6,1.2c-8,1.7-15.9,3.4-24,4.6c-6,0.9-18,2.8-20.5,9.1C795.6,679.2,794.8,678.7,794.9,678.2z"/>
				
					<linearGradient id="SVGID_13_" gradientUnits="userSpaceOnUse" x1="803.5142" y1="632.8312" x2="864.985" y2="632.8312" gradientTransform="matrix(-0.9579 0.2872 0.2872 0.9579 1527.6324 -238.0919)">
					<stop  offset="0" style="stop-color:#3B695D"/>
					<stop  offset="1" style="stop-color:#98C686"/>
				</linearGradient>
				<path class="st18" d="M893,586.9c12.7-9.8,31.4-4.9,43.9,3c0.4,0.3,0.5,1.1-0.1,1.2c-5.3,1.1-10.7,1-16,2.4
					c-4.6,1.3-9.3,4.2-12.9,7.4c-7.1,6.4-3.4,15.7-0.6,23.4c2.1,5.8-2,12.5-7.7,14.2c-6.4,1.9-11.9-1.9-14.2-7.7
					C879.4,616.2,879.3,597.5,893,586.9z"/>
				
					<linearGradient id="SVGID_14_" gradientUnits="userSpaceOnUse" x1="848.287" y1="710.4608" x2="920.1279" y2="710.4608" gradientTransform="matrix(-0.9579 0.2872 0.2872 0.9579 1527.6324 -238.0919)">
					<stop  offset="0" style="stop-color:#3B695D"/>
					<stop  offset="1" style="stop-color:#98C686"/>
				</linearGradient>
				<path class="st19" d="M854.7,721c0.1-6.6-0.2-12.8,2.3-19c2.7-6.7,7.4-12.9,13.4-17c13-8.8,34.2-9.4,46.7,0.6
					c9.1,7.3,0,21-10.2,18.9c-4.5-0.9-8.4-3.1-13.1-3.3c-4.8-0.2-9.6,0.7-14.1,2.3c-8.5,2.9-18.8,9.1-22.1,17.9
					C857.1,722.8,854.7,722.8,854.7,721z"/>
				
					<linearGradient id="SVGID_15_" gradientUnits="userSpaceOnUse" x1="792.0779" y1="687.5781" x2="832.338" y2="687.5781" gradientTransform="matrix(-0.9579 0.2872 0.2872 0.9579 1527.6324 -238.0919)">
					<stop  offset="0" style="stop-color:#3B695D"/>
					<stop  offset="1" style="stop-color:#98C686"/>
				</linearGradient>
				<path class="st20" d="M931.2,637.4c2.8-5.5,7.1-9.8,13.1-11.7c5.5-1.8,9.7-0.1,15.1,0.8c1.1,0.2,1.2,2.1,0.1,2.3
					c-5.8,1-10.5,11.5-11.4,16.7c-1.2,7.4,2.4,14.7,6.6,20.5c8.4,11.7-11.3,24.3-19.1,12C927.9,665.7,924.3,650.8,931.2,637.4z"/>
				
					<linearGradient id="SVGID_16_" gradientUnits="userSpaceOnUse" x1="831.372" y1="759.1655" x2="889.3278" y2="759.1655" gradientTransform="matrix(-0.9579 0.2872 0.2872 0.9579 1527.6324 -238.0919)">
					<stop  offset="0" style="stop-color:#3B695D"/>
					<stop  offset="1" style="stop-color:#98C686"/>
				</linearGradient>
				<path class="st21" d="M892,737.7c2.7-9.4,8.4-14.1,18.3-15.6c11.1-1.7,21.7,0.8,32.4,3.2c14.4,3.2,9,25.9-5.4,22.3
					c-8-2-15.5-4.8-23.3-7.2c-5.2-1.6-14.6-3.7-19.7-1.1C893.2,739.9,891.7,739,892,737.7z"/>
				
					<linearGradient id="SVGID_17_" gradientUnits="userSpaceOnUse" x1="759.9895" y1="744.404" x2="805.8632" y2="744.404" gradientTransform="matrix(-0.9579 0.2872 0.2872 0.9579 1527.6324 -238.0919)">
					<stop  offset="0" style="stop-color:#3B695D"/>
					<stop  offset="1" style="stop-color:#98C686"/>
				</linearGradient>
				<path class="st22" d="M976.2,708c2.7-2.5,3.2-5.9,3.8-9.5c0.9-5.7,1.8-11.7,4.9-16.7c2.5-4,5.8-7,10.1-8.9
					c4.6-2,7.4-1.5,11.8,0.3c1.4,0.5,1.5,2.3,0,2.9c-7.6,2.8-4.2,17.2-4.4,22.7c-0.5,9.3-2.9,18.7-9.8,25.2
					C981.9,734.2,965.5,718.2,976.2,708z"/>
				<path class="st15" d="M816.5,661.1c28.6-11,61.4-9.3,88.9,4.1c2.8,1.4,5.6,2.8,8.4,4.4c-15.7-15.2-32.8-29.1-51-41.3
					c-15.7-10.5-32.2-19.9-49.3-28c-0.5-0.3-0.1-1,0.4-0.8c31,13.9,59.7,32.5,85.4,54.6c2.7,2.3,5.3,4.7,7.9,7.1
					c-6.6-14.3-10.7-30-12.7-45.5c-0.9-6.5-3-14.9-0.2-21.2c1.8-4,6.5-7,10.8-5.1c0.1,0,0,0.1,0,0.1c-3.2-1.2-6.3,0.1-8.4,2.7
					c-2.3,2.8-2.6,6.8-2.4,10.2c0.3,6.9,1.6,13.9,3.1,20.7c3,13.6,7.3,26.3,12.3,39.3c0.1,0.3,7.3,8,10.9,11.6
					c2.3,1.6,6.6,6.2,6.3,6.5c9.5,10,29,34.8,29.7,35.7c0-0.2-0.1-0.5-0.1-0.7c-0.1-0.3,0-0.6,0.2-0.8c0.3-14.8-5.8-27.8-10.9-41.5
					c-4.1-10.9-9.9-27.3-2.3-38c0.1-0.1,0.2,0,0.2,0.1c-5.6,13.9,0.5,28.5,5.7,41.6c5,12.4,10.9,25.7,9.2,39.5
					c-0.1,0.6,5,9.6,8,14.1c3,4.5,8.7,13.3,9,13.1c9-5.6,8.9-17.2,9.1-26.6c0.2-8.2,1.3-17,7.9-22.6c0.1-0.1,0.3,0.1,0.2,0.2
					c-14.3,13.4,2,39.7-16.1,50.9c-0.3,0.2,11.8,23,17,35c0.2,0.6-0.7,1-1,0.5c-5.6-12-11.8-23.8-18.6-35.1c-10,3-21-1.1-30-5.3
					c-10.5-4.8-20.1-10.4-31.9-11.1c-0.3,0-0.3-0.4,0-0.4c10-0.7,19.8,3.8,28.6,7.8c10.5,4.8,20.7,9,32.3,7.1
					c-6.2-10.3-12.9-20.3-20.1-30c-6,1.4-13.3-1.6-18.4-4.4c-6.6-3.6-12.1-8.7-18.2-13.1c-6.8-4.9-14.1-8.5-22.7-8.6
					c-7.9,0-15.6,2.7-21.8,7.6c-0.1,0.1-0.3-0.1-0.2-0.2c10.9-9.7,26.7-11.1,39.4-4.2c7.1,3.8,13,9.4,19.7,13.8
					c3.4,2.3,7.1,4.4,11,5.7c3.3,1.1,6.3,1.2,9.5,1.3c-4.2-5.5-8.5-10.9-12.9-16.2c-5.2-6.1-10.6-12.1-16.3-17.9
					c-4.8-3.3-9.5-6.7-14.8-9.5c-6.7-3.5-13.8-6.4-21.1-8.5c-14.5-4.2-29.5-5.7-44.5-4.2c-8.6,0.9-17.1,2.7-25.3,5.5
					C816.3,661.6,816.2,661.2,816.5,661.1z"/>
			</g>
			<g>
				<path class="st23" d="M1013.2,776.2H976c-1.4,0-2.4,1.3-2.1,2.6l1.4,6.1c0.2,1,1.1,1.6,2.1,1.6h34.5c1,0,1.8-0.7,2.1-1.6
					l1.4-6.1C1015.6,777.4,1014.6,776.2,1013.2,776.2z"/>
				<linearGradient id="SVGID_18_" gradientUnits="userSpaceOnUse" x1="994.6297" y1="797.4301" x2="994.6297" y2="785.1233">
					<stop  offset="1.135817e-02" style="stop-color:#EAA537"/>
					<stop  offset="1" style="stop-color:#D5652C"/>
				</linearGradient>
				<path class="st24" d="M977.9,787.4l3,20.8c0.2,1.4,1.4,2.5,2.8,2.5h21.8c1.4,0,2.6-1,2.8-2.5l3-20.8H977.9z"/>
			</g>
		</g>
	</g>
	<g>
		
			<radialGradient id="SVGID_19_" cx="276.9194" cy="1505.6816" r="56.473" gradientTransform="matrix(0.7498 0 0 0.182 96.9172 536.3855)" gradientUnits="userSpaceOnUse">
			<stop  offset="0" style="stop-color:#D0D7DB"/>
			<stop  offset="1" style="stop-color:#D0D7DB;stop-opacity:0"/>
		</radialGradient>
		<ellipse class="st25" cx="304.6" cy="810.4" rx="42.3" ry="10.3"/>
		<g>
			<g>
				
					<linearGradient id="SVGID_20_" gradientUnits="userSpaceOnUse" x1="347.7811" y1="538.9118" x2="317.1574" y2="692.7262" gradientTransform="matrix(1.2349 -5.796686e-02 5.741607e-02 1.2232 -123.3939 -113.8013)">
					<stop  offset="1.642628e-03" style="stop-color:#7458BE"/>
					<stop  offset="1" style="stop-color:#1E1641"/>
				</linearGradient>
				<path class="st26" d="M218,653.8c-1.6-7.3-2.4-15.2,1.5-22.1c1.6-2.9,4.2-5.4,7.3-6.6c10.1-4,19,4.9,24.1,13.5
					c3.9,6.7,7.1,14,13.9,18.4c2.6,1.7,5.6,2.7,8.7,2.6c11.3-0.3,14.5-13,10.8-21.7c-3.1-7.3-9.5-12.6-15.1-18.3
					c-14.8-14.8-25.7-33.3-31.4-53.3c-3.6-12.6-4.9-27.2,4.8-37.4c5-5.3,12.8-7.6,19.7-4.8c8.4,3.3,10,11.4,11.3,18.9
					c1.1,6.2,2.5,12.9,7.9,16.7c3.5,2.5,8.2,2.9,11.5,0.1c3.3-2.8,2.9-6.9,2.6-10.7c-1.4-23.6,6.9-47.7,22.7-65.5
					c8.6-9.7,23.4-17.9,34-9.1c2.7,2.3,4.6,5.4,5.6,8.8c2.5,8.1,0.6,16.2-1.2,24.1l-10.1,43.3c-1,4.1,3.7,7.3,7.2,4.8l30.2-20.7
					c2.8-1.9,6-3.2,9.4-3.4c11.2-0.7,14.3,8.9,14.5,17.1c0.3,18.1-9.4,35.2-22.2,48s-28.8,22.1-44.3,31.6
					c-4.8,2.9-9.9,6.2-11.6,11.9c-1,3.2-0.3,6.9,2.3,9.1c4.3,3.7,10.4,1.2,14.9-1.8c13.9-9.1,25.4-22,42.3-25.9
					c6-1.4,12.4-1.1,18.1,1.2c17.7,7.2,16.8,26.1,8.4,38.3c-8.9,12.8-22.1,21.2-34.6,30.1c-25.2,17.8-60.2,49.9-94,39.7
					c-19.8-5.9-37.2-21-49.8-36.8C227.9,681.9,221.2,668.3,218,653.8z"/>
				<g>
					<g>
						<path class="st27" d="M308.4,775.5c-0.5,0-0.8-0.4-0.9-0.8c-6.2-80.6-1.7-161.5,13.5-240.5c0.1-0.5,0.6-0.8,1-0.7
							c0.5,0.1,0.8,0.6,0.7,1c-15.1,78.8-19.7,159.6-13.5,240C309.3,775,308.9,775.4,308.4,775.5
							C308.4,775.5,308.4,775.5,308.4,775.5z"/>
					</g>
					<g>
						<path class="st27" d="M311.9,607.1c-5.6,0-11-0.9-16-2.8c-12.7-4.8-21.3-15-26.4-22.7c-6.5-10-10.9-21.4-14.8-31.5
							c-0.2-0.5,0.1-1,0.5-1.1c0.5-0.2,1,0.1,1.1,0.5c3.8,10,8.2,21.4,14.6,31.2c4.9,7.5,13.3,17.3,25.5,22
							c15.2,5.8,34.8,2.1,51.2-9.5c15-10.6,25.9-25.7,36.4-40.3c0.3-0.4,0.8-0.5,1.2-0.2c0.4,0.3,0.5,0.8,0.2,1.2
							c-10.6,14.7-21.6,29.9-36.8,40.7C337.2,602.8,324.1,607.1,311.9,607.1z"/>
					</g>
					<g>
						<path class="st27" d="M301.8,704.8c-5.9,0-11.6-0.9-16.9-2.7c-21.7-7.2-35.4-28-43.8-43.1c-0.2-0.4-0.1-1,0.3-1.2
							c0.4-0.2,1-0.1,1.2,0.3c8.3,14.8,21.8,35.2,42.8,42.2c18,6,40,1.4,58.9-12.4l3.6-2.6c16-11.7,31.2-22.7,47-39
							c0.3-0.3,0.9-0.4,1.2,0c0.3,0.3,0.4,0.9,0,1.2c-16,16.4-31.2,27.5-47.3,39.2l-3.6,2.6C331.7,699.5,316.3,704.8,301.8,704.8z"
							/>
					</g>
				</g>
			</g>
			<g>
				
					<linearGradient id="SVGID_21_" gradientUnits="userSpaceOnUse" x1="376.8302" y1="680.3959" x2="358.5658" y2="772.1334" gradientTransform="matrix(0.9811 0.1933 -0.1933 0.9811 119.7029 -74.1939)">
					<stop  offset="1.642628e-03" style="stop-color:#7458BE"/>
					<stop  offset="1" style="stop-color:#1E1641"/>
				</linearGradient>
				<path class="st28" d="M287.2,713.3c0.1-3.7,0.7-7.5,3.3-10.3c1.1-1.2,2.6-2,4.2-2.3c5.2-0.7,8.4,4.5,9.7,9.2
					c1.1,3.6,1.7,7.4,4.4,10.3c1,1.1,2.3,1.9,3.8,2.2c5.3,1.2,8.3-4.5,7.6-9c-0.6-3.8-3-7.1-4.9-10.4c-5.2-8.7-8.2-18.7-8.5-28.8
					c-0.2-6.4,0.9-13.4,6.6-17.1c3-1.9,6.9-2.1,9.8,0c3.5,2.6,3.3,6.6,3.1,10.2c-0.2,3.1-0.3,6.4,1.7,8.8c1.3,1.6,3.5,2.3,5.4,1.4
					c1.8-0.9,2.1-2.9,2.5-4.8c2.1-11.3,8.8-21.8,18.3-28.4c5.2-3.6,13.1-5.8,17-0.4c1,1.4,1.5,3.1,1.6,4.8c0.2,4.1-1.6,7.7-3.4,11.3
					l-9.8,19.3c-0.9,1.8,0.9,3.9,2.8,3.1l16.6-6.3c1.5-0.6,3.2-0.8,4.8-0.5c5.3,1,5.7,5.9,4.8,9.8c-2,8.6-8.5,15.5-16,20.1
					c-7.5,4.6-16.1,7.1-24.4,9.8c-2.6,0.8-5.3,1.8-6.8,4.3c-0.8,1.4-0.9,3.2,0,4.6c1.6,2.3,4.7,1.7,7.2,0.9
					c7.6-2.7,14.5-7.5,22.8-7.4c3,0,5.9,0.9,8.3,2.6c7.5,5.4,4.8,14.3-0.5,19.1c-5.6,5-12.8,7.5-19.7,10.2
					c-13.9,5.5-34,16.6-48.7,7.9c-8.6-5.1-15-14.2-19-23.2C288.6,727.7,287,720.5,287.2,713.3z"/>
				<g>
					<g>
						<path class="st27" d="M315.5,781.7c0,0-0.1,0-0.1,0c-0.5-0.1-0.8-0.5-0.7-1c6.5-38.9,18-76.6,34.3-112.3
							c0.2-0.4,0.7-0.6,1.2-0.4c0.4,0.2,0.6,0.7,0.4,1.2c-16.2,35.5-27.7,73.1-34.2,111.8C316.3,781.4,315.9,781.7,315.5,781.7z"/>
					</g>
					<g>
						<path class="st27" d="M343.1,703.3c-5.2,0-10.1-1.4-13.9-4c-5.5-3.8-8.4-9.7-9.9-14c-1.9-5.5-2.6-11.5-3.3-16.7
							c-0.1-0.5,0.3-0.9,0.8-1c0.5-0.1,0.9,0.3,1,0.8c0.6,5.2,1.3,11,3.2,16.3c1.4,4,4.1,9.6,9.2,13.1c6.3,4.4,15.8,4.9,24.6,1.4
							c8.2-3.3,15-9.1,21.6-14.8c0.4-0.3,0.9-0.3,1.2,0.1c0.3,0.4,0.3,0.9-0.1,1.2c-6.7,5.7-13.6,11.7-22.1,15.1
							C351.3,702.5,347.1,703.3,343.1,703.3z"/>
					</g>
					<g>
						<path class="st27" d="M327.9,748.4c-5.6,0-10.9-1.4-15.2-4.2c-9.4-6-13.5-17.5-15.7-25.7c-0.1-0.5,0.1-1,0.6-1.1
							c0.5-0.1,1,0.1,1.1,0.6c2.1,7.9,6,19,15,24.7c7.6,4.8,18.3,5.2,28.6,0.9l2-0.8c8.9-3.7,17.2-7.1,26.5-13
							c0.4-0.3,1-0.1,1.2,0.3c0.3,0.4,0.1,1-0.3,1.2c-9.4,5.9-17.9,9.4-26.8,13.1l-2,0.8C337.9,747.4,332.8,748.4,327.9,748.4z"/>
					</g>
				</g>
			</g>
			<g>
				
					<linearGradient id="SVGID_22_" gradientUnits="userSpaceOnUse" x1="600.6274" y1="645.3914" x2="587.8601" y2="709.5182" gradientTransform="matrix(-0.916 0.4013 0.4013 0.916 543.9458 -121.9165)">
					<stop  offset="1.642628e-03" style="stop-color:#7458BE"/>
					<stop  offset="1" style="stop-color:#1E1641"/>
				</linearGradient>
				<path class="st29" d="M308.2,731.7c-0.6-2.5-1.6-5-3.8-6.5c-0.9-0.6-2.1-1-3.2-0.9c-3.6,0.3-5,4.3-5.2,7.7
					c-0.2,2.6,0,5.3-1.4,7.7c-0.5,0.9-1.3,1.7-2.2,2.1c-3.5,1.6-6.3-1.8-6.5-5c-0.2-2.7,0.9-5.3,1.8-7.8c2.2-6.7,2.7-14,1.4-21
					c-0.8-4.4-2.6-9-7.1-10.7c-2.3-0.9-5-0.4-6.7,1.5c-2,2.3-1.3,5-0.6,7.4c0.6,2.1,1.2,4.3,0.1,6.3c-0.7,1.3-2.1,2.1-3.4,1.7
					c-1.4-0.4-1.9-1.7-2.4-2.9c-3.1-7.4-9.3-13.5-16.8-16.6c-4.1-1.7-9.8-2-11.7,2.3c-0.5,1.1-0.6,2.3-0.4,3.5c0.5,2.8,2.3,5,4,7.2
					l9.6,11.7c0.9,1.1,0,2.8-1.4,2.6l-12.3-1.8c-1.1-0.2-2.3-0.1-3.4,0.4c-3.5,1.5-3,4.9-1.8,7.4c2.6,5.6,8.1,9.3,14,11.3
					s12,2.4,18.2,3c1.9,0.2,3.9,0.4,5.3,1.9c0.8,0.8,1.1,2.1,0.7,3.1c-0.7,1.8-3,1.9-4.8,1.7c-5.6-0.7-11-2.9-16.7-1.6
					c-2,0.5-3.9,1.5-5.3,3.1c-4.3,4.8-1.1,10.5,3.2,12.9c4.6,2.6,9.9,3.2,15,4c10.3,1.7,25.7,6.2,34.4-2c5.1-4.8,8.1-12,9.5-18.7
					C309.4,741.7,309.4,736.6,308.2,731.7z"/>
				<g>
					<g>
						<path class="st27" d="M299.1,782.9c-0.3,0-0.7-0.2-0.8-0.6C288,757,274.5,733.1,258,711.3c-0.3-0.4-0.2-0.9,0.2-1.2
							c0.4-0.3,0.9-0.2,1.2,0.2c16.5,21.9,30.1,45.9,40.4,71.5c0.2,0.5,0,1-0.5,1.1C299.3,782.9,299.2,782.9,299.1,782.9z"/>
					</g>
					<g>
						<path class="st27" d="M263.7,734.1c-1.3,0-2.7-0.1-4.1-0.3c-6.3-1-12-4-17.4-7c-0.4-0.2-0.6-0.8-0.4-1.2
							c0.2-0.4,0.8-0.6,1.2-0.4c5.3,2.9,10.9,5.8,16.9,6.8c6.5,1.1,12.8-0.7,16.4-4.6c2.9-3.1,3.9-7.3,4.2-10.2
							c0.5-3.9,0.1-8-0.3-11.6c0-0.5,0.3-0.9,0.8-1c0.5,0,0.9,0.3,1,0.8c0.4,3.7,0.8,7.9,0.3,12c-0.4,3.2-1.5,7.7-4.7,11.2
							C274.3,732.2,269.3,734.1,263.7,734.1z"/>
					</g>
					<g>
						<path class="st27" d="M280.1,762.7c-1.7,0-3.4-0.2-5.2-0.5l-1.5-0.3c-6.7-1.2-12.9-2.3-20.3-4.9c-0.5-0.2-0.7-0.7-0.5-1.1
							c0.2-0.5,0.7-0.7,1.1-0.5c7.2,2.6,13.4,3.7,20,4.8l1.5,0.3c7.6,1.3,14.8-0.5,19.2-4.9c5.2-5.2,6.1-13.3,6.4-18.9
							c0-0.5,0.5-0.9,0.9-0.8c0.5,0,0.9,0.4,0.8,0.9c-0.3,5.9-1.3,14.5-6.9,20.1C291.9,760.6,286.3,762.7,280.1,762.7z"/>
					</g>
				</g>
			</g>
			<g>
				<path class="st23" d="M324,775.1h-37.2c-1.4,0-2.4,1.3-2.1,2.6l1.4,6.1c0.2,1,1.1,1.6,2.1,1.6h34.5c1,0,1.8-0.7,2.1-1.6l1.4-6.1
					C326.4,776.4,325.4,775.1,324,775.1z"/>
				<linearGradient id="SVGID_23_" gradientUnits="userSpaceOnUse" x1="305.4331" y1="796.3912" x2="305.4331" y2="784.0845">
					<stop  offset="1.135817e-02" style="stop-color:#EAA537"/>
					<stop  offset="1" style="stop-color:#D5652C"/>
				</linearGradient>
				<path class="st30" d="M288.7,786.4l3,20.8c0.2,1.4,1.4,2.5,2.8,2.5h21.8c1.4,0,2.6-1,2.8-2.5l3-20.8H288.7z"/>
			</g>
		</g>
	</g>
	<g>
		
			<radialGradient id="SVGID_24_" cx="444.151" cy="1622.0381" r="56.473" gradientTransform="matrix(1.5915 0 0 0.182 -296.4203 536.3855)" gradientUnits="userSpaceOnUse">
			<stop  offset="0" style="stop-color:#D0D7DB"/>
			<stop  offset="1" style="stop-color:#D0D7DB;stop-opacity:0"/>
		</radialGradient>
		<ellipse class="st31" cx="410.4" cy="831.6" rx="89.9" ry="10.3"/>
		<g>
			<linearGradient id="SVGID_25_" gradientUnits="userSpaceOnUse" x1="457.7931" y1="462.2663" x2="457.7931" y2="530.3009">
				<stop  offset="0" style="stop-color:#62A499"/>
				<stop  offset="1" style="stop-color:#366064"/>
			</linearGradient>
			<path class="st32" d="M420.8,448c6.1,0.1,8.7-6.7,13.8-8.7c8.1-3.3,19.4-2.5,25.3,4.6c1.6,2,2.9,5.5,5.1,6.8
				c3.5,2.2,7.1,0.9,10.2,4.5c7.1,8.3-4.1,19.3,0.5,28.8c3.1,6.3,12.1,4.7,17,9.3c5,4.7,6.8,10.9,3.8,16.9c-1.3,2.6-6.1,7.9-1.6,10
				c0.8,0.4,1.8,0.5,2.7,0.7c8.6,1.7,17,7.1,20.7,15.1c9.6,20.6-9.5,37.3-27.2,43.9c-14.2,5.3-29.5,4.5-43.6-0.9
				c-20.8-8.1-47.4-23.1-46.5-48.8c0.2-6.3,5.1-12.6,2.8-18.8c-1.5-4.1-4.4-7.4-6.3-11.2c-2-4.1-3-8.7-2.7-13.2
				c0.2-2.6,0.7-5.3,2-7.5c2.5-4.4,7.3-4.9,10.5-8.3c2.1-2.3,3.4-5.3,3.6-8.4c0.2-3.3-1.6-6.3-0.4-9.6
				C412,448.9,416.9,447.9,420.8,448z"/>
			<linearGradient id="SVGID_26_" gradientUnits="userSpaceOnUse" x1="462.2073" y1="526.3265" x2="468.9699" y2="555.2554">
				<stop  offset="3.613782e-02" style="stop-color:#B3BDC3"/>
				<stop  offset="1" style="stop-color:#5D6E79"/>
			</linearGradient>
			<polygon class="st33" points="464.8,527.5 479,553 471.2,559.7 453.6,534.6 			"/>
			
				<linearGradient id="SVGID_27_" gradientUnits="userSpaceOnUse" x1="423.6674" y1="487.4041" x2="429.4717" y2="512.2335" gradientTransform="matrix(1.0474 -0.2091 0.274 1.083 -132.997 67.4197)">
				<stop  offset="0" style="stop-color:#F2CCD1"/>
				<stop  offset="1" style="stop-color:#CC7272"/>
			</linearGradient>
			<path class="st34" d="M453.6,539.3c0.9-0.7,12.9-10.6,13-12.1c-2.5-0.7-0.8-1.7-1.5-3.3c-0.5-1.2-2.5-0.9-2.1-2.7
				c-1.5-0.9-2.1-2.8-3-4.3c-1.2-2-3-3.6-4.7-5c-3.1-2.7-6.3-3.6-9.8-3.1c-3.2,0.5-5.7,1.2-7.2,4.2c-1.9,3.7,0.8,8.1,3.1,11.7
				c1.2,1.9,2.4,3.3,3.8,5c1,1.2,1.1,1.5,1,3c0.5,0.4,1.4,0.4,1.8,0.8c0.7,0.6,0.4,1.5,1.4,1.8C449.4,536.1,452.5,539.5,453.6,539.3
				z"/>
			<g>
				<linearGradient id="SVGID_28_" gradientUnits="userSpaceOnUse" x1="411.0001" y1="756.0051" x2="424.6901" y2="672.7243">
					<stop  offset="0" style="stop-color:#2E353A"/>
					<stop  offset="1" style="stop-color:#000006"/>
				</linearGradient>
				<path class="st35" d="M461,603.9c-20.8,7.5-38.7-0.2-47.5,10.7c-5.7,7-3.1,22.5-3.7,26.8c-3.4,22.4,3,36.5,7.9,65.4
					c-11.6,6.2-19.3,20-21.1,30.1c-0.8,4.4-2.6,10.5-4.8,17c-3.4,10-7.8,20.8-10.5,27.3c2.8,1.6,4.8,2.9,8.5,3
					c3.7-8.5,8.7-16.9,13.9-25.3c8.7-13.8,18.2-27.6,24.1-41.4c11.2-11.7,23.4-53.3,26.4-69.2C456.5,636.1,458.7,619,461,603.9z"/>
				
					<linearGradient id="SVGID_29_" gradientUnits="userSpaceOnUse" x1="468.5388" y1="792.7031" x2="468.5388" y2="792.8792" gradientTransform="matrix(0.9215 0.3883 -0.3883 0.9215 265.4239 -127.0383)">
					<stop  offset="0" style="stop-color:#F2CCD1"/>
					<stop  offset="1" style="stop-color:#CC7272"/>
				</linearGradient>
				<path class="st36" d="M389.3,785.4c0,0,0,0.1,0,0.1C389.3,785.5,389.3,785.4,389.3,785.4z"/>
				<g>
					
						<linearGradient id="SVGID_30_" gradientUnits="userSpaceOnUse" x1="458.4342" y1="813.0516" x2="458.3391" y2="805.1609" gradientTransform="matrix(0.9215 0.3883 -0.3883 0.9215 265.4239 -127.0383)">
						<stop  offset="0" style="stop-color:#F2CCD1"/>
						<stop  offset="1" style="stop-color:#CC7272"/>
					</linearGradient>
					<polygon class="st37" points="374.7,789 368.2,809.1 369.2,809.5 376.4,794.6 					"/>
					
						<linearGradient id="SVGID_31_" gradientUnits="userSpaceOnUse" x1="468.0287" y1="799.727" x2="468.0287" y2="789.8832" gradientTransform="matrix(0.9215 0.3883 -0.3883 0.9215 265.4239 -127.0383)">
						<stop  offset="3.613782e-02" style="stop-color:#B3BDC3"/>
						<stop  offset="1" style="stop-color:#5D6E79"/>
					</linearGradient>
					<path class="st38" d="M388.5,800c0.1-5.6-0.7-9.8,0.8-14.4c-0.1,0.3-0.8,0.7-4.2-0.7c-4.4-1.7-4.1-3-4.1-3
						c-0.6,1.1-1.4,1.6-2.1,1.9c1.9,9.4-2.9,18.3,0.2,28.1c1.2,4.3,4.2,3.3,8,2.9c-0.1-0.4,0-0.9-0.2-2
						C385.9,807.9,388.4,804.8,388.5,800z"/>
					
						<linearGradient id="SVGID_32_" gradientUnits="userSpaceOnUse" x1="469.3247" y1="786.9937" x2="469.3247" y2="827.0439" gradientTransform="matrix(0.9215 0.3883 -0.3883 0.9215 265.4239 -127.0383)">
						<stop  offset="0" style="stop-color:#F2CCD1"/>
						<stop  offset="1" style="stop-color:#CC7272"/>
					</linearGradient>
					<path class="st39" d="M379.1,811.9c-3.2-9.8,1.6-18.7-0.2-28.1c-1.6,0.6-3.2,0.3-4.2,2.6c-1.4,3.1,0.4,5.4,1.8,8.2
						c2.5,5,0.4,9.9,0,14.9c-0.3,3.6,0.7,4.8,3.2,7.2c2.3,2.2,3.9,2.3,7.6,3.7c3.3,1.3,5.2-0.8,2.1-3.3c-1.8-1.5-2.2-1.7-2.3-2.3
						C383.3,815.2,380.3,816.2,379.1,811.9z"/>
				</g>
			</g>
			<g>
				<linearGradient id="SVGID_33_" gradientUnits="userSpaceOnUse" x1="432.6186" y1="646.6505" x2="432.6186" y2="527.4036">
					<stop  offset="0" style="stop-color:#2E353A"/>
					<stop  offset="1" style="stop-color:#000006"/>
				</linearGradient>
				<path class="st40" d="M443.6,599.7c-9.9,0.2-19.7-3.2-29-7.2c-0.4,1.9-18.2,17.3-7.3,48.4c6.9,28,16.1,54.2,19.2,76.6
					c-8.3,10.2-10,26-7.7,35.9c1,4.4,1.7,10.7,2.2,17.5c0.7,10.5,0.9,22.2,0.9,29.3c3.2,0.4,5.6,0.9,9-0.5c0.1-9.2,1.4-18.9,3-28.8
					c2.6-16.1,6-32.5,6.1-47.5c5.8-15.1,6.7-83.2,7.8-94.7c1.2-12.5,5.5-4.4,10.8-15.7c2.5-5.3,2.9-14.8,2.9-17.2
					C456.2,598.7,450.1,599.5,443.6,599.7z"/>
				<linearGradient id="SVGID_34_" gradientUnits="userSpaceOnUse" x1="430.9055" y1="800.8936" x2="430.9055" y2="801.0697">
					<stop  offset="0" style="stop-color:#F2CCD1"/>
					<stop  offset="1" style="stop-color:#CC7272"/>
				</linearGradient>
				<path class="st41" d="M430.9,800.9c0,0,0,0.1,0,0.1C430.9,801,430.9,800.9,430.9,800.9z"/>
				<g>
					<linearGradient id="SVGID_35_" gradientUnits="userSpaceOnUse" x1="420.8009" y1="821.2422" x2="420.7058" y2="813.3514">
						<stop  offset="0" style="stop-color:#F2CCD1"/>
						<stop  offset="1" style="stop-color:#CC7272"/>
					</linearGradient>
					<polygon class="st42" points="418.8,809.9 420.6,830.9 421.7,830.9 422.6,814.4 					"/>
					<linearGradient id="SVGID_36_" gradientUnits="userSpaceOnUse" x1="430.3953" y1="807.9175" x2="430.3953" y2="798.0737">
						<stop  offset="3.613782e-02" style="stop-color:#B3BDC3"/>
						<stop  offset="1" style="stop-color:#5D6E79"/>
					</linearGradient>
					<path class="st43" d="M435.7,814.7c-2.1-5.2-4.4-8.7-4.8-13.6c0,0.3-0.5,0.9-4.2,1c-4.7,0.1-4.9-1.1-4.9-1.1
						c-0.2,1.3-0.7,2-1.2,2.5c5.4,7.9,4.4,18,11.1,25.8c2.8,3.5,5.2,1.4,8.5-0.5c-0.2-0.3-0.4-0.8-1-1.8
						C436.5,823,437.5,819.2,435.7,814.7z"/>
					<linearGradient id="SVGID_37_" gradientUnits="userSpaceOnUse" x1="431.6914" y1="795.1842" x2="431.6914" y2="835.2344">
						<stop  offset="0" style="stop-color:#F2CCD1"/>
						<stop  offset="1" style="stop-color:#CC7272"/>
					</linearGradient>
					<path class="st44" d="M431.7,829.3c-6.7-7.9-5.8-17.9-11.1-25.8c-1.2,1.2-2.8,1.5-2.9,4c-0.1,3.4,2.5,4.8,4.8,6.8
						c4.2,3.6,4.2,8.9,5.8,13.7c1.1,3.4,2.5,4.1,5.7,5.4c3,1.2,4.4,0.6,8.5,0.5c3.5-0.1,4.5-2.7,0.6-3.8c-2.2-0.6-2.7-0.8-3-1.3
						C436.9,830.7,434.5,832.8,431.7,829.3z"/>
				</g>
			</g>
			<linearGradient id="SVGID_38_" gradientUnits="userSpaceOnUse" x1="436.6983" y1="518.7969" x2="449.9462" y2="653.6842">
				<stop  offset="0" style="stop-color:#F2CCD1"/>
				<stop  offset="1" style="stop-color:#CC7272"/>
			</linearGradient>
			<path class="st45" d="M426.9,565.9c0.1,3-8.4,18.2-12.4,26.6c4.3,5,15.1,8.4,23.7,8.8c7.2,0.3,16.1,0.3,23.3-2.4l-3.4-43.5
				c0,0,15.7-4.7,8.4-16.8c-6.8-11.2-17.8-33.5-25.3-33.5c-1.9-2-4.7-3.1-7.5-2.9c-8.7,0.7-12.7,3.6-16.8,10.6
				c-3.6,6.3-7.7,15.4-5.7,22.3L426.9,565.9z"/>
			<g>
				
					<linearGradient id="SVGID_39_" gradientUnits="userSpaceOnUse" x1="452.3255" y1="533.6526" x2="452.8161" y2="485.0857" gradientTransform="matrix(0.9964 8.440301e-02 -8.440301e-02 0.9964 34.4185 -39.0873)">
					<stop  offset="3.613782e-02" style="stop-color:#B3BDC3"/>
					<stop  offset="1" style="stop-color:#5D6E79"/>
				</linearGradient>
				<polygon class="st46" points="432.5,486.8 430.4,502.8 452.2,533.3 444.6,508.5 446.4,496.2 				"/>
				<linearGradient id="SVGID_40_" gradientUnits="userSpaceOnUse" x1="444.0539" y1="473.4998" x2="446.9709" y2="461.5664">
					<stop  offset="3.613782e-02" style="stop-color:#B3BDC3"/>
					<stop  offset="1" style="stop-color:#5D6E79"/>
				</linearGradient>
				<path class="st47" d="M456.9,466.1c0.1,4.4-1.2,8.6-5.4,11.7c-3.2,2.4-13.1,6-18.1,2.3c-0.1-0.1-0.1-0.3-0.1-0.4l-0.1,0l0.1-2.3
					c0.1-1.8-1.3-3.3-3.1-3.4l-0.1,0c-1.7-0.1-3.3,1.2-3.4,3l-0.2,2.5c-0.2,1.9,1.3,3.3,3.1,3.6c1.1,0.1,1.9,1.2,1.8,2.3
					c0,0-0.1,1.4-0.1,1.4c-0.4,4.8,20.6,16.7,22.8,11.9c0.2-0.4,4.1-12.9,5.1-23c0.3-2.6,0.1-5.8-0.1-8.4
					C458.4,466.7,457.6,466.4,456.9,466.1z"/>
			</g>
			<g>
				<linearGradient id="SVGID_41_" gradientUnits="userSpaceOnUse" x1="475.394" y1="546.6879" x2="475.394" y2="572.9029">
					<stop  offset="3.613782e-02" style="stop-color:#B3BDC3"/>
					<stop  offset="1" style="stop-color:#5D6E79"/>
				</linearGradient>
				<path class="st48" d="M473.1,510.4l9.7,42.1c2.4,7.1-4.3,12.8-10,9.1c-1.8-1.2-2.9-3.3-3-5.5c-0.8-23.4-2.4-43.9-2.4-43.9
					L473.1,510.4z"/>
				<path class="st49" d="M466.4,503.3c-1.1-1-2.5-2-4-1.7c-1,0.2-1.7,1-2.2,1.8s-0.6,1.9-0.8,2.8c-0.3,1.8,4.4,7.6,8.1,6
					c1.1-0.5,5.5-0.6,5.7-1.8C473.1,510.4,469.3,505.9,466.4,503.3z"/>
				<path class="st49" d="M465.7,504c0-2.2-11.5-7.2-11.3-6c-0.3,1.1,4.4,3.1,5.1,3.6C461.4,502.9,462.8,505.7,465.7,504z"/>
				<path class="st49" d="M465.7,504.3c-0.9-2-7.3-2.3-9.2-1.3c-1.1,0.6-1.6,3-0.8,4c1.2-0.2,0.7-1.5,1.4-2.2
					c0.5-0.6,1.3-0.3,2.1-0.1C461.3,505.1,463.7,507,465.7,504.3z"/>
				<path class="st49" d="M467,508.1c-0.4-2.2-6.5-4-8.6-3.5c-1.2,0.3-2.2,2.5-1.8,3.7c1.2,0.1,1.1-1.3,1.9-1.8
					c0.7-0.4,1.3,0.1,2,0.4C462.6,507.8,464.4,510.3,467,508.1z"/>
				<path class="st49" d="M465.5,509.1c-0.4-1.6-5-2.6-6.5-2.1c-0.9,0.3-1.5,2-1.1,2.8c0.9,0,0.7-1,1.3-1.4c0.5-0.3,0.9,0,1.5,0.2
					C462.2,509.1,463.8,510.8,465.5,509.1z"/>
			</g>
			<g>
				<g>
					<linearGradient id="SVGID_42_" gradientUnits="userSpaceOnUse" x1="406.056" y1="543.6386" x2="419.6346" y2="522.3655">
						<stop  offset="3.613782e-02" style="stop-color:#B3BDC3"/>
						<stop  offset="1" style="stop-color:#5D6E79"/>
					</linearGradient>
					<path class="st50" d="M377.5,562l28.5,36.7L401,602l-41.2-34.9c-1.5-1-1.9-3-0.9-4.5l44.8-40l11.9,12.8L377.5,562z"/>
					<path class="st49" d="M414.8,600.3c1.4,0.4,3.1,1,3.6,2.3c0.4,0.9,0.2,2-0.3,2.8c-0.5,0.9-1.2,1.6-1.9,2.3
						c-1.3,1.3-14.5-1.8-15.2-5.8c-0.2-1.2,1-1.5,1.9-2.3C405.9,597.2,411,599.3,414.8,600.3z"/>
					<path class="st49" d="M417.4,601.4c2.1,0.5,3.5,6.8,2.9,8.8c-0.4,1.1-2.7,2.1-3.8,1.5c0-1.2,1.4-1,1.9-1.7
						c0.5-0.6,0-1.3-0.2-2.1C417.4,605.9,415,603.8,417.4,601.4z"/>
					<path class="st49" d="M414.6,601.9c2.1,0.5,3.5,6.8,2.9,8.8c-0.4,1.1-2.7,2.1-3.8,1.5c0-1.2,1.4-1,1.9-1.7
						c0.5-0.6,0-1.3-0.2-2.1C414.5,606.3,412.2,604.3,414.6,601.9z"/>
					<path class="st49" d="M412.4,602.3c2.1,0.5,3.5,6.8,2.9,8.8c-0.4,1.1-2.7,2.1-3.8,1.5c0-1.2,1.4-1,1.9-1.7
						c0.5-0.6,0-1.3-0.2-2.1C412.3,606.7,410,604.7,412.4,602.3z"/>
					<path class="st49" d="M411,603.8c1.6,0.4,2.6,5,2.1,6.5c-0.3,0.8-2,1.5-2.8,1.1c0-0.9,1-0.7,1.4-1.3c0.3-0.5,0-0.9-0.2-1.5
						C410.9,607.1,409.2,605.6,411,603.8z"/>
				</g>
				<path class="st51" d="M402.8,522.9c0.9,0.8,2.2,2.8,3.3,3.9c1.9,1.9,4,3.7,5.7,5.7c0.9,1,3.1,4.8,4.6,4.7
					c-0.1-2.5,1.4-0.9,2.7-1.8c1-0.6,0.1-2.5,2-2.3c0.4-1.6,2.1-2.3,3.2-3.3c1.5-1.4,2.5-3.3,3.4-5.1c1.7-3.3,1.5-6.5,0-9.9
					c-1.4-3.1-2.9-5.4-6.3-6.7c-4.2-1.5-7.5,1.5-10.4,4.1c-1.4,1.3-2.5,2.6-3.7,4.2c-0.9,1.1-1.1,1.2-2.6,1.2
					c-0.2,0.6,0.1,1.4-0.2,1.9c-0.4,0.8-1.3,0.5-1.4,1.5C402.4,521.2,402.2,521.9,402.8,522.9z"/>
			</g>
		</g>
	</g>
	<g>
		<linearGradient id="SVGID_43_" gradientUnits="userSpaceOnUse" x1="713.1296" y1="583.6552" x2="725.3357" y2="623.4701">
			<stop  offset="3.613782e-02" style="stop-color:#B3BDC3"/>
			<stop  offset="1" style="stop-color:#5D6E79"/>
		</linearGradient>
		<path class="st52" d="M720.7,595.1c-1.1,0.4-3.3-0.5-3.3-0.5l-38-24.7l-4.3,4.5c0,0,42.3,41.3,46.6,42.2
			c1.6,0.3,15.9-15,27.1-31.3c-5.4-4.8-11.8-8.7-17.9-12.3C728.6,578.4,721.5,594.8,720.7,595.1z"/>
		<linearGradient id="SVGID_44_" gradientUnits="userSpaceOnUse" x1="727.1664" y1="566.0099" x2="738.271" y2="566.0099">
			<stop  offset="3.613782e-02" style="stop-color:#EAA991"/>
			<stop  offset="1" style="stop-color:#E68E6C"/>
		</linearGradient>
		<path class="st53" d="M761.3,549.9c-7.1-9.3-20.7-5.9-24.6,9.1c0,0.1-7.4,13.2-7.7,14c6.1,3.6,14.6,9.6,20,14.4
			C758.7,573.2,766.1,556.2,761.3,549.9z"/>
		
			<linearGradient id="SVGID_45_" gradientUnits="userSpaceOnUse" x1="697.6964" y1="443.8997" x2="728.2475" y2="422.2322" gradientTransform="matrix(0.248 -0.9688 0.9688 0.248 60.2704 1113.8167)">
			<stop  offset="3.613782e-02" style="stop-color:#B3BDC3"/>
			<stop  offset="1" style="stop-color:#5D6E79"/>
		</linearGradient>
		<path class="st54" d="M668.9,565.2c-1.5-0.3-3.3-0.6-4.5,0.4c-0.8,0.7-1.1,1.7-1.1,2.8c0,1,0.3,2,0.6,3c0.6,1.8,14.3,5.3,16.9,2
			c0.8-1-0.2-1.8-0.7-3C678.6,566.6,672.8,566.1,668.9,565.2z"/>
		
			<linearGradient id="SVGID_46_" gradientUnits="userSpaceOnUse" x1="694.3227" y1="437.8489" x2="724.8738" y2="416.1814" gradientTransform="matrix(0.248 -0.9688 0.9688 0.248 60.2704 1113.8167)">
			<stop  offset="3.613782e-02" style="stop-color:#B3BDC3"/>
			<stop  offset="1" style="stop-color:#5D6E79"/>
		</linearGradient>
		<path class="st55" d="M668.7,566.5c-1.8-1.4-7.9,1.5-9,3.4c-0.7,1.1,0.1,3.5,1.2,4.1c1-0.8-0.1-1.8,0.2-2.7c0.2-0.8,1-0.9,1.8-1.1
			C665.1,569.4,668.3,570,668.7,566.5z"/>
		
			<linearGradient id="SVGID_47_" gradientUnits="userSpaceOnUse" x1="730.3383" y1="491.972" x2="760.8893" y2="470.3045" gradientTransform="matrix(0.723 -0.6909 0.6909 0.723 -199.0271 695.1435)">
			<stop  offset="3.613782e-02" style="stop-color:#B3BDC3"/>
			<stop  offset="1" style="stop-color:#5D6E79"/>
		</linearGradient>
		<path class="st56" d="M670.3,566.9c-0.8-2.2-7.5-2.9-9.5-1.9c-1.1,0.6-1.8,3-1.1,4.2c1.2-0.1,0.9-1.6,1.6-2.2
			c0.6-0.6,1.3-0.2,2.2,0C665.6,567.4,668.1,569.6,670.3,566.9z"/>
		
			<linearGradient id="SVGID_48_" gradientUnits="userSpaceOnUse" x1="690.8021" y1="444.4597" x2="721.3533" y2="422.7922" gradientTransform="matrix(0.3153 -0.949 0.949 0.3153 20.1984 1064.0413)">
			<stop  offset="3.613782e-02" style="stop-color:#B3BDC3"/>
			<stop  offset="1" style="stop-color:#5D6E79"/>
		</linearGradient>
		<path class="st57" d="M671.8,569.4c-1.4-1.8-8-0.5-9.6,1c-0.9,0.9-0.8,3.4,0.2,4.3c1.1-0.5,0.4-1.7,0.8-2.6
			c0.4-0.7,1.2-0.6,2.1-0.6C667.6,571.3,670.5,572.6,671.8,569.4z"/>
		
			<linearGradient id="SVGID_49_" gradientUnits="userSpaceOnUse" x1="695.3419" y1="439.2859" x2="725.893" y2="417.6185" gradientTransform="matrix(0.248 -0.9688 0.9688 0.248 60.2704 1113.8167)">
			<stop  offset="3.613782e-02" style="stop-color:#B3BDC3"/>
			<stop  offset="1" style="stop-color:#5D6E79"/>
		</linearGradient>
		<path class="st58" d="M671,571c-1.2-1.3-5.9,0.1-7,1.3c-0.6,0.7-0.4,2.6,0.3,3.2c0.8-0.4,0.2-1.3,0.5-1.9c0.3-0.5,0.9-0.5,1.5-0.6
			C667.9,572.7,670.2,573.5,671,571z"/>
		
			<linearGradient id="SVGID_50_" gradientUnits="userSpaceOnUse" x1="660.3187" y1="591.6154" x2="664.8959" y2="598.8809" gradientTransform="matrix(-0.9464 -0.3229 -0.3229 0.9464 1487.9823 220.9255)">
			<stop  offset="3.613782e-02" style="stop-color:#B3BDC3"/>
			<stop  offset="1" style="stop-color:#5D6E79"/>
		</linearGradient>
		<path class="st59" d="M673.3,566.8c-0.9,2.2-7.3-1.3-9-1.8c-1.3,1.8,3.1,3.3,4.1,4.1c1.1,0.9,1.3,2.7,2.5,3.5
			c1.2,0.8,2.4,0.7,3.7,0.4c0.6-0.1,1.3-0.4,1.8-0.2"/>
	</g>
	<path class="st23" d="M730.2,628H587.1c-1.1,0-2,0.9-2,2c0,1.1,0.9,2,2,2h31.3v214.7c0,1.1,0.9,2,2,2c1.1,0,2-0.9,2-2V631.9h71.3
		v214.7c0,1.1,0.9,2,2,2c1.1,0,2-0.9,2-2V631.9h32.6c1.1,0,2-0.9,2-2C732.2,628.9,731.3,628,730.2,628z"/>
	<g>
		<g>
			<linearGradient id="SVGID_51_" gradientUnits="userSpaceOnUse" x1="767.1296" y1="740.891" x2="734.6833" y2="688.0323">
				<stop  offset="0" style="stop-color:#73C5D8"/>
				<stop  offset="1" style="stop-color:#1B2B58"/>
			</linearGradient>
			<path class="st60" d="M738,666.6c-1.8,1.6-3.5,3.1-4.8,4.5c-4.8,5.3-26.5,37.1-37.1,58.3c-1.3,2.5,0.4,9.4,3.2,10
				c10,2,49.9,12,52.8,10.8c0.2,0,0.4-0.1,0.6-0.1c0.9,0,1.8,0.5,2.6,1.4c0.1,0,0.3,0,0.4,0c1.6,0,2.8-0.1,3.2-0.2
				c1.6-3.7,3-8.6,2.9-8.7c-0.1-0.1-0.2-0.2-0.4-0.3c-0.7-1.8-1.9-2.7-3.6-2.6c-0.2,0-0.4,0-0.6,0.1c-1.7,1.6-3,1.4-4.1,0.7
				c-0.2-0.1-0.3-0.2-0.6-0.4c-2.6-1.1-5.2-2.8-7.4-2.9c-0.2,0-0.3-0.1-0.5-0.1c-8.6-7.7-20.8-11.7-20.8-11.7
				c-1.2-4.7,53.6-33.3,62.4-44.5c3.1-4,4-9,3.2-14.5H738z"/>
			<path class="st61" d="M764.2,770.1c-0.8-0.5-0.5-1.3,0-1.9c-0.1,0-0.2-0.1-0.3-0.1c-0.6-0.3-0.8-1-0.6-1.7
				c1.3-3.8-1.3-12.8-2.9-13.8c-0.2-0.1-0.3-0.2-0.5-0.3c0.9-3.1,1.7-6.3,2.5-9.5c3.4-0.3,8.7-1.5,10,0c1.4,1.7,2.6,5.9,2.4,8
				c-0.3,4.1-0.7,8.2-0.8,12.3c-0.1,2.7,1.3,6.4,0.3,8.7c-0.9,2-10.2,8.2-12.8,7.5C757.9,778.4,763.7,771.7,764.2,770.1z"/>
		</g>
		<g>
			<path class="st23" d="M788.7,698.4H760l0,0l0,0h-25.3c-0.9,0-1.7,0.7-1.7,1.6s0.8,1.6,1.7,1.6h23.6v51.1h3.4v-51.1h27.1
				c0.9,0,1.7-0.7,1.7-1.6S789.7,698.4,788.7,698.4z"/>
			<rect x="756.4" y="754.1" class="st23" width="7.1" height="5.3"/>
			<path class="st23" d="M781.7,812.8h-18.2v-52h-7.1v52h-18.2c-0.7,0-1.3,0.6-1.3,1.3s0.6,1.3,1.3,1.3h18.2v24.6h7.1v-24.6h18.2
				c0.7,0,1.3-0.6,1.3-1.3S782.4,812.8,781.7,812.8z"/>
			<polygon class="st23" points="756.4,841.7 733.9,846.3 786,846.3 763.5,841.7 			"/>
			<path class="st61" d="M790.6,698.4h-58.5c-2.7,0-4.9-2.2-4.9-4.9v-9.9c0-2.7,2.2-4.9,4.9-4.9h58.5c2.7,0,4.9,2.2,4.9,4.9v9.9
				C795.5,696.2,793.3,698.4,790.6,698.4z"/>
		</g>
		<g>
			
				<linearGradient id="SVGID_52_" gradientUnits="userSpaceOnUse" x1="717.7349" y1="698.49" x2="789.8431" y2="546.1409" gradientTransform="matrix(0.9669 -0.2552 0.2552 0.9669 -137.5949 208.9543)">
				<stop  offset="0" style="stop-color:#73C5D8"/>
				<stop  offset="1" style="stop-color:#1B2B58"/>
			</linearGradient>
			<path class="st62" d="M740.3,663.3c4.4-4,3.3-11.4,2.5-17.7c-0.1-0.9,0.6-1.7,1.6-1.7l40.3,1.7c0.5,0,0.9,0.3,1.2,0.7
				c10.2,15.9,9.2,25.6,0.4,34.7c-9.9,10.3-72.7,34.5-78.3,42.9c12.2,3.2,22,23.3,33.7,41c0.1,0.1,0.2,0.2,0.2,0.4
				c0.3,3.1,3.8,3.3,5.5,5.7c0.1,0.2,0.2,0.3,0.2,0.5c0.4,1.2,0,2.9,0.8,3.4c0.1,0.1,0.1,0.2,0.2,0.3c0.3,0.5,0.7,0.9,1,1.4
				c0.4,0.6,0.4,1.3-0.1,1.9c-2.3,2.6-3.4,4-6,6.9c-0.1-0.1-0.3-0.3-0.8-0.7c-0.1-0.1-0.2-0.2-0.4-0.3c-3.4,0.5-3.7-0.8-4-2.8
				c-0.3-0.5-0.6-1.2-0.9-1.7l0,0c-3.9,0.3-2.9-1.3-4.5-4.1c-0.1-0.1-0.3-0.3-0.5-0.4c-15.1-13.8-41.6-38.2-52.1-48.9
				c-2.6-2.6-2.6-6.8-0.1-9.5C697.9,698.8,735.1,668,740.3,663.3z"/>
			<path class="st61" d="M741.9,804.7c-0.5-0.8,0.1-1.4,0.7-1.8c-0.1-0.1-0.1-0.1-0.2-0.2c-0.4-0.5-0.4-1.3,0.1-1.8
				c2.6-3.1,3.6-12.4,2.5-13.8c-0.1-0.2-0.2-0.3-0.3-0.5c2-2.6,3.9-5.2,5.9-7.8c3.3,1,8.6,1.9,9.3,3.8c0.7,2.1,0.2,6.5-0.8,8.3
				c-1.9,3.7-3.7,7.3-5.4,11.1c-1.1,2.4-1.3,6.4-3,8.1c-1.6,1.5-12.6,3.8-14.7,2.2C732.9,809.9,740.9,805.9,741.9,804.7z"/>
		</g>
		<linearGradient id="SVGID_53_" gradientUnits="userSpaceOnUse" x1="739.9672" y1="543.3463" x2="768.5739" y2="607.1612">
			<stop  offset="3.613782e-02" style="stop-color:#EAA991"/>
			<stop  offset="1" style="stop-color:#E68E6C"/>
		</linearGradient>
		<path class="st63" d="M757.6,536.9c18.8,0,36,15.2,38.4,34c0,0-5.3,73.6-5.3,73.7c-0.1,1.9,0.1,3.8-0.3,5.6
			c-1.2,5.1-9,6.3-13.3,6.8c-10,1.1-21.6,1-30.9-3.4c-4.1-2-3.8-3.4-4.3-7.9l-5.3-69.2C734.7,562.1,743.8,546.1,757.6,536.9z"/>
		<linearGradient id="SVGID_54_" gradientUnits="userSpaceOnUse" x1="753.4001" y1="490.5714" x2="750.7087" y2="511.6881">
			<stop  offset="3.613782e-02" style="stop-color:#7E7627"/>
			<stop  offset="0.9913" style="stop-color:#5F5B28"/>
		</linearGradient>
		<path class="st64" d="M774.2,498.5c-0.9-1.8-2.3-3.4-4.2-4.2c-1.5-0.7-3.2-0.5-4.5-1.7c-1.5-1.4-1.8-2.9-3.9-3.8
			c-1.7-0.7-3.6-0.9-5.5-1c-3.2-0.3-6.8-0.6-9.4-2.6c-2.6-1.9-4.6-4.9-8.2-4.8c-10.4,0.4-12.1,18.7-4.6,23.7l4.5,3.1
			c0.2,0,0.3,0,0.5,0.1c-0.3-1.6-0.1-3.2-0.1-4.8c0-0.2,0.1-0.3,0.3-0.3c2.8-0.3,5.5-0.7,8.3-0.8c1.9-0.1,4.1-0.2,6,0.2
			c0.8,0.2,1.3,0.6,1.6,1.4c0.6,1.7,0.3,3.4,1.2,5.1c0.9,1.6,1.9,3,2.5,4.8c0.9,2.5,1.7,5.1,2.6,7.6c1,2.9,1.6,5.8,2.6,8.7
			c0.4,0,0.8-0.1,1.2-0.4c2.4-2.1,1.5-8.1,2.7-10.9c1.5-3.4,4.8-5.4,6.5-8.8C775.9,505.8,775.8,501.7,774.2,498.5z"/>
		<g>
			
				<linearGradient id="SVGID_55_" gradientUnits="userSpaceOnUse" x1="789.4249" y1="548.9725" x2="797.9462" y2="528.6159" gradientTransform="matrix(-1 0 0 1 1547.1971 0)">
				<stop  offset="3.613782e-02" style="stop-color:#B3BDC3"/>
				<stop  offset="1" style="stop-color:#5D6E79"/>
			</linearGradient>
			<polygon class="st65" points="764.2,525.1 767.5,539.2 746.3,560.7 749.1,548 747.4,533.6 			"/>
			<linearGradient id="SVGID_56_" gradientUnits="userSpaceOnUse" x1="748.8981" y1="519.6548" x2="777.7783" y2="443.5727">
				<stop  offset="3.613782e-02" style="stop-color:#B3BDC3"/>
				<stop  offset="1" style="stop-color:#5D6E79"/>
			</linearGradient>
			<path class="st66" d="M736.4,531.4l0.2-33.6h20.3l0.7,8.3l2.1,2.4l1.6,9.4l1.8,0l0.1-2.1c0.1-1.8,1.5-3.3,3.4-3.3c0,0,0,0,0.1,0
				c1.8,0.1,3.2,1.6,3.2,3.4v2.3c0,1.9-1.5,3.2-3.4,3.3c-1.1,0-2.1,1-2.1,2.1c0,0,0,3.1,0,3.1c0,4.8-26.4,15.1-27.9,6.5
				C736.4,532.7,736.4,532,736.4,531.4z"/>
		</g>
		<g>
			
				<linearGradient id="SVGID_57_" gradientUnits="userSpaceOnUse" x1="752.5246" y1="582.7047" x2="767.3387" y2="564.244" gradientTransform="matrix(0.9959 9.041466e-02 -9.041466e-02 0.9959 45.5494 -65.9057)">
				<stop  offset="3.613782e-02" style="stop-color:#B3BDC3"/>
				<stop  offset="1" style="stop-color:#5D6E79"/>
			</linearGradient>
			<path class="st67" d="M743.3,605.7c-1.2,0.3-3.4-1-3.4-1L704,573.3l-5.1,4c0,0,37.8,49.3,42.2,51c1.6,0.6,18.7-13.2,32.9-28.6
				c-4.9-5.8-11-10.8-16.8-15.5C754,589.5,744.1,605.5,743.3,605.7z"/>
			<path class="st68" d="M792.3,564.7c-5.9-10.8-20.7-9.2-27,5.7c-0.1,0.1-9.7,12.6-10.1,13.4c5.8,4.7,13.7,12.2,18.6,18
				C786.1,588.6,796.3,572,792.3,564.7z"/>
			
				<linearGradient id="SVGID_58_" gradientUnits="userSpaceOnUse" x1="705.157" y1="483.4443" x2="737.2924" y2="460.6533" gradientTransform="matrix(0.3833 -0.9236 0.9236 0.3833 -26.2637 1014.1005)">
				<stop  offset="3.613782e-02" style="stop-color:#B3BDC3"/>
				<stop  offset="1" style="stop-color:#5D6E79"/>
			</linearGradient>
			<path class="st69" d="M693.7,566.9c-1.5-0.6-3.3-1.1-4.7-0.2c-0.9,0.6-1.4,1.7-1.6,2.7c-0.1,1.1,0,2.2,0.2,3.2
				c0.3,1.9,14.1,7.6,17.3,4.6c1-0.9,0.1-2-0.3-3.3C703.7,569.8,697.7,568.4,693.7,566.9z"/>
			
				<linearGradient id="SVGID_59_" gradientUnits="userSpaceOnUse" x1="692.6995" y1="495.7312" x2="713.7267" y2="480.8183" gradientTransform="matrix(0.6365 -0.7713 0.7713 0.6365 -135.9679 773.197)">
				<stop  offset="3.613782e-02" style="stop-color:#B3BDC3"/>
				<stop  offset="1" style="stop-color:#5D6E79"/>
			</linearGradient>
			<path class="st70" d="M693.3,567.9c-0.8-2.3-14.6-3.1-13.9-1.9c0.1,1.2,5.8,1.5,6.6,1.8C688.5,568.4,690.9,570.7,693.3,567.9z"/>
			
				<linearGradient id="SVGID_60_" gradientUnits="userSpaceOnUse" x1="701.6085" y1="477.0797" x2="733.7438" y2="454.2887" gradientTransform="matrix(0.3833 -0.9236 0.9236 0.3833 -26.2637 1014.1005)">
				<stop  offset="3.613782e-02" style="stop-color:#B3BDC3"/>
				<stop  offset="1" style="stop-color:#5D6E79"/>
			</linearGradient>
			<path class="st71" d="M693.4,568.2c-1.7-1.7-8.4,0.4-9.9,2.2c-0.9,1-0.5,3.7,0.7,4.5c1.1-0.6,0.2-1.9,0.6-2.8
				c0.3-0.8,1.2-0.7,2.1-0.9C689.2,570.7,692.4,571.7,693.4,568.2z"/>
			
				<linearGradient id="SVGID_61_" gradientUnits="userSpaceOnUse" x1="700.9294" y1="483.2211" x2="733.0648" y2="460.4301" gradientTransform="matrix(0.4471 -0.8945 0.8945 0.4471 -58.8456 959.1298)">
				<stop  offset="3.613782e-02" style="stop-color:#B3BDC3"/>
				<stop  offset="1" style="stop-color:#5D6E79"/>
			</linearGradient>
			<path class="st72" d="M696.2,571.6c-1.2-2.1-8.3-1.7-10.2-0.3c-1.1,0.8-1.4,3.5-0.5,4.5c1.2-0.3,0.6-1.8,1.2-2.6
				c0.5-0.7,1.3-0.4,2.2-0.4C691.5,573,694.4,574.8,696.2,571.6z"/>
			
				<linearGradient id="SVGID_62_" gradientUnits="userSpaceOnUse" x1="702.6805" y1="478.5913" x2="734.8158" y2="455.8003" gradientTransform="matrix(0.3833 -0.9236 0.9236 0.3833 -26.2637 1014.1005)">
				<stop  offset="3.613782e-02" style="stop-color:#B3BDC3"/>
				<stop  offset="1" style="stop-color:#5D6E79"/>
			</linearGradient>
			<path class="st73" d="M695,573.2c-1-1.5-6.2-0.8-7.5,0.3c-0.8,0.6-0.8,2.6-0.1,3.3c0.9-0.3,0.4-1.3,0.8-1.9
				c0.3-0.5,1-0.4,1.6-0.4C691.7,574.5,693.9,575.7,695,573.2z"/>
		</g>
	</g>
	<g>
		<g>
			<linearGradient id="SVGID_63_" gradientUnits="userSpaceOnUse" x1="885.7808" y1="788.743" x2="885.7808" y2="772.4246">
				<stop  offset="3.613782e-02" style="stop-color:#B3BDC3"/>
				<stop  offset="1" style="stop-color:#5D6E79"/>
			</linearGradient>
			<polygon class="st74" points="878.4,776.5 881,810.7 888.3,811.8 893.2,776.3 			"/>
			<polygon class="st75" points="878,771 878.1,774.9 893.1,774.9 893.6,771 			"/>
			<linearGradient id="SVGID_64_" gradientUnits="userSpaceOnUse" x1="876.492" y1="645.4285" x2="876.492" y2="600.2237">
				<stop  offset="1.135817e-02" style="stop-color:#8B7864"/>
				<stop  offset="1" style="stop-color:#473C32"/>
			</linearGradient>
			<path class="st76" d="M896.7,748.4c1-7.5-2.5-15.4-3.2-22.8c-1.4-14.9,1.4-29.4,2.3-44.2c0.4-6.9,0.9-13.8,1.3-20.7
				c0.1-2.3-0.5-6.7,0.5-8.8c2.8-5.8,3.5-12.4,3.4-18.7c0-1-0.5-14.2-1.6-14.2l-47.6-0.3l0.9,25.7c0.3,3,12.3,31.5,14.5,43.4
				c1.3,7.2,2.5,14.5,3.9,21.7c2.8,14.1,5.5,28.9,6.1,43.5c0,0.4,0,0.7,0,1.1c0,0.3,0,0.5,0,0.8s0,0.5,0,0.8c-2,3.2-2.1,4.3-0.5,7.1
				c0,0.2,0,0.5,0,0.7c-0.3,0.5-0.6,1-0.6,1.5c0,0.5,0.3,0.9,0.6,1.3s0.7,1,1.1,1.5c0,0.2,0,0.5,0,0.7c0.1,1.5,0.1,2.5,0.1,2.5h15.6
				c0,0,0.1-0.7,0.3-1.9c0-0.2,0.1-0.5,0.2-0.7c1-0.9,1.5-1.8,1.6-2.9c0-0.2,0-0.4,0-0.6c-0.2-0.1-0.3-0.3-0.5-0.5
				c-0.1-0.2-0.2-0.3-0.3-0.5c1-2.4,1.1-4.5,0.7-6.3c0-0.3,0-0.8,0-1.2C895.6,756.4,896.7,748.4,896.7,748.4z"/>
			<g>
				<path class="st77" d="M864,831.9c9.5-4,22.7,2.3,30.2-4.4c-0.6-1.9-1.8-4-2-5.6c-0.7-4.3-0.4-8.8-0.6-13.3
					c-1.6,0.5-2,1.6-3.9,1.8c-1.4,0.2-3.1-0.3-4.5-0.6c-0.1-0.9-0.5-2-1.1-3.3c-1.5-0.4-2.9-0.7-4.4-0.8c0.6,2.9,1.4,5.9,1.6,8.8
					c0.3,3.4,1.2,7.3-1.7,9.5c-2,1.5-9.4,3.7-14.9,5.1C863.9,829.4,863.5,830.9,864,831.9z"/>
				<path class="st78" d="M894.2,827.5c-7.5,6.7-20.7,0.4-30.2,4.4c-0.6-1-0.1-2.5-1.3-2.8c-2.6,0.6-4.7,1.1-5.8,1.3
					c-0.9,0.1-4.1-0.1-4.7,0.5c-1.5,1.5,0.3,2.8,1.6,3.3c5.3,2.1,13.2,0.9,18.5-0.3c4.2-1,8.8-2.3,13.3-1.6c2.8,0.4,6.1,1.8,8.5-0.9
					C895,830.4,894.7,829,894.2,827.5z"/>
				<path class="st78" d="M887.6,820.3c-1.4,0-2.8,1.2-2.7,2.7c0.1,1.5,1.2,2.7,2.7,2.7c1.4,0,2.8-1.2,2.7-2.7
					C890.2,821.5,889.1,820.3,887.6,820.3z"/>
			</g>
		</g>
		<g>
			
				<linearGradient id="SVGID_65_" gradientUnits="userSpaceOnUse" x1="760.4178" y1="760.8246" x2="760.4178" y2="744.5062" gradientTransform="matrix(0.644 -0.765 0.765 0.644 -175.7276 858.838)">
				<stop  offset="3.613782e-02" style="stop-color:#B3BDC3"/>
				<stop  offset="1" style="stop-color:#5D6E79"/>
			</linearGradient>
			<polygon class="st79" points="881.9,764.8 909.7,784.8 915.3,779.9 891.2,753.4 			"/>
			<polygon class="st75" points="877.5,761.6 880.5,763.9 890.1,752.5 887.5,749.6 			"/>
			<g>
				<path class="st77" d="M915.1,811.5c3-9.9,16.4-15.9,16-25.9c-1.9-0.7-4.2-1.2-5.6-2.1c-3.7-2.2-7-5.4-10.6-8.1
					c-0.6,1.5-0.1,2.6-1.1,4.2c-0.8,1.2-2.2,2.2-3.3,3.1c-0.7-0.5-1.9-0.9-3.2-1.3c-1.2,0.9-2.4,1.8-3.5,2.8
					c2.6,1.5,5.4,2.8,7.8,4.4c2.8,2,6.3,3.7,6.1,7.4c-0.1,2.5-3.2,9.5-5.7,14.7C913.1,810,913.9,811.2,915.1,811.5z"/>
				<path class="st78" d="M931.1,785.5c0.3,10.1-13,16.1-16,25.9c-1.1-0.2-2-1.5-3-0.8c-1.2,2.4-2.2,4.4-2.7,5.3
					c-0.5,0.8-2.7,3.1-2.6,3.9c0.1,2.1,2.3,1.6,3.6,0.9c5-2.7,9.2-9.5,11.7-14.3c2-3.9,4-8.2,7.3-11.2c2.1-1.9,5.4-3.5,4.8-7.1
					C933.8,786.9,932.6,786.1,931.1,785.5z"/>
				<path class="st78" d="M921.3,786c-0.9,1.1-0.8,2.9,0.3,3.8c1.2,0.9,2.8,0.8,3.8-0.3c0.9-1.1,0.8-2.9-0.3-3.8
					C924,784.8,922.3,784.8,921.3,786z"/>
			</g>
		</g>
		<g>
			<g>
				<g>
					
						<linearGradient id="SVGID_66_" gradientUnits="userSpaceOnUse" x1="870.2362" y1="519.1311" x2="882.5526" y2="517.2524" gradientTransform="matrix(0.8758 0.4827 -0.4827 0.8758 308.4894 -330.975)">
						<stop  offset="3.613782e-02" style="stop-color:#B3BDC3"/>
						<stop  offset="1" style="stop-color:#5D6E79"/>
					</linearGradient>
					<path class="st80" d="M815.6,537l-3.4,5.8c0,0,6.3,3.7,14.7,8.7c1-3.1,2.3-6.1,3.8-9.1L815.6,537z"/>
					<path class="st49" d="M802.3,540c-1.6-0.6-3.3-1.5-3.7-3.1c-0.3-1.1,0.1-2.2,0.7-3.1c0.6-0.9,1.5-1.6,2.4-2.3
						c1.6-1.2,15.9,4.1,16.1,8.6c0.1,1.4-1.2,1.7-2.5,2.3C812.3,543.7,806.3,541.6,802.3,540z"/>
					<path class="st49" d="M802.9,538.8c-2.5,0.1-6-6.1-5.9-8.5c0.1-1.4,2.2-3.1,3.6-2.9c0.4,1.3-1.2,1.5-1.5,2.5
						c-0.3,0.8,0.4,1.4,0.9,2.1C801.5,534,804.7,535.4,802.9,538.8z"/>
					<path class="st49" d="M800.9,538.8c-1.9,0.4-5.4-4.1-5.6-5.9c-0.1-1.1,1.4-2.7,2.5-2.7c0.5,0.9-0.7,1.3-0.9,2.1
						c-0.1,0.7,0.5,1,1,1.5C799.3,535.2,801.9,535.9,800.9,538.8z"/>
					<path class="st49" d="M807.4,538.2c-2.4,0.7-7.4-4.5-7.8-6.8c-0.3-1.3,1.4-3.5,2.8-3.7c0.7,1.1-0.7,1.8-0.8,2.8
						c-0.1,0.9,0.7,1.2,1.4,1.8C804.9,533.9,808.3,534.5,807.4,538.2z"/>
					<path class="st49" d="M807.7,536.2c-1.8,0.4-5.2-3.7-5.4-5.4c-0.1-1,1.2-2.5,2.2-2.6c0.5,0.9-0.6,1.3-0.8,2
						c-0.1,0.6,0.5,1,1,1.4C806,532.9,808.5,533.5,807.7,536.2z"/>
				</g>
			</g>
			<g>
				<g>
					
						<linearGradient id="SVGID_67_" gradientUnits="userSpaceOnUse" x1="788.5891" y1="522.2536" x2="796.2607" y2="521.3142" gradientTransform="matrix(0.999 4.493667e-02 -4.493667e-02 0.999 21.7147 -38.583)">
						<stop  offset="3.613782e-02" style="stop-color:#DF582A"/>
						<stop  offset="1" style="stop-color:#EAA991"/>
					</linearGradient>
					<path class="st81" d="M793.3,537.3L793.3,537.3l-11-37.8l0,0c-0.5,0.1-0.8,0.5-0.6,1l10.5,36.1
						C792.3,537.1,792.8,537.4,793.3,537.3z"/>
					
						<linearGradient id="SVGID_68_" gradientUnits="userSpaceOnUse" x1="807.3351" y1="536.957" x2="800.2897" y2="512.3765" gradientTransform="matrix(0.999 4.493667e-02 -4.493667e-02 0.999 21.7147 -38.583)">
						<stop  offset="3.613782e-02" style="stop-color:#DF582A"/>
						<stop  offset="1" style="stop-color:#EAA991"/>
					</linearGradient>
					<polygon class="st82" points="793.3,537.3 817.3,533.1 806.4,495.3 782.4,499.5 					"/>
					<polygon class="st83" points="793.2,533 815,529.2 805.7,496.9 783.9,500.7 					"/>
				</g>
			</g>
			
				<linearGradient id="SVGID_69_" gradientUnits="userSpaceOnUse" x1="711.999" y1="548.0287" x2="717.56" y2="556.8558" gradientTransform="matrix(-0.3672 -0.9301 -0.9301 0.3672 1585.1359 995.7739)">
				<stop  offset="3.613782e-02" style="stop-color:#B3BDC3"/>
				<stop  offset="1" style="stop-color:#5D6E79"/>
			</linearGradient>
			<path class="st84" d="M815.4,536.7c-0.5-4.6-2.8-1-5.5-9.8c-2.3,0.2-0.5,4.6-0.5,5.9c0.1,1.4-1.2,2.8-1.1,4.3
				c0.1,1.4,1.1,2.3,2.1,3.1c0.5,0.4,1.2,0.7,1.4,1.3"/>
			<linearGradient id="SVGID_70_" gradientUnits="userSpaceOnUse" x1="822.8829" y1="554.9017" x2="860.4534" y2="554.9017">
				<stop  offset="0" style="stop-color:#38419B"/>
				<stop  offset="1" style="stop-color:#13124A"/>
			</linearGradient>
			<path class="st85" d="M855.8,544.7c-0.6-0.3-1.7-1.2-2.4-1.2c-1.3,0-0.6,0.4-1.4,1c-0.7,0.5-0.2,1.3-1.3,1.2
				c-0.7,0-1.1-1.2-1.7-1.4c-1.1-0.5-2.2-0.4-2.9,0.7c-1.2-0.4-1.3-2.1-2.3-2.5c-1.7-0.6-1.7,1.3-2.7,1.4c-1.6,0.2-4.7-5.9-6.1-1.7
				c-2.3-0.7-5.5-1.7-7.3-2.3c-2.6,0.6-4.9,8.6-4.7,11.2c0.1,1,5.4,4.2,7.2,5.1c-2.6,5.5,5.7,2.8,7.6,5c0.5,0.6,0.1,2,0.9,2.5
				c1,0.7,0.9-0.1,1.7-0.1c0.9,0,1.1-0.5,2.2,0.3c0.8,0.6,0.4,1.7,1,2.2c1.1,1,3.1-0.1,4.6,0.7c3.5,1.7,8,2.2,11.7,2.9
				c0.2,0,0.4,0.1,0.6,0.1c0.4-8.4-0.9-17.1-3.1-24.7C856.8,545.2,856.3,545,855.8,544.7z"/>
		</g>
		<linearGradient id="SVGID_71_" gradientUnits="userSpaceOnUse" x1="857.9969" y1="441.071" x2="873.4296" y2="477.9885">
			<stop  offset="6.284054e-02" style="stop-color:#493B38"/>
			<stop  offset="1" style="stop-color:#151211"/>
		</linearGradient>
		<path class="st86" d="M895.3,451.5c0,0.8-0.9,1.5-1,2.3c-0.1,0.8,0.8,1.6,0.7,2.4c-0.1,0.8-1.1,1.4-1.3,2.1
			c-0.2,0.8,0.5,1.7,0.3,2.5c-0.2,0.7-1.3,1.2-1.6,1.9c-0.3,0.7,0.3,1.8,0,2.5c-0.3,0.7-1.5,1-1.9,1.7c-0.4,0.7,0,1.8-0.4,2.5
			c-0.4,0.7-1.6,0.8-2.1,1.4c-0.5,0.6-0.2,1.8-0.7,2.4c-0.5,0.6-1.7,0.5-2.2,1.1c-0.5,0.5-0.5,1.7-1.1,2.2c-0.6,0.5-1.8,0.3-2.4,0.7
			c-0.6,0.5-0.7,1.7-1.4,2.1c-0.6,0.4-1.8,0-2.5,0.4c-0.7,0.4-1,1.5-1.7,1.9c-0.7,0.3-1.8-0.2-2.5,0c-0.7,0.3-1.2,1.4-1.9,1.6
			c-0.7,0.2-1.7-0.5-2.5-0.3c-0.8,0.2-1.4,1.2-2.1,1.3c-0.8,0.1-1.6-0.7-2.4-0.7c-0.8,0.1-1.5,1-2.3,1c-0.8,0-1.5-0.9-2.3-1
			c-0.8-0.1-1.6,0.8-2.4,0.7c-0.8-0.1-1.4-1.1-2.1-1.3c-0.8-0.2-1.7,0.5-2.5,0.3c-0.7-0.2-1.2-1.3-1.9-1.6c-0.7-0.3-1.8,0.3-2.5,0
			c-0.7-0.3-1-1.5-1.7-1.9c-0.7-0.4-1.8,0-2.5-0.4c-0.7-0.4-0.8-1.6-1.4-2.1c-0.6-0.5-1.8-0.2-2.4-0.7c-0.6-0.5-0.5-1.7-1.1-2.2
			c-0.5-0.5-1.7-0.5-2.2-1.1c-0.5-0.6-0.3-1.8-0.7-2.4c-0.5-0.6-1.7-0.7-2.1-1.4c-0.4-0.6,0-1.8-0.4-2.5c-0.4-0.7-1.5-1-1.9-1.7
			c-0.3-0.7,0.2-1.8,0-2.5c-0.3-0.7-1.4-1.2-1.6-1.9c-0.2-0.7,0.5-1.7,0.3-2.5c-0.2-0.8-1.2-1.4-1.3-2.1c-0.1-0.8,0.7-1.6,0.7-2.4
			c-0.1-0.8-1-1.5-1-2.3c0-0.8,0.9-1.5,1-2.3c0.1-0.8-0.8-1.6-0.7-2.4c0.1-0.8,1.1-1.4,1.3-2.1c0.2-0.8-0.5-1.7-0.3-2.5
			c0.2-0.7,1.3-1.2,1.6-1.9c0.3-0.7-0.3-1.8,0-2.5c0.3-0.7,1.5-1,1.9-1.7c0.4-0.7,0-1.8,0.4-2.5c0.4-0.7,1.6-0.8,2.1-1.4
			c0.5-0.6,0.2-1.8,0.7-2.4c0.5-0.6,1.7-0.5,2.2-1.1c0.5-0.5,0.5-1.7,1.1-2.2c0.6-0.5,1.8-0.3,2.4-0.7c0.6-0.5,0.7-1.7,1.4-2.1
			c0.6-0.4,1.8,0,2.5-0.4c0.7-0.4,1-1.5,1.7-1.9c0.7-0.3,1.8,0.2,2.5,0c0.7-0.3,1.2-1.4,1.9-1.6c0.7-0.2,1.7,0.5,2.5,0.3
			c0.8-0.2,1.4-1.2,2.1-1.3c0.8-0.1,1.6,0.7,2.4,0.7c0.8-0.1,1.5-1,2.3-1c0.8,0,1.5,0.9,2.3,1c0.8,0.1,1.6-0.8,2.4-0.7
			c0.8,0.1,1.4,1.1,2.1,1.3c0.8,0.2,1.7-0.5,2.5-0.3c0.7,0.2,1.2,1.3,1.9,1.6c0.7,0.3,1.8-0.3,2.5,0c0.7,0.3,1,1.5,1.7,1.9
			c0.7,0.4,1.8,0,2.5,0.4c0.7,0.4,0.8,1.6,1.4,2.1c0.6,0.5,1.8,0.2,2.4,0.7c0.6,0.5,0.5,1.7,1.1,2.2c0.5,0.5,1.7,0.5,2.2,1.1
			c0.5,0.6,0.3,1.8,0.7,2.4c0.5,0.6,1.7,0.7,2.1,1.4c0.4,0.6,0,1.8,0.4,2.5c0.4,0.7,1.5,1,1.9,1.7c0.3,0.7-0.2,1.8,0,2.5
			c0.3,0.7,1.4,1.2,1.6,1.9c0.2,0.7-0.5,1.7-0.3,2.5c0.2,0.8,1.2,1.4,1.3,2.1c0.1,0.8-0.7,1.6-0.7,2.4
			C894.4,450,895.3,450.7,895.3,451.5z"/>
		<linearGradient id="SVGID_72_" gradientUnits="userSpaceOnUse" x1="874.7852" y1="509.2747" x2="874.7852" y2="619.105">
			<stop  offset="3.613782e-02" style="stop-color:#B9215E"/>
			<stop  offset="1" style="stop-color:#941B56"/>
		</linearGradient>
		<path class="st87" d="M866.3,490.1L866.3,490.1c18.6,0,35.5,15,37.9,33.6l-5,87.2c-0.2,4.5,4.6,8.7,1.8,9.5
			c-1.2,0.3-2.5,0.7-3.7,1.1c-6.5,2.3-24.8,7.4-45-0.2c-4.2-1.6-0.7-4.6-1.2-9l-5.6-83C843.8,514.9,851.3,505.5,866.3,490.1z"/>
		<g>
			
				<linearGradient id="SVGID_73_" gradientUnits="userSpaceOnUse" x1="679.3531" y1="495.4708" x2="685.3716" y2="481.0932" gradientTransform="matrix(-1 0 0 1 1547.1971 0)">
				<stop  offset="3.613782e-02" style="stop-color:#B3BDC3"/>
				<stop  offset="1" style="stop-color:#5D6E79"/>
			</linearGradient>
			<path class="st88" d="M872.9,478.4l3.3,13.9l-0.1,0.1c-3.1,6.9-10.8,10.5-18.1,8.6l0,0l0,0l-1.7-14.3L872.9,478.4z"/>
			<linearGradient id="SVGID_74_" gradientUnits="userSpaceOnUse" x1="861.9004" y1="458.622" x2="861.9004" y2="448.1299">
				<stop  offset="3.613782e-02" style="stop-color:#B3BDC3"/>
				<stop  offset="1" style="stop-color:#5D6E79"/>
			</linearGradient>
			<path class="st89" d="M845.4,484.6l0.2-27.9c0-2.9,2.4-5.2,5.3-5.2h7.9c3.9,0,7.1,3,7.4,6.8l0.1,1.4l2,2.3l1.5,9.2l1.8,0l0.1-2.2
				c0.1-1.8,1.5-3.1,3.3-3.1l0.1,0c1.7,0,3.1,1.5,3.1,3.2v2.5c0,1.8-1.5,3.2-3.4,3.3c-1.1,0.1-2,1-2,2.1c0,0,0,3.1,0,3.1
				c0,4.7-26.1,14.9-27.5,6.4C845.4,485.9,845.4,485.3,845.4,484.6z"/>
		</g>
		<g>
			<g>
				<g>
					
						<linearGradient id="SVGID_75_" gradientUnits="userSpaceOnUse" x1="853.5135" y1="575.3657" x2="866.0874" y2="573.4476" gradientTransform="matrix(0.9954 9.563705e-02 -9.563705e-02 0.9954 45.8413 -77.9167)">
						<stop  offset="3.613782e-02" style="stop-color:#B3BDC3"/>
						<stop  offset="1" style="stop-color:#5D6E79"/>
					</linearGradient>
					<path class="st90" d="M833.5,572l-0.8,6.8c0,0,7.4,1,17.3,2.2c-0.3-3.3-0.3-6.7-0.1-10L833.5,572z"/>
					<path class="st49" d="M822.2,580.1c-1.7,0-3.7-0.1-4.7-1.4c-0.7-0.9-0.8-2.1-0.6-3.2c0.2-1.1,0.8-2.1,1.3-3.1
						c1-1.8,16.5-2.6,18.6,1.5c0.6,1.3-0.6,1.9-1.4,3.1C833.1,580.7,826.7,580,822.2,580.1z"/>
					<path class="st49" d="M822.2,579c-1.6,2-15.4-2-14.3-2.9c0.6-1.2,6.2,0.5,7.1,0.6C817.6,576.8,820.8,575.4,822.2,579z"/>
					<path class="st49" d="M822.3,578.8c-2.3,1.1-8.1-3.3-9-5.6c-0.5-1.3,0.8-3.8,2.2-4.2c0.9,1-0.5,1.9-0.4,2.9
						c0.1,0.9,0.9,1.1,1.7,1.6C819.1,574.8,822.6,574.9,822.3,578.8z"/>
					<path class="st49" d="M826.3,576.3c-1.9,1.6-8.7-1.2-10.1-3.2c-0.8-1.1-0.1-3.9,1.1-4.6c1.1,0.8,0,2,0.3,2.9
						c0.3,0.9,1.2,0.9,2.1,1.1C822.2,573.3,825.6,572.6,826.3,576.3z"/>
					<path class="st49" d="M825.7,574.4c-1.5,1.1-6.3-1.3-7.3-2.9c-0.5-0.9,0.1-2.9,1.1-3.3c0.8,0.6-0.1,1.4,0.1,2.2
						c0.2,0.6,0.8,0.7,1.5,0.9C822.9,572,825.4,571.6,825.7,574.4z"/>
				</g>
				
					<linearGradient id="SVGID_76_" gradientUnits="userSpaceOnUse" x1="743.7429" y1="412.9844" x2="748.5153" y2="420.5598" gradientTransform="matrix(-0.9791 -0.2035 0.2035 -0.9791 1468.8313 1133.199)">
					<stop  offset="3.613782e-02" style="stop-color:#B3BDC3"/>
					<stop  offset="1" style="stop-color:#5D6E79"/>
				</linearGradient>
				<path class="st91" d="M825.4,578.9c0.4-2.4-7.3-2.7-9-3.1c-0.2-2.3,4.5-1.3,5.8-1.5c1.4-0.2,2.6-1.7,4.1-1.8
					c1.5-0.1,2.5,0.7,3.5,1.6c0.4,0.4,0.9,1,1.6,1.2"/>
			</g>
			<path class="st77" d="M904.9,579.8c0.3-0.5,0.4-1,0.3-1.5c-0.6-7.3,1.1-14.5,1.5-21.8c0.8-11.5-0.8-23.5-3.1-34.8
				c-1.3-6.5-3.8-19-11.4-21.3c-7.1-2-14.1,1.4-16.6,8.3c-1.5,4-1.3,8.4-0.2,12.4c1.8,6.8,1.9,13.9,3.5,20.7c0.1,0,0.2,0,0.2,0
				c0,1.3,0,2.6-0.1,3.7c-0.1,1.5-0.8,2.1-1.1,3.3c-0.7,2.2,0.4,1.8,1.3,3.5c1,1.9-0.7,2.6-1,4c-0.4,2,1.3,2.1,1.9,3.7
				c0.9,2.3-0.7,2.6-2.7,2.5c-0.7,0-2.1-0.5-2.7-0.2c-1.2,0.5-0.4,0.6-0.9,1.5c-0.4,0.7,0.4,1.3-0.8,1.7c-0.7,0.2-1.5-0.6-2.2-0.6
				c-1.3,0-2.3,0.5-2.5,1.8c-1.3,0.1-2.1-1.4-3.2-1.4c-1.8,0.1-1.1,1.9-1.9,2.4c-1.4,0.8-6.7-3.6-6.4,0.9c-2.4,0.3-5.8,0.7-7.8,0.8
				c-2.2,1.7-1.1,10,0.1,12.4c0.5,0.9,6.8,1.7,8.8,1.9c-0.2,6.2,6.5,0.3,9.1,1.6c0.7,0.4,0.9,1.8,1.9,2c1.2,0.2,0.8-0.5,1.6-0.8
				c0.9-0.3,0.9-0.9,2.1-0.6c1,0.3,1.1,1.4,1.8,1.6c1.4,0.5,2.9-1.3,4.6-1.3c3.9,0.2,8.4-1.2,12.2-2
				C894.4,583.9,903.1,583.1,904.9,579.8z"/>
		</g>
		<linearGradient id="SVGID_77_" gradientUnits="userSpaceOnUse" x1="851.7389" y1="746.2601" x2="873.1228" y2="674.846">
			<stop  offset="1.135817e-02" style="stop-color:#8B7864"/>
			<stop  offset="1" style="stop-color:#473C32"/>
		</linearGradient>
		<path class="st92" d="M886.2,748.2c-0.2-0.2-0.3-0.4-0.5-0.6c0-1.3-0.4-2.3-1.2-3.1c-0.1-0.2-0.3-0.3-0.5-0.4
			c-0.2,0-0.4,0.1-0.6,0.1c-0.2,0-0.4-0.1-0.6-0.1c-1.2-2.3-2.7-3.7-4.4-4.6c-0.3-0.2-0.7-0.5-0.9-0.7c0,0-5.4-5.9-5.4-5.9
			c-4.9-5.5-13-7.9-19.1-12l7.9-25.5l5.5-11.8l-3.6-19.9c-0.8-4.2-2.6-8.1-5.1-11.5c-1.5-2-3-5-3.5-9c-1.1-8.4-1.8-21.9-1.8-21.9
			l-22.3,96.5v13l13.6,6.7c6.7,4.1,13.4,8.4,19.5,13.2c0.3,0.2,0.6,0.5,0.9,0.7c0.2,0.2,0.4,0.3,0.6,0.5c0.2,0.3,0.6,0.8,0.8,1.2
			c1,3,1.9,3.8,4.9,4.3c0.2,0.2,0.4,0.3,0.6,0.5c0.2,0.5,0.4,1,0.7,1.4c0.4,0.3,0.8,0.4,1.4,0.4c0.5,0.1,1.2,0.1,1.9,0.2
			c0.2,0.2,0.4,0.3,0.6,0.4c1.2,0.9,1.9,1.5,1.9,1.5l10.1-12C887.5,749.6,887,749.1,886.2,748.2z"/>
	</g>
	<g>
		<g>
			<linearGradient id="SVGID_78_" gradientUnits="userSpaceOnUse" x1="580.6158" y1="814.8276" x2="543.2935" y2="692.7617">
				<stop  offset="0" style="stop-color:#2C499D"/>
				<stop  offset="1" style="stop-color:#1B2B58"/>
			</linearGradient>
			<path class="st93" d="M551.9,657.1l32.3,86.2c0,0,3.9,44.4,6.2,71.3c0,0.1,0,0.3,0,0.4c0.1,0.2,0.2,0.3,0.3,0.5
				c0.7,3.7-1.9,5.4,1.3,7.9c0,0.2,0,0.3,0,0.5c-0.1,0.7-0.3,1.4-0.6,2.2c0.1,0.2,0.1,0.3,0.2,0.5c0.8,1.7,1.4,3.4,0.3,5.6
				c0,0.1,0,0.2,0,0.4c0.1,1.4,0.1,1.4,0.1,1.4l-7.9,0.8c0,0,0-0.1-0.1-0.3c-0.5-1.2-4-0.3-3.2-2.9c0.9-0.9,0.9-1.7,1-2.7
				c0-0.1-0.1-0.2-0.1-0.4c-1.7-0.9-2.3-1.9-2.4-3.3c0-0.4,0-0.7,0-1.1c-1.1-1.2,0.6-2.9-1-4.2c-0.1-0.1-0.1-0.3-0.2-0.4
				c-4.4-11.3-9.5-24.8-9.5-24.8c-2.5-8.3-3.6-17-3.3-25.6l0.5-12.1l-53-80.1L551.9,657.1z"/>
			<path class="st15" d="M605.2,843.9c-6.2-4.3-11.5-7.4-12.1-8.9c-0.1-0.2-0.1-0.3-0.2-0.5c-2.9,0.4-5.8,0.6-8.7,1
				c-0.8,3-2.3,8.6-1.1,10c1.3,1.5,6.2,1.6,9.5,1.1c3.6-0.6,4.3,1.4,7.9,1.8c2.4,0.3,13.9,0.3,12.8-1.8
				C612.7,845.3,605.2,843.9,605.2,843.9z"/>
		</g>
		<g>
			<path class="st23" d="M559.4,698.4h-28.8l0,0l0,0h-25.3c-0.9,0-1.7,0.7-1.7,1.6s0.8,1.6,1.7,1.6h23.6v51.1h3.4v-51.1h27.1
				c0.9,0,1.7-0.7,1.7-1.6S560.3,698.4,559.4,698.4z"/>
			<rect x="527" y="754.1" class="st23" width="7.1" height="5.3"/>
			<path class="st23" d="M551.4,810.5h-17.3v-49.8H527v49.8h-17.3c-0.7,0-1.3,0.6-1.3,1.3l0,0c0,0.7,0.6,1.3,1.3,1.3H527v26.9h7.1
				v-26.9h17.3c0.7,0,1.3-0.6,1.3-1.3l0,0C552.7,811.1,552.1,810.5,551.4,810.5z"/>
			<polygon class="st23" points="527,841.7 504.5,846.3 556.7,846.3 534.1,841.7 			"/>
			<path class="st61" d="M561.2,698.4h-58.5c-2.7,0-4.9-2.2-4.9-4.9v-9.9c0-2.7,2.2-4.9,4.9-4.9h58.5c2.7,0,4.9,2.2,4.9,4.9v9.9
				C566.1,696.2,563.9,698.4,561.2,698.4z"/>
		</g>
		<g>
			<g>
				
					<linearGradient id="SVGID_79_" gradientUnits="userSpaceOnUse" x1="666.631" y1="569.6252" x2="650.9376" y2="623.0992" gradientTransform="matrix(0.6687 0.7435 -0.7435 0.6687 557.5588 -258.6381)">
					<stop  offset="3.613782e-02" style="stop-color:#B3BDC3"/>
					<stop  offset="1" style="stop-color:#5D6E79"/>
				</linearGradient>
				<polygon class="st94" points="552,612.2 598.6,622.1 598.5,628 548.7,631.3 				"/>
				
					<linearGradient id="SVGID_80_" gradientUnits="userSpaceOnUse" x1="679.5897" y1="573.4282" x2="663.8962" y2="626.9023" gradientTransform="matrix(0.6687 0.7435 -0.7435 0.6687 557.5588 -258.6381)">
					<stop  offset="3.613782e-02" style="stop-color:#B3BDC3"/>
					<stop  offset="1" style="stop-color:#5D6E79"/>
				</linearGradient>
				<path class="st95" d="M605,615.8c1.1-1,2.5-2,4-1.6c1,0.2,1.7,1,2.2,1.9c0.4,0.9,0.6,1.9,0.8,2.8c0.3,1.8-9.8,10.8-13.4,9.1
					c-1.1-0.5-0.6-1.7-0.8-2.9C597.3,621.3,602,618.3,605,615.8z"/>
				
					<linearGradient id="SVGID_81_" gradientUnits="userSpaceOnUse" x1="679.5329" y1="573.4116" x2="663.8394" y2="626.8856" gradientTransform="matrix(0.6687 0.7435 -0.7435 0.6687 557.5588 -258.6381)">
					<stop  offset="3.613782e-02" style="stop-color:#B3BDC3"/>
					<stop  offset="1" style="stop-color:#5D6E79"/>
				</linearGradient>
				<path class="st96" d="M607.5,614.4c1.7-1.4,7.6,1,8.8,2.7c0.7,1,0.1,3.4-0.9,4c-1-0.7,0-1.7-0.3-2.6c-0.2-0.7-1-0.8-1.8-1
					C611.1,616.9,608.1,617.7,607.5,614.4z"/>
				
					<linearGradient id="SVGID_82_" gradientUnits="userSpaceOnUse" x1="681.2255" y1="573.9083" x2="665.532" y2="627.3824" gradientTransform="matrix(0.6687 0.7435 -0.7435 0.6687 557.5588 -258.6381)">
					<stop  offset="3.613782e-02" style="stop-color:#B3BDC3"/>
					<stop  offset="1" style="stop-color:#5D6E79"/>
				</linearGradient>
				<path class="st97" d="M606.2,616.9c1.7-1.4,7.6,1,8.8,2.7c0.7,1,0.1,3.4-0.9,4c-1-0.7,0-1.7-0.3-2.6c-0.2-0.7-1-0.8-1.8-1
					C609.8,619.5,606.8,620.2,606.2,616.9z"/>
				
					<linearGradient id="SVGID_83_" gradientUnits="userSpaceOnUse" x1="682.594" y1="574.3099" x2="666.9005" y2="627.784" gradientTransform="matrix(0.6687 0.7435 -0.7435 0.6687 557.5588 -258.6381)">
					<stop  offset="3.613782e-02" style="stop-color:#B3BDC3"/>
					<stop  offset="1" style="stop-color:#5D6E79"/>
				</linearGradient>
				<path class="st98" d="M605.3,619c1.7-1.4,7.6,1,8.8,2.7c0.7,1,0.1,3.4-0.9,4c-1-0.7,0-1.7-0.3-2.6c-0.2-0.7-1-0.8-1.8-1
					C608.9,621.5,605.9,622.3,605.3,619z"/>
				
					<linearGradient id="SVGID_84_" gradientUnits="userSpaceOnUse" x1="683.3496" y1="574.5317" x2="667.6561" y2="628.0057" gradientTransform="matrix(0.6687 0.7435 -0.7435 0.6687 557.5588 -258.6381)">
					<stop  offset="3.613782e-02" style="stop-color:#B3BDC3"/>
					<stop  offset="1" style="stop-color:#5D6E79"/>
				</linearGradient>
				<path class="st99" d="M605.7,621c1.2-1.1,5.6,0.7,6.5,2c0.5,0.7,0.1,2.5-0.7,3c-0.7-0.5,0-1.3-0.2-1.9c-0.2-0.5-0.8-0.6-1.3-0.7
					C608.4,622.9,606.2,623.4,605.7,621z"/>
			</g>
			
				<linearGradient id="SVGID_85_" gradientUnits="userSpaceOnUse" x1="572.0437" y1="615.5449" x2="576.6209" y2="622.8104" gradientTransform="matrix(0.9464 -0.3229 0.3229 0.9464 -134.4313 220.9255)">
				<stop  offset="3.613782e-02" style="stop-color:#B3BDC3"/>
				<stop  offset="1" style="stop-color:#5D6E79"/>
			</linearGradient>
			<path class="st100" d="M604.5,618c0.9,2.2,7.3-1.3,9-1.8c1.3,1.8-3.1,3.3-4.1,4.1c-1.1,0.9-1.3,2.7-2.5,3.5
				c-1.2,0.8-2.4,0.7-3.7,0.4c-0.6-0.1-1.3-0.4-1.8-0.2"/>
		</g>
		<linearGradient id="SVGID_86_" gradientUnits="userSpaceOnUse" x1="553.9796" y1="691.6212" x2="536.1065" y2="517.2493">
			<stop  offset="0" style="stop-color:#2C499D"/>
			<stop  offset="1" style="stop-color:#1B2B58"/>
		</linearGradient>
		<path class="st101" d="M551.9,657.1c-4.5-4.7-4.6-7.1-3.5-13.8l-45-1.5c-3.2,13.1-5.7,24.9,2.6,34.7c9.2,10.9,64,40,62.9,44.8
			c-1.1,5.2-14.6,26-27.3,42.9c-0.1,0.1-0.2,0.2-0.3,0.3c-0.5,3.1-4,3.1-5.9,5.3c-0.1,0.2-0.2,0.3-0.2,0.5c-0.4,1.2-0.2,2.9-1,3.3
			c-0.1,0.1-0.2,0.2-0.2,0.3c-0.6,0.8-1.2,1.5-1.8,2.2c2.6,3.4,3.6,4.8,6.3,8.2c0.1-0.1,0.4-0.3,0.8-0.7c0.1-0.1,0.2-0.2,0.4-0.3
			c3.8,0.8,3.8-1,4.4-3.5c0.1-0.1,0.3-0.2,0.4-0.4c0.1-0.1,0.3-0.2,0.4-0.3c3.8,0.6,3-1.2,4.7-3.8c0.2-0.1,0.3-0.3,0.5-0.4
			c16.6-13.3,46-37.1,56.2-46.5c2.1-1.9,2.3-5.1,0.5-7.3C590.9,702.3,556.9,662.2,551.9,657.1z"/>
		
			<linearGradient id="SVGID_87_" gradientUnits="userSpaceOnUse" x1="539.8599" y1="564.9717" x2="524.8142" y2="616.2386" gradientTransform="matrix(1 0 -0.1279 1 73.9423 0)">
			<stop  offset="3.613782e-02" style="stop-color:#F0C32E"/>
			<stop  offset="1" style="stop-color:#EAA928"/>
		</linearGradient>
		<path class="st102" d="M533.9,536.9L533.9,536.9c-18.8,0-36,15.2-38.4,34l5.3,69.2c0.2,5-1.1,10.4,2.7,13.7
			c12,10.6,44.7-2.1,44.7-2.1c4.5,0,0.9-6,1.4-10.5l5.3-64.8C556.8,562.1,548.3,536.9,533.9,536.9z"/>
		<g>
			<linearGradient id="SVGID_88_" gradientUnits="userSpaceOnUse" x1="535.1039" y1="550.2242" x2="535.389" y2="521.9886">
				<stop  offset="3.613782e-02" style="stop-color:#B3BDC3"/>
				<stop  offset="1" style="stop-color:#5D6E79"/>
			</linearGradient>
			<polygon class="st103" points="528.5,525.1 525.2,539.2 540.9,551 544.2,548.9 545.3,533.6 			"/>
			<linearGradient id="SVGID_89_" gradientUnits="userSpaceOnUse" x1="540.246" y1="490.8629" x2="547.6614" y2="510.5422">
				<stop  offset="3.613782e-02" style="stop-color:#DE5353"/>
				<stop  offset="1" style="stop-color:#B60100"/>
			</linearGradient>
			<path class="st104" d="M565.5,490.6c-0.7-4.4-4.6-7.1-8.8-7.4c-1.8-0.1-3.6,0.1-5.3,0.6c-0.5,0.2-4.4,2-4,2.4
				c-4.8-5-15.1-3.1-15.9,4.9c0,0-1.9-0.1-2-0.1c-3.4,0-6.9,2.5-8.5,5.4c-1.7,3-1.6,6,0.3,8.8c0.4,0.5,1.3,1.8,1.8,1.9
				c-0.2,0.4,0.1,1.2,0.2,1.7c0.2,1,4.4,13.9,4.4,16.2c1.2,0.1,2,0.2,2.5,0.3c-0.1-1.8,1.4-4.9,2.3-6.4c0.2-0.4,0.5-0.8,0.7-1.1
				c0-0.2,0-0.4,0.1-0.6c0.5-2.2,0.1-5,1.7-6.8c0.5-0.6,1.6-0.8,2-1.4c0.4-0.6,0-7.3,0.9-8.8c1-1.6,15.2-1.8,16.4-0.7
				c1.2,1.2,1.1,11.6,1.2,11.5c0.3-0.3,0.2-0.9,0.3-1.4c0.4-2.5,1.6-4.8,1.9-7.4c0.2-1.8,1.9-1.9,3.2-2.5
				C564.3,498.2,566,494.3,565.5,490.6z"/>
			<linearGradient id="SVGID_90_" gradientUnits="userSpaceOnUse" x1="542.1973" y1="510.1986" x2="547.331" y2="482.2482">
				<stop  offset="3.613782e-02" style="stop-color:#B3BDC3"/>
				<stop  offset="1" style="stop-color:#5D6E79"/>
			</linearGradient>
			<path class="st105" d="M556.3,531.4l-0.2-33.6h-20.3l-0.7,8.3l-2.1,2.4l-1.6,9.4l-1.8,0l-0.1-2.1c-0.1-1.8-1.5-3.3-3.4-3.3
				c0,0,0,0-0.1,0c-1.8,0.1-3.2,1.6-3.2,3.4v2.3c0,1.9,1.5,3.2,3.4,3.3c1.1,0,2.1,1,2.1,2.1c0,0,0,3.1,0,3.1
				c0,4.8,26.4,15.1,27.9,6.5C556.3,532.7,556.3,532,556.3,531.4z"/>
			<path class="st106" d="M556,508.2H551c-1.2,0-2.1,0.9-2.4,2.1h-1c-0.3-1.2-1.3-2.1-2.6-2.1h-5.5c-1.3,0-2.3,0.9-2.6,2.1h-8.6
				c-2.3,0-4.5,0.8-6.2,2.3l-0.3,0.3c-0.3,0.2-0.3,0.6-0.1,0.9c0.2,0.3,0.6,0.3,0.9,0.1l0.3-0.3c1.5-1.3,3.4-2,5.4-2h8.5l0,1
				c0.1,2.9,2.4,5.2,5.4,5.2h0.8c2.6,0,4.7-2.1,4.7-4.7v-1.5h0.8l0,1c0.1,2.9,2.2,5.2,4.9,5.2h0.7c2.4,0,4.3-2.1,4.3-4.7v-2.1
				C558.5,509.4,557.3,508.2,556,508.2z M546.5,513c0,1.9-1.5,3.4-3.4,3.4h-0.8c-2.3,0-4.1-1.8-4.1-4l0-1.6c0-0.8,0.6-1.4,1.4-1.4
				h5.5c0.8,0,1.5,0.7,1.5,1.5V513z M557.2,513c0,1.9-1.4,3.4-3,3.4h-0.7c-2,0-3.6-1.8-3.7-4l0-1.6c0-0.8,0.6-1.4,1.2-1.4h4.9
				c0.7,0,1.2,0.7,1.2,1.5V513z"/>
		</g>
		<g>
			
				<rect x="581.4" y="554" transform="matrix(0.9903 -0.1388 0.1388 0.9903 -71.4076 86.1992)" class="st78" width="1.7" height="2.1"/>
			
				<rect x="583.3" y="552.7" transform="matrix(0.9903 -0.1388 0.1388 0.9903 -71.1391 87.4659)" class="st78" width="16.3" height="2.1"/>
			<path class="st78" d="M600.4,551.5c-0.2,0-0.3,0-0.4,0l-0.4,0.1l0.3,2.1l0.4-0.1c0.1,0,0.2,0,0.3-0.1L600.4,551.5z"/>
			<path class="st78" d="M601.1,553.3c1.2-0.3,3.1-1,3-1.4s-2-0.5-3.3-0.5L601.1,553.3z"/>
		</g>
		<path class="st107" d="M550.1,592.7c-1,0.6-2.2,1-3.3,0.6c-0.9-0.3-1.5-0.9-2.4-1.2s-4.6-10.4-5-11.2c-0.3-0.6-1-1-1.4-1.5
			c-0.4-0.6-0.4-1.4-0.4-2.1c-0.2-2.2-1.4-4.1-2.4-6c-2.1-4-3.5-8.3-4.7-12.7c0-0.1-0.1-0.3-0.1-0.4c-3.2-10.7-16.9-14.2-24.5-6
			c-1.3,1.4-2.4,3.1-3,5c-2.7,7.8,1.1,16.2,4.3,23.7c0.3,0.8,0.7,1.7,0.6,2.5c-0.2,1.3-1.3,2.4-1.1,3.6c0.3,2,3.4,2.3,4.3,4.2
			c0.4,0.9,0.1,1.9,0.4,2.9c0.2,0.7,0.8,1.3,1.3,1.9c3.3,3.8,6,8,8.1,12.6c1.2,2.7,7.6,11.4,9.5,13.6c1.9,2.3,4.9,3.9,7.7,3.1
			c4.1-1.1,6.9-6.7,11-5.6c0.4,0.1,0.8,0.3,1.2,0.3c1.8,0.1,2.4-2.3,2.3-4.1c0,0,0,0,0,0c1.3,0.2,2.5-0.6,3-1.8
			c0.1-0.4,0.4-0.8,0.7-1.2c0.8-1,1.9-1.6,2.6-2.6c0.2-0.2,0.4-0.5,0.5-0.7C558,606,551.5,596.3,550.1,592.7z"/>
		<g>
			<linearGradient id="SVGID_91_" gradientUnits="userSpaceOnUse" x1="570.5445" y1="578.7545" x2="554.8511" y2="632.2285">
				<stop  offset="3.613782e-02" style="stop-color:#B3BDC3"/>
				<stop  offset="1" style="stop-color:#5D6E79"/>
			</linearGradient>
			<polygon class="st108" points="549.9,592.7 585,567.2 589.3,571.2 558.4,610.5 			"/>
			<linearGradient id="SVGID_92_" gradientUnits="userSpaceOnUse" x1="582.2353" y1="582.1855" x2="566.5418" y2="635.6595">
				<stop  offset="3.613782e-02" style="stop-color:#B3BDC3"/>
				<stop  offset="1" style="stop-color:#5D6E79"/>
			</linearGradient>
			<path class="st109" d="M584.6,558.2c0-1.5,0.2-3.2,1.5-4.1c0.8-0.6,1.9-0.6,2.8-0.4c1,0.3,1.8,0.8,2.6,1.3
				c1.5,1,1.5,14.5-2.2,16.1c-1.1,0.5-1.7-0.6-2.7-1.4C583.5,567.6,584.4,562.1,584.6,558.2z"/>
			<linearGradient id="SVGID_93_" gradientUnits="userSpaceOnUse" x1="582.1785" y1="582.1688" x2="566.485" y2="635.6429">
				<stop  offset="3.613782e-02" style="stop-color:#B3BDC3"/>
				<stop  offset="1" style="stop-color:#5D6E79"/>
			</linearGradient>
			<path class="st110" d="M585.1,555.4c0.1-2.2,5.8-5,7.9-4.7c1.2,0.1,2.6,2.1,2.4,3.4c-1.1,0.3-1.3-1.1-2.1-1.5
				c-0.7-0.3-1.3,0.3-1.9,0.7C589.5,554.5,588,557.2,585.1,555.4z"/>
			<linearGradient id="SVGID_94_" gradientUnits="userSpaceOnUse" x1="583.8712" y1="582.6656" x2="568.1777" y2="636.1396">
				<stop  offset="3.613782e-02" style="stop-color:#B3BDC3"/>
				<stop  offset="1" style="stop-color:#5D6E79"/>
			</linearGradient>
			<path class="st111" d="M586.2,558.1c0.1-2.2,5.8-5,7.9-4.7c1.2,0.1,2.6,2.1,2.4,3.4c-1.1,0.3-1.3-1.1-2.1-1.5
				c-0.7-0.3-1.3,0.3-1.9,0.7C590.5,557.1,589,559.8,586.2,558.1z"/>
			<linearGradient id="SVGID_95_" gradientUnits="userSpaceOnUse" x1="585.2396" y1="583.0672" x2="569.5461" y2="636.5413">
				<stop  offset="3.613782e-02" style="stop-color:#B3BDC3"/>
				<stop  offset="1" style="stop-color:#5D6E79"/>
			</linearGradient>
			<path class="st112" d="M587.1,560.1c0.1-2.2,5.8-5,7.9-4.7c1.2,0.1,2.6,2.1,2.4,3.4c-1.1,0.3-1.3-1.1-2.1-1.5
				c-0.7-0.3-1.3,0.3-1.9,0.7C591.4,559.2,589.9,561.9,587.1,560.1z"/>
			<linearGradient id="SVGID_96_" gradientUnits="userSpaceOnUse" x1="585.9952" y1="583.2889" x2="570.3018" y2="636.763">
				<stop  offset="3.613782e-02" style="stop-color:#B3BDC3"/>
				<stop  offset="1" style="stop-color:#5D6E79"/>
			</linearGradient>
			<path class="st113" d="M588.9,561.1c0-1.6,4.3-3.7,5.8-3.5c0.9,0.1,1.9,1.6,1.7,2.5c-0.8,0.2-0.9-0.8-1.6-1.1
				c-0.5-0.2-0.9,0.2-1.4,0.5C592.1,560.4,591,562.4,588.9,561.1z"/>
		</g>
		<path class="st15" d="M541.4,802.6c0.5-0.9-0.2-1.4-0.9-1.7c0.1-0.1,0.1-0.1,0.2-0.2c0.4-0.6,0.3-1.3-0.2-1.8
			c-2.9-2.9-4.5-12.1-3.5-13.6c0.1-0.2,0.2-0.3,0.3-0.5c-2.2-2.4-4.3-4.9-6.5-7.4c-3.2,1.2-8.5,2.5-9,4.5c-0.5,2.2,0.3,6.5,1.4,8.2
			c2.1,3.5,4.3,7.1,6.2,10.7c1.3,2.4,1.7,6.3,3.6,7.9c1.7,1.4,12.8,2.9,14.8,1.1C550.8,807.2,542.6,803.8,541.4,802.6z"/>
	</g>
	<g>
		<g>
			
				<linearGradient id="SVGID_97_" gradientUnits="userSpaceOnUse" x1="666.2814" y1="567.5947" x2="675.1226" y2="566.5121" gradientTransform="matrix(0.9999 1.323165e-02 -1.323165e-02 0.9999 -13.9941 -18.1518)">
				<stop  offset="0" style="stop-color:#D46461"/>
				<stop  offset="0.9639" style="stop-color:#EAA991"/>
			</linearGradient>
			<path class="st114" d="M653.8,579.5L653.8,579.5l-14-43.1l0,0c-0.6,0.1-0.9,0.7-0.7,1.2l13.4,41.2
				C652.7,579.3,653.3,579.7,653.8,579.5z"/>
			<g>
				
					<linearGradient id="SVGID_98_" gradientUnits="userSpaceOnUse" x1="674.3832" y1="568.4841" x2="688.9312" y2="591.1408" gradientTransform="matrix(0.9649 0.2625 -0.2625 0.9649 158.5739 -172.006)">
					<stop  offset="3.613782e-02" style="stop-color:#EAA991"/>
					<stop  offset="1" style="stop-color:#D46461"/>
				</linearGradient>
				<polygon class="st115" points="653.8,579.5 681.3,573.8 667.3,530.7 639.8,536.4 				"/>
				<polygon class="st83" points="653.5,574.5 678.5,569.3 666.5,532.5 641.6,537.7 				"/>
			</g>
		</g>
	</g>
</g>
</svg>
