<?xml version="1.0" encoding="utf-8"?>
<!-- Generator: Adobe Illustrator 22.1.0, SVG Export Plug-In . SVG Version: 6.00 Build 0)  -->
<svg version="1.1" id="Camada_1" xmlns="http://www.w3.org/2000/svg" xmlns:xlink="http://www.w3.org/1999/xlink" x="0px" y="0px"
	 viewBox="0 0 1280 1024" style="enable-background:new 0 0 1280 1024;" xml:space="preserve">
<style type="text/css">
	.st0{fill:url(#SVGID_1_);}
	.st1{fill:url(#SVGID_2_);}
	.st2{fill:#FFFFFF;}
	.st3{fill:#E2E6E9;}
	.st4{fill:#DEE3E5;}
	.st5{fill:#FAFBFB;}
	.st6{fill:#F7F8F8;}
	.st7{fill:url(#SVGID_3_);}
	.st8{fill:url(#SVGID_4_);}
	.st9{fill:url(#SVGID_5_);}
	.st10{fill:url(#SVGID_6_);}
	.st11{fill:url(#SVGID_7_);}
	.st12{fill:url(#SVGID_8_);}
	.st13{fill:url(#SVGID_9_);}
	.st14{fill:url(#SVGID_10_);}
	.st15{fill:#444444;}
	.st16{fill:url(#SVGID_11_);}
	.st17{fill:url(#SVGID_12_);}
	.st18{fill:url(#SVGID_13_);}
	.st19{fill:url(#SVGID_14_);}
	.st20{fill:url(#SVGID_15_);}
	.st21{fill:url(#SVGID_16_);}
	.st22{fill:url(#SVGID_17_);}
	.st23{fill:#EAA537;}
	.st24{fill:url(#SVGID_18_);}
	.st25{fill:url(#SVGID_19_);}
	.st26{fill:url(#SVGID_20_);}
	.st27{fill:#325897;}
	.st28{fill:url(#SVGID_21_);}
	.st29{fill:url(#SVGID_22_);}
	.st30{fill:url(#SVGID_23_);}
	.st31{fill:url(#SVGID_24_);}
	.st32{fill:url(#SVGID_25_);}
	.st33{fill:url(#SVGID_26_);}
	.st34{fill:url(#SVGID_27_);}
	.st35{fill:url(#SVGID_28_);}
	.st36{fill:url(#SVGID_29_);}
	.st37{fill:url(#SVGID_30_);}
	.st38{fill:url(#SVGID_31_);}
	.st39{fill:url(#SVGID_32_);}
	.st40{fill:url(#SVGID_33_);}
	.st41{fill:url(#SVGID_34_);}
	.st42{fill:url(#SVGID_35_);}
	.st43{fill:url(#SVGID_36_);}
	.st44{fill:url(#SVGID_37_);}
	.st45{fill:url(#SVGID_38_);}
	.st46{fill:url(#SVGID_39_);}
	.st47{fill:url(#SVGID_40_);}
	.st48{fill:url(#SVGID_41_);}
	.st49{fill:#B3BDC3;}
	.st50{fill:url(#SVGID_42_);}
	.st51{fill:#F2CCD1;}
	.st52{fill:url(#SVGID_43_);}
	.st53{fill:url(#SVGID_44_);}
	.st54{fill:url(#SVGID_45_);}
	.st55{fill:url(#SVGID_46_);}
	.st56{fill:url(#SVGID_47_);}
	.st57{fill:url(#SVGID_48_);}
	.st58{fill:url(#SVGID_49_);}
	.st59{fill:url(#SVGID_50_);}
	.st60{fill:url(#SVGID_51_);}
	.st61{fill:#57423A;}
	.st62{fill:url(#SVGID_52_);}
	.st63{fill:url(#SVGID_53_);}
	.st64{fill:url(#SVGID_54_);}
	.st65{fill:url(#SVGID_55_);}
	.st66{fill:url(#SVGID_56_);}
	.st67{fill:url(#SVGID_57_);}
	.st68{fill:#EAA991;}
	.st69{fill:url(#SVGID_58_);}
	.st70{fill:url(#SVGID_59_);}
	.st71{fill:url(#SVGID_60_);}
	.st72{fill:url(#SVGID_61_);}
	.st73{fill:url(#SVGID_62_);}
	.st74{fill:url(#SVGID_63_);}
	.st75{fill:#AB9B88;}
	.st76{fill:url(#SVGID_64_);}
	.st77{fill:#38419B;}
	.st78{fill:#262626;}
	.st79{fill:url(#SVGID_65_);}
	.st80{fill:url(#SVGID_66_);}
	.st81{fill:url(#SVGID_67_);}
	.st82{fill:url(#SVGID_68_);}
	.st83{fill:#E6F7FA;}
	.st84{fill:url(#SVGID_69_);}
	.st85{fill:url(#SVGID_70_);}
	.st86{fill:url(#SVGID_71_);}
	.st87{fill:url(#SVGID_72_);}
	.st88{fill:url(#SVGID_73_);}
	.st89{fill:url(#SVGID_74_);}
	.st90{fill:url(#SVGID_75_);}
	.st91{fill:url(#SVGID_76_);}
	.st92{fill:url(#SVGID_77_);}
	.st93{fill:url(#SVGID_78_);}
	.st94{fill:url(#SVGID_79_);}
	.st95{fill:url(#SVGID_80_);}
	.st96{fill:url(#SVGID_81_);}
	.st97{fill:url(#SVGID_82_);}
	.st98{fill:url(#SVGID_83_);}
	.st99{fill:url(#SVGID_84_);}
	.st100{fill:url(#SVGID_85_);}
	.st101{fill:url(#SVGID_86_);}
	.st102{fill:url(#SVGID_87_);}
	.st103{fill:url(#SVGID_88_);}
	.st104{fill:url(#SVGID_89_);}
	.st105{fill:url(#SVGID_90_);}
	.st106{fill:#2E353A;}
	.st107{fill:#F0C32E;}
	.st108{fill:url(#SVGID_91_);}
	.st109{fill:url(#SVGID_92_);}
	.st110{fill:url(#SVGID_93_);}
	.st111{fill:url(#SVGID_94_);}
	.st112{fill:url(#SVGID_95_);}
	.st113{fill:url(#SVGID_96_);}
	.st114{fill:url(#SVGID_97_);}
	.st115{fill:url(#SVGID_98_);}
</style>
<radialGradient id="SVGID_1_" cx="2009.835" cy="1484.6787" r="56.473" gradientTransform="matrix(1.1283 0 0 0.182 4.4589 536.3855)" gradientUnits="userSpaceOnUse">
	<stop  offset="0" style="stop-color:#D0D7DB"/>
	<stop  offset="1" style="stop-color:#D0D7DB;stop-opacity:0"/>
</radialGradient>
<ellipse class="st0" cx="2272.2" cy="806.6" rx="63.7" ry="10.3"/>
<radialGradient id="SVGID_2_" cx="1008.1978" cy="1562.2495" r="56.473" gradientTransform="matrix(3.1129 0 0 0.182 -1098.3176 536.3855)" gradientUnits="userSpaceOnUse">
	<stop  offset="0" style="stop-color:#D0D7DB"/>
	<stop  offset="1" style="stop-color:#D0D7DB;stop-opacity:0"/>
</radialGradient>
<ellipse class="st1" cx="2040.1" cy="820.7" rx="175.8" ry="10.3"/>
<rect x="1891.1" y="275.8" class="st2" width="62.5" height="76.9"/>
<rect x="1960.4" y="351.6" class="st3" width="33.5" height="33.5"/>
<rect x="2149.4" y="368.6" class="st3" width="33.5" height="33.5"/>
<rect x="1960.4" y="316.3" class="st4" width="23.8" height="23.8"/>
<rect x="1921.7" y="403.8" class="st4" width="56.7" height="23.8"/>
<rect x="1850.9" y="283.2" class="st5" width="33.5" height="56.9"/>
<rect x="1867.6" y="360.8" class="st6" width="89" height="33.5"/>
<rect x="2516.4" y="289.3" class="st4" width="23.8" height="23.8"/>
<rect x="2423.6" y="333.8" class="st6" width="89" height="33.5"/>
<rect x="1576.7" y="394.8" class="st4" width="56.7" height="23.8"/>
<rect x="1522.6" y="351.8" class="st6" width="89" height="33.5"/>
<rect x="1760.6" y="470" class="st4" width="304.4" height="4.7"/>
<g>
	
		<radialGradient id="SVGID_3_" cx="3053.5952" cy="1368.3223" r="56.473" gradientTransform="matrix(0.7498 0 0 0.182 96.9172 536.3855)" gradientUnits="userSpaceOnUse">
		<stop  offset="0" style="stop-color:#D0D7DB"/>
		<stop  offset="1" style="stop-color:#D0D7DB;stop-opacity:0"/>
	</radialGradient>
	<ellipse class="st7" cx="2386.6" cy="785.4" rx="42.3" ry="10.3"/>
	<g>
		<g>
			
				<linearGradient id="SVGID_4_" gradientUnits="userSpaceOnUse" x1="-548.2071" y1="14.7727" x2="-393.2131" y2="14.7727" gradientTransform="matrix(-0.9592 -0.2829 -0.2829 0.9592 1834.2345 283.4448)">
				<stop  offset="0" style="stop-color:#3B695D"/>
				<stop  offset="1" style="stop-color:#98C686"/>
			</linearGradient>
			<path class="st8" d="M2219.1,375.7c13.5,2.8,26.7,7.3,39.4,12.8c6.1,2.6,12.1,6.6,18.4,8.5c7.5,2.3,13,5.1,19.2,9.9
				c11.1,8.5,21.3,18.4,30.7,28.7c4.9,5.3,9.5,10.8,13.9,16.6c5.4,7,11.5,13.5,8.6,22.9c-1.6,5.1-6.6,9.1-12.1,8.9
				c-8.9-0.4-12.3-5.9-17.2-12.3c-4.1-5.4-8.5-10.6-13-15.7c-8.9-9.9-18.6-18.7-28.6-27.4c-5.2-4.6-9.1-8.9-13.4-14.3
				c-3.8-4.7-9.2-8.4-13.9-12.1c-10.8-8.3-22.1-15.6-33.7-22.7C2215.4,378.1,2216.9,375.2,2219.1,375.7z"/>
			
				<linearGradient id="SVGID_5_" gradientUnits="userSpaceOnUse" x1="-572.6639" y1="92.609" x2="-459.8064" y2="92.609" gradientTransform="matrix(-0.9592 -0.2829 -0.2829 0.9592 1834.2345 283.4448)">
				<stop  offset="0" style="stop-color:#3B695D"/>
				<stop  offset="1" style="stop-color:#98C686"/>
			</linearGradient>
			<path class="st9" d="M2246.9,510c3.1-3.7,4.7-8.3,8.8-11.1c3.4-2.3,7.8-3.7,11.8-4.6c10.4-2.2,21.4-0.9,31.6,1.6
				c18.9,4.7,41.4,14.9,53.4,30.9c4.1,5.4,4.9,11,1.7,17.1c-2.6,5.1-8.7,7.2-14.1,6.4c-6.7-1-9.8-6.5-14.5-10.6
				c-6.4-5.6-14.4-9.6-22.3-12.7c-9.5-3.7-18.8-7.3-28.1-11.6c-6.8-3.2-20.6-9.3-27.5-4.4C2247,511.5,2246.4,510.5,2246.9,510z"/>
			
				<linearGradient id="SVGID_6_" gradientUnits="userSpaceOnUse" x1="-660.4905" y1="57.8898" x2="-584.1545" y2="57.8898" gradientTransform="matrix(-0.9592 -0.2829 -0.2829 0.9592 1834.2345 283.4448)">
				<stop  offset="0" style="stop-color:#3B695D"/>
				<stop  offset="1" style="stop-color:#98C686"/>
			</linearGradient>
			<path class="st10" d="M2410.9,481.6c19.8-1.6,36,16.3,43.6,32.9c0.3,0.6-0.2,1.5-1,1.2c-6.2-2.5-11.8-6.3-18.2-8.3
				c-5.6-1.8-12.6-2-18.4-1c-11.7,1.9-14.2,14-16.5,24c-1.7,7.5-10.6,11.7-17.6,9.6c-8-2.3-11-10.1-9.6-17.6
				C2376.9,502.9,2389.4,483.3,2410.9,481.6z"/>
			
				<linearGradient id="SVGID_7_" gradientUnits="userSpaceOnUse" x1="-604.8904" y1="154.2923" x2="-515.6766" y2="154.2923" gradientTransform="matrix(-0.9592 -0.2829 -0.2829 0.9592 1834.2345 283.4448)">
				<stop  offset="0" style="stop-color:#3B695D"/>
				<stop  offset="1" style="stop-color:#98C686"/>
			</linearGradient>
			<path class="st11" d="M2280.1,595.1c4.6-6.9,8.4-13.4,15.3-18.2c7.3-5.1,16.4-8.5,25.4-8.6c19.5-0.3,41.9,13.4,48.1,32.3
				c4.5,13.7-14.3,21.8-23.4,12.7c-4-4-6.7-8.9-11.4-12.3c-4.9-3.5-10.4-5.8-16.2-7.2c-10.8-2.8-25.7-3.4-35.1,3.6
				C2281.3,598.6,2278.8,597,2280.1,595.1z"/>
			
				<linearGradient id="SVGID_8_" gradientUnits="userSpaceOnUse" x1="-674.6923" y1="125.876" x2="-624.6964" y2="125.876" gradientTransform="matrix(-0.9592 -0.2829 -0.2829 0.9592 1834.2345 283.4448)">
				<stop  offset="0" style="stop-color:#3B695D"/>
				<stop  offset="1" style="stop-color:#98C686"/>
			</linearGradient>
			<path class="st12" d="M2416.4,560.1c6.7-3.8,14.1-5.3,21.6-3.3c7,1.9,10.2,6.5,15.1,11.1c1,0.9-0.1,3-1.5,2.4
				c-6.7-2.9-18.8,4.8-23.2,9.7c-6.3,6.9-7.5,17-7.1,25.8c0.8,17.9-28.3,17.6-28-0.5C2393.7,587.3,2400.1,569.4,2416.4,560.1z"/>
			
				<linearGradient id="SVGID_9_" gradientUnits="userSpaceOnUse" x1="-625.8959" y1="214.7751" x2="-553.925" y2="214.7751" gradientTransform="matrix(-0.9592 -0.2829 -0.2829 0.9592 1834.2345 283.4448)">
				<stop  offset="0" style="stop-color:#3B695D"/>
				<stop  offset="1" style="stop-color:#98C686"/>
			</linearGradient>
			<path class="st13" d="M2307.5,637.8c9.2-8,18.4-9,29.6-3.8c12.6,5.8,22,15.6,31.6,25.3c12.8,13.1-8.3,33.1-20.7,19.5
				c-6.9-7.5-12.9-15.5-19.4-23.4c-4.3-5.2-12.6-13.8-19.8-14.5C2307.3,640.8,2306.2,638.9,2307.5,637.8z"/>
			
				<linearGradient id="SVGID_10_" gradientUnits="userSpaceOnUse" x1="-714.5406" y1="196.4438" x2="-657.5734" y2="196.4438" gradientTransform="matrix(-0.9592 -0.2829 -0.2829 0.9592 1834.2345 283.4448)">
				<stop  offset="0" style="stop-color:#3B695D"/>
				<stop  offset="1" style="stop-color:#98C686"/>
			</linearGradient>
			<path class="st14" d="M2415.3,664.1c4.5-0.8,7.4-4,10.3-7.3c4.8-5.4,9.8-10.9,16.4-14c5.3-2.5,10.7-3.4,16.5-2.4
				c6.2,1,8.7,3.5,12.1,8.4c1,1.5,0,3.4-1.9,3c-9.8-2.2-16,15-20,20.6c-6.8,9.3-15.6,17.5-27.3,19.6
				C2403.3,695.2,2397.2,667.4,2415.3,664.1z"/>
			<path class="st15" d="M2281,506.8c37.2,8,70.2,32,89.7,64.6c2,3.3,3.9,6.8,5.7,10.3c-6-26.5-14.4-52.5-25-77.5
				c-9.2-21.6-20-42.5-32.3-62.6c-0.4-0.6,0.6-1.2,1-0.5c22.8,35.4,40.1,74.3,51.8,114.8c1.2,4.2,2.4,8.5,3.5,12.7
				c2.8-19.3,9.3-38.5,17.7-56c3.5-7.4,7-17.5,14.2-22.2c4.6-3,11.4-2.8,14.6,2.1c0,0.1-0.1,0.1-0.1,0.1c-2.5-3.4-6.7-4.2-10.6-3
				c-4.3,1.3-7.3,5.3-9.5,9c-4.4,7.4-7.7,15.6-10.8,23.6c-6.1,16.1-10.3,32.4-13.8,49.2c-0.1,0.4,2.2,13.2,3.5,19.5
				c1.2,3.2,2.7,11,2.1,11.1c3,16.9,6.5,55.9,6.6,57.3c0.1-0.3,0.2-0.5,0.3-0.8c0.2-0.4,0.4-0.6,0.7-0.7
				c10.3-15.2,12.9-32.8,16.8-50.5c3.2-14.1,8.2-35.1,23.4-41.1c0.1-0.1,0.2,0.1,0.1,0.2c-15.2,10.7-18.8,30-22.3,47.1
				c-3.3,16.3-6.1,34.2-17.2,47.3c-0.5,0.6-1.3,13.4-1.3,20.1c0,6.7,0.1,19.7,0.4,19.7c13.2,0.3,20.9-11.9,27.5-21.5
				c5.8-8.4,12.9-16.8,23.6-18.2c0.2,0,0.3,0.3,0.1,0.3c-23.9,4.2-24.8,42.6-51.3,42c-0.4,0-3.3,32-6.1,48c-0.1,0.8-1.5,0.6-1.3-0.2
				c2.3-16.3,3.8-32.7,4.5-49.2c-12.4-3.7-21.1-15.4-27.7-25.9c-7.7-12.1-13.9-24.5-25.7-33.2c-0.3-0.2,0-0.6,0.3-0.4
				c10.9,6,18,17.3,24.4,27.5c7.6,12.1,15.4,23.4,28.7,29.4c0.5-14.9,0.4-29.9-0.5-44.8c-7.3-2.6-12.8-10.6-16.2-17
				c-4.4-8.2-6.7-17.3-10-26c-3.7-9.7-8.9-18.5-17.8-24.3c-8.2-5.4-18.1-7.8-27.8-6.8c-0.2,0-0.2-0.3,0-0.4
				c18-2.7,35.3,6.5,43.9,22.3c4.8,8.8,7.2,18.6,11.1,27.8c2,4.7,4.4,9.4,7.6,13.4c2.6,3.3,5.7,5.5,9,7.8
				c-0.6-8.5-1.4-17.1-2.5-25.6c-1.3-9.9-2.8-19.8-4.7-29.7c-2.7-6.7-5.3-13.4-8.9-19.8c-4.6-8.2-10-16-16.2-23.1
				c-12.3-14.2-26.8-25.9-43.5-34.6c-9.5-4.9-19.6-8.8-30-11.4C2280.5,507.3,2280.6,506.8,2281,506.8z"/>
		</g>
		<g>
			
				<linearGradient id="SVGID_11_" gradientUnits="userSpaceOnUse" x1="-446.5897" y1="973.996" x2="-321.7783" y2="973.996" gradientTransform="matrix(-0.9579 0.2872 0.2872 0.9579 1527.6324 -238.0919)">
				<stop  offset="0" style="stop-color:#3B695D"/>
				<stop  offset="1" style="stop-color:#98C686"/>
			</linearGradient>
			<path class="st16" d="M2109,574.8c10.3-4.1,21.3-6.8,32.2-8.7c5.3-0.9,11-0.9,16.2-2.4c6-1.7,11-2.3,17.3-1.8
				c11.2,0.9,22.5,3,33.4,5.8c5.6,1.5,11.2,3.1,16.6,5.1c6.7,2.4,13.7,4.1,15.9,11.7c1.2,4.1-0.5,9.1-4.2,11.3
				c-6.2,3.6-10.9,1.5-17-0.7c-5.2-1.8-10.4-3.5-15.7-4.9c-10.3-2.8-20.8-4.5-31.3-5.9c-5.5-0.8-10.1-2-15.3-3.8
				c-4.6-1.5-9.9-1.6-14.7-2c-10.9-0.9-21.8-0.8-32.7-0.5C2107.6,578.1,2107.4,575.5,2109,574.8z"/>
			
				<linearGradient id="SVGID_12_" gradientUnits="userSpaceOnUse" x1="-466.2839" y1="1036.6749" x2="-375.4036" y2="1036.6749" gradientTransform="matrix(-0.9579 0.2872 0.2872 0.9579 1527.6324 -238.0919)">
				<stop  offset="0" style="stop-color:#3B695D"/>
				<stop  offset="1" style="stop-color:#98C686"/>
			</linearGradient>
			<path class="st17" d="M2186.9,653.2c0.5-3.8-0.5-7.7,1-11.3c1.3-3,3.6-5.9,5.9-8.3c6-6.1,14.1-10,22-12.8
				c14.8-5.2,34.5-8.2,49.6-2.7c5.1,1.9,8.1,5.3,8.7,10.8c0.5,4.6-2.7,8.7-6.7,10.5c-4.9,2.2-9.5-0.1-14.4-0.8
				c-6.8-0.9-13.9-0.2-20.6,1.2c-8,1.7-15.9,3.4-24,4.6c-6,0.9-18,2.8-20.5,9.1C2187.6,654.2,2186.8,653.7,2186.9,653.2z"/>
			
				<linearGradient id="SVGID_13_" gradientUnits="userSpaceOnUse" x1="-537.0077" y1="1008.7168" x2="-475.537" y2="1008.7168" gradientTransform="matrix(-0.9579 0.2872 0.2872 0.9579 1527.6324 -238.0919)">
				<stop  offset="0" style="stop-color:#3B695D"/>
				<stop  offset="1" style="stop-color:#98C686"/>
			</linearGradient>
			<path class="st18" d="M2285,561.9c12.7-9.8,31.4-4.9,43.9,3c0.4,0.3,0.5,1.1-0.1,1.2c-5.3,1.1-10.7,1-16,2.4
				c-4.6,1.3-9.3,4.2-12.9,7.4c-7.1,6.4-3.4,15.7-0.6,23.4c2.1,5.8-2,12.5-7.7,14.2c-6.4,1.9-11.9-1.9-14.2-7.7
				C2271.4,591.2,2271.3,572.5,2285,561.9z"/>
			
				<linearGradient id="SVGID_14_" gradientUnits="userSpaceOnUse" x1="-492.2349" y1="1086.3464" x2="-420.394" y2="1086.3464" gradientTransform="matrix(-0.9579 0.2872 0.2872 0.9579 1527.6324 -238.0919)">
				<stop  offset="0" style="stop-color:#3B695D"/>
				<stop  offset="1" style="stop-color:#98C686"/>
			</linearGradient>
			<path class="st19" d="M2246.7,696c0.1-6.6-0.2-12.8,2.3-19c2.7-6.7,7.4-12.9,13.4-17c13-8.8,34.2-9.4,46.7,0.6
				c9.1,7.3,0,21-10.2,18.9c-4.5-0.9-8.4-3.1-13.1-3.3c-4.8-0.2-9.6,0.7-14.1,2.3c-8.5,2.9-18.8,9.1-22.1,17.9
				C2249.1,697.8,2246.7,697.8,2246.7,696z"/>
			
				<linearGradient id="SVGID_15_" gradientUnits="userSpaceOnUse" x1="-548.444" y1="1063.4637" x2="-508.1839" y2="1063.4637" gradientTransform="matrix(-0.9579 0.2872 0.2872 0.9579 1527.6324 -238.0919)">
				<stop  offset="0" style="stop-color:#3B695D"/>
				<stop  offset="1" style="stop-color:#98C686"/>
			</linearGradient>
			<path class="st20" d="M2323.2,612.4c2.8-5.5,7.1-9.8,13.1-11.7c5.5-1.8,9.7-0.1,15.1,0.8c1.1,0.2,1.2,2.1,0.1,2.3
				c-5.8,1-10.5,11.5-11.4,16.7c-1.2,7.4,2.4,14.7,6.6,20.5c8.4,11.7-11.3,24.3-19.1,12C2319.9,640.7,2316.3,625.8,2323.2,612.4z"/>
			
				<linearGradient id="SVGID_16_" gradientUnits="userSpaceOnUse" x1="-509.1499" y1="1135.0511" x2="-451.1941" y2="1135.0511" gradientTransform="matrix(-0.9579 0.2872 0.2872 0.9579 1527.6324 -238.0919)">
				<stop  offset="0" style="stop-color:#3B695D"/>
				<stop  offset="1" style="stop-color:#98C686"/>
			</linearGradient>
			<path class="st21" d="M2284,712.7c2.7-9.4,8.4-14.1,18.3-15.6c11.1-1.7,21.7,0.8,32.4,3.2c14.4,3.2,9,25.9-5.4,22.3
				c-8-2-15.5-4.8-23.3-7.2c-5.2-1.6-14.6-3.7-19.7-1.1C2285.2,714.9,2283.7,714,2284,712.7z"/>
			
				<linearGradient id="SVGID_17_" gradientUnits="userSpaceOnUse" x1="-580.5324" y1="1120.2896" x2="-534.6587" y2="1120.2896" gradientTransform="matrix(-0.9579 0.2872 0.2872 0.9579 1527.6324 -238.0919)">
				<stop  offset="0" style="stop-color:#3B695D"/>
				<stop  offset="1" style="stop-color:#98C686"/>
			</linearGradient>
			<path class="st22" d="M2368.2,683c2.7-2.5,3.2-5.9,3.8-9.5c0.9-5.7,1.8-11.7,4.9-16.7c2.5-4,5.8-7,10.1-8.9
				c4.6-2,7.4-1.5,11.8,0.3c1.4,0.5,1.5,2.3,0,2.9c-7.6,2.8-4.2,17.2-4.4,22.7c-0.5,9.3-2.9,18.7-9.8,25.2
				C2373.9,709.2,2357.5,693.2,2368.2,683z"/>
			<path class="st15" d="M2208.5,636.1c28.6-11,61.4-9.3,88.9,4.1c2.8,1.4,5.6,2.8,8.4,4.4c-15.7-15.2-32.8-29.1-51-41.3
				c-15.7-10.5-32.2-19.9-49.3-28c-0.5-0.3-0.1-1,0.4-0.8c31,13.9,59.7,32.5,85.4,54.6c2.7,2.3,5.3,4.7,7.9,7.1
				c-6.6-14.3-10.7-30-12.7-45.5c-0.9-6.5-3-14.9-0.2-21.2c1.8-4,6.5-7,10.8-5.1c0.1,0,0,0.1,0,0.1c-3.2-1.2-6.3,0.1-8.4,2.7
				c-2.3,2.8-2.6,6.8-2.4,10.2c0.3,6.9,1.6,13.9,3.1,20.7c3,13.6,7.3,26.3,12.3,39.3c0.1,0.3,7.3,8,10.9,11.6
				c2.3,1.6,6.6,6.2,6.3,6.5c9.5,10,29,34.8,29.7,35.7c0-0.2-0.1-0.5-0.1-0.7c-0.1-0.3,0-0.6,0.2-0.8c0.3-14.8-5.8-27.8-10.9-41.5
				c-4.1-10.9-9.9-27.3-2.3-38c0.1-0.1,0.2,0,0.2,0.1c-5.6,13.9,0.5,28.5,5.7,41.6c5,12.4,10.9,25.7,9.2,39.5c-0.1,0.6,5,9.6,8,14.1
				c3,4.5,8.7,13.3,9,13.1c9-5.6,8.9-17.2,9.1-26.6c0.2-8.2,1.3-17,7.9-22.6c0.1-0.1,0.3,0.1,0.2,0.2c-14.3,13.4,2,39.7-16.1,50.9
				c-0.3,0.2,11.8,23,17,35c0.2,0.6-0.7,1-1,0.5c-5.6-12-11.8-23.8-18.6-35.1c-10,3-21-1.1-30-5.3c-10.5-4.8-20.1-10.4-31.9-11.1
				c-0.3,0-0.3-0.4,0-0.4c10-0.7,19.8,3.8,28.6,7.8c10.5,4.8,20.7,9,32.3,7.1c-6.2-10.3-12.9-20.3-20.1-30c-6,1.4-13.3-1.6-18.4-4.4
				c-6.6-3.6-12.1-8.7-18.2-13.1c-6.8-4.9-14.1-8.5-22.7-8.6c-7.9,0-15.6,2.7-21.8,7.6c-0.1,0.1-0.3-0.1-0.2-0.2
				c10.9-9.7,26.7-11.1,39.4-4.2c7.1,3.8,13,9.4,19.7,13.8c3.4,2.3,7.1,4.4,11,5.7c3.3,1.1,6.3,1.2,9.5,1.3
				c-4.2-5.5-8.5-10.9-12.9-16.2c-5.2-6.1-10.6-12.1-16.3-17.9c-4.8-3.3-9.5-6.7-14.8-9.5c-6.7-3.5-13.8-6.4-21.1-8.5
				c-14.5-4.2-29.5-5.7-44.5-4.2c-8.6,0.9-17.1,2.7-25.3,5.5C2208.3,636.6,2208.2,636.2,2208.5,636.1z"/>
		</g>
		<g>
			<path class="st23" d="M2405.2,751.2H2368c-1.4,0-2.4,1.3-2.1,2.6l1.4,6.1c0.2,1,1.1,1.6,2.1,1.6h34.5c1,0,1.8-0.7,2.1-1.6
				l1.4-6.1C2407.6,752.4,2406.6,751.2,2405.2,751.2z"/>
			<linearGradient id="SVGID_18_" gradientUnits="userSpaceOnUse" x1="2386.6296" y1="772.4301" x2="2386.6296" y2="760.1233">
				<stop  offset="1.135817e-02" style="stop-color:#EAA537"/>
				<stop  offset="1" style="stop-color:#D5652C"/>
			</linearGradient>
			<path class="st24" d="M2369.9,762.4l3,20.8c0.2,1.4,1.4,2.5,2.8,2.5h21.8c1.4,0,2.6-1,2.8-2.5l3-20.8H2369.9z"/>
		</g>
	</g>
</g>
<g>
	
		<radialGradient id="SVGID_19_" cx="2133.3455" cy="1368.3223" r="56.473" gradientTransform="matrix(0.7498 0 0 0.182 96.9172 536.3855)" gradientUnits="userSpaceOnUse">
		<stop  offset="0" style="stop-color:#D0D7DB"/>
		<stop  offset="1" style="stop-color:#D0D7DB;stop-opacity:0"/>
	</radialGradient>
	<ellipse class="st25" cx="1696.6" cy="785.4" rx="42.3" ry="10.3"/>
	<g>
		<g>
			
				<linearGradient id="SVGID_20_" gradientUnits="userSpaceOnUse" x1="1473.459" y1="571.8196" x2="1442.8353" y2="725.634" gradientTransform="matrix(1.2349 -5.796686e-02 5.741607e-02 1.2232 -123.3939 -113.8013)">
				<stop  offset="1.642628e-03" style="stop-color:#7458BE"/>
				<stop  offset="1" style="stop-color:#1E1641"/>
			</linearGradient>
			<path class="st26" d="M1610,628.8c-1.6-7.3-2.4-15.2,1.5-22.1c1.6-2.9,4.2-5.4,7.3-6.6c10.1-4,19,4.9,24.1,13.5
				c3.9,6.7,7.1,14,13.9,18.4c2.6,1.7,5.6,2.7,8.7,2.6c11.3-0.3,14.5-13,10.8-21.7c-3.1-7.3-9.5-12.6-15.1-18.3
				c-14.8-14.8-25.7-33.3-31.4-53.3c-3.6-12.6-4.9-27.2,4.8-37.4c5-5.3,12.8-7.6,19.7-4.8c8.4,3.3,10,11.4,11.3,18.9
				c1.1,6.2,2.5,12.9,7.9,16.7c3.5,2.5,8.2,2.9,11.5,0.1c3.3-2.8,2.9-6.9,2.6-10.7c-1.4-23.6,6.9-47.7,22.7-65.5
				c8.6-9.7,23.4-17.9,34-9.1c2.7,2.3,4.6,5.4,5.6,8.8c2.5,8.1,0.6,16.2-1.2,24.1l-10.1,43.3c-1,4.1,3.7,7.3,7.2,4.8l30.2-20.7
				c2.8-1.9,6-3.2,9.4-3.4c11.2-0.7,14.3,8.9,14.5,17.1c0.3,18.1-9.4,35.2-22.2,48c-12.9,12.8-28.8,22.1-44.3,31.6
				c-4.8,2.9-9.9,6.2-11.6,11.9c-1,3.2-0.3,6.9,2.3,9.1c4.3,3.7,10.4,1.2,14.9-1.8c13.9-9.1,25.4-22,42.3-25.9
				c6-1.4,12.4-1.1,18.1,1.2c17.7,7.2,16.8,26.1,8.4,38.3c-8.9,12.8-22.1,21.2-34.6,30.1c-25.2,17.8-60.2,49.9-94,39.7
				c-19.8-5.9-37.2-21-49.8-36.8C1619.9,656.9,1613.2,643.3,1610,628.8z"/>
			<g>
				<g>
					<path class="st27" d="M1700.4,750.5c-0.5,0-0.8-0.4-0.9-0.8c-6.2-80.6-1.7-161.5,13.5-240.5c0.1-0.5,0.6-0.8,1-0.7
						c0.5,0.1,0.8,0.6,0.7,1c-15.1,78.8-19.7,159.6-13.5,240C1701.3,750,1700.9,750.4,1700.4,750.5
						C1700.4,750.5,1700.4,750.5,1700.4,750.5z"/>
				</g>
				<g>
					<path class="st27" d="M1703.9,582.1c-5.6,0-11-0.9-16-2.8c-12.7-4.8-21.3-15-26.4-22.7c-6.5-10-10.9-21.4-14.8-31.5
						c-0.2-0.5,0.1-1,0.5-1.1c0.5-0.2,1,0.1,1.1,0.5c3.8,10,8.2,21.4,14.6,31.2c4.9,7.5,13.3,17.3,25.5,22
						c15.2,5.8,34.8,2.1,51.2-9.5c15-10.6,25.9-25.7,36.4-40.3c0.3-0.4,0.8-0.5,1.2-0.2c0.4,0.3,0.5,0.8,0.2,1.2
						c-10.6,14.7-21.6,29.9-36.8,40.7C1729.2,577.8,1716.1,582.1,1703.9,582.1z"/>
				</g>
				<g>
					<path class="st27" d="M1693.8,679.8c-5.9,0-11.6-0.9-16.9-2.7c-21.7-7.2-35.4-28-43.8-43.1c-0.2-0.4-0.1-1,0.3-1.2
						c0.4-0.2,1-0.1,1.2,0.3c8.3,14.8,21.8,35.2,42.8,42.2c18,6,40,1.4,58.9-12.4l3.6-2.6c16-11.7,31.2-22.7,47-39
						c0.3-0.3,0.9-0.4,1.2,0c0.3,0.3,0.4,0.9,0,1.2c-16,16.4-31.2,27.5-47.3,39.2l-3.6,2.6C1723.7,674.5,1708.3,679.8,1693.8,679.8z
						"/>
				</g>
			</g>
		</g>
		<g>
			
				<linearGradient id="SVGID_21_" gradientUnits="userSpaceOnUse" x1="1737.7367" y1="386.7591" x2="1719.4722" y2="478.4966" gradientTransform="matrix(0.9811 0.1933 -0.1933 0.9811 119.7029 -74.1939)">
				<stop  offset="1.642628e-03" style="stop-color:#7458BE"/>
				<stop  offset="1" style="stop-color:#1E1641"/>
			</linearGradient>
			<path class="st28" d="M1679.2,688.3c0.1-3.7,0.7-7.5,3.3-10.3c1.1-1.2,2.6-2,4.2-2.3c5.2-0.7,8.4,4.5,9.7,9.2
				c1,3.6,1.7,7.4,4.4,10.3c1,1.1,2.3,1.9,3.8,2.2c5.3,1.2,8.3-4.5,7.6-9c-0.6-3.8-3-7.1-4.9-10.4c-5.2-8.7-8.2-18.7-8.5-28.8
				c-0.2-6.4,0.9-13.4,6.6-17.1c3-1.9,6.9-2.1,9.8,0c3.5,2.6,3.3,6.6,3.1,10.2c-0.2,3.1-0.3,6.4,1.7,8.8c1.3,1.6,3.5,2.3,5.4,1.4
				c1.8-0.9,2.1-2.9,2.5-4.8c2.1-11.3,8.8-21.8,18.3-28.4c5.2-3.6,13.1-5.8,17-0.4c1,1.4,1.5,3.1,1.6,4.8c0.2,4.1-1.6,7.7-3.4,11.3
				l-9.8,19.3c-0.9,1.8,0.9,3.9,2.8,3.1l16.6-6.3c1.5-0.6,3.2-0.8,4.8-0.5c5.3,1,5.7,5.9,4.8,9.8c-2,8.6-8.5,15.5-16,20.1
				c-7.5,4.6-16.1,7.1-24.4,9.8c-2.6,0.8-5.3,1.8-6.8,4.3c-0.8,1.4-0.9,3.2,0,4.6c1.6,2.3,4.7,1.7,7.2,0.9
				c7.6-2.7,14.5-7.5,22.8-7.4c3,0,5.9,0.9,8.3,2.6c7.5,5.4,4.8,14.3-0.5,19.1c-5.6,5-12.8,7.5-19.7,10.2
				c-13.9,5.5-34,16.6-48.7,7.9c-8.6-5.1-15-14.2-19-23.2C1680.6,702.7,1679,695.5,1679.2,688.3z"/>
			<g>
				<g>
					<path class="st27" d="M1707.5,756.7c0,0-0.1,0-0.1,0c-0.5-0.1-0.8-0.5-0.7-1c6.5-38.9,18-76.6,34.3-112.3
						c0.2-0.4,0.7-0.6,1.2-0.4c0.4,0.2,0.6,0.7,0.4,1.2c-16.2,35.5-27.7,73.1-34.2,111.8C1708.3,756.4,1707.9,756.7,1707.5,756.7z"
						/>
				</g>
				<g>
					<path class="st27" d="M1735.1,678.3c-5.2,0-10.1-1.4-13.9-4c-5.5-3.8-8.4-9.7-9.9-14c-1.9-5.5-2.6-11.5-3.3-16.7
						c-0.1-0.5,0.3-0.9,0.8-1c0.5-0.1,0.9,0.3,1,0.8c0.6,5.2,1.3,11,3.2,16.3c1.4,4,4.1,9.6,9.2,13.1c6.3,4.4,15.8,4.9,24.6,1.4
						c8.2-3.3,15-9.1,21.6-14.8c0.4-0.3,0.9-0.3,1.2,0.1c0.3,0.4,0.3,0.9-0.1,1.2c-6.7,5.7-13.6,11.7-22.1,15.1
						C1743.3,677.5,1739.1,678.3,1735.1,678.3z"/>
				</g>
				<g>
					<path class="st27" d="M1719.9,723.4c-5.6,0-10.9-1.4-15.2-4.2c-9.4-6-13.5-17.5-15.7-25.7c-0.1-0.5,0.1-1,0.6-1.1
						c0.5-0.1,1,0.1,1.1,0.6c2.1,7.9,6,19,15,24.7c7.6,4.8,18.3,5.2,28.6,0.9l2-0.8c8.9-3.7,17.2-7.1,26.5-13c0.4-0.3,1-0.1,1.2,0.3
						c0.3,0.4,0.1,1-0.3,1.2c-9.4,5.9-17.9,9.4-26.8,13.1l-2,0.8C1729.9,722.4,1724.8,723.4,1719.9,723.4z"/>
				</g>
			</g>
		</g>
		<g>
			
				<linearGradient id="SVGID_22_" gradientUnits="userSpaceOnUse" x1="-684.4122" y1="1181.0798" x2="-697.1795" y2="1245.2067" gradientTransform="matrix(-0.916 0.4013 0.4013 0.916 543.9458 -121.9165)">
				<stop  offset="1.642628e-03" style="stop-color:#7458BE"/>
				<stop  offset="1" style="stop-color:#1E1641"/>
			</linearGradient>
			<path class="st29" d="M1700.2,706.7c-0.6-2.5-1.6-5-3.8-6.5c-0.9-0.6-2.1-1-3.2-0.9c-3.6,0.3-5,4.3-5.2,7.7
				c-0.2,2.6,0,5.3-1.4,7.7c-0.5,0.9-1.3,1.7-2.2,2.1c-3.5,1.6-6.3-1.8-6.5-5c-0.2-2.7,0.9-5.3,1.8-7.8c2.2-6.7,2.7-14,1.4-21
				c-0.8-4.4-2.6-9-7.1-10.7c-2.3-0.9-5-0.4-6.7,1.5c-2,2.3-1.3,5-0.6,7.4c0.6,2.1,1.2,4.3,0.1,6.3c-0.7,1.3-2.1,2.1-3.4,1.7
				c-1.4-0.4-1.9-1.7-2.4-2.9c-3.1-7.4-9.3-13.5-16.8-16.6c-4.1-1.7-9.8-2-11.7,2.3c-0.5,1.1-0.6,2.3-0.4,3.5c0.5,2.8,2.3,5,4,7.2
				l9.6,11.7c0.9,1.1,0,2.8-1.4,2.6l-12.3-1.8c-1.1-0.2-2.3-0.1-3.4,0.4c-3.5,1.5-3,4.9-1.8,7.4c2.6,5.6,8.1,9.3,14,11.3
				s12,2.4,18.2,3c1.9,0.2,3.9,0.4,5.3,1.9c0.8,0.8,1.1,2.1,0.7,3.1c-0.7,1.8-3,1.9-4.8,1.7c-5.6-0.7-11-2.9-16.7-1.6
				c-2,0.5-3.9,1.5-5.3,3.1c-4.3,4.8-1.1,10.5,3.2,12.9c4.6,2.6,9.9,3.2,15,4c10.3,1.7,25.7,6.2,34.4-2c5.1-4.8,8.1-12,9.5-18.7
				C1701.4,716.7,1701.4,711.6,1700.2,706.7z"/>
			<g>
				<g>
					<path class="st27" d="M1691.1,757.9c-0.3,0-0.7-0.2-0.8-0.6c-10.2-25.4-23.8-49.3-40.2-71.1c-0.3-0.4-0.2-0.9,0.2-1.2
						c0.4-0.3,0.9-0.2,1.2,0.2c16.5,21.9,30.1,45.9,40.4,71.5c0.2,0.5,0,1-0.5,1.1C1691.3,757.9,1691.2,757.9,1691.1,757.9z"/>
				</g>
				<g>
					<path class="st27" d="M1655.7,709.1c-1.3,0-2.7-0.1-4.1-0.3c-6.3-1-12-4-17.4-7c-0.4-0.2-0.6-0.8-0.4-1.2
						c0.2-0.4,0.8-0.6,1.2-0.4c5.3,2.9,10.9,5.8,16.9,6.8c6.5,1.1,12.8-0.7,16.4-4.6c2.9-3.1,3.9-7.3,4.2-10.2
						c0.5-3.9,0.1-8-0.3-11.6c0-0.5,0.3-0.9,0.8-1c0.5,0,0.9,0.3,1,0.8c0.4,3.7,0.8,7.9,0.3,12c-0.4,3.2-1.5,7.7-4.7,11.2
						C1666.3,707.2,1661.3,709.1,1655.7,709.1z"/>
				</g>
				<g>
					<path class="st27" d="M1672.1,737.7c-1.7,0-3.4-0.2-5.2-0.5l-1.5-0.3c-6.7-1.2-12.9-2.3-20.3-4.9c-0.5-0.2-0.7-0.7-0.5-1.1
						c0.2-0.5,0.7-0.7,1.1-0.5c7.2,2.6,13.4,3.7,20,4.8l1.5,0.3c7.6,1.3,14.8-0.5,19.2-4.9c5.2-5.2,6.1-13.3,6.4-18.9
						c0-0.5,0.5-0.9,0.9-0.8c0.5,0,0.9,0.4,0.8,0.9c-0.3,5.9-1.3,14.5-6.9,20.1C1683.9,735.6,1678.3,737.7,1672.1,737.7z"/>
				</g>
			</g>
		</g>
		<g>
			<path class="st23" d="M1716,750.1h-37.2c-1.4,0-2.4,1.3-2.1,2.6l1.4,6.1c0.2,1,1.1,1.6,2.1,1.6h34.5c1,0,1.8-0.7,2.1-1.6l1.4-6.1
				C1718.4,751.4,1717.4,750.1,1716,750.1z"/>
			<linearGradient id="SVGID_23_" gradientUnits="userSpaceOnUse" x1="1697.4331" y1="771.3912" x2="1697.4331" y2="759.0845">
				<stop  offset="1.135817e-02" style="stop-color:#EAA537"/>
				<stop  offset="1" style="stop-color:#D5652C"/>
			</linearGradient>
			<path class="st30" d="M1680.7,761.4l3,20.8c0.2,1.4,1.4,2.5,2.8,2.5h21.8c1.4,0,2.6-1,2.8-2.5l3-20.8H1680.7z"/>
		</g>
	</g>
</g>
<radialGradient id="SVGID_24_" cx="1318.7977" cy="1484.6787" r="56.473" gradientTransform="matrix(1.5915 0 0 0.182 -296.4203 536.3855)" gradientUnits="userSpaceOnUse">
	<stop  offset="0" style="stop-color:#D0D7DB"/>
	<stop  offset="1" style="stop-color:#D0D7DB;stop-opacity:0"/>
</radialGradient>
<ellipse class="st31" cx="1802.4" cy="806.6" rx="89.9" ry="10.3"/>
<g>
	<linearGradient id="SVGID_25_" gradientUnits="userSpaceOnUse" x1="1849.7931" y1="437.2663" x2="1849.7931" y2="505.3009">
		<stop  offset="0" style="stop-color:#62A499"/>
		<stop  offset="1" style="stop-color:#366064"/>
	</linearGradient>
	<path class="st32" d="M1812.8,423c6.1,0.1,8.7-6.7,13.8-8.7c8.1-3.3,19.4-2.5,25.3,4.6c1.6,2,2.9,5.5,5.1,6.8
		c3.5,2.2,7.1,0.9,10.2,4.5c7.1,8.3-4.1,19.3,0.5,28.8c3.1,6.3,12.1,4.7,17,9.3c5,4.7,6.8,10.9,3.8,16.9c-1.3,2.6-6.1,7.9-1.6,10
		c0.8,0.4,1.8,0.5,2.7,0.7c8.6,1.7,17,7.1,20.7,15.1c9.6,20.6-9.5,37.3-27.2,43.9c-14.2,5.3-29.5,4.5-43.6-0.9
		c-20.8-8.1-47.4-23.1-46.5-48.8c0.2-6.3,5.1-12.6,2.8-18.8c-1.5-4.1-4.4-7.4-6.3-11.2c-2-4.1-3-8.7-2.7-13.2c0.2-2.6,0.7-5.3,2-7.5
		c2.5-4.4,7.3-4.9,10.5-8.3c2.1-2.3,3.4-5.3,3.6-8.4c0.2-3.3-1.6-6.3-0.4-9.6C1804,423.9,1808.9,422.9,1812.8,423z"/>
	<linearGradient id="SVGID_26_" gradientUnits="userSpaceOnUse" x1="1854.2074" y1="501.3264" x2="1860.97" y2="530.2554">
		<stop  offset="3.613782e-02" style="stop-color:#B3BDC3"/>
		<stop  offset="1" style="stop-color:#5D6E79"/>
	</linearGradient>
	<polygon class="st33" points="1856.8,502.5 1871,528 1863.2,534.7 1845.6,509.6 	"/>
	
		<linearGradient id="SVGID_27_" gradientUnits="userSpaceOnUse" x1="1694.515" y1="709.6454" x2="1700.3192" y2="734.4748" gradientTransform="matrix(1.0474 -0.2091 0.274 1.083 -132.997 67.4197)">
		<stop  offset="0" style="stop-color:#F2CCD1"/>
		<stop  offset="1" style="stop-color:#CC7272"/>
	</linearGradient>
	<path class="st34" d="M1845.6,514.3c0.9-0.7,12.9-10.6,13-12.1c-2.5-0.7-0.8-1.7-1.5-3.3c-0.5-1.2-2.5-0.9-2.1-2.7
		c-1.5-0.9-2.1-2.8-3-4.3c-1.2-2-3-3.6-4.7-5c-3.1-2.7-6.3-3.6-9.8-3.1c-3.2,0.5-5.7,1.2-7.2,4.2c-1.9,3.7,0.8,8.1,3.1,11.7
		c1.2,1.9,2.4,3.3,3.8,5c1,1.2,1.1,1.5,1,3c0.5,0.4,1.4,0.4,1.8,0.8c0.7,0.6,0.4,1.5,1.4,1.8
		C1841.4,511.1,1844.5,514.5,1845.6,514.3z"/>
	<g>
		<linearGradient id="SVGID_28_" gradientUnits="userSpaceOnUse" x1="1803.0001" y1="731.0051" x2="1816.6901" y2="647.7243">
			<stop  offset="0" style="stop-color:#2E353A"/>
			<stop  offset="1" style="stop-color:#000006"/>
		</linearGradient>
		<path class="st35" d="M1853,578.9c-20.8,7.5-38.7-0.2-47.5,10.7c-5.7,7-3.1,22.5-3.7,26.8c-3.4,22.4,3,36.5,7.9,65.4
			c-11.6,6.2-19.3,20-21.1,30.1c-0.8,4.4-2.6,10.5-4.8,17c-3.4,10-7.8,20.8-10.5,27.3c2.8,1.6,4.8,2.9,8.5,3
			c3.7-8.5,8.7-16.9,13.9-25.3c8.7-13.8,18.2-27.6,24.1-41.4c11.2-11.7,23.4-53.3,26.4-69.2C1848.5,611.1,1850.7,594,1853,578.9z"/>
		
			<linearGradient id="SVGID_29_" gradientUnits="userSpaceOnUse" x1="1741.584" y1="229.1028" x2="1741.584" y2="229.279" gradientTransform="matrix(0.9215 0.3883 -0.3883 0.9215 265.4239 -127.0383)">
			<stop  offset="0" style="stop-color:#F2CCD1"/>
			<stop  offset="1" style="stop-color:#CC7272"/>
		</linearGradient>
		<path class="st36" d="M1781.3,760.4c0,0,0,0.1,0,0.1C1781.3,760.5,1781.3,760.4,1781.3,760.4z"/>
		<g>
			
				<linearGradient id="SVGID_30_" gradientUnits="userSpaceOnUse" x1="1731.4792" y1="249.4514" x2="1731.3843" y2="241.5607" gradientTransform="matrix(0.9215 0.3883 -0.3883 0.9215 265.4239 -127.0383)">
				<stop  offset="0" style="stop-color:#F2CCD1"/>
				<stop  offset="1" style="stop-color:#CC7272"/>
			</linearGradient>
			<polygon class="st37" points="1766.7,764 1760.2,784.1 1761.2,784.5 1768.4,769.6 			"/>
			
				<linearGradient id="SVGID_31_" gradientUnits="userSpaceOnUse" x1="1741.0737" y1="236.1268" x2="1741.0737" y2="226.283" gradientTransform="matrix(0.9215 0.3883 -0.3883 0.9215 265.4239 -127.0383)">
				<stop  offset="3.613782e-02" style="stop-color:#B3BDC3"/>
				<stop  offset="1" style="stop-color:#5D6E79"/>
			</linearGradient>
			<path class="st38" d="M1780.5,775c0.1-5.6-0.7-9.8,0.8-14.4c-0.1,0.3-0.8,0.7-4.2-0.7c-4.4-1.7-4.1-3-4.1-3
				c-0.6,1.1-1.4,1.6-2.1,1.9c1.9,9.4-2.9,18.3,0.2,28.1c1.2,4.3,4.2,3.3,8,2.9c-0.1-0.4,0-0.9-0.2-2
				C1777.9,782.9,1780.4,779.8,1780.5,775z"/>
			
				<linearGradient id="SVGID_32_" gradientUnits="userSpaceOnUse" x1="1742.3698" y1="223.3935" x2="1742.3698" y2="263.4437" gradientTransform="matrix(0.9215 0.3883 -0.3883 0.9215 265.4239 -127.0383)">
				<stop  offset="0" style="stop-color:#F2CCD1"/>
				<stop  offset="1" style="stop-color:#CC7272"/>
			</linearGradient>
			<path class="st39" d="M1771.1,786.9c-3.2-9.8,1.6-18.7-0.2-28.1c-1.6,0.6-3.2,0.3-4.2,2.6c-1.4,3.1,0.4,5.4,1.8,8.2
				c2.5,5,0.4,9.9,0,14.9c-0.3,3.6,0.7,4.8,3.2,7.2c2.3,2.2,3.9,2.3,7.6,3.7c3.3,1.3,5.2-0.8,2.1-3.3c-1.8-1.5-2.2-1.7-2.3-2.3
				C1775.3,790.2,1772.3,791.2,1771.1,786.9z"/>
		</g>
	</g>
	<g>
		<linearGradient id="SVGID_33_" gradientUnits="userSpaceOnUse" x1="1824.6187" y1="621.6505" x2="1824.6187" y2="502.4036">
			<stop  offset="0" style="stop-color:#2E353A"/>
			<stop  offset="1" style="stop-color:#000006"/>
		</linearGradient>
		<path class="st40" d="M1835.6,574.7c-9.9,0.2-19.7-3.2-29-7.2c-0.4,1.9-18.2,17.3-7.3,48.4c6.9,28,16.1,54.2,19.2,76.6
			c-8.3,10.2-10,26-7.7,35.9c1,4.4,1.7,10.7,2.2,17.5c0.7,10.5,0.9,22.2,0.9,29.3c3.2,0.4,5.6,0.9,9-0.5c0.1-9.2,1.4-18.9,3-28.8
			c2.6-16.1,6-32.5,6.1-47.5c5.8-15.1,6.7-83.2,7.8-94.7c1.2-12.5,5.5-4.4,10.8-15.7c2.5-5.3,2.9-14.8,2.9-17.2
			C1848.2,573.7,1842.1,574.5,1835.6,574.7z"/>
		<linearGradient id="SVGID_34_" gradientUnits="userSpaceOnUse" x1="1822.9055" y1="775.8936" x2="1822.9055" y2="776.0697">
			<stop  offset="0" style="stop-color:#F2CCD1"/>
			<stop  offset="1" style="stop-color:#CC7272"/>
		</linearGradient>
		<path class="st41" d="M1822.9,775.9c0,0,0,0.1,0,0.1C1822.9,776,1822.9,775.9,1822.9,775.9z"/>
		<g>
			<linearGradient id="SVGID_35_" gradientUnits="userSpaceOnUse" x1="1812.8009" y1="796.2422" x2="1812.7058" y2="788.3514">
				<stop  offset="0" style="stop-color:#F2CCD1"/>
				<stop  offset="1" style="stop-color:#CC7272"/>
			</linearGradient>
			<polygon class="st42" points="1810.8,784.9 1812.6,805.9 1813.7,805.9 1814.6,789.4 			"/>
			<linearGradient id="SVGID_36_" gradientUnits="userSpaceOnUse" x1="1822.3953" y1="782.9175" x2="1822.3953" y2="773.0737">
				<stop  offset="3.613782e-02" style="stop-color:#B3BDC3"/>
				<stop  offset="1" style="stop-color:#5D6E79"/>
			</linearGradient>
			<path class="st43" d="M1827.7,789.7c-2.1-5.2-4.4-8.7-4.8-13.6c0,0.3-0.5,0.9-4.2,1c-4.7,0.1-4.9-1.1-4.9-1.1
				c-0.2,1.3-0.7,2-1.2,2.5c5.4,7.9,4.4,18,11.1,25.8c2.8,3.5,5.2,1.4,8.5-0.5c-0.2-0.3-0.4-0.8-1-1.8
				C1828.5,798,1829.5,794.2,1827.7,789.7z"/>
			<linearGradient id="SVGID_37_" gradientUnits="userSpaceOnUse" x1="1823.6914" y1="770.1842" x2="1823.6914" y2="810.2344">
				<stop  offset="0" style="stop-color:#F2CCD1"/>
				<stop  offset="1" style="stop-color:#CC7272"/>
			</linearGradient>
			<path class="st44" d="M1823.7,804.3c-6.7-7.9-5.8-17.9-11.1-25.8c-1.2,1.2-2.8,1.5-2.9,4c-0.1,3.4,2.5,4.8,4.8,6.8
				c4.2,3.6,4.2,8.9,5.8,13.7c1.1,3.4,2.5,4.1,5.7,5.4c3,1.2,4.4,0.6,8.5,0.5c3.5-0.1,4.5-2.7,0.6-3.8c-2.2-0.6-2.7-0.8-3-1.3
				C1828.9,805.7,1826.5,807.8,1823.7,804.3z"/>
		</g>
	</g>
	<linearGradient id="SVGID_38_" gradientUnits="userSpaceOnUse" x1="1828.6984" y1="493.7969" x2="1841.9462" y2="628.6842">
		<stop  offset="0" style="stop-color:#F2CCD1"/>
		<stop  offset="1" style="stop-color:#CC7272"/>
	</linearGradient>
	<path class="st45" d="M1818.9,540.9c0.1,3-8.4,18.2-12.4,26.6c4.3,5,15.1,8.4,23.7,8.8c7.2,0.3,16.1,0.3,23.3-2.4l-3.4-43.5
		c0,0,15.7-4.7,8.4-16.8c-6.8-11.2-17.8-33.5-25.3-33.5c-1.9-2-4.7-3.1-7.5-2.9c-8.7,0.7-12.7,3.6-16.8,10.6
		c-3.6,6.3-7.7,15.4-5.7,22.3L1818.9,540.9z"/>
	<g>
		
			<linearGradient id="SVGID_39_" gradientUnits="userSpaceOnUse" x1="1837.2483" y1="391.2529" x2="1837.7389" y2="342.6859" gradientTransform="matrix(0.9964 8.440301e-02 -8.440301e-02 0.9964 34.4185 -39.0873)">
			<stop  offset="3.613782e-02" style="stop-color:#B3BDC3"/>
			<stop  offset="1" style="stop-color:#5D6E79"/>
		</linearGradient>
		<polygon class="st46" points="1824.5,461.8 1822.4,477.8 1844.2,508.3 1836.6,483.5 1838.4,471.2 		"/>
		<linearGradient id="SVGID_40_" gradientUnits="userSpaceOnUse" x1="1836.0538" y1="448.4998" x2="1838.9709" y2="436.5664">
			<stop  offset="3.613782e-02" style="stop-color:#B3BDC3"/>
			<stop  offset="1" style="stop-color:#5D6E79"/>
		</linearGradient>
		<path class="st47" d="M1848.9,441.1c0.1,4.4-1.2,8.6-5.4,11.7c-3.2,2.4-13.1,6-18.1,2.3c-0.1-0.1-0.1-0.3-0.1-0.4l-0.1,0l0.1-2.3
			c0.1-1.8-1.3-3.3-3.1-3.4l-0.1,0c-1.7-0.1-3.3,1.2-3.4,3l-0.2,2.5c-0.2,1.9,1.3,3.3,3.1,3.6c1.1,0.1,1.9,1.2,1.8,2.3
			c0,0-0.1,1.4-0.1,1.4c-0.4,4.8,20.6,16.7,22.8,11.9c0.2-0.4,4.1-12.9,5.1-23c0.3-2.6,0.1-5.8-0.1-8.4
			C1850.4,441.7,1849.6,441.4,1848.9,441.1z"/>
	</g>
	<g>
		<linearGradient id="SVGID_41_" gradientUnits="userSpaceOnUse" x1="1867.394" y1="521.6879" x2="1867.394" y2="547.9029">
			<stop  offset="3.613782e-02" style="stop-color:#B3BDC3"/>
			<stop  offset="1" style="stop-color:#5D6E79"/>
		</linearGradient>
		<path class="st48" d="M1865.1,485.4l9.7,42.1c2.4,7.1-4.3,12.8-10,9.1c-1.8-1.2-2.9-3.3-3-5.5c-0.8-23.4-2.4-43.9-2.4-43.9
			L1865.1,485.4z"/>
		<path class="st49" d="M1858.4,478.3c-1.1-1-2.5-2-4-1.7c-1,0.2-1.7,1-2.2,1.8c-0.5,0.9-0.6,1.9-0.8,2.8c-0.3,1.8,4.4,7.6,8.1,6
			c1.1-0.5,5.5-0.6,5.7-1.8C1865.1,485.4,1861.3,480.9,1858.4,478.3z"/>
		<path class="st49" d="M1857.7,479c0-2.2-11.5-7.2-11.3-6c-0.3,1.1,4.4,3.1,5.1,3.6C1853.4,477.9,1854.8,480.7,1857.7,479z"/>
		<path class="st49" d="M1857.7,479.3c-0.9-2-7.3-2.3-9.2-1.3c-1.1,0.6-1.6,3-0.8,4c1.2-0.2,0.7-1.5,1.4-2.2
			c0.5-0.6,1.3-0.3,2.1-0.1C1853.3,480.1,1855.7,482,1857.7,479.3z"/>
		<path class="st49" d="M1859,483.1c-0.4-2.2-6.5-4-8.6-3.5c-1.2,0.3-2.2,2.5-1.8,3.7c1.2,0.1,1.1-1.3,1.9-1.8
			c0.7-0.4,1.3,0.1,2,0.4C1854.6,482.8,1856.4,485.3,1859,483.1z"/>
		<path class="st49" d="M1857.5,484.1c-0.4-1.6-5-2.6-6.5-2.1c-0.9,0.3-1.5,2-1.1,2.8c0.9,0,0.7-1,1.3-1.4c0.5-0.3,0.9,0,1.5,0.2
			C1854.2,484.1,1855.8,485.8,1857.5,484.1z"/>
	</g>
	<g>
		<g>
			<linearGradient id="SVGID_42_" gradientUnits="userSpaceOnUse" x1="1798.056" y1="518.6386" x2="1811.6346" y2="497.3655">
				<stop  offset="3.613782e-02" style="stop-color:#B3BDC3"/>
				<stop  offset="1" style="stop-color:#5D6E79"/>
			</linearGradient>
			<path class="st50" d="M1769.5,537l28.5,36.7l-4.9,3.3l-41.2-34.9c-1.5-1-1.9-3-0.9-4.5l44.8-40l11.9,12.8L1769.5,537z"/>
			<path class="st49" d="M1806.8,575.3c1.4,0.4,3.1,1,3.6,2.3c0.4,0.9,0.2,2-0.3,2.8c-0.5,0.9-1.2,1.6-1.9,2.3
				c-1.3,1.3-14.5-1.8-15.2-5.8c-0.2-1.2,1-1.5,1.9-2.3C1797.9,572.2,1803,574.3,1806.8,575.3z"/>
			<path class="st49" d="M1809.4,576.4c2.1,0.5,3.5,6.8,2.9,8.8c-0.4,1.1-2.7,2.1-3.8,1.5c0-1.2,1.4-1,1.9-1.7
				c0.5-0.6,0-1.3-0.2-2.1C1809.4,580.9,1807,578.8,1809.4,576.4z"/>
			<path class="st49" d="M1806.6,576.9c2.1,0.5,3.5,6.8,2.9,8.8c-0.4,1.1-2.7,2.1-3.8,1.5c0-1.2,1.4-1,1.9-1.7
				c0.5-0.6,0-1.3-0.2-2.1C1806.5,581.3,1804.2,579.3,1806.6,576.9z"/>
			<path class="st49" d="M1804.4,577.3c2.1,0.5,3.5,6.8,2.9,8.8c-0.4,1.1-2.7,2.1-3.8,1.5c0-1.2,1.4-1,1.9-1.7
				c0.5-0.6,0-1.3-0.2-2.1C1804.3,581.7,1802,579.7,1804.4,577.3z"/>
			<path class="st49" d="M1803,578.8c1.6,0.4,2.6,5,2.1,6.5c-0.3,0.8-2,1.5-2.8,1.1c0-0.9,1-0.7,1.4-1.3c0.3-0.5,0-0.9-0.2-1.5
				C1802.9,582.1,1801.2,580.6,1803,578.8z"/>
		</g>
		<path class="st51" d="M1794.8,497.9c0.9,0.8,2.2,2.8,3.3,3.9c1.9,1.9,4,3.7,5.7,5.7c0.9,1,3.1,4.8,4.6,4.7
			c-0.1-2.5,1.4-0.9,2.7-1.8c1-0.6,0.1-2.5,2-2.3c0.4-1.6,2.1-2.3,3.2-3.3c1.5-1.4,2.5-3.3,3.4-5.1c1.7-3.3,1.5-6.5,0-9.9
			c-1.4-3.1-2.9-5.4-6.3-6.7c-4.2-1.5-7.5,1.5-10.4,4.1c-1.4,1.3-2.5,2.6-3.7,4.2c-0.9,1.1-1.1,1.2-2.6,1.2
			c-0.2,0.6,0.1,1.4-0.2,1.9c-0.4,0.8-1.3,0.5-1.4,1.5C1794.4,496.2,1794.2,496.9,1794.8,497.9z"/>
	</g>
</g>
<g>
	<linearGradient id="SVGID_43_" gradientUnits="userSpaceOnUse" x1="2105.1296" y1="558.6552" x2="2117.3357" y2="598.4701">
		<stop  offset="3.613782e-02" style="stop-color:#B3BDC3"/>
		<stop  offset="1" style="stop-color:#5D6E79"/>
	</linearGradient>
	<path class="st52" d="M2112.7,570.1c-1.1,0.4-3.3-0.5-3.3-0.5l-38-24.7l-4.3,4.5c0,0,42.3,41.3,46.6,42.2
		c1.6,0.3,15.9-15,27.1-31.3c-5.4-4.8-11.8-8.7-17.9-12.3C2120.6,553.4,2113.5,569.8,2112.7,570.1z"/>
	<linearGradient id="SVGID_44_" gradientUnits="userSpaceOnUse" x1="2119.1665" y1="541.0099" x2="2130.271" y2="541.0099">
		<stop  offset="3.613782e-02" style="stop-color:#EAA991"/>
		<stop  offset="1" style="stop-color:#E68E6C"/>
	</linearGradient>
	<path class="st53" d="M2153.3,524.9c-7.1-9.3-20.7-5.9-24.6,9.1c0,0.1-7.4,13.2-7.7,14c6.1,3.6,14.6,9.6,20,14.4
		C2150.7,548.2,2158.1,531.2,2153.3,524.9z"/>
	
		<linearGradient id="SVGID_45_" gradientUnits="userSpaceOnUse" x1="1067.1016" y1="1786.2218" x2="1097.6527" y2="1764.5544" gradientTransform="matrix(0.248 -0.9688 0.9688 0.248 60.2704 1113.8167)">
		<stop  offset="3.613782e-02" style="stop-color:#B3BDC3"/>
		<stop  offset="1" style="stop-color:#5D6E79"/>
	</linearGradient>
	<path class="st54" d="M2060.9,540.2c-1.5-0.3-3.3-0.6-4.5,0.4c-0.8,0.7-1.1,1.7-1.1,2.8s0.3,2,0.6,3c0.6,1.8,14.3,5.3,16.9,2
		c0.8-1-0.2-1.8-0.7-3C2070.6,541.6,2064.8,541.1,2060.9,540.2z"/>
	
		<linearGradient id="SVGID_46_" gradientUnits="userSpaceOnUse" x1="1063.7279" y1="1780.171" x2="1094.2791" y2="1758.5035" gradientTransform="matrix(0.248 -0.9688 0.9688 0.248 60.2704 1113.8167)">
		<stop  offset="3.613782e-02" style="stop-color:#B3BDC3"/>
		<stop  offset="1" style="stop-color:#5D6E79"/>
	</linearGradient>
	<path class="st55" d="M2060.7,541.5c-1.8-1.4-7.9,1.5-9,3.4c-0.7,1.1,0.1,3.5,1.2,4.1c1-0.8-0.1-1.8,0.2-2.7c0.2-0.8,1-0.9,1.8-1.1
		C2057.1,544.4,2060.3,545,2060.7,541.5z"/>
	
		<linearGradient id="SVGID_47_" gradientUnits="userSpaceOnUse" x1="1753.9967" y1="1435.5886" x2="1784.5479" y2="1413.9211" gradientTransform="matrix(0.723 -0.6909 0.6909 0.723 -199.0271 695.1435)">
		<stop  offset="3.613782e-02" style="stop-color:#B3BDC3"/>
		<stop  offset="1" style="stop-color:#5D6E79"/>
	</linearGradient>
	<path class="st56" d="M2062.3,541.9c-0.8-2.2-7.5-2.9-9.5-1.9c-1.1,0.6-1.8,3-1.1,4.2c1.2-0.1,0.9-1.6,1.6-2.2
		c0.6-0.6,1.3-0.2,2.2,0C2057.6,542.4,2060.1,544.6,2062.3,541.9z"/>
	
		<linearGradient id="SVGID_48_" gradientUnits="userSpaceOnUse" x1="1153.4489" y1="1757.5656" x2="1184" y2="1735.8981" gradientTransform="matrix(0.3153 -0.949 0.949 0.3153 20.1984 1064.0413)">
		<stop  offset="3.613782e-02" style="stop-color:#B3BDC3"/>
		<stop  offset="1" style="stop-color:#5D6E79"/>
	</linearGradient>
	<path class="st57" d="M2063.8,544.4c-1.4-1.8-8-0.5-9.6,1c-0.9,0.9-0.8,3.4,0.2,4.3c1.1-0.5,0.4-1.7,0.8-2.6
		c0.4-0.7,1.2-0.6,2.1-0.6C2059.6,546.3,2062.5,547.6,2063.8,544.4z"/>
	
		<linearGradient id="SVGID_49_" gradientUnits="userSpaceOnUse" x1="1064.7471" y1="1781.6082" x2="1095.2982" y2="1759.9407" gradientTransform="matrix(0.248 -0.9688 0.9688 0.248 60.2704 1113.8167)">
		<stop  offset="3.613782e-02" style="stop-color:#B3BDC3"/>
		<stop  offset="1" style="stop-color:#5D6E79"/>
	</linearGradient>
	<path class="st58" d="M2063,546c-1.2-1.3-5.9,0.1-7,1.3c-0.6,0.7-0.4,2.6,0.3,3.2c0.8-0.4,0.2-1.3,0.5-1.9c0.3-0.5,0.9-0.5,1.5-0.6
		C2059.9,547.7,2062.2,548.5,2063,546z"/>
	
		<linearGradient id="SVGID_50_" gradientUnits="userSpaceOnUse" x1="-649.0207" y1="118.4141" x2="-644.4434" y2="125.6796" gradientTransform="matrix(-0.9464 -0.3229 -0.3229 0.9464 1487.9823 220.9255)">
		<stop  offset="3.613782e-02" style="stop-color:#B3BDC3"/>
		<stop  offset="1" style="stop-color:#5D6E79"/>
	</linearGradient>
	<path class="st59" d="M2065.3,541.8c-0.9,2.2-7.3-1.3-9-1.8c-1.3,1.8,3.1,3.3,4.1,4.1c1.1,0.9,1.3,2.7,2.5,3.5
		c1.2,0.8,2.4,0.7,3.7,0.4c0.6-0.1,1.3-0.4,1.8-0.2"/>
</g>
<path class="st23" d="M2122.2,603h-143.1c-1.1,0-2,0.9-2,2c0,1.1,0.9,2,2,2h31.3v214.7c0,1.1,0.9,2,2,2s2-0.9,2-2V606.9h71.3v214.7
	c0,1.1,0.9,2,2,2c1.1,0,2-0.9,2-2V606.9h32.6c1.1,0,2-0.9,2-2C2124.2,603.9,2123.3,603,2122.2,603z"/>
<g>
	<g>
		<linearGradient id="SVGID_51_" gradientUnits="userSpaceOnUse" x1="2159.1296" y1="715.891" x2="2126.6833" y2="663.0323">
			<stop  offset="0" style="stop-color:#73C5D8"/>
			<stop  offset="1" style="stop-color:#1B2B58"/>
		</linearGradient>
		<path class="st60" d="M2130,641.6c-1.8,1.6-3.5,3.1-4.8,4.5c-4.8,5.3-26.5,37.1-37.1,58.3c-1.3,2.5,0.4,9.4,3.2,10
			c10,2,49.9,12,52.8,10.8c0.2,0,0.4-0.1,0.6-0.1c0.9,0,1.8,0.5,2.6,1.4c0.1,0,0.3,0,0.4,0c1.6,0,2.8-0.1,3.2-0.2
			c1.6-3.7,3-8.6,2.9-8.7c-0.1-0.1-0.2-0.2-0.4-0.3c-0.7-1.8-1.9-2.7-3.6-2.6c-0.2,0-0.4,0-0.6,0.1c-1.7,1.6-3,1.4-4.1,0.7
			c-0.2-0.1-0.3-0.2-0.6-0.4c-2.6-1.1-5.2-2.8-7.4-2.9c-0.2,0-0.3-0.1-0.5-0.1c-8.6-7.7-20.8-11.7-20.8-11.7
			c-1.2-4.7,53.6-33.3,62.4-44.5c3.1-4,4-9,3.2-14.5H2130z"/>
		<path class="st61" d="M2156.2,745.1c-0.8-0.5-0.5-1.3,0-1.9c-0.1,0-0.2-0.1-0.3-0.1c-0.6-0.3-0.8-1-0.6-1.7
			c1.3-3.8-1.3-12.8-2.9-13.8c-0.2-0.1-0.3-0.2-0.5-0.3c0.9-3.1,1.7-6.3,2.5-9.5c3.4-0.3,8.7-1.5,10,0c1.4,1.7,2.6,5.9,2.4,8
			c-0.3,4.1-0.7,8.2-0.8,12.3c-0.1,2.7,1.3,6.4,0.3,8.7c-0.9,2-10.2,8.2-12.8,7.5C2149.9,753.4,2155.7,746.7,2156.2,745.1z"/>
	</g>
	<g>
		<path class="st23" d="M2180.7,673.4H2152l0,0l0,0h-25.3c-0.9,0-1.7,0.7-1.7,1.6s0.8,1.6,1.7,1.6h23.6v51.1h3.4v-51.1h27.1
			c0.9,0,1.7-0.7,1.7-1.6S2181.7,673.4,2180.7,673.4z"/>
		<rect x="2148.4" y="729.1" class="st23" width="7.1" height="5.3"/>
		<path class="st23" d="M2173.7,787.8h-18.2v-52h-7.1v52h-18.2c-0.7,0-1.3,0.6-1.3,1.3s0.6,1.3,1.3,1.3h18.2v24.6h7.1v-24.6h18.2
			c0.7,0,1.3-0.6,1.3-1.3S2174.4,787.8,2173.7,787.8z"/>
		<polygon class="st23" points="2148.4,816.7 2125.9,821.3 2178,821.3 2155.5,816.7 		"/>
		<path class="st61" d="M2182.6,673.4h-58.5c-2.7,0-4.9-2.2-4.9-4.9v-9.9c0-2.7,2.2-4.9,4.9-4.9h58.5c2.7,0,4.9,2.2,4.9,4.9v9.9
			C2187.5,671.2,2185.3,673.4,2182.6,673.4z"/>
	</g>
	<g>
		
			<linearGradient id="SVGID_52_" gradientUnits="userSpaceOnUse" x1="2070.0076" y1="1029.6207" x2="2142.116" y2="877.2716" gradientTransform="matrix(0.9669 -0.2552 0.2552 0.9669 -137.5949 208.9543)">
			<stop  offset="0" style="stop-color:#73C5D8"/>
			<stop  offset="1" style="stop-color:#1B2B58"/>
		</linearGradient>
		<path class="st62" d="M2132.3,638.3c4.4-4,3.3-11.4,2.5-17.7c-0.1-0.9,0.6-1.7,1.6-1.7l40.3,1.7c0.5,0,0.9,0.3,1.2,0.7
			c10.2,15.9,9.2,25.6,0.4,34.7c-9.9,10.3-72.7,34.5-78.3,42.9c12.2,3.2,22,23.3,33.7,41c0.1,0.1,0.2,0.2,0.2,0.4
			c0.3,3.1,3.8,3.3,5.5,5.7c0.1,0.2,0.2,0.3,0.2,0.5c0.4,1.2,0,2.9,0.8,3.4c0.1,0.1,0.1,0.2,0.2,0.3c0.3,0.5,0.7,0.9,1,1.4
			c0.4,0.6,0.4,1.3-0.1,1.9c-2.3,2.6-3.4,4-6,6.9c-0.1-0.1-0.3-0.3-0.8-0.7c-0.1-0.1-0.2-0.2-0.4-0.3c-3.4,0.5-3.7-0.8-4-2.8
			c-0.3-0.5-0.6-1.2-0.9-1.7l0,0c-3.9,0.3-2.9-1.3-4.5-4.1c-0.1-0.1-0.3-0.3-0.5-0.4c-15.1-13.8-41.6-38.2-52.1-48.9
			c-2.6-2.6-2.6-6.8-0.1-9.5C2089.9,673.8,2127.1,643,2132.3,638.3z"/>
		<path class="st61" d="M2133.9,779.7c-0.5-0.8,0.1-1.4,0.7-1.8c-0.1-0.1-0.1-0.1-0.2-0.2c-0.4-0.5-0.4-1.3,0.1-1.8
			c2.6-3.1,3.6-12.4,2.5-13.8c-0.1-0.2-0.2-0.3-0.3-0.5c2-2.6,3.9-5.2,5.9-7.8c3.3,1,8.6,1.9,9.3,3.8c0.7,2.1,0.2,6.5-0.8,8.3
			c-1.9,3.7-3.7,7.3-5.4,11.1c-1.1,2.4-1.3,6.4-3,8.1c-1.6,1.5-12.6,3.8-14.7,2.2C2124.9,784.9,2132.9,780.9,2133.9,779.7z"/>
	</g>
	<linearGradient id="SVGID_53_" gradientUnits="userSpaceOnUse" x1="2131.9673" y1="518.3463" x2="2160.574" y2="582.1612">
		<stop  offset="3.613782e-02" style="stop-color:#EAA991"/>
		<stop  offset="1" style="stop-color:#E68E6C"/>
	</linearGradient>
	<path class="st63" d="M2149.6,511.9c18.8,0,36,15.2,38.4,34c0,0-5.3,73.6-5.3,73.7c-0.1,1.9,0.1,3.8-0.3,5.6
		c-1.2,5.1-9,6.3-13.3,6.8c-10,1.1-21.6,1-30.9-3.4c-4.1-2-3.8-3.4-4.3-7.9l-5.3-69.2C2126.7,537.1,2135.8,521.1,2149.6,511.9z"/>
	<linearGradient id="SVGID_54_" gradientUnits="userSpaceOnUse" x1="2145.4001" y1="465.5714" x2="2142.7087" y2="486.6881">
		<stop  offset="3.613782e-02" style="stop-color:#7E7627"/>
		<stop  offset="0.9913" style="stop-color:#5F5B28"/>
	</linearGradient>
	<path class="st64" d="M2166.2,473.5c-0.9-1.8-2.3-3.4-4.2-4.2c-1.5-0.7-3.2-0.5-4.5-1.7c-1.5-1.4-1.8-2.9-3.9-3.8
		c-1.7-0.7-3.6-0.9-5.5-1c-3.2-0.3-6.8-0.6-9.4-2.6c-2.6-1.9-4.6-4.9-8.2-4.8c-10.4,0.4-12.1,18.7-4.6,23.7l4.5,3.1
		c0.2,0,0.3,0,0.5,0.1c-0.3-1.6-0.1-3.2-0.1-4.8c0-0.2,0.1-0.3,0.3-0.3c2.8-0.3,5.5-0.7,8.3-0.8c1.9-0.1,4.1-0.2,6,0.2
		c0.8,0.2,1.3,0.6,1.6,1.4c0.6,1.7,0.3,3.4,1.2,5.1c0.9,1.6,1.9,3,2.5,4.8c0.9,2.5,1.7,5.1,2.6,7.6c1,2.9,1.6,5.8,2.6,8.7
		c0.4,0,0.8-0.1,1.2-0.4c2.4-2.1,1.5-8.1,2.7-10.9c1.5-3.4,4.8-5.4,6.5-8.8C2167.9,480.8,2167.8,476.7,2166.2,473.5z"/>
	<g>
		
			<linearGradient id="SVGID_55_" gradientUnits="userSpaceOnUse" x1="-602.5751" y1="523.9725" x2="-594.0538" y2="503.6159" gradientTransform="matrix(-1 0 0 1 1547.1971 0)">
			<stop  offset="3.613782e-02" style="stop-color:#B3BDC3"/>
			<stop  offset="1" style="stop-color:#5D6E79"/>
		</linearGradient>
		<polygon class="st65" points="2156.2,500.1 2159.5,514.2 2138.3,535.7 2141.1,523 2139.4,508.6 		"/>
		<linearGradient id="SVGID_56_" gradientUnits="userSpaceOnUse" x1="2140.8982" y1="494.6549" x2="2169.7783" y2="418.5727">
			<stop  offset="3.613782e-02" style="stop-color:#B3BDC3"/>
			<stop  offset="1" style="stop-color:#5D6E79"/>
		</linearGradient>
		<path class="st66" d="M2128.4,506.4l0.2-33.6h20.3l0.7,8.3l2.1,2.4l1.6,9.4l1.8,0l0.1-2.1c0.1-1.8,1.5-3.3,3.4-3.3c0,0,0,0,0.1,0
			c1.8,0.1,3.2,1.6,3.2,3.4v2.3c0,1.9-1.5,3.2-3.4,3.3c-1.1,0-2.1,1-2.1,2.1c0,0,0,3.1,0,3.1c0,4.8-26.4,15.1-27.9,6.5
			C2128.4,507.7,2128.4,507,2128.4,506.4z"/>
	</g>
	<g>
		
			<linearGradient id="SVGID_57_" gradientUnits="userSpaceOnUse" x1="2136.563" y1="431.9499" x2="2151.377" y2="413.4891" gradientTransform="matrix(0.9959 9.041466e-02 -9.041466e-02 0.9959 45.5494 -65.9057)">
			<stop  offset="3.613782e-02" style="stop-color:#B3BDC3"/>
			<stop  offset="1" style="stop-color:#5D6E79"/>
		</linearGradient>
		<path class="st67" d="M2135.3,580.7c-1.2,0.3-3.4-1-3.4-1l-35.9-31.4l-5.1,4c0,0,37.8,49.3,42.2,51c1.6,0.6,18.7-13.2,32.9-28.6
			c-4.9-5.8-11-10.8-16.8-15.5C2146,564.5,2136.1,580.5,2135.3,580.7z"/>
		<path class="st68" d="M2184.3,539.7c-5.9-10.8-20.7-9.2-27,5.7c-0.1,0.1-9.7,12.6-10.1,13.4c5.8,4.7,13.7,12.2,18.6,18
			C2178.1,563.6,2188.3,547,2184.3,539.7z"/>
		
			<linearGradient id="SVGID_58_" gradientUnits="userSpaceOnUse" x1="1261.798" y1="1759.5476" x2="1293.9333" y2="1736.7566" gradientTransform="matrix(0.3833 -0.9236 0.9236 0.3833 -26.2637 1014.1005)">
			<stop  offset="3.613782e-02" style="stop-color:#B3BDC3"/>
			<stop  offset="1" style="stop-color:#5D6E79"/>
		</linearGradient>
		<path class="st69" d="M2085.7,541.9c-1.5-0.6-3.3-1.1-4.7-0.2c-0.9,0.6-1.4,1.7-1.6,2.7c-0.1,1.1,0,2.2,0.2,3.2
			c0.3,1.9,14.1,7.6,17.3,4.6c1-0.9,0.1-2-0.3-3.3C2095.7,544.8,2089.7,543.4,2085.7,541.9z"/>
		
			<linearGradient id="SVGID_59_" gradientUnits="userSpaceOnUse" x1="1598.0336" y1="1553.3981" x2="1619.0608" y2="1538.4851" gradientTransform="matrix(0.6365 -0.7713 0.7713 0.6365 -135.9679 773.197)">
			<stop  offset="3.613782e-02" style="stop-color:#B3BDC3"/>
			<stop  offset="1" style="stop-color:#5D6E79"/>
		</linearGradient>
		<path class="st70" d="M2085.3,542.9c-0.8-2.3-14.6-3.1-13.9-1.9c0.1,1.2,5.8,1.5,6.6,1.8C2080.5,543.4,2082.9,545.7,2085.3,542.9z
			"/>
		
			<linearGradient id="SVGID_60_" gradientUnits="userSpaceOnUse" x1="1258.2494" y1="1753.1831" x2="1290.3848" y2="1730.3921" gradientTransform="matrix(0.3833 -0.9236 0.9236 0.3833 -26.2637 1014.1005)">
			<stop  offset="3.613782e-02" style="stop-color:#B3BDC3"/>
			<stop  offset="1" style="stop-color:#5D6E79"/>
		</linearGradient>
		<path class="st71" d="M2085.4,543.2c-1.7-1.7-8.4,0.4-9.9,2.2c-0.9,1-0.5,3.7,0.7,4.5c1.1-0.6,0.2-1.9,0.6-2.8
			c0.3-0.8,1.2-0.7,2.1-0.9C2081.2,545.7,2084.4,546.7,2085.4,543.2z"/>
		
			<linearGradient id="SVGID_61_" gradientUnits="userSpaceOnUse" x1="1345.7061" y1="1717.1384" x2="1377.8414" y2="1694.3474" gradientTransform="matrix(0.4471 -0.8945 0.8945 0.4471 -58.8456 959.1298)">
			<stop  offset="3.613782e-02" style="stop-color:#B3BDC3"/>
			<stop  offset="1" style="stop-color:#5D6E79"/>
		</linearGradient>
		<path class="st72" d="M2088.2,546.6c-1.2-2.1-8.3-1.7-10.2-0.3c-1.1,0.8-1.4,3.5-0.5,4.5c1.2-0.3,0.6-1.8,1.2-2.6
			c0.5-0.7,1.3-0.4,2.2-0.4C2083.5,548,2086.4,549.8,2088.2,546.6z"/>
		
			<linearGradient id="SVGID_62_" gradientUnits="userSpaceOnUse" x1="1259.3214" y1="1754.6947" x2="1291.4568" y2="1731.9037" gradientTransform="matrix(0.3833 -0.9236 0.9236 0.3833 -26.2637 1014.1005)">
			<stop  offset="3.613782e-02" style="stop-color:#B3BDC3"/>
			<stop  offset="1" style="stop-color:#5D6E79"/>
		</linearGradient>
		<path class="st73" d="M2087,548.2c-1-1.5-6.2-0.8-7.5,0.3c-0.8,0.6-0.8,2.6-0.1,3.3c0.9-0.3,0.4-1.3,0.8-1.9
			c0.3-0.5,1-0.4,1.6-0.4C2083.7,549.5,2085.9,550.7,2087,548.2z"/>
	</g>
</g>
<g>
	<g>
		<linearGradient id="SVGID_63_" gradientUnits="userSpaceOnUse" x1="2277.7808" y1="763.743" x2="2277.7808" y2="747.4246">
			<stop  offset="3.613782e-02" style="stop-color:#B3BDC3"/>
			<stop  offset="1" style="stop-color:#5D6E79"/>
		</linearGradient>
		<polygon class="st74" points="2270.4,751.5 2273,785.7 2280.3,786.8 2285.2,751.3 		"/>
		<polygon class="st75" points="2270,746 2270.1,749.9 2285.1,749.9 2285.6,746 		"/>
		<linearGradient id="SVGID_64_" gradientUnits="userSpaceOnUse" x1="2268.4919" y1="620.4285" x2="2268.4919" y2="575.2237">
			<stop  offset="1.135817e-02" style="stop-color:#8B7864"/>
			<stop  offset="1" style="stop-color:#473C32"/>
		</linearGradient>
		<path class="st76" d="M2288.7,723.4c1-7.5-2.5-15.4-3.2-22.8c-1.4-14.9,1.4-29.4,2.4-44.2c0.4-6.9,0.9-13.8,1.3-20.7
			c0.1-2.3-0.5-6.7,0.5-8.8c2.8-5.8,3.5-12.4,3.4-18.7c0-1-0.5-14.2-1.6-14.2l-47.6-0.3l0.9,25.7c0.3,3,12.3,31.5,14.5,43.4
			c1.3,7.2,2.5,14.5,3.9,21.7c2.8,14.1,5.5,28.9,6.1,43.5c0,0.4,0,0.7,0,1.1c0,0.3,0,0.5,0,0.8s0,0.5,0,0.8c-2,3.2-2.1,4.3-0.5,7.1
			c0,0.2,0,0.5,0,0.7c-0.3,0.5-0.6,1-0.6,1.5c0,0.5,0.3,0.9,0.6,1.3c0.3,0.5,0.7,1,1.1,1.5c0,0.2,0,0.5,0,0.7
			c0.1,1.5,0.1,2.5,0.1,2.5h15.6c0,0,0.1-0.7,0.3-1.9c0-0.2,0.1-0.5,0.2-0.7c1-0.9,1.5-1.8,1.6-2.9c0-0.2,0-0.4,0-0.6
			c-0.2-0.1-0.3-0.3-0.5-0.5c-0.1-0.2-0.2-0.3-0.3-0.5c1-2.4,1.1-4.5,0.7-6.3c0-0.3,0-0.8,0-1.2
			C2287.6,731.4,2288.7,723.4,2288.7,723.4z"/>
		<g>
			<path class="st77" d="M2256,806.9c9.5-4,22.7,2.3,30.2-4.4c-0.6-1.9-1.8-4-2-5.6c-0.7-4.3-0.4-8.8-0.6-13.3
				c-1.6,0.5-2,1.6-3.9,1.8c-1.4,0.2-3.1-0.3-4.5-0.6c-0.1-0.9-0.5-2-1.1-3.3c-1.5-0.4-2.9-0.7-4.4-0.8c0.6,2.9,1.4,5.9,1.6,8.8
				c0.3,3.4,1.2,7.3-1.7,9.5c-2,1.5-9.4,3.7-14.9,5.1C2255.9,804.4,2255.5,805.9,2256,806.9z"/>
			<path class="st78" d="M2286.2,802.5c-7.5,6.7-20.7,0.4-30.2,4.4c-0.6-1-0.1-2.5-1.3-2.8c-2.6,0.6-4.7,1.1-5.8,1.3
				c-0.9,0.1-4.1-0.1-4.7,0.5c-1.5,1.5,0.3,2.8,1.6,3.3c5.3,2.1,13.2,0.9,18.5-0.3c4.2-1,8.8-2.3,13.3-1.6c2.8,0.4,6.1,1.8,8.5-0.9
				C2287,805.4,2286.7,804,2286.2,802.5z"/>
			<path class="st78" d="M2279.6,795.3c-1.4,0-2.8,1.2-2.7,2.7c0.1,1.5,1.2,2.7,2.7,2.7c1.4,0,2.8-1.2,2.7-2.7
				C2282.2,796.5,2281.1,795.3,2279.6,795.3z"/>
		</g>
	</g>
	<g>
		
			<linearGradient id="SVGID_65_" gradientUnits="userSpaceOnUse" x1="1675.9558" y1="1809.6713" x2="1675.9558" y2="1793.3528" gradientTransform="matrix(0.644 -0.765 0.765 0.644 -175.7276 858.838)">
			<stop  offset="3.613782e-02" style="stop-color:#B3BDC3"/>
			<stop  offset="1" style="stop-color:#5D6E79"/>
		</linearGradient>
		<polygon class="st79" points="2273.9,739.8 2301.7,759.8 2307.3,754.9 2283.2,728.4 		"/>
		<polygon class="st75" points="2269.5,736.6 2272.5,738.9 2282.1,727.5 2279.5,724.6 		"/>
		<g>
			<path class="st77" d="M2307.1,786.5c3-9.9,16.4-15.9,16-25.9c-1.9-0.7-4.2-1.2-5.6-2.1c-3.7-2.2-7-5.4-10.6-8.1
				c-0.6,1.5-0.1,2.6-1.1,4.2c-0.8,1.2-2.2,2.2-3.3,3.1c-0.7-0.5-1.9-0.9-3.2-1.3c-1.2,0.9-2.4,1.8-3.5,2.8c2.6,1.5,5.4,2.8,7.8,4.4
				c2.8,2,6.3,3.7,6.1,7.4c-0.1,2.5-3.2,9.5-5.7,14.7C2305.1,785,2305.9,786.2,2307.1,786.5z"/>
			<path class="st78" d="M2323.1,760.5c0.3,10.1-13,16.1-16,25.9c-1.1-0.2-2-1.5-3-0.8c-1.2,2.4-2.2,4.4-2.7,5.3
				c-0.5,0.8-2.7,3.1-2.6,3.9c0.1,2.1,2.3,1.6,3.6,0.9c5-2.7,9.2-9.5,11.7-14.3c2-3.9,4-8.2,7.3-11.2c2.1-1.9,5.4-3.5,4.8-7.1
				C2325.8,761.9,2324.6,761.1,2323.1,760.5z"/>
			<path class="st78" d="M2313.3,761c-0.9,1.1-0.8,2.9,0.3,3.8c1.2,0.9,2.8,0.8,3.8-0.3c0.9-1.1,0.8-2.9-0.3-3.8
				C2316,759.8,2314.3,759.8,2313.3,761z"/>
		</g>
	</g>
	<g>
		<g>
			<g>
				
					<linearGradient id="SVGID_66_" gradientUnits="userSpaceOnUse" x1="2077.2703" y1="-174.6686" x2="2089.5864" y2="-176.5473" gradientTransform="matrix(0.8758 0.4827 -0.4827 0.8758 308.4894 -330.975)">
					<stop  offset="3.613782e-02" style="stop-color:#B3BDC3"/>
					<stop  offset="1" style="stop-color:#5D6E79"/>
				</linearGradient>
				<path class="st80" d="M2207.6,512l-3.4,5.8c0,0,6.3,3.7,14.7,8.7c1-3.1,2.3-6.1,3.8-9.1L2207.6,512z"/>
				<path class="st49" d="M2194.3,515c-1.6-0.6-3.3-1.5-3.7-3.1c-0.3-1.1,0.1-2.2,0.7-3.1c0.6-0.9,1.5-1.6,2.4-2.3
					c1.6-1.2,15.9,4.1,16.1,8.6c0.1,1.4-1.2,1.7-2.5,2.3C2204.3,518.7,2198.3,516.6,2194.3,515z"/>
				<path class="st49" d="M2194.9,513.8c-2.5,0.1-6-6.1-5.9-8.5c0.1-1.4,2.2-3.1,3.6-2.9c0.4,1.3-1.2,1.5-1.5,2.5
					c-0.3,0.8,0.4,1.4,0.9,2.1C2193.5,509,2196.7,510.4,2194.9,513.8z"/>
				<path class="st49" d="M2192.9,513.8c-1.9,0.4-5.4-4.1-5.6-5.9c-0.1-1.1,1.4-2.7,2.5-2.7c0.5,0.9-0.7,1.3-0.9,2.1
					c-0.1,0.7,0.5,1,1,1.5C2191.3,510.2,2193.9,510.9,2192.9,513.8z"/>
				<path class="st49" d="M2199.4,513.2c-2.4,0.7-7.4-4.5-7.8-6.8c-0.3-1.3,1.4-3.5,2.8-3.7c0.7,1.1-0.7,1.8-0.8,2.8
					c-0.1,0.9,0.7,1.2,1.4,1.8C2196.9,508.9,2200.3,509.5,2199.4,513.2z"/>
				<path class="st49" d="M2199.7,511.2c-1.8,0.4-5.2-3.7-5.4-5.4c-0.1-1,1.2-2.5,2.2-2.6c0.5,0.9-0.6,1.3-0.8,2
					c-0.1,0.6,0.5,1,1,1.4C2198,507.9,2200.5,508.5,2199.7,511.2z"/>
			</g>
		</g>
		<g>
			<g>
				
					<linearGradient id="SVGID_67_" gradientUnits="userSpaceOnUse" x1="2178.0596" y1="434.727" x2="2185.7312" y2="433.7876" gradientTransform="matrix(0.999 4.493667e-02 -4.493667e-02 0.999 21.7147 -38.583)">
					<stop  offset="3.613782e-02" style="stop-color:#DF582A"/>
					<stop  offset="1" style="stop-color:#EAA991"/>
				</linearGradient>
				<path class="st81" d="M2185.3,512.3L2185.3,512.3l-11-37.8l0,0c-0.5,0.1-0.8,0.5-0.6,1l10.5,36.1
					C2184.3,512.1,2184.8,512.4,2185.3,512.3z"/>
				
					<linearGradient id="SVGID_68_" gradientUnits="userSpaceOnUse" x1="2196.8057" y1="449.4304" x2="2189.7603" y2="424.8499" gradientTransform="matrix(0.999 4.493667e-02 -4.493667e-02 0.999 21.7147 -38.583)">
					<stop  offset="3.613782e-02" style="stop-color:#DF582A"/>
					<stop  offset="1" style="stop-color:#EAA991"/>
				</linearGradient>
				<polygon class="st82" points="2185.3,512.3 2209.3,508.1 2198.4,470.3 2174.4,474.5 				"/>
				<polygon class="st83" points="2185.2,508 2207,504.2 2197.7,471.9 2175.9,475.7 				"/>
			</g>
		</g>
		
			<linearGradient id="SVGID_69_" gradientUnits="userSpaceOnUse" x1="224.1171" y1="-755.9115" x2="229.6781" y2="-747.0845" gradientTransform="matrix(-0.3672 -0.9301 -0.9301 0.3672 1585.1359 995.7739)">
			<stop  offset="3.613782e-02" style="stop-color:#B3BDC3"/>
			<stop  offset="1" style="stop-color:#5D6E79"/>
		</linearGradient>
		<path class="st84" d="M2207.4,511.7c-0.5-4.6-2.8-1-5.5-9.8c-2.3,0.2-0.5,4.6-0.5,5.9c0.1,1.4-1.2,2.8-1.1,4.3
			c0.1,1.4,1.1,2.3,2.1,3.1c0.5,0.4,1.2,0.7,1.4,1.3"/>
		<linearGradient id="SVGID_70_" gradientUnits="userSpaceOnUse" x1="2214.8831" y1="529.9017" x2="2252.4534" y2="529.9017">
			<stop  offset="0" style="stop-color:#38419B"/>
			<stop  offset="1" style="stop-color:#13124A"/>
		</linearGradient>
		<path class="st85" d="M2247.8,519.7c-0.6-0.3-1.7-1.2-2.4-1.2c-1.3,0-0.6,0.4-1.4,1c-0.7,0.5-0.2,1.3-1.3,1.2
			c-0.7,0-1.1-1.2-1.7-1.4c-1.1-0.5-2.2-0.4-2.9,0.7c-1.2-0.4-1.3-2.1-2.3-2.5c-1.7-0.6-1.7,1.3-2.7,1.4c-1.6,0.2-4.7-5.9-6.1-1.7
			c-2.3-0.7-5.5-1.7-7.3-2.3c-2.6,0.6-4.9,8.6-4.7,11.2c0.1,1,5.4,4.2,7.2,5.1c-2.6,5.5,5.7,2.8,7.6,5c0.5,0.6,0.1,2,0.9,2.5
			c1,0.7,0.9-0.1,1.7-0.1c0.9,0,1.1-0.5,2.2,0.3c0.8,0.6,0.4,1.7,1,2.2c1.1,1,3.1-0.1,4.6,0.7c3.5,1.7,8,2.2,11.7,2.9
			c0.2,0,0.4,0.1,0.6,0.1c0.4-8.4-0.9-17.1-3.1-24.7C2248.8,520.2,2248.3,520,2247.8,519.7z"/>
	</g>
	<linearGradient id="SVGID_71_" gradientUnits="userSpaceOnUse" x1="2249.9968" y1="416.071" x2="2265.4297" y2="452.9885">
		<stop  offset="6.284054e-02" style="stop-color:#493B38"/>
		<stop  offset="1" style="stop-color:#151211"/>
	</linearGradient>
	<path class="st86" d="M2287.3,426.5c0,0.8-0.9,1.5-1,2.3c-0.1,0.8,0.8,1.6,0.7,2.4c-0.1,0.8-1.1,1.4-1.3,2.1
		c-0.2,0.8,0.5,1.7,0.3,2.5c-0.2,0.7-1.3,1.2-1.6,1.9c-0.3,0.7,0.3,1.8,0,2.5c-0.3,0.7-1.5,1-1.9,1.7c-0.4,0.7,0,1.8-0.4,2.5
		c-0.4,0.7-1.6,0.8-2.1,1.4c-0.5,0.6-0.2,1.8-0.7,2.4c-0.5,0.6-1.7,0.5-2.2,1.1c-0.5,0.5-0.5,1.7-1.1,2.2c-0.6,0.5-1.8,0.3-2.4,0.7
		c-0.6,0.5-0.7,1.7-1.4,2.1c-0.6,0.4-1.8,0-2.5,0.4c-0.7,0.4-1,1.5-1.7,1.9c-0.7,0.3-1.8-0.2-2.5,0c-0.7,0.3-1.2,1.4-1.9,1.6
		c-0.7,0.2-1.7-0.5-2.5-0.3c-0.8,0.2-1.4,1.2-2.1,1.3c-0.8,0.1-1.6-0.7-2.4-0.7c-0.8,0.1-1.5,1-2.3,1c-0.8,0-1.5-0.9-2.3-1
		c-0.8-0.1-1.6,0.8-2.4,0.7c-0.8-0.1-1.4-1.1-2.1-1.3c-0.8-0.2-1.7,0.5-2.5,0.3c-0.7-0.2-1.2-1.3-1.9-1.6c-0.7-0.3-1.8,0.3-2.5,0
		c-0.7-0.3-1-1.5-1.7-1.9c-0.7-0.4-1.8,0-2.5-0.4c-0.7-0.4-0.8-1.6-1.4-2.1c-0.6-0.5-1.8-0.2-2.4-0.7c-0.6-0.5-0.5-1.7-1.1-2.2
		c-0.5-0.5-1.7-0.5-2.2-1.1c-0.5-0.6-0.3-1.8-0.7-2.4c-0.5-0.6-1.7-0.7-2.1-1.4c-0.4-0.6,0-1.8-0.4-2.5c-0.4-0.7-1.5-1-1.9-1.7
		c-0.3-0.7,0.2-1.8,0-2.5c-0.3-0.7-1.4-1.2-1.6-1.9c-0.2-0.7,0.5-1.7,0.3-2.5c-0.2-0.8-1.2-1.4-1.3-2.1c-0.1-0.8,0.7-1.6,0.7-2.4
		c-0.1-0.8-1-1.5-1-2.3c0-0.8,0.9-1.5,1-2.3c0.1-0.8-0.8-1.6-0.7-2.4c0.1-0.8,1.1-1.4,1.3-2.1c0.2-0.8-0.5-1.7-0.3-2.5
		c0.2-0.7,1.3-1.2,1.6-1.9c0.3-0.7-0.3-1.8,0-2.5c0.3-0.7,1.5-1,1.9-1.7c0.4-0.7,0-1.8,0.4-2.5c0.4-0.7,1.6-0.8,2.1-1.4
		c0.5-0.6,0.2-1.8,0.7-2.4c0.5-0.6,1.7-0.5,2.2-1.1c0.5-0.5,0.5-1.7,1.1-2.2c0.6-0.5,1.8-0.3,2.4-0.7c0.6-0.5,0.7-1.7,1.4-2.1
		c0.6-0.4,1.8,0,2.5-0.4c0.7-0.4,1-1.5,1.7-1.9c0.7-0.3,1.8,0.2,2.5,0c0.7-0.3,1.2-1.4,1.9-1.6c0.7-0.2,1.7,0.5,2.5,0.3
		c0.8-0.2,1.4-1.2,2.1-1.3c0.8-0.1,1.6,0.7,2.4,0.7c0.8-0.1,1.5-1,2.3-1s1.5,0.9,2.3,1c0.8,0.1,1.6-0.8,2.4-0.7
		c0.8,0.1,1.4,1.1,2.1,1.3c0.8,0.2,1.7-0.5,2.5-0.3c0.7,0.2,1.2,1.3,1.9,1.6c0.7,0.3,1.8-0.3,2.5,0c0.7,0.3,1,1.5,1.7,1.9
		c0.7,0.4,1.8,0,2.5,0.4c0.7,0.4,0.8,1.6,1.4,2.1c0.6,0.5,1.8,0.2,2.4,0.7c0.6,0.5,0.5,1.7,1.1,2.2c0.5,0.5,1.7,0.5,2.2,1.1
		c0.5,0.6,0.3,1.8,0.7,2.4c0.5,0.6,1.7,0.7,2.1,1.4c0.4,0.6,0,1.8,0.4,2.5c0.4,0.7,1.5,1,1.9,1.7c0.3,0.7-0.2,1.8,0,2.5
		c0.3,0.7,1.4,1.2,1.6,1.9c0.2,0.7-0.5,1.7-0.3,2.5c0.2,0.8,1.2,1.4,1.3,2.1c0.1,0.8-0.7,1.6-0.7,2.4
		C2286.4,425,2287.3,425.7,2287.3,426.5z"/>
	<linearGradient id="SVGID_72_" gradientUnits="userSpaceOnUse" x1="2266.7852" y1="484.2747" x2="2266.7852" y2="594.105">
		<stop  offset="3.613782e-02" style="stop-color:#B9215E"/>
		<stop  offset="1" style="stop-color:#941B56"/>
	</linearGradient>
	<path class="st87" d="M2258.3,465.1L2258.3,465.1c18.6,0,35.5,15,37.9,33.6l-5,87.2c-0.2,4.5,4.6,8.7,1.8,9.5
		c-1.2,0.3-2.5,0.7-3.7,1.1c-6.5,2.3-24.8,7.4-45-0.2c-4.2-1.6-0.7-4.6-1.2-9l-5.6-83C2235.8,489.9,2243.3,480.5,2258.3,465.1z"/>
	<g>
		
			<linearGradient id="SVGID_73_" gradientUnits="userSpaceOnUse" x1="-712.6469" y1="470.4708" x2="-706.6284" y2="456.0932" gradientTransform="matrix(-1 0 0 1 1547.1971 0)">
			<stop  offset="3.613782e-02" style="stop-color:#B3BDC3"/>
			<stop  offset="1" style="stop-color:#5D6E79"/>
		</linearGradient>
		<path class="st88" d="M2264.9,453.4l3.3,13.9l-0.1,0.1c-3.1,6.9-10.8,10.5-18.1,8.6l0,0l0,0l-1.7-14.3L2264.9,453.4z"/>
		<linearGradient id="SVGID_74_" gradientUnits="userSpaceOnUse" x1="2253.9004" y1="433.622" x2="2253.9004" y2="423.1299">
			<stop  offset="3.613782e-02" style="stop-color:#B3BDC3"/>
			<stop  offset="1" style="stop-color:#5D6E79"/>
		</linearGradient>
		<path class="st89" d="M2237.4,459.6l0.2-27.9c0-2.9,2.4-5.2,5.3-5.2h7.9c3.9,0,7.1,3,7.4,6.8l0.1,1.4l2,2.3l1.5,9.2l1.8,0l0.1-2.2
			c0.1-1.8,1.5-3.1,3.3-3.1l0.1,0c1.7,0,3.1,1.5,3.1,3.2v2.5c0,1.8-1.5,3.2-3.4,3.3c-1.1,0.1-2,1-2,2.1c0,0,0,3.1,0,3.1
			c0,4.7-26.1,14.9-27.5,6.4C2237.4,460.9,2237.4,460.3,2237.4,459.6z"/>
	</g>
	<g>
		<g>
			<g>
				
					<linearGradient id="SVGID_75_" gradientUnits="userSpaceOnUse" x1="2236.7422" y1="417.3535" x2="2249.3159" y2="415.4355" gradientTransform="matrix(0.9954 9.563705e-02 -9.563705e-02 0.9954 45.8413 -77.9167)">
					<stop  offset="3.613782e-02" style="stop-color:#B3BDC3"/>
					<stop  offset="1" style="stop-color:#5D6E79"/>
				</linearGradient>
				<path class="st90" d="M2225.5,547l-0.8,6.8c0,0,7.4,1,17.3,2.2c-0.3-3.3-0.3-6.7-0.1-10L2225.5,547z"/>
				<path class="st49" d="M2214.2,555.1c-1.7,0-3.7-0.1-4.7-1.4c-0.7-0.9-0.8-2.1-0.6-3.2c0.2-1.1,0.8-2.1,1.3-3.1
					c1-1.8,16.5-2.6,18.6,1.5c0.6,1.3-0.6,1.9-1.4,3.1C2225.1,555.7,2218.7,555,2214.2,555.1z"/>
				<path class="st49" d="M2214.2,554c-1.6,2-15.4-2-14.3-2.9c0.6-1.2,6.2,0.5,7.1,0.6C2209.6,551.8,2212.8,550.4,2214.2,554z"/>
				<path class="st49" d="M2214.3,553.8c-2.3,1.1-8.1-3.3-9-5.6c-0.5-1.3,0.8-3.8,2.2-4.2c0.9,1-0.5,1.9-0.4,2.9
					c0.1,0.9,0.9,1.1,1.7,1.6C2211.1,549.8,2214.6,549.9,2214.3,553.8z"/>
				<path class="st49" d="M2218.3,551.3c-1.9,1.6-8.7-1.2-10.1-3.2c-0.8-1.1-0.1-3.9,1.1-4.6c1.1,0.8,0,2,0.3,2.9
					c0.3,0.9,1.2,0.9,2.1,1.1C2214.2,548.3,2217.6,547.6,2218.3,551.3z"/>
				<path class="st49" d="M2217.7,549.4c-1.5,1.1-6.3-1.3-7.3-2.9c-0.5-0.9,0.1-2.9,1.1-3.3c0.8,0.6-0.1,1.4,0.1,2.2
					c0.2,0.6,0.8,0.7,1.5,0.9C2214.9,547,2217.4,546.6,2217.7,549.4z"/>
			</g>
			
				<linearGradient id="SVGID_76_" gradientUnits="userSpaceOnUse" x1="-614.0455" y1="720.7173" x2="-609.2731" y2="728.2927" gradientTransform="matrix(-0.9791 -0.2035 0.2035 -0.9791 1468.8313 1133.199)">
				<stop  offset="3.613782e-02" style="stop-color:#B3BDC3"/>
				<stop  offset="1" style="stop-color:#5D6E79"/>
			</linearGradient>
			<path class="st91" d="M2217.4,553.9c0.4-2.4-7.3-2.7-9-3.1c-0.2-2.3,4.5-1.3,5.8-1.5c1.4-0.2,2.6-1.7,4.1-1.8
				c1.5-0.1,2.5,0.7,3.5,1.6c0.4,0.4,0.9,1,1.6,1.2"/>
		</g>
		<path class="st77" d="M2296.9,554.8c0.3-0.5,0.4-1,0.3-1.5c-0.6-7.3,1.1-14.5,1.5-21.8c0.8-11.5-0.8-23.5-3.1-34.8
			c-1.3-6.5-3.8-19-11.4-21.3c-7.1-2-14.1,1.4-16.6,8.3c-1.5,4-1.3,8.4-0.2,12.4c1.8,6.8,1.9,13.9,3.5,20.7c0.1,0,0.2,0,0.2,0
			c0,1.3,0,2.6-0.1,3.7c-0.1,1.5-0.8,2.1-1.1,3.3c-0.7,2.2,0.4,1.8,1.3,3.5c1,1.9-0.7,2.6-1,4c-0.4,2,1.3,2.1,1.9,3.7
			c0.9,2.3-0.7,2.6-2.7,2.5c-0.7,0-2.1-0.5-2.7-0.2c-1.2,0.5-0.4,0.6-0.9,1.5c-0.4,0.7,0.4,1.3-0.8,1.7c-0.7,0.2-1.5-0.6-2.2-0.6
			c-1.3,0-2.3,0.5-2.5,1.8c-1.3,0.1-2.1-1.4-3.2-1.4c-1.8,0.1-1.1,1.9-1.9,2.4c-1.4,0.8-6.7-3.6-6.4,0.9c-2.4,0.3-5.8,0.7-7.8,0.8
			c-2.2,1.7-1.1,10,0.1,12.4c0.5,0.9,6.8,1.7,8.8,1.9c-0.2,6.2,6.5,0.3,9.1,1.6c0.7,0.4,0.9,1.8,1.9,2c1.2,0.2,0.8-0.5,1.6-0.8
			c0.9-0.3,0.9-0.9,2.1-0.6c1,0.3,1.1,1.4,1.8,1.6c1.4,0.5,2.9-1.3,4.6-1.3c3.9,0.2,8.4-1.2,12.2-2
			C2286.4,558.9,2295.1,558.1,2296.9,554.8z"/>
	</g>
	<linearGradient id="SVGID_77_" gradientUnits="userSpaceOnUse" x1="2243.739" y1="721.2601" x2="2265.1228" y2="649.846">
		<stop  offset="1.135817e-02" style="stop-color:#8B7864"/>
		<stop  offset="1" style="stop-color:#473C32"/>
	</linearGradient>
	<path class="st92" d="M2278.2,723.2c-0.2-0.2-0.3-0.4-0.5-0.6c0-1.3-0.4-2.3-1.2-3.1c-0.1-0.2-0.3-0.3-0.5-0.4
		c-0.2,0-0.4,0.1-0.6,0.1c-0.2,0-0.4-0.1-0.6-0.1c-1.2-2.3-2.7-3.7-4.4-4.6c-0.3-0.2-0.7-0.5-0.9-0.7c0,0-5.4-5.9-5.4-5.9
		c-4.9-5.5-13-7.9-19.1-12l7.9-25.5l5.5-11.8l-3.6-19.9c-0.8-4.2-2.6-8.1-5.1-11.5c-1.5-2-3-5-3.5-9c-1.1-8.4-1.8-21.9-1.8-21.9
		l-22.3,96.5v13l13.6,6.7c6.7,4.1,13.4,8.4,19.5,13.2c0.3,0.2,0.6,0.5,0.9,0.7c0.2,0.2,0.4,0.3,0.6,0.5c0.2,0.3,0.6,0.8,0.8,1.2
		c1,3,1.9,3.8,4.9,4.3c0.2,0.2,0.4,0.3,0.6,0.5c0.2,0.5,0.4,1,0.7,1.4c0.4,0.3,0.8,0.4,1.4,0.4s1.2,0.1,1.9,0.2
		c0.2,0.2,0.4,0.3,0.6,0.4c1.2,0.9,1.9,1.5,1.9,1.5l10.1-12C2279.5,724.6,2279,724.1,2278.2,723.2z"/>
</g>
<g>
	<g>
		<linearGradient id="SVGID_78_" gradientUnits="userSpaceOnUse" x1="1972.6158" y1="789.8276" x2="1935.2935" y2="667.7617">
			<stop  offset="0" style="stop-color:#2C499D"/>
			<stop  offset="1" style="stop-color:#1B2B58"/>
		</linearGradient>
		<path class="st93" d="M1943.9,632.1l32.3,86.2c0,0,3.9,44.4,6.2,71.3c0,0.1,0,0.3,0,0.4c0.1,0.2,0.2,0.3,0.3,0.5
			c0.7,3.7-1.9,5.4,1.3,7.9c0,0.2,0,0.3,0,0.5c-0.1,0.7-0.3,1.4-0.6,2.2c0.1,0.2,0.1,0.3,0.2,0.5c0.8,1.7,1.4,3.4,0.3,5.6
			c0,0.1,0,0.2,0,0.4c0.1,1.4,0.1,1.4,0.1,1.4l-7.9,0.8c0,0,0-0.1-0.1-0.3c-0.5-1.2-4-0.3-3.2-2.9c0.9-0.9,0.9-1.7,1-2.7
			c0-0.1-0.1-0.2-0.1-0.4c-1.7-0.9-2.3-1.9-2.4-3.3c0-0.4,0-0.7,0-1.1c-1.1-1.2,0.6-2.9-1-4.2c-0.1-0.1-0.1-0.3-0.2-0.4
			c-4.4-11.3-9.5-24.8-9.5-24.8c-2.5-8.3-3.6-17-3.3-25.6l0.5-12.1l-53-80.1L1943.9,632.1z"/>
		<path class="st15" d="M1997.2,818.9c-6.2-4.3-11.5-7.4-12.1-8.9c-0.1-0.2-0.1-0.3-0.2-0.5c-2.9,0.4-5.8,0.6-8.7,1
			c-0.8,3-2.3,8.6-1.1,10c1.3,1.5,6.2,1.6,9.5,1.1c3.6-0.6,4.3,1.4,7.9,1.8c2.4,0.3,13.9,0.3,12.8-1.8
			C2004.7,820.3,1997.2,818.9,1997.2,818.9z"/>
	</g>
	<g>
		<path class="st23" d="M1951.4,673.4h-28.8l0,0l0,0h-25.3c-0.9,0-1.7,0.7-1.7,1.6s0.8,1.6,1.7,1.6h23.6v51.1h3.4v-51.1h27.1
			c0.9,0,1.7-0.7,1.7-1.6S1952.3,673.4,1951.4,673.4z"/>
		<rect x="1919" y="729.1" class="st23" width="7.1" height="5.3"/>
		<path class="st23" d="M1943.4,785.5h-17.3v-49.8h-7.1v49.8h-17.3c-0.7,0-1.3,0.6-1.3,1.3l0,0c0,0.7,0.6,1.3,1.3,1.3h17.3v26.9h7.1
			v-26.9h17.3c0.7,0,1.3-0.6,1.3-1.3l0,0C1944.7,786.1,1944.1,785.5,1943.4,785.5z"/>
		<polygon class="st23" points="1919,816.7 1896.5,821.3 1948.7,821.3 1926.1,816.7 		"/>
		<path class="st61" d="M1953.2,673.4h-58.5c-2.7,0-4.9-2.2-4.9-4.9v-9.9c0-2.7,2.2-4.9,4.9-4.9h58.5c2.7,0,4.9,2.2,4.9,4.9v9.9
			C1958.1,671.2,1955.9,673.4,1953.2,673.4z"/>
	</g>
	<g>
		<g>
			
				<linearGradient id="SVGID_79_" gradientUnits="userSpaceOnUse" x1="1578.8633" y1="-482.0978" x2="1563.1698" y2="-428.6238" gradientTransform="matrix(0.6687 0.7435 -0.7435 0.6687 557.5588 -258.6381)">
				<stop  offset="3.613782e-02" style="stop-color:#B3BDC3"/>
				<stop  offset="1" style="stop-color:#5D6E79"/>
			</linearGradient>
			<polygon class="st94" points="1944,587.2 1990.6,597.1 1990.5,603 1940.7,606.3 			"/>
			
				<linearGradient id="SVGID_80_" gradientUnits="userSpaceOnUse" x1="1591.8219" y1="-478.2948" x2="1576.1284" y2="-424.8207" gradientTransform="matrix(0.6687 0.7435 -0.7435 0.6687 557.5588 -258.6381)">
				<stop  offset="3.613782e-02" style="stop-color:#B3BDC3"/>
				<stop  offset="1" style="stop-color:#5D6E79"/>
			</linearGradient>
			<path class="st95" d="M1997,590.8c1.1-1,2.5-2,4-1.6c1,0.2,1.7,1,2.2,1.9c0.4,0.9,0.6,1.9,0.8,2.8c0.3,1.8-9.8,10.8-13.4,9.1
				c-1.1-0.5-0.6-1.7-0.8-2.9C1989.3,596.3,1994,593.3,1997,590.8z"/>
			
				<linearGradient id="SVGID_81_" gradientUnits="userSpaceOnUse" x1="1591.7651" y1="-478.3114" x2="1576.0717" y2="-424.8374" gradientTransform="matrix(0.6687 0.7435 -0.7435 0.6687 557.5588 -258.6381)">
				<stop  offset="3.613782e-02" style="stop-color:#B3BDC3"/>
				<stop  offset="1" style="stop-color:#5D6E79"/>
			</linearGradient>
			<path class="st96" d="M1999.5,589.4c1.7-1.4,7.6,1,8.8,2.7c0.7,1,0.1,3.4-0.9,4c-1-0.7,0-1.7-0.3-2.6c-0.2-0.7-1-0.8-1.8-1
				C2003.1,591.9,2000.1,592.7,1999.5,589.4z"/>
			
				<linearGradient id="SVGID_82_" gradientUnits="userSpaceOnUse" x1="1593.4578" y1="-477.8147" x2="1577.7643" y2="-424.3406" gradientTransform="matrix(0.6687 0.7435 -0.7435 0.6687 557.5588 -258.6381)">
				<stop  offset="3.613782e-02" style="stop-color:#B3BDC3"/>
				<stop  offset="1" style="stop-color:#5D6E79"/>
			</linearGradient>
			<path class="st97" d="M1998.2,591.9c1.7-1.4,7.6,1,8.8,2.7c0.7,1,0.1,3.4-0.9,4c-1-0.7,0-1.7-0.3-2.6c-0.2-0.7-1-0.8-1.8-1
				C2001.8,594.5,1998.8,595.2,1998.2,591.9z"/>
			
				<linearGradient id="SVGID_83_" gradientUnits="userSpaceOnUse" x1="1594.8263" y1="-477.4131" x2="1579.1328" y2="-423.939" gradientTransform="matrix(0.6687 0.7435 -0.7435 0.6687 557.5588 -258.6381)">
				<stop  offset="3.613782e-02" style="stop-color:#B3BDC3"/>
				<stop  offset="1" style="stop-color:#5D6E79"/>
			</linearGradient>
			<path class="st98" d="M1997.3,594c1.7-1.4,7.6,1,8.8,2.7c0.7,1,0.1,3.4-0.9,4c-1-0.7,0-1.7-0.3-2.6c-0.2-0.7-1-0.8-1.8-1
				C2000.9,596.5,1997.9,597.3,1997.3,594z"/>
			
				<linearGradient id="SVGID_84_" gradientUnits="userSpaceOnUse" x1="1595.5819" y1="-477.1913" x2="1579.8884" y2="-423.7173" gradientTransform="matrix(0.6687 0.7435 -0.7435 0.6687 557.5588 -258.6381)">
				<stop  offset="3.613782e-02" style="stop-color:#B3BDC3"/>
				<stop  offset="1" style="stop-color:#5D6E79"/>
			</linearGradient>
			<path class="st99" d="M1997.7,596c1.2-1.1,5.6,0.7,6.5,2c0.5,0.7,0.1,2.5-0.7,3c-0.7-0.5,0-1.3-0.2-1.9c-0.2-0.5-0.8-0.6-1.3-0.7
				C2000.4,597.9,1998.2,598.4,1997.7,596z"/>
		</g>
		
			<linearGradient id="SVGID_85_" gradientUnits="userSpaceOnUse" x1="1897.5304" y1="1041.4253" x2="1902.1075" y2="1048.6908" gradientTransform="matrix(0.9464 -0.3229 0.3229 0.9464 -134.4313 220.9255)">
			<stop  offset="3.613782e-02" style="stop-color:#B3BDC3"/>
			<stop  offset="1" style="stop-color:#5D6E79"/>
		</linearGradient>
		<path class="st100" d="M1996.5,593c0.9,2.2,7.3-1.3,9-1.8c1.3,1.8-3.1,3.3-4.1,4.1c-1.1,0.9-1.3,2.7-2.5,3.5
			c-1.2,0.8-2.4,0.7-3.7,0.4c-0.6-0.1-1.3-0.4-1.8-0.2"/>
	</g>
	<linearGradient id="SVGID_86_" gradientUnits="userSpaceOnUse" x1="1945.9796" y1="666.6212" x2="1928.1064" y2="492.2493">
		<stop  offset="0" style="stop-color:#2C499D"/>
		<stop  offset="1" style="stop-color:#1B2B58"/>
	</linearGradient>
	<path class="st101" d="M1943.9,632.1c-4.5-4.7-4.6-7.1-3.5-13.8l-45-1.5c-3.2,13.1-5.7,24.9,2.6,34.7c9.2,10.9,64,40,62.9,44.8
		c-1.1,5.2-14.6,26-27.3,42.9c-0.1,0.1-0.2,0.2-0.3,0.3c-0.5,3.1-4,3.1-5.9,5.3c-0.1,0.2-0.2,0.3-0.2,0.5c-0.4,1.2-0.2,2.9-1,3.3
		c-0.1,0.1-0.2,0.2-0.2,0.3c-0.6,0.8-1.2,1.5-1.8,2.2c2.6,3.4,3.6,4.8,6.3,8.2c0.1-0.1,0.4-0.3,0.8-0.7c0.1-0.1,0.2-0.2,0.4-0.3
		c3.8,0.8,3.8-1,4.4-3.5c0.1-0.1,0.3-0.2,0.4-0.4c0.1-0.1,0.3-0.2,0.4-0.3c3.8,0.6,3-1.2,4.7-3.8c0.2-0.1,0.3-0.3,0.5-0.4
		c16.6-13.3,46-37.1,56.2-46.5c2.1-1.9,2.3-5.1,0.5-7.3C1982.9,677.3,1948.9,637.2,1943.9,632.1z"/>
	
		<linearGradient id="SVGID_87_" gradientUnits="userSpaceOnUse" x1="1928.6616" y1="539.9717" x2="1913.616" y2="591.2386" gradientTransform="matrix(1 0 -0.1279 1 73.9423 0)">
		<stop  offset="3.613782e-02" style="stop-color:#F0C32E"/>
		<stop  offset="1" style="stop-color:#EAA928"/>
	</linearGradient>
	<path class="st102" d="M1925.9,511.9L1925.9,511.9c-18.8,0-36,15.2-38.4,34l5.3,69.2c0.2,5-1.1,10.4,2.7,13.7
		c12,10.6,44.7-2.1,44.7-2.1c4.5,0,0.9-6,1.4-10.5l5.3-64.8C1948.8,537.1,1940.3,511.9,1925.9,511.9z"/>
	<g>
		<linearGradient id="SVGID_88_" gradientUnits="userSpaceOnUse" x1="1927.1039" y1="525.2242" x2="1927.389" y2="496.9886">
			<stop  offset="3.613782e-02" style="stop-color:#B3BDC3"/>
			<stop  offset="1" style="stop-color:#5D6E79"/>
		</linearGradient>
		<polygon class="st103" points="1920.5,500.1 1917.2,514.2 1932.9,526 1936.2,523.9 1937.3,508.6 		"/>
		<linearGradient id="SVGID_89_" gradientUnits="userSpaceOnUse" x1="1932.246" y1="465.8629" x2="1939.6614" y2="485.5422">
			<stop  offset="3.613782e-02" style="stop-color:#DE5353"/>
			<stop  offset="1" style="stop-color:#B60100"/>
		</linearGradient>
		<path class="st104" d="M1957.5,465.6c-0.7-4.4-4.6-7.1-8.8-7.4c-1.8-0.1-3.6,0.1-5.3,0.6c-0.5,0.2-4.4,2-4,2.4
			c-4.8-5-15.1-3.1-15.9,4.9c0,0-1.9-0.1-2-0.1c-3.4,0-6.9,2.5-8.5,5.4c-1.7,3-1.6,6,0.3,8.8c0.4,0.5,1.3,1.8,1.8,1.9
			c-0.2,0.4,0.1,1.2,0.2,1.7c0.2,1,4.4,13.9,4.4,16.2c1.2,0.1,2,0.2,2.5,0.3c-0.1-1.8,1.4-4.9,2.3-6.4c0.2-0.4,0.5-0.8,0.7-1.1
			c0-0.2,0-0.4,0.1-0.6c0.5-2.2,0.1-5,1.7-6.8c0.5-0.6,1.6-0.8,2-1.4c0.4-0.6,0-7.3,0.9-8.8c1-1.6,15.2-1.8,16.4-0.7
			c1.2,1.2,1.1,11.6,1.2,11.5c0.3-0.3,0.2-0.9,0.3-1.4c0.4-2.5,1.6-4.8,1.9-7.4c0.2-1.8,1.9-1.9,3.2-2.5
			C1956.3,473.2,1958,469.3,1957.5,465.6z"/>
		<linearGradient id="SVGID_90_" gradientUnits="userSpaceOnUse" x1="1934.1973" y1="485.1986" x2="1939.3311" y2="457.2482">
			<stop  offset="3.613782e-02" style="stop-color:#B3BDC3"/>
			<stop  offset="1" style="stop-color:#5D6E79"/>
		</linearGradient>
		<path class="st105" d="M1948.3,506.4l-0.2-33.6h-20.3l-0.7,8.3l-2.1,2.4l-1.6,9.4l-1.8,0l-0.1-2.1c-0.1-1.8-1.5-3.3-3.4-3.3
			c0,0,0,0-0.1,0c-1.8,0.1-3.2,1.6-3.2,3.4v2.3c0,1.9,1.5,3.2,3.4,3.3c1.1,0,2.1,1,2.1,2.1c0,0,0,3.1,0,3.1
			c0,4.8,26.4,15.1,27.9,6.5C1948.3,507.7,1948.3,507,1948.3,506.4z"/>
		<path class="st106" d="M1948,483.2h-4.9c-1.2,0-2.1,0.9-2.4,2.1h-1c-0.3-1.2-1.3-2.1-2.6-2.1h-5.5c-1.3,0-2.3,0.9-2.6,2.1h-8.6
			c-2.3,0-4.5,0.8-6.2,2.3l-0.3,0.3c-0.3,0.2-0.3,0.6-0.1,0.9c0.2,0.3,0.6,0.3,0.9,0.1l0.3-0.3c1.5-1.3,3.4-2,5.4-2h8.5l0,1
			c0.1,2.9,2.4,5.2,5.4,5.2h0.8c2.6,0,4.7-2.1,4.7-4.7v-1.5h0.8l0,1c0.1,2.9,2.2,5.2,4.9,5.2h0.7c2.4,0,4.3-2.1,4.3-4.7v-2.1
			C1950.5,484.4,1949.3,483.2,1948,483.2z M1938.5,488c0,1.9-1.5,3.4-3.4,3.4h-0.8c-2.3,0-4.1-1.8-4.1-4l0-1.6
			c0-0.8,0.6-1.4,1.4-1.4h5.5c0.8,0,1.5,0.7,1.5,1.5V488z M1949.2,488c0,1.9-1.4,3.4-3,3.4h-0.7c-2,0-3.6-1.8-3.7-4l0-1.6
			c0-0.8,0.6-1.4,1.2-1.4h4.9c0.7,0,1.2,0.7,1.2,1.5V488z"/>
	</g>
	<g>
		
			<rect x="1973.4" y="529" transform="matrix(0.9903 -0.1388 0.1388 0.9903 -54.4604 279.1875)" class="st78" width="1.7" height="2.1"/>
		
			<rect x="1975.3" y="527.7" transform="matrix(0.9903 -0.1388 0.1388 0.9903 -54.1919 280.4542)" class="st78" width="16.3" height="2.1"/>
		<path class="st78" d="M1992.4,526.5c-0.2,0-0.3,0-0.4,0l-0.4,0.1l0.3,2.1l0.4-0.1c0.1,0,0.2,0,0.3-0.1L1992.4,526.5z"/>
		<path class="st78" d="M1993.1,528.3c1.2-0.3,3.1-1,3-1.4s-2-0.5-3.3-0.5L1993.1,528.3z"/>
	</g>
	<path class="st107" d="M1942.1,567.7c-1,0.6-2.2,1-3.3,0.6c-0.9-0.3-1.5-0.9-2.4-1.2c-0.9-0.3-4.6-10.4-5-11.2
		c-0.3-0.6-1-1-1.4-1.5c-0.4-0.6-0.4-1.4-0.4-2.1c-0.2-2.2-1.4-4.1-2.4-6c-2.1-4-3.5-8.3-4.7-12.7c0-0.1-0.1-0.3-0.1-0.4
		c-3.2-10.7-16.9-14.2-24.5-6c-1.3,1.4-2.4,3.1-3,5c-2.7,7.8,1.1,16.2,4.3,23.7c0.3,0.8,0.7,1.7,0.6,2.5c-0.2,1.3-1.3,2.4-1.1,3.6
		c0.3,2,3.4,2.3,4.3,4.2c0.4,0.9,0.1,1.9,0.4,2.9c0.2,0.7,0.8,1.3,1.3,1.9c3.3,3.8,6,8,8.1,12.6c1.2,2.7,7.6,11.4,9.5,13.6
		c1.9,2.3,4.9,3.9,7.7,3.1c4.1-1.1,6.9-6.7,11-5.6c0.4,0.1,0.8,0.3,1.2,0.3c1.8,0.1,2.4-2.3,2.3-4.1c0,0,0,0,0,0
		c1.3,0.2,2.5-0.6,3-1.8c0.1-0.4,0.4-0.8,0.7-1.2c0.8-1,1.9-1.6,2.6-2.6c0.2-0.2,0.4-0.5,0.5-0.7
		C1950,581,1943.5,571.3,1942.1,567.7z"/>
	<g>
		<linearGradient id="SVGID_91_" gradientUnits="userSpaceOnUse" x1="1962.5446" y1="553.7545" x2="1946.8511" y2="607.2285">
			<stop  offset="3.613782e-02" style="stop-color:#B3BDC3"/>
			<stop  offset="1" style="stop-color:#5D6E79"/>
		</linearGradient>
		<polygon class="st108" points="1941.9,567.7 1977,542.2 1981.3,546.2 1950.4,585.5 		"/>
		<linearGradient id="SVGID_92_" gradientUnits="userSpaceOnUse" x1="1974.2352" y1="557.1855" x2="1958.5419" y2="610.6595">
			<stop  offset="3.613782e-02" style="stop-color:#B3BDC3"/>
			<stop  offset="1" style="stop-color:#5D6E79"/>
		</linearGradient>
		<path class="st109" d="M1976.6,533.2c0-1.5,0.2-3.2,1.5-4.1c0.8-0.6,1.9-0.6,2.8-0.4c1,0.3,1.8,0.8,2.6,1.3
			c1.5,1,1.5,14.5-2.2,16.1c-1.1,0.5-1.7-0.6-2.7-1.4C1975.5,542.6,1976.4,537.1,1976.6,533.2z"/>
		<linearGradient id="SVGID_93_" gradientUnits="userSpaceOnUse" x1="1974.1785" y1="557.1688" x2="1958.485" y2="610.6429">
			<stop  offset="3.613782e-02" style="stop-color:#B3BDC3"/>
			<stop  offset="1" style="stop-color:#5D6E79"/>
		</linearGradient>
		<path class="st110" d="M1977.1,530.4c0.1-2.2,5.8-5,7.9-4.7c1.2,0.1,2.6,2.1,2.4,3.4c-1.1,0.3-1.3-1.1-2.1-1.5
			c-0.7-0.3-1.3,0.3-1.9,0.7C1981.5,529.5,1980,532.2,1977.1,530.4z"/>
		<linearGradient id="SVGID_94_" gradientUnits="userSpaceOnUse" x1="1975.8711" y1="557.6656" x2="1960.1776" y2="611.1396">
			<stop  offset="3.613782e-02" style="stop-color:#B3BDC3"/>
			<stop  offset="1" style="stop-color:#5D6E79"/>
		</linearGradient>
		<path class="st111" d="M1978.2,533.1c0.1-2.2,5.8-5,7.9-4.7c1.2,0.1,2.6,2.1,2.4,3.4c-1.1,0.3-1.3-1.1-2.1-1.5
			c-0.7-0.3-1.3,0.3-1.9,0.7C1982.5,532.1,1981,534.8,1978.2,533.1z"/>
		<linearGradient id="SVGID_95_" gradientUnits="userSpaceOnUse" x1="1977.2396" y1="558.0672" x2="1961.5461" y2="611.5413">
			<stop  offset="3.613782e-02" style="stop-color:#B3BDC3"/>
			<stop  offset="1" style="stop-color:#5D6E79"/>
		</linearGradient>
		<path class="st112" d="M1979.1,535.1c0.1-2.2,5.8-5,7.9-4.7c1.2,0.1,2.6,2.1,2.4,3.4c-1.1,0.3-1.3-1.1-2.1-1.5
			c-0.7-0.3-1.3,0.3-1.9,0.7C1983.4,534.2,1981.9,536.9,1979.1,535.1z"/>
		<linearGradient id="SVGID_96_" gradientUnits="userSpaceOnUse" x1="1977.9952" y1="558.2889" x2="1962.3018" y2="611.763">
			<stop  offset="3.613782e-02" style="stop-color:#B3BDC3"/>
			<stop  offset="1" style="stop-color:#5D6E79"/>
		</linearGradient>
		<path class="st113" d="M1980.9,536.1c0-1.6,4.3-3.7,5.8-3.5c0.9,0.1,1.9,1.6,1.7,2.5c-0.8,0.2-0.9-0.8-1.6-1.1
			c-0.5-0.2-0.9,0.2-1.4,0.5C1984.1,535.4,1983,537.4,1980.9,536.1z"/>
	</g>
	<path class="st15" d="M1933.4,777.6c0.5-0.9-0.2-1.4-0.9-1.7c0.1-0.1,0.1-0.1,0.2-0.2c0.4-0.6,0.3-1.3-0.2-1.8
		c-2.9-2.9-4.5-12.1-3.5-13.6c0.1-0.2,0.2-0.3,0.3-0.5c-2.2-2.4-4.3-4.9-6.5-7.4c-3.2,1.2-8.5,2.5-9,4.5c-0.5,2.2,0.3,6.5,1.4,8.2
		c2.1,3.5,4.3,7.1,6.2,10.7c1.3,2.4,1.7,6.3,3.6,7.9c1.7,1.4,12.8,2.9,14.8,1.1C1942.8,782.2,1934.6,778.8,1933.4,777.6z"/>
</g>
<g>
	<g>
		
			<linearGradient id="SVGID_97_" gradientUnits="userSpaceOnUse" x1="2057.8286" y1="524.1784" x2="2066.6699" y2="523.0958" gradientTransform="matrix(0.9999 1.323165e-02 -1.323165e-02 0.9999 -13.9941 -18.1518)">
			<stop  offset="0" style="stop-color:#D46461"/>
			<stop  offset="0.9639" style="stop-color:#EAA991"/>
		</linearGradient>
		<path class="st114" d="M2045.8,554.5L2045.8,554.5l-14-43.1l0,0c-0.6,0.1-0.9,0.7-0.7,1.2l13.4,41.2
			C2044.7,554.3,2045.3,554.7,2045.8,554.5z"/>
		<g>
			
				<linearGradient id="SVGID_98_" gradientUnits="userSpaceOnUse" x1="2011.0031" y1="178.9503" x2="2025.551" y2="201.6071" gradientTransform="matrix(0.9649 0.2625 -0.2625 0.9649 158.5739 -172.006)">
				<stop  offset="3.613782e-02" style="stop-color:#EAA991"/>
				<stop  offset="1" style="stop-color:#D46461"/>
			</linearGradient>
			<polygon class="st115" points="2045.8,554.5 2073.3,548.8 2059.3,505.7 2031.8,511.4 			"/>
			<polygon class="st83" points="2045.5,549.5 2070.5,544.3 2058.5,507.5 2033.6,512.7 			"/>
		</g>
	</g>
</g>
</svg>
