<svg xmlns="http://www.w3.org/2000/svg" xmlns:xlink="http://www.w3.org/1999/xlink" viewBox="0 0 412 683.6"><defs><style>.a,.f{fill:#0e0e11;}.a{stroke:#3b3b45;stroke-width:2px;}.b{fill:url(#c);}.c{fill:#f9f9fa;}.d{fill:#cfdce6;}.e{fill:#e4eaef;}.g{fill:#fff;opacity:0.054;}.h{fill:url(#h);}.i{fill:#035a81;opacity:0.257;}.j{stroke:none;}.k{fill:none;}.l{filter:url(#f);}.m{filter:url(#d);}.n{filter:url(#a);}</style><filter id="a" x="0" y="0" width="412" height="683.6" filterUnits="userSpaceOnUse"><feOffset dy="3" input="SourceAlpha"/><feGaussianBlur stdDeviation="25" result="b"/><feFlood flood-opacity="0.302"/><feComposite operator="in" in2="b"/><feComposite in="SourceGraphic"/></filter><linearGradient id="c" x1="0.088" y1="0.03" x2="0.971" y2="0.972" gradientUnits="objectBoundingBox"><stop offset="0" stop-color="#e33372"/><stop offset="0.16" stop-color="#f81b6c"/><stop offset="1" stop-color="#01228d"/></linearGradient><filter id="d" x="93.5" y="149.5" width="227" height="179" filterUnits="userSpaceOnUse"><feOffset dy="2" input="SourceAlpha"/><feGaussianBlur stdDeviation="2.5" result="e"/><feFlood flood-color="#c4c4c4"/><feComposite operator="in" in2="e"/><feComposite in="SourceGraphic"/></filter><filter id="f" x="93.5" y="333.5" width="227" height="179" filterUnits="userSpaceOnUse"><feOffset dy="2" input="SourceAlpha"/><feGaussianBlur stdDeviation="2.5" result="g"/><feFlood flood-color="#c4c4c4"/><feComposite operator="in" in2="g"/><feComposite in="SourceGraphic"/></filter><linearGradient id="h" x1="0.5" x2="0.5" y2="1" gradientUnits="objectBoundingBox"><stop offset="0" stop-opacity="0.251"/><stop offset="1" stop-color="#545454" stop-opacity="0.251"/></linearGradient></defs><g transform="translate(14 -27)"><g class="n" transform="matrix(1, 0, 0, 1, -14, 27)"><g class="a" transform="translate(75 72)"><rect class="j" width="262" height="533.6" rx="40"/><rect class="k" x="1" y="1" width="260" height="531.6" rx="39"/></g></g><rect class="b" width="234" height="505.643" rx="26" transform="translate(76 113)"/><rect class="c" width="234" height="505.643" rx="26" transform="translate(76 113)"/><path class="d" d="M26,0H208a26,26,0,0,1,26,26V57a0,0,0,0,1,0,0H0a0,0,0,0,1,0,0V26A26,26,0,0,1,26,0Z" transform="translate(76 113)"/><circle class="c" cx="12.5" cy="12.5" r="12.5" transform="translate(93 134)"/><g transform="translate(14 38)"><g class="m" transform="matrix(1, 0, 0, 1, -28, -11)"><rect class="e" width="212" height="164" rx="9" transform="translate(101 155)"/></g><rect class="c" width="202" height="105" transform="translate(78 172)"/><path class="d" d="M155.225,226h39.959L173.36,200.717l-9.836,16.6-11.373-13.832L144.774,226Z" transform="translate(9.226 11.283)"/></g><g transform="translate(0 -13)"><g class="l" transform="matrix(1, 0, 0, 1, -14, 40)"><rect class="e" width="212" height="164" rx="9" transform="translate(101 339)"/></g><rect class="c" width="202" height="105" transform="translate(92 407)"/><path class="d" d="M155.225,226h39.959L173.36,200.717l-9.836,16.6-11.373-13.832L144.774,226Z" transform="translate(23.226 246.283)"/><circle class="c" cx="6.5" cy="6.5" r="6.5" transform="translate(105 388)"/></g><path class="f" d="M21,21A16,16,0,0,1,5,5V3.875H5a3.976,3.976,0,0,0-1.211-2.74A3.977,3.977,0,0,0,1,0H133V5a16,16,0,0,1-16,16ZM133,4.006V0h4.02A4.14,4.14,0,0,0,133,4.006Z" transform="translate(123.001 112.9)"/><path class="f" d="M0,121V90a4,4,0,0,1,4-4v39A4,4,0,0,1,0,121ZM265.9,52a4,4,0,0,1,4,4v52a4,4,0,0,1-4,4ZM0,73V42a4,4,0,0,1,4-4V77A4,4,0,0,1,0,73ZM0,17V4A4,4,0,0,1,4,0V21A4,4,0,0,1,0,17Z" transform="translate(57.1 170)"/><g transform="translate(-6302 -8056)"><rect class="g" width="32" height="4.674" rx="2.337" transform="translate(6469.468 8172.475)"/><circle class="h" cx="4.674" cy="4.674" r="4.674" transform="translate(6508.877 8170.138)"/><circle class="i" cx="2.003" cy="2.003" r="2.003" transform="translate(6511.548 8172.809)"/></g><rect class="f" width="87" height="4" rx="2" transform="translate(149 603)"/></g></svg>