<svg width="350" height="350" xmlns="http://www.w3.org/2000/svg" xmlns:xlink="http://www.w3.org/1999/xlink" viewBox="0 0 323.663 338.491"><defs><style>.a{fill:rgba(239,63,97,0.14);}.b{fill:#fffdfa;}.c{fill:#ffeba8;}.d{fill:#fafbfb;}.e{fill:#cfd8dc;}.f{fill:#004d40;}.g{fill:url(#a);}.h{fill:url(#b);}.i{fill:url(#c);}.j{fill:url(#d);}.k{fill:url(#e);}.l{fill:url(#f);}.m{fill:url(#g);}.n{fill:url(#h);}.o{fill:url(#i);}.p{fill:url(#j);}.q{fill:url(#k);}.r{fill:url(#l);}.s{fill:url(#m);}.t{fill:url(#n);}.u{fill:url(#o);}.v{fill:url(#p);}.w{fill:url(#q);}.x{fill:url(#r);}.y{fill:url(#s);}.z{fill:url(#t);}.aa{fill:url(#u);}.ab{fill:url(#v);}.ac{fill:url(#w);}.ad{fill:url(#x);}.ae{fill:url(#y);}.af{fill:url(#z);}.ag{fill:url(#aa);}.ah{fill:url(#ab);}.ai{fill:url(#ac);}.aj{fill:url(#ad);}.ak{fill:url(#ae);}.al{fill:url(#af);}.am{fill:url(#ag);}.an{fill:#ffa726;}.ao{fill:url(#ah);}.ap{fill:url(#ai);}.aq{fill:url(#aj);}.ar{fill:url(#ak);}.as{fill:#b0bec5;}.at{fill:url(#al);}.au{fill:url(#am);}.av{fill:#e0f7fa;}.aw{fill:url(#an);}.ax{fill:url(#ao);}.ay{fill:url(#ap);}.az{fill:url(#aq);}.ba{fill:url(#ar);}.bb{fill:url(#as);}.bc{fill:url(#at);}.bd{fill:url(#au);}.be{fill:url(#av);}.bf{fill:url(#aw);}.bg{fill:url(#ax);}.bh{fill:url(#ay);}.bi{fill:url(#az);}.bj{fill:url(#ba);}.bk{fill:url(#bb);}.bl{fill:url(#bc);}.bm{fill:url(#bd);}.bn{fill:url(#be);}.bo{fill:#ff5252;}.bp{fill:#212121;}.bq{fill:url(#bf);}.br,.bv,.cb,.cc{opacity:0.57;}.br{fill:url(#bg);}.bs{fill:#3a3a59;opacity:0.25;}.bt{fill:#ff6f00;}.bu{fill:url(#bh);}.bv{fill:url(#bi);}.bw{fill:#f5f5f5;}.bx{fill:url(#bj);}.by{fill:url(#bk);}.bz{fill:url(#bl);}.ca{fill:#e6e7e7;}.cb{fill:url(#bm);}.cc{fill:url(#bq);}.cd{fill:#f6c59a;}.ce{fill:url(#bu);}.cf{fill:#263238;}.cg{fill:url(#bv);}.ch{fill:url(#bw);}.ci{fill:url(#bx);}.cj{fill:url(#by);}.ck{fill:url(#bz);}.cl{fill:url(#ca);}.cm{fill:url(#cb);}.cn{fill:url(#cc);}.co{fill:url(#cd);}.cp{fill:url(#ce);}.cq{fill:url(#cf);}.cr{fill:#424242;}.cs{fill:url(#cg);}.ct{fill:url(#ch);}.cu{fill:#26c6da;}.cv{fill:url(#ci);}.cw{fill:url(#cj);}.cx{fill:url(#ck);}.cy{fill:url(#cm);}.cz{fill:url(#cn);}.da{fill:url(#co);}.db{fill:url(#cp);}.dc{fill:url(#cq);}.dd{fill:#fff;}.de{fill:url(#cr);}.df{fill:url(#cs);}.dg{fill:url(#ct);}.dh{fill:url(#cu);}.di{fill:#5d4037;}.dj{fill:url(#cv);}.dk{fill:url(#cw);}.dl{fill:url(#cx);}.dm{fill:url(#cy);}.dn{fill:url(#cz);}.do{fill:url(#da);}.dp{fill:url(#db);}.dq{fill:url(#dc);}.dr{fill:url(#dd);}.ds{fill:url(#de);}.dt{fill:url(#df);}.du{fill:url(#dg);}.dv{fill:url(#dh);}.dw{fill:url(#di);}.dx{fill:url(#dj);}.dy{fill:url(#dk);}.dz{fill:url(#dl);}.ea{fill:url(#dm);}.eb{fill:url(#dn);}.ec{fill:url(#do);}.ed{fill:#937963;}</style><linearGradient id="a" x1="7.75" y1="0.5" x2="8.75" y2="0.5" gradientUnits="objectBoundingBox"><stop offset="0" stop-color="#ff5252"/><stop offset="1" stop-color="#1565c0"/></linearGradient><linearGradient id="b" x1="7.785" y1="0.503" x2="8.785" y2="0.503" xlink:href="#a"/><linearGradient id="c" x1="28.748" y1="0.501" x2="29.739" y2="0.501" xlink:href="#a"/><linearGradient id="d" x1="11.104" y1="0.499" x2="12.103" y2="0.499" xlink:href="#a"/><linearGradient id="e" x1="7.969" y1="0.496" x2="8.97" y2="0.496" xlink:href="#a"/><linearGradient id="f" x1="6.706" y1="0.499" x2="7.708" y2="0.499" xlink:href="#a"/><linearGradient id="g" x1="7.42" y1="0.497" x2="8.422" y2="0.497" xlink:href="#a"/><linearGradient id="h" x1="7.905" y1="0.499" x2="8.9" y2="0.499" xlink:href="#a"/><linearGradient id="i" x1="11.525" y1="0.494" x2="12.526" y2="0.494" xlink:href="#a"/><linearGradient id="j" x1="18" y1="0.5" x2="19.004" y2="0.5" xlink:href="#a"/><linearGradient id="k" x1="25.461" y1="0.498" x2="26.471" y2="0.498" xlink:href="#a"/><linearGradient id="l" x1="5.074" y1="0.498" x2="6.075" y2="0.498" xlink:href="#a"/><linearGradient id="m" x1="4.967" y1="0.5" x2="5.967" y2="0.5" xlink:href="#a"/><linearGradient id="n" x1="7.103" y1="0.5" x2="8.104" y2="0.5" xlink:href="#a"/><linearGradient id="o" x1="1.89" y1="0.501" x2="2.888" y2="0.501" xlink:href="#a"/><linearGradient id="p" x1="5.513" y1="0.502" x2="6.513" y2="0.502" xlink:href="#a"/><linearGradient id="q" x1="1.215" y1="0.5" x2="2.215" y2="0.5" xlink:href="#a"/><linearGradient id="r" x1="5.128" y1="0.499" x2="6.126" y2="0.499" xlink:href="#a"/><linearGradient id="s" x1="2.535" y1="0.501" x2="3.536" y2="0.501" xlink:href="#a"/><linearGradient id="t" x1="8.331" y1="0.5" x2="9.333" y2="0.5" xlink:href="#a"/><linearGradient id="u" x1="13.95" y1="0.496" x2="14.952" y2="0.496" xlink:href="#a"/><linearGradient id="v" x1="13.071" y1="0.497" x2="14.069" y2="0.497" xlink:href="#a"/><linearGradient id="w" x1="-1.657" y1="0.5" x2="-0.655" y2="0.5" xlink:href="#a"/><linearGradient id="x" x1="-0.16" y1="0.499" x2="0.843" y2="0.499" xlink:href="#a"/><linearGradient id="y" x1="-2.694" y1="0.5" x2="-1.694" y2="0.5" xlink:href="#a"/><linearGradient id="z" x1="-1.653" y1="0.5" x2="-0.655" y2="0.5" xlink:href="#a"/><linearGradient id="aa" x1="1.817" y1="0.498" x2="2.815" y2="0.498" xlink:href="#a"/><linearGradient id="ab" x1="-1.235" y1="0.495" x2="-0.233" y2="0.495" xlink:href="#a"/><linearGradient id="ac" x1="2.917" y1="0.499" x2="3.917" y2="0.499" xlink:href="#a"/><linearGradient id="ad" x1="0.188" y1="0.489" x2="1.188" y2="0.489" xlink:href="#a"/><linearGradient id="ae" x1="6.795" y1="0.5" x2="7.791" y2="0.5" xlink:href="#a"/><linearGradient id="af" x1="14.48" y1="0.5" x2="15.472" y2="0.5" xlink:href="#a"/><linearGradient id="ag" x1="7.462" y1="0.486" x2="8.471" y2="0.486" xlink:href="#a"/><linearGradient id="ah" x1="4.556" y1="0.434" x2="4.556" y2="-0.097" gradientUnits="objectBoundingBox"><stop offset="0.011" stop-color="#ffa726"/><stop offset="1" stop-color="#f26522"/></linearGradient><linearGradient id="ai" y1="0.499" x2="1.002" y2="0.499" gradientUnits="objectBoundingBox"><stop offset="0" stop-color="#263238"/><stop offset="1" stop-color="#000001"/></linearGradient><linearGradient id="aj" x1="0.799" y1="0.245" x2="0.799" y2="1.179" xlink:href="#ai"/><linearGradient id="ak" x1="-7.81" y1="16.832" x2="-7.094" y2="16.621" gradientUnits="objectBoundingBox"><stop offset="0.036" stop-color="#b0bec5"/><stop offset="1" stop-color="#546e7a"/></linearGradient><linearGradient id="al" x1="-22.987" y1="2.38" x2="-22.717" y2="2.346" gradientUnits="objectBoundingBox"><stop offset="0" stop-color="#000001"/><stop offset="1" stop-color="#697276"/></linearGradient><linearGradient id="am" x1="-13.101" y1="2.237" x2="-13.251" y2="1.667" xlink:href="#al"/><linearGradient id="an" x1="75.654" y1="61.081" x2="76.442" y2="61.684" xlink:href="#ak"/><linearGradient id="ao" x1="0.595" y1="0.147" x2="0.399" y2="1.043" gradientUnits="objectBoundingBox"><stop offset="0" stop-color="#c51162"/><stop offset="1" stop-color="#072759"/></linearGradient><linearGradient id="ap" x1="0.538" y1="0.011" x2="0.503" y2="0.419" gradientUnits="objectBoundingBox"><stop offset="0" stop-color="#0d47a1"/><stop offset="1" stop-color="#072759"/></linearGradient><linearGradient id="aq" x1="0.501" y1="0.271" x2="0.501" y2="1.168" xlink:href="#ai"/><linearGradient id="ar" x1="0.036" y1="18.024" x2="0.036" y2="18.916" xlink:href="#ai"/><linearGradient id="as" x1="0.501" y1="0.273" x2="0.501" y2="1.169" xlink:href="#ai"/><linearGradient id="at" x1="0.5" y1="0.905" x2="0.5" y2="0.473" xlink:href="#ai"/><linearGradient id="au" x1="0.501" y1="0.277" x2="0.501" y2="1.173" xlink:href="#ai"/><linearGradient id="av" x1="0.001" y1="0.502" x2="0.999" y2="0.502" xlink:href="#ap"/><linearGradient id="aw" x1="21.717" y1="-5.063" x2="21.701" y2="-5.437" gradientUnits="objectBoundingBox"><stop offset="0.036" stop-color="#ff5252"/><stop offset="1" stop-color="#d50000"/></linearGradient><linearGradient id="ax" x1="0.557" y1="0.405" x2="0.813" y2="0.168" xlink:href="#ak"/><linearGradient id="ay" x1="5.938" y1="-3.681" x2="5.938" y2="-2.522" xlink:href="#aw"/><linearGradient id="az" x1="3.309" y1="0.393" x2="3.286" y2="0.013" xlink:href="#aw"/><linearGradient id="ba" x1="-3.554" y1="1.142" x2="-3.736" y2="0.694" xlink:href="#ak"/><linearGradient id="bb" x1="0.883" y1="-0.387" x2="0.883" y2="0.973" xlink:href="#aw"/><linearGradient id="bc" x1="0.412" y1="0.169" x2="0.657" y2="1.526" xlink:href="#aw"/><linearGradient id="bd" x1="0.829" y1="0.821" x2="0.852" y2="-0.223" xlink:href="#ak"/><linearGradient id="be" x1="0.702" y1="0.135" x2="0.792" y2="-0.214" xlink:href="#ak"/><linearGradient id="bf" x1="0.696" y1="0.773" x2="0.402" y2="3.907" xlink:href="#ak"/><radialGradient id="bg" cx="90.332" cy="163.08" r="657.16" gradientTransform="translate(78.118 160.1) scale(0.135 0.018)" gradientUnits="userSpaceOnUse"><stop offset="0" stop-color="#37474f"/><stop offset="1" stop-color="#37474f" stop-opacity="0"/></radialGradient><linearGradient id="bh" x1="0.5" y1="1.206" x2="0.5" y2="-0.224" gradientUnits="objectBoundingBox"><stop offset="0" stop-color="#ff6f00"/><stop offset="1" stop-color="#a64800"/></linearGradient><radialGradient id="bi" cx="26.419" cy="98.478" r="28.498" gradientTransform="translate(21.974 95.721) scale(0.168 0.028)" gradientUnits="userSpaceOnUse"><stop offset="0" stop-color="#37474f"/><stop offset="0.037" stop-color="#37474f" stop-opacity="0.965"/><stop offset="1" stop-color="#37474f" stop-opacity="0"/></radialGradient><linearGradient id="bj" x1="0.496" y1="0.55" x2="0.496" y2="-0.127" gradientUnits="objectBoundingBox"><stop offset="0.177" stop-color="#f5f5f5"/><stop offset="1" stop-color="#bdbdbd"/></linearGradient><linearGradient id="bk" x1="0.147" y1="0.504" x2="1.531" y2="0.504" gradientUnits="objectBoundingBox"><stop offset="0.011" stop-color="#937963"/><stop offset="1" stop-color="#4a392e"/></linearGradient><linearGradient id="bl" x1="0.497" y1="0.607" x2="0.497" y2="-0.069" xlink:href="#bj"/><radialGradient id="bm" cx="32.587" cy="105.545" r="28.498" gradientTransform="translate(27.105 102.589) scale(0.168 0.028)" xlink:href="#bi"/><radialGradient id="bq" cx="41.223" cy="99.264" r="28.498" gradientTransform="translate(34.289 96.484) scale(0.168 0.028)" xlink:href="#bi"/><linearGradient id="bu" x1="1.062" y1="0.374" x2="3.314" y2="0.822" xlink:href="#ak"/><linearGradient id="bv" x1="0.48" y1="0.37" x2="0.385" y2="0.842" gradientUnits="objectBoundingBox"><stop offset="0" stop-color="#ffed45"/><stop offset="0.991" stop-color="#fcb41c"/></linearGradient><linearGradient id="bw" x1="20.614" y1="0.662" x2="20.921" y2="-0.05" xlink:href="#ak"/><linearGradient id="bx" x1="1.023" y1="0.561" x2="2.467" y2="-1.158" xlink:href="#ak"/><linearGradient id="by" x1="0.786" y1="1.646" x2="0.397" y2="1.792" xlink:href="#ak"/><linearGradient id="bz" x1="5.569" y1="-21.027" x2="8.234" y2="-22.513" xlink:href="#ak"/><linearGradient id="ca" x1="8.613" y1="-30.649" x2="13.196" y2="-32.808" xlink:href="#ak"/><linearGradient id="cb" x1="8.496" y1="-27.259" x2="14.782" y2="-29.259" xlink:href="#ak"/><linearGradient id="cc" x1="6.939" y1="-27.993" x2="12.804" y2="-30.026" xlink:href="#ak"/><linearGradient id="cd" x1="14.881" y1="-40.066" x2="22.396" y2="-42.868" xlink:href="#ak"/><linearGradient id="ce" x1="5.053" y1="4.546" x2="5.603" y2="5.128" xlink:href="#ak"/><linearGradient id="cf" x1="0.234" y1="0.06" x2="0.391" y2="0.888" gradientUnits="objectBoundingBox"><stop offset="0" stop-color="#5d4037"/><stop offset="1" stop-color="#8d6e63"/></linearGradient><linearGradient id="cg" x1="0.532" y1="0.423" x2="0.393" y2="-0.595" gradientUnits="objectBoundingBox"><stop offset="0" stop-color="#bcaaa4"/><stop offset="0.778" stop-color="#8d6e63"/></linearGradient><linearGradient id="ch" x1="0.338" y1="0.293" x2="1.038" y2="1.292" gradientUnits="objectBoundingBox"><stop offset="0" stop-color="#26c6da"/><stop offset="1" stop-color="#072759"/></linearGradient><linearGradient id="ci" x1="0.498" y1="0.271" x2="0.498" y2="1.168" xlink:href="#ai"/><linearGradient id="cj" x1="1.918" y1="9.086" x2="1.918" y2="9.987" xlink:href="#ai"/><linearGradient id="ck" x1="0.502" y1="0.271" x2="0.502" y2="1.169" xlink:href="#ai"/><linearGradient id="cm" x1="0.5" y1="0.908" x2="0.5" y2="0.475" xlink:href="#ai"/><linearGradient id="cn" x1="0.5" y1="0.272" x2="0.5" y2="1.172" xlink:href="#ai"/><linearGradient id="co" x1="0.55" y1="0.271" x2="0.55" y2="1.169" xlink:href="#ai"/><linearGradient id="cp" x1="0.002" y1="0.516" x2="1.002" y2="0.516" xlink:href="#ai"/><linearGradient id="cq" x1="0.004" y1="0.466" x2="1.004" y2="0.466" xlink:href="#ai"/><linearGradient id="cr" x1="0.437" y1="0.37" x2="0.686" y2="0.809" gradientUnits="objectBoundingBox"><stop offset="0.036" stop-color="#0277bd"/><stop offset="1" stop-color="#01579b"/></linearGradient><linearGradient id="cs" x1="15.733" y1="1.144" x2="16.046" y2="0.303" xlink:href="#ak"/><linearGradient id="ct" x1="-20.809" y1="0.725" x2="-19.743" y2="-1.076" xlink:href="#ak"/><linearGradient id="cu" x1="0.157" y1="0.423" x2="0.017" y2="-0.595" xlink:href="#ai"/><linearGradient id="cv" x1="-1.736" y1="0.293" x2="-1.037" y2="1.292" xlink:href="#bk"/><linearGradient id="cw" x1="-6.587" y1="0.271" x2="-6.587" y2="1.168" xlink:href="#ai"/><linearGradient id="cx" x1="-6.681" y1="6.943" x2="-6.681" y2="7.844" xlink:href="#ai"/><linearGradient id="cy" x1="-12.655" y1="0.271" x2="-12.655" y2="1.169" xlink:href="#ai"/><linearGradient id="cz" x1="-3.335" y1="0.499" x2="-2.334" y2="0.499" xlink:href="#ai"/><linearGradient id="da" x1="-1.231" y1="0.908" x2="-1.231" y2="0.475" xlink:href="#ai"/><linearGradient id="db" x1="-0.815" y1="0.272" x2="-0.815" y2="1.172" xlink:href="#ai"/><linearGradient id="dc" x1="-2.639" y1="0.271" x2="-2.639" y2="1.169" xlink:href="#ai"/><linearGradient id="dd" x1="0.312" y1="-0.052" x2="0.517" y2="0.702" xlink:href="#ai"/><linearGradient id="de" x1="-2.086" y1="0.802" x2="-2.439" y2="2.571" xlink:href="#ak"/><linearGradient id="df" x1="-6.725" y1="2.296" x2="-8.169" y2="5.413" xlink:href="#ak"/><linearGradient id="dg" x1="-6.683" y1="8.734" x2="-8.204" y2="20.294" xlink:href="#ak"/><linearGradient id="dh" x1="-6.519" y1="8.218" x2="-8.04" y2="19.778" xlink:href="#ak"/><linearGradient id="di" x1="-6.386" y1="7.82" x2="-7.907" y2="19.38" xlink:href="#ak"/><linearGradient id="dj" x1="-8.734" y1="10.15" x2="-10.796" y2="25.979" xlink:href="#ak"/><linearGradient id="dk" x1="2.251" y1="17.234" x2="2.813" y2="17.967" xlink:href="#ak"/><linearGradient id="dl" x1="1.985" y1="0.587" x2="3.505" y2="0.563" gradientUnits="objectBoundingBox"><stop offset="0" stop-color="#f16461"/><stop offset="0.964" stop-color="#ffab91"/></linearGradient><linearGradient id="dm" x1="0.083" y1="0.453" x2="0.524" y2="0.955" gradientUnits="objectBoundingBox"><stop offset="0.036" stop-color="#ffab91"/><stop offset="1" stop-color="#f16461"/></linearGradient><linearGradient id="dn" x1="7.155" y1="14.406" x2="7.925" y2="15.059" xlink:href="#ak"/><linearGradient id="do" x1="0.575" y1="0.132" x2="0.67" y2="-0.224" xlink:href="#ak"/></defs><g transform="translate(-26 8)"><path class="a" d="M118.067,29.257c52.268-90.813,118.067,52.86,118.067,118.067A118.067,118.067,0,0,1,0,147.324C0,82.117,65.8,120.07,118.067,29.257Z" transform="matrix(0.914, 0.407, -0.407, 0.914, 133.944, -8)"/><g transform="translate(75.674 64.076)"><g transform="translate(0.939)"><g transform="translate(115.314 23.314)"><rect class="b" width="36.226" height="27.797" transform="translate(23.314)"/><rect class="b" width="19.413" height="12.105" transform="translate(63.44 27.439)"/><rect class="b" width="13.764" height="8.608" transform="translate(63.44 14.661)"/><rect class="b" width="32.819" height="8.608" transform="translate(41.023 46.314)"/><rect class="b" width="19.413" height="20.579" transform="translate(0 2.69)"/><rect class="b" width="51.514" height="12.105" transform="translate(9.684 30.756)"/></g><g transform="translate(35.632 41.233)"><rect class="b" width="15.871" height="20.848" transform="translate(41.162 10.248) rotate(90)"/><rect class="b" width="8.518" height="9.101" transform="translate(20.616 27.817) rotate(90)"/><rect class="b" width="6.053" height="6.456" transform="translate(30.177 27.844) rotate(90)"/><rect class="b" width="14.392" height="6.456" transform="translate(6.456 17.994) rotate(90)"/><rect class="b" width="8.518" height="15.423" transform="translate(39.159 0) rotate(90)"/><rect class="b" width="22.596" height="9.101" transform="translate(18.102 4.292) rotate(90)"/></g><rect class="c" width="214.218" height="1.39" transform="translate(0 91.417)"/><g transform="translate(73.618)"><circle class="c" cx="11.747" cy="11.747" r="11.747"/><circle class="d" cx="10.491" cy="10.491" r="10.491" transform="translate(1.255 1.255)"/><circle class="e" cx="0.448" cy="0.448" r="0.448" transform="translate(11.298 11.298)"/><g transform="translate(1.639 1.653)"><g transform="translate(0 9.884)"><rect class="e" width="0.404" height="1.928" transform="translate(20.198 0) rotate(90)"/><rect class="e" width="0.404" height="1.928" transform="translate(1.928 0.023) rotate(90)"/></g><g transform="translate(9.939)"><rect class="e" width="0.404" height="1.928" transform="translate(0.404 20.176) rotate(180)"/><rect class="e" width="0.404" height="1.928" transform="translate(0.404 1.928) rotate(180)"/></g></g><path class="e" d="M194.5,25.7l6.635.224-6.635.269Z" transform="translate(-181.857 -14.178)"/><path class="e" d="M192.3,20.028l4.842-4.528-4.528,4.887Z" transform="translate(-180.643 -8.551)"/></g></g><g transform="translate(66.707 56.785)"><path class="f" d="M237.219,234.355c-14.75-18.427-12.554-43.848-23.134-64.247A43.569,43.569,0,0,0,201.531,155c-.135-.09,0-.314.134-.224,19.458,13.181,19.951,40.127,26.363,60.481a59.889,59.889,0,0,0,9.415,18.83C237.668,234.31,237.354,234.579,237.219,234.355Z" transform="translate(-177.855 -142.156)"/><path class="g" d="M163.187,135.963c-1.39-.986-2.825-1.883-4.3-2.735a37.3,37.3,0,0,0-9.864-3.856.348.348,0,0,1,.09-.673,33.367,33.367,0,0,1,11.253,2.107c2.869,1.121,7.353,3.094,8.474,6.142.4,1.031-.852,1.749-1.7,1.569C165.608,138.16,164.442,136.86,163.187,135.963Z" transform="translate(-148.791 -127.783)"/><path class="h" d="M177.623,169.967a33.853,33.853,0,0,1-8.429-4.483c-.4-.269,0-.807.4-.628a32.09,32.09,0,0,0,8.429,2.511c2.556.493,5.694,0,8.07,1.031.9.4,1.39,1.973.224,2.421C183.586,171.985,180.268,170.864,177.623,169.967Z" transform="translate(-159.954 -147.709)"/><path class="i" d="M214.941,142.546c-.762-1.973.762-4.708,1.121-6.77a23.391,23.391,0,0,0-.134-8.653c-.09-.4.538-.673.717-.269a21.366,21.366,0,0,1,2.018,8.474c0,2.2-.134,6.546-2.376,7.577A1,1,0,0,1,214.941,142.546Z" transform="translate(-185.167 -126.655)"/><path class="j" d="M242.2,169.731c.09-1.7,1.166-3.138,1.883-4.708.762-1.7,1.48-3.407,2.062-5.156a55.428,55.428,0,0,0,3.049-11.3c.045-.359.583-.359.583,0,.09,4.08.179,7.756-.852,11.747a41.542,41.542,0,0,1-1.838,5.649c-.673,1.614-1.3,3.676-2.78,4.708A1.272,1.272,0,0,1,242.2,169.731Z" transform="translate(-200.319 -138.596)"/><path class="k" d="M197.4,205.005a28.389,28.389,0,0,1-6.635-4.618c-.314-.269.135-.717.448-.538a48.844,48.844,0,0,0,7.532,2.78c2.152.628,4.842.717,6.77,1.928a1.352,1.352,0,0,1-.4,2.421C202.56,207.471,199.646,206.036,197.4,205.005Z" transform="translate(-171.889 -167.01)"/><path class="l" d="M257.523,199.112c.538-1.524,1.793-2.78,2.69-4.125.941-1.39,1.793-2.78,2.6-4.214a38.237,38.237,0,0,0,3.99-9.953c.09-.493.942-.359.852.134a37.949,37.949,0,0,1-2.421,10.94c-1.211,2.959-3,7.129-5.873,8.788A1.319,1.319,0,0,1,257.523,199.112Z" transform="translate(-208.739 -156.364)"/><path class="m" d="M211.324,234.343a52.335,52.335,0,0,1-6.77-3.273c-.09-.045,0-.224.09-.179a34.558,34.558,0,0,0,7.442,1.345c2.107.224,4.573,0,6.546.717a1.292,1.292,0,0,1-.09,2.466C216.256,235.957,213.431,235.106,211.324,234.343Z" transform="translate(-179.533 -184.154)"/><path class="n" d="M265.232,247.39c.673-1.838,2.511-3.273,3.721-4.842,1.3-1.749,2.287-3.766,3.632-5.425a.347.347,0,0,1,.628.179,12.976,12.976,0,0,1-1.928,6.725c-1.031,1.793-2.645,4.214-4.752,4.708A1.084,1.084,0,0,1,265.232,247.39Z" transform="translate(-212.996 -187.516)"/><path class="o" d="M231.069,260.379a15.457,15.457,0,0,1-3.452-1.39.488.488,0,0,1,.269-.9,15.508,15.508,0,0,1,3.5.4,20.959,20.959,0,0,1,3.766.9c.986.4.9,2.107-.359,1.973A21.7,21.7,0,0,1,231.069,260.379Z" transform="translate(-192.148 -199.16)"/><path class="p" d="M239.126,284.8c-.583-.269-1.39-.448-1.7-1.076a.454.454,0,0,1,.179-.628c.628-.359,1.345-.045,2.018.09a8.447,8.447,0,0,1,2.376.628c.852.448.4,2.017-.583,1.838A8.267,8.267,0,0,1,239.126,284.8Z" transform="translate(-197.65 -212.865)"/><path class="q" d="M266.41,277.938c-.314-.942.448-1.749,1.076-2.331a.913.913,0,0,1,1.48.942c-.224.807-.628,1.883-1.614,2.018A.84.84,0,0,1,266.41,277.938Z" transform="translate(-213.636 -208.694)"/></g><g transform="translate(89.067 12.793)"><path class="f" d="M265.67,194.432c-10.805-28.739,2.2-59.271-2.645-88.727a57.261,57.261,0,0,0-9.37-23.762c-.135-.179.135-.4.269-.224,18.741,24.166,8.474,57.657,8.2,85.409-.09,9.191.9,18.382,4.035,27.08C266.253,194.522,265.76,194.746,265.67,194.432Z" transform="translate(-228.98 -57.837)"/><path class="r" d="M213.7,43.134a57.988,57.988,0,0,0-4.214-5.111,44.059,44.059,0,0,0-10.626-8.7c-.448-.269-.045-.942.4-.762a42.522,42.522,0,0,1,13.047,7.129c3.094,2.556,7.846,6.77,7.98,10.984.045,1.435-1.749,1.838-2.735,1.255C215.807,46.9,214.91,44.748,213.7,43.134Z" transform="translate(-198.664 -28.533)"/><path class="s" d="M217.761,91a43.884,43.884,0,0,1-8.608-8.922.462.462,0,1,1,.717-.583,42.2,42.2,0,0,0,9.37,6.5c2.959,1.614,7.039,2.287,9.595,4.528.986.852.942,2.959-.717,3.094C224.352,95.885,220.676,93.15,217.761,91Z" transform="translate(-204.385 -57.657)"/><path class="t" d="M267.695,72.726c-.134-2.78,2.825-5.47,4.08-7.891a30.36,30.36,0,0,0,3.318-10.76.5.5,0,0,1,.986-.045,27.5,27.5,0,0,1-.942,11.3c-.852,2.735-2.78,8.025-6.008,8.429A1.232,1.232,0,0,1,267.695,72.726Z" transform="translate(-236.743 -42.388)"/><path class="u" d="M287.063,120.061c.762-2.107,2.69-3.452,4.214-5.066,1.659-1.793,3.183-3.632,4.663-5.559,2.959-3.945,6.232-8.249,8.339-12.733a.383.383,0,0,1,.717.269c-1.569,5.066-2.959,9.684-5.784,14.168a53.033,53.033,0,0,1-4.573,6.232c-1.48,1.749-3.094,4.035-5.335,4.708C288.05,122.482,286.525,121.5,287.063,120.061Z" transform="translate(-247.369 -66.006)"/><path class="v" d="M228.13,142.167a36.39,36.39,0,0,1-6.322-8.429c-.314-.493.448-.807.762-.493a66.594,66.594,0,0,0,8.2,6.456c2.421,1.659,5.694,2.869,7.577,5.111a1.755,1.755,0,0,1-1.524,2.825C233.465,147.323,230.506,144.364,228.13,142.167Z" transform="translate(-211.391 -86.229)"/><path class="w" d="M295.437,163.836c1.3-1.7,3.318-2.735,4.977-4.035,1.7-1.345,3.363-2.69,4.932-4.17a50.183,50.183,0,0,0,8.967-10.715c.314-.538,1.3-.045,1.031.538a51.972,51.972,0,0,1-7.4,12.554c-2.69,3.138-6.591,7.577-10.805,8.474A1.716,1.716,0,0,1,295.437,163.836Z" transform="translate(-251.886 -92.609)"/><path class="x" d="M233.548,183.964a72.457,72.457,0,0,1-7.084-6.815c-.09-.09.045-.269.179-.179a41.59,41.59,0,0,0,8.7,4.663c2.511,1.121,5.649,1.838,7.8,3.542a1.67,1.67,0,0,1-1.121,3C239.018,187.954,235.879,185.713,233.548,183.964Z" transform="translate(-213.984 -110.406)"/><path class="y" d="M289.69,225.53c1.569-2.018,4.439-3,6.546-4.483,2.331-1.614,4.349-3.721,6.635-5.246a.434.434,0,0,1,.673.493c-.628,2.735-3,5.649-5.066,7.532-1.973,1.793-4.977,4.125-7.8,3.9A1.418,1.418,0,0,1,289.69,225.53Z" transform="translate(-248.741 -131.796)"/><path class="z" d="M247.226,224.248a19.188,19.188,0,0,1-3.721-3.138c-.448-.493.134-1.166.717-1.031a17.313,17.313,0,0,1,4.125,1.928,22.183,22.183,0,0,1,4.3,2.645c1.031.9.269,2.959-1.211,2.331A28.208,28.208,0,0,1,247.226,224.248Z" transform="translate(-223.313 -134.191)"/><path class="aa" d="M247.352,257.9c-.628-.583-1.524-1.121-1.659-2.018a.677.677,0,0,1,.493-.717c.9-.179,1.7.493,2.466.9a10.674,10.674,0,0,1,2.69,1.749c.9.9-.314,2.645-1.48,2.062A10.855,10.855,0,0,1,247.352,257.9Z" transform="translate(-224.605 -153.539)"/><path class="ab" d="M283,260.833c-.045-1.3,1.255-2.018,2.287-2.466a1.216,1.216,0,0,1,1.479,1.793c-.628.942-1.524,2.062-2.78,1.838A1.09,1.09,0,0,1,283,260.833Z" transform="translate(-245.187 -155.263)"/></g><g transform="translate(127.009 39.793)"><path class="f" d="M283.3,227c4.349-23.672,25.421-38.871,34.074-60.571a44.388,44.388,0,0,0,3.318-19.727c0-.179.269-.224.269-.045,2.825,23.762-17.62,42.1-29.008,60.616a60.082,60.082,0,0,0-8.2,19.817C283.654,227.316,283.251,227.271,283.3,227Z" transform="translate(-283.292 -120.636)"/><path class="ac" d="M355.5,104.513c-.179-1.7-.448-3.452-.762-5.156a36.379,36.379,0,0,0-3.587-10.133c-.179-.359.359-.628.583-.359a32.543,32.543,0,0,1,5.873,10.088c1.031,2.959,2.511,7.711.9,10.581-.538.986-1.883.538-2.331-.269C355.37,107.875,355.639,106.082,355.5,104.513Z" transform="translate(-320.71 -88.756)"/><path class="ad" d="M338.849,138.368a34.491,34.491,0,0,1-2.152-9.46.362.362,0,0,1,.717-.09,34.247,34.247,0,0,0,3.676,8.16c1.345,2.287,3.811,4.394,4.573,6.9.314.986-.583,2.376-1.7,1.793C341.315,144.286,339.925,140.969,338.849,138.368Z" transform="translate(-312.752 -110.686)"/><path class="ae" d="M370.386,149.912c1.031-1.928,4.125-2.556,5.918-3.632a24.261,24.261,0,0,0,6.591-5.873.385.385,0,0,1,.673.359,21.684,21.684,0,0,1-5.2,7.218c-1.659,1.48-5.111,4.259-7.442,3.228A1,1,0,0,1,370.386,149.912Z" transform="translate(-331.287 -117.163)"/><path class="af" d="M361.692,194.417c1.39-1.076,3.183-1.211,4.842-1.7,1.838-.538,3.587-1.121,5.38-1.838a59.329,59.329,0,0,0,10.76-5.156.287.287,0,1,1,.359.448c-3.094,2.78-5.873,5.29-9.595,7.173a40.984,40.984,0,0,1-5.6,2.331c-1.7.583-3.721,1.435-5.47,1.031C361.333,196.435,360.705,195.18,361.692,194.417Z" transform="translate(-326.269 -142.211)"/><path class="ag" d="M325.152,176.831a29.7,29.7,0,0,1-.852-8.2c0-.448.628-.359.717,0a52.838,52.838,0,0,0,2.914,7.667c.942,2.107,2.645,4.214,3,6.5a1.372,1.372,0,0,1-2.152,1.3C326.631,182.435,325.824,179.3,325.152,176.831Z" transform="translate(-305.915 -132.65)"/><path class="ah" d="M351.548,228.169c1.569-.628,3.318-.493,4.977-.672,1.659-.224,3.318-.448,4.977-.807a37.959,37.959,0,0,0,10.312-3.542c.448-.224.9.493.448.762a39.608,39.608,0,0,1-10.043,5.425c-3.094,1.031-7.487,2.421-10.671,1.345A1.406,1.406,0,0,1,351.548,228.169Z" transform="translate(-320.52 -162.871)"/><path class="ai" d="M312.064,206.958a52.92,52.92,0,0,1-1.973-7.4c-.045-.09.135-.179.179-.045a33.227,33.227,0,0,0,3.945,6.635c1.255,1.793,3.049,3.5,3.811,5.515a1.317,1.317,0,0,1-1.973,1.569C314.126,211.845,312.916,209.11,312.064,206.958Z" transform="translate(-298.072 -149.82)"/><path class="aj" d="M327.513,264.266c1.883-.717,4.214-.224,6.187-.359,2.2-.134,4.394-.762,6.591-.807a.363.363,0,0,1,.269.628,13.036,13.036,0,0,1-6.456,3c-2.062.4-5.021.762-6.815-.538A1.159,1.159,0,0,1,327.513,264.266Z" transform="translate(-307.334 -184.934)"/><path class="ak" d="M304.645,239.7a14.834,14.834,0,0,1-1.255-3.587c-.09-.538.583-.717.9-.4a16.43,16.43,0,0,1,2.018,2.959,21.709,21.709,0,0,1,1.838,3.5c.314,1.031-1.031,2.107-1.749,1.076A15.316,15.316,0,0,1,304.645,239.7Z" transform="translate(-294.375 -169.739)"/><path class="al" d="M291,262.252c-.179-.628-.583-1.39-.314-2.018a.5.5,0,0,1,.628-.269c.673.224.942,1.031,1.3,1.614a8.747,8.747,0,0,1,1.121,2.242,1.055,1.055,0,0,1-1.838.807A8.4,8.4,0,0,1,291,262.252Z" transform="translate(-287.323 -183.19)"/><path class="am" d="M312.731,279.651c.493-.9,1.659-.807,2.511-.717a.95.95,0,0,1,.269,1.793c-.807.359-1.883.762-2.6.09A.9.9,0,0,1,312.731,279.651Z" transform="translate(-299.457 -193.639)"/></g><g transform="translate(118.616 146.294)"><path class="an" d="M265.481,326.3h15.2a.873.873,0,0,1,.852,1.076l-.583,2.466a.864.864,0,0,1-.852.673H266.019a.864.864,0,0,1-.852-.673l-.583-2.466A.9.9,0,0,1,265.481,326.3Z" transform="translate(-264.572 -326.3)"/><path class="ao" d="M281.93,336.5l-1.211,8.474a1.161,1.161,0,0,1-1.166.986h-8.877a1.2,1.2,0,0,1-1.166-.986L268.3,336.5Z" transform="translate(-266.629 -331.927)"/></g><g transform="translate(41.905 102.132)"><path class="ap" d="M116.933,265.326c-1.435-.269-2.959-.448-4.439-.583-1.749-.179-3.542-.4-5.29-.762-6.5-1.3-11.388-5.47-13.092-11.119a15.914,15.914,0,0,1,.135-9.37,17.586,17.586,0,0,1,3.094-5.335c.448-.583.942-1.211,1.345-1.838,1.121-1.659,2.78-4.752,1.749-7.308l2.959-1.211c1.524,3.721-.269,7.667-2.062,10.357q-.74,1.076-1.48,2.018a13.725,13.725,0,0,0-2.6,4.394,12.42,12.42,0,0,0-.135,7.443c1.345,4.483,5.335,7.846,10.671,8.922,1.659.314,3.273.493,5.021.717,1.524.179,3.094.359,4.663.628Z" transform="translate(-93.471 -227.8)"/></g><path class="aq" d="M109.46,207.811c2.556,4.573-1.255,9.281-8.474,10.581s-15.154-1.345-17.665-5.918c-2.556-4.573,1.255-9.281,8.474-10.581S106.949,203.238,109.46,207.811Z" transform="translate(-45.529 -111.193)"/><g transform="translate(66.262 90.52)"><g transform="translate(0 9.271)"><path class="ar" d="M162.461,229.7l1.121,1.928s-11.747,4.618-14.526,6.232a40.6,40.6,0,0,0-1.255-4.573Z" transform="translate(-147.8 -226.508)"/><path class="as" d="M183.952,228.352c.493-.224,1.076-.493,1.211-1.031a1.414,1.414,0,0,0-.224-1.031,3.264,3.264,0,0,0-.807-.762c-.538-.4-5.246,1.345-5.335,2.825-.045.448.4.583.807.762C180.634,229.563,182.607,228.89,183.952,228.352Z" transform="translate(-164.898 -224.173)"/><path class="as" d="M189.586,226.355c.807.045,1.973-2.018,1.973-2.825a1.213,1.213,0,0,0-1.211-.942c-.135.4.4.493.493.807.09.269-.135.448-.314.717C190.035,224.741,189,225.234,189.586,226.355Z" transform="translate(-170.756 -222.579)"/><path class="as" d="M191.217,227.469c.628.134,1.793-1.345,1.838-1.973a1,1,0,0,0-.807-.9c-.134.314.224.448.269.717.045.224-.134.359-.314.493C191.755,226.259,190.9,226.528,191.217,227.469Z" transform="translate(-171.714 -223.694)"/><path class="as" d="M186.45,226.252c.807.224,2.421-1.48,2.6-2.242a1.251,1.251,0,0,0-.9-1.211c-.224.359.269.583.269.9.045.269-.224.4-.493.628C187.3,224.862,186.181,225.042,186.45,226.252Z" transform="translate(-169.099 -222.701)"/><path class="as" d="M186.234,225.845c.583.134,1.7-1.211,1.793-1.793a.949.949,0,0,0-.762-.852c-.134.269.224.4.269.673.045.224-.134.314-.314.448C186.772,224.724,185.965,224.949,186.234,225.845Z" transform="translate(-168.973 -222.922)"/></g><g transform="translate(14.168)"><path class="at" d="M193.3,222.446h0l9.281-9.146h0a.251.251,0,0,1,0,.4l-8.832,8.7A.34.34,0,0,1,193.3,222.446Z" transform="translate(-187.068 -208.189)"/><path class="au" d="M185.632,216.157l-6.232-5.111,9.281-9.146,6.232,5.111Z" transform="translate(-179.4 -201.9)"/><path class="av" d="M187.994,215.619,182.3,211l7.936-7.8,5.649,4.618Z" transform="translate(-181 -202.617)"/></g><path class="aw" d="M180.6,225.428c.179-1.524.942-.314,1.838-3.228.762.045.179,1.524.135,1.928,0,.493.4.9.359,1.435a1.436,1.436,0,0,1-.717,1.031c-.179.135-.4.224-.448.448" transform="translate(-165.894 -213.099)"/></g><g transform="translate(41.738 51.591)"><path class="ax" d="M112.415,131.807a6.115,6.115,0,0,0-3.5,4.08,3.767,3.767,0,0,0,2.556,4.349c-1.031,2.6-1.614,5.515-.762,8.16,1.076,3.363,4.214,5.649,7.487,6.949a22.051,22.051,0,0,0,11.029,1.211,14.141,14.141,0,0,0,3.856-1.121,10.381,10.381,0,0,0,3-16.633c1.614-1.614,1.614-4.349.628-6.411a16.855,16.855,0,0,0-4.483-5.111,18.359,18.359,0,0,0,.852-5.828,7.972,7.972,0,0,0-1.3-4.663,3.986,3.986,0,0,0-4.349-1.524,7.558,7.558,0,0,1-1.255.538,3.646,3.646,0,0,1-1.39-.09c-3.318-.673-6.949-1.031-9.819.717a10.9,10.9,0,0,0-3.856,4.663,11.5,11.5,0,0,0-1.255,5.694A6.745,6.745,0,0,0,112.415,131.807Z" transform="translate(-101.789 -115.071)"/><g transform="translate(0 8.083)"><path class="ay" d="M149.267,263.528c4.663-.09,9.37-.224,13.943.762A2.173,2.173,0,0,1,165,265.411a2.429,2.429,0,0,1-.179,1.569c-.4,1.031-.762,2.062-1.166,3.094a26.1,26.1,0,0,0-3.766-1.121c-1.435-.314-2.869-.493-4.259-.717-4.663-.673-9.37-1.3-14.033-1.973a27.2,27.2,0,0,0,.538-3.766,33.976,33.976,0,0,0,6.411-.9A7.712,7.712,0,0,1,149.267,263.528Z" transform="translate(-119.855 -203.988)"/><g transform="translate(0 73.07)"><path class="az" d="M136.439,312.4H129.4l.807,15.557h5.425Z" transform="translate(-113.125 -305.082)"/><path class="ba" d="M102.3,380.125h31.294a13.412,13.412,0,0,0-8.249-2.825h-14.8a13.507,13.507,0,0,0-8.249,2.825Z" transform="translate(-98.175 -340.885)"/><path class="bb" d="M133,347.7l.493,13h2.825l.493-13Z" transform="translate(-115.111 -324.556)"/><ellipse class="bc" cx="14.706" cy="5.694" rx="14.706" ry="5.694" transform="translate(4.663 0.144)"/><path class="bd" d="M131.747,297.882c0,2.421-8.653,4.349-19.324,4.349S93.1,300.258,93.1,297.882c0-2.421,8.653-1.7,19.324-1.7S131.747,295.505,131.747,297.882Z" transform="translate(-93.1 -296.078)"/></g><path class="be" d="M114.622,274.089c8.653,1.659,17.665.4,26.228-1.793a5.289,5.289,0,0,0,2.914-1.435c1.255-1.435.583-3.856-.9-5.066-1.48-1.255-3.452-1.614-5.335-1.973-4.618-.852-9.236-1.659-13.854-2.511a5.277,5.277,0,0,1,.314-2.018A41.423,41.423,0,0,1,111.3,256.2a28.118,28.118,0,0,0-3,7.891c-.538,2.645-.583,5.739,1.255,7.711A8.518,8.518,0,0,0,114.622,274.089Z" transform="translate(-101.307 -201.009)"/><g transform="translate(27.08 63.754)"><path class="bf" d="M154.666,366.3l-1.166,8.518.448.09,1.838-6.5Z" transform="translate(-153.5 -325.501)"/><path class="bg" d="M164.132,319.507a24.02,24.02,0,0,1-.583-6.546,76.08,76.08,0,0,1,3.721-11.029c2.466-6.187,5.246-12.374,6.635-18.337a13.856,13.856,0,0,0,.538-1.793,4.746,4.746,0,0,0-2.735-5.559l-2.242-.942c0,.135-.359,4.618-.359,4.752-4.17,3.318-6.277,9.415-6.232,13.585a52.725,52.725,0,0,1-.673,7.129c-.583,3.945-1.435,8.25-2.062,11.074a5.426,5.426,0,0,1-.942,1.838c1.435,3.632.179,7.532,2.152,11.253.807,1.659,1.928,1.031,3.407.583-.045-.134-.09-.359-.224-.807C163.683,322.869,164.446,321.434,164.132,319.507Z" transform="translate(-156.644 -275.3)"/><path class="bh" d="M159.152,372.253c-1.973-3.721-.717-7.622-2.152-11.253-.583.359-1.255.359-1.48,1.345-.314,1.345.583,2.152,1.3,3.138,1.345,1.838.9,3.945,1.076,5.963.135,1.435.628,1.838,1.793,2.645,1.076.717,1.7.628,3.318.942,1.435.269,2.018-.673.583-1.48-.852-.448-.986-.538-1.076-.762C161.125,373.285,159.959,373.912,159.152,372.253Z" transform="translate(-154.579 -322.577)"/></g><g transform="translate(36.938 60.571)"><path class="bi" d="M180.5,358.7l1.3,8.474.4-.045-.09-6.725Z" transform="translate(-178.253 -318.125)"/><path class="bj" d="M184.729,310.209c-.986-2.062-2.107-4.125-2.376-6.1A85.444,85.444,0,0,1,182.8,292.5c.628-6.635,1.569-13.361,1.166-19.458a25.43,25.43,0,0,0-.09-3.273,1.856,1.856,0,0,0-2.511-1.435c-3,1.211-4.483,4.708-5.246,7.577a18.707,18.707,0,0,0,.045,9.819,47,47,0,0,1,1.345,7.039c.538,3.945.942,8.294,1.121,11.209a6.5,6.5,0,0,1-.359,2.018c2.421,3.094,2.287,7.173,5.246,10.177,1.255,1.345,2.152.448,3.407-.4-.09-.134-.179-.314-.448-.717C185.267,313.572,185.581,312,184.729,310.209Z" transform="translate(-175.487 -268.199)"/><path class="bk" d="M185.619,362.977c-2.959-3-2.825-7.129-5.246-10.177-.448.493-1.121.717-1.076,1.7.045,1.39,1.121,1.883,2.152,2.645,1.793,1.345,1.928,3.542,2.735,5.425.538,1.345,1.121,1.614,2.466,2.018,1.255.4,1.838.135,3.452-.045,1.435-.135,1.749-1.211.135-1.569-.942-.179-1.121-.224-1.255-.448C187.771,363.381,186.83,364.322,185.619,362.977Z" transform="translate(-177.588 -314.87)"/></g><g transform="translate(9.269)"><path class="bl" d="M119.121,197.237c.045,1.3-3.587,7.8-5.29,11.388,1.838,2.152,6.456,3.587,10.133,3.766,3.049.134,6.9.134,9.953-1.031l-1.435-18.606s6.725-2.018,3.587-7.173c-2.914-4.8-7.622-14.347-10.805-14.347a3.59,3.59,0,0,0-3.228-1.211c-7.8,1.569-5.425,1.524-7.173,4.528-1.569,2.69-1.211,6.591-.359,9.55Z" transform="translate(-113.775 -153.434)"/><g transform="translate(4.799)"><path class="bm" d="M129.952,155.4l-.852,6.815,9.281,13.092-3.228-10.626.762-5.246Z" transform="translate(-127.028 -145.402)"/><path class="bn" d="M136.055,133.1a5.737,5.737,0,0,1-1.121,5.425c-1.076,1.3-4.887,3.766-7.308,2.69-.045-.045-.045-.09-.09-.135h-.045l-.179-.942a1.381,1.381,0,0,0-1.614-1.121h-.045a1.466,1.466,0,0,0-1.166,1.569l.134,1.076a1.5,1.5,0,0,0,1.659,1.211.9.9,0,0,1,.986.762l.09.583c.314,2.018,10.177,4.977,10.626,2.735a52.038,52.038,0,0,0-.09-10.088,18.949,18.949,0,0,0-.852-3.5A2.3,2.3,0,0,0,136.055,133.1Z" transform="translate(-124.478 -133.1)"/></g></g></g></g><g transform="translate(47.026 77.565)"><path class="bo" d="M114.537,196.809c0-.179-.269-.493-.448-.493-.359-.045-.717.224-.942-.045-.269-.269-1.345-.673-1.614-.942-.538-.583.269-2.78.359-3.5a80.646,80.646,0,0,1,2.69-11.612c0-.045.045-.09.045-.179.538-2.2,1.614-6.142-1.524-6.949-1.659-.448-3.363.9-4.349,2.107a12.442,12.442,0,0,0-2.287,5.873c-.493,2.78-1.031,5.47-1.255,8.294-.179,2.242-.224,4.483-.224,6.77,0,1.7-.493,3.676.807,5.066.942,1.031.9-.538,2.511,1.166a2.707,2.707,0,0,0,.359.359c.628.4,1.345-.359,1.7-.986a1.153,1.153,0,0,0,1.48-.045,1.069,1.069,0,0,1,.493-.269c.493-.179,1.166,0,1.659-.179C114.537,200.933,114.492,197.8,114.537,196.809Z" transform="translate(-104.895 -173.003)"/><g transform="translate(8.879 16.338)"><g transform="translate(19.846 0)"><rect class="bp" width="0.852" height="0.717" transform="translate(0 0.788) rotate(-67.71)"/><rect class="bp" width="0.852" height="6.815" transform="translate(0.799 1.102) rotate(-67.71)"/><path class="bp" d="M185.683,216.19a.165.165,0,0,0-.135-.045l-.135-.045-.314.807.134.045c.045,0,.09.045.135.045Z" transform="translate(-177.866 -213.116)"/><path class="bp" d="M186.1,217.217c.493.135,1.3.314,1.39.135s-.628-.628-1.076-.852Z" transform="translate(-178.417 -213.337)"/></g><g transform="translate(0 0.751)"><path class="bq" d="M125.328,223.538l18.113-1.838.717,2.421L124.7,227.932Z" transform="translate(-124.7 -216.957)"/><path class="as" d="M168.118,212.859c.314-.538.762-1.121,1.39-1.166a1.556,1.556,0,0,1,1.121.448,3.156,3.156,0,0,1,.673,1.031c.359.673-2.511,5.559-4.214,5.38-.493-.045-.493-.583-.673-1.031C165.787,216.042,167.266,214.248,168.118,212.859Z" transform="translate(-147.629 -211.433)"/><path class="as" d="M172.2,211.649c.493-.807,3.183-.583,3.9-.045a1.419,1.419,0,0,1,.135,1.7c-.493-.135-.224-.673-.448-.986-.179-.269-.493-.179-.852-.134C173.993,212.232,172.873,212.9,172.2,211.649Z" transform="translate(-150.904 -211.12)"/><path class="as" d="M171.8,214.249c.493-.807,3.183-.583,3.9-.045a1.418,1.418,0,0,1,.135,1.7c-.493-.135-.224-.673-.448-.986-.179-.269-.493-.179-.852-.134C173.593,214.832,172.473,215.5,171.8,214.249Z" transform="translate(-150.683 -212.554)"/><path class="as" d="M171.6,216.349c.493-.807,3.183-.583,3.9-.045a1.418,1.418,0,0,1,.134,1.7c-.493-.134-.224-.673-.448-.986-.179-.269-.493-.179-.852-.135C173.349,216.932,172.228,217.6,171.6,216.349Z" transform="translate(-150.573 -213.713)"/><path class="as" d="M172.5,218.236c.359-.583,2.331-.4,2.869-.045a1.013,1.013,0,0,1,.09,1.255c-.359-.09-.179-.493-.314-.717-.134-.179-.359-.135-.628-.135C173.845,218.639,172.993,219.132,172.5,218.236Z" transform="translate(-151.069 -214.837)"/></g></g></g><ellipse class="br" cx="88.861" cy="12.016" rx="88.861" ry="12.016" transform="translate(18.873 172.567)"/><ellipse class="bs" cx="63.687" cy="5.538" rx="63.687" ry="5.538" transform="translate(34.835 179.588)"/><g transform="translate(48.085 104.957)"><g transform="translate(0 2.869)"><path class="bt" d="M227.162,257.369h0v.134c0,4.349-26.856,7.846-59.943,7.846s-59.943-3.5-59.943-7.846a1.309,1.309,0,0,1,.09-.4c-.045.045-.045.09-.09.134-.045.135,0,1.345,0,1.524,0,3.676,19.368,6.77,45.462,7.622a66.954,66.954,0,0,0-1.48,15.154c0,14.481,2.959,31.653,7.4,42.1a4.549,4.549,0,0,0,4.214,2.78h8.7a4.548,4.548,0,0,0,4.214-2.78c4.439-10.446,7.4-27.618,7.4-42.1a67.383,67.383,0,0,0-1.48-15.2c26.094-.852,45.462-3.9,45.462-7.577C227.162,258.624,227.207,257.459,227.162,257.369Z" transform="translate(-107.256 -249.658)"/><path class="bu" d="M227.162,257.369h0v.134c0,4.349-26.856,7.846-59.943,7.846s-59.943-3.5-59.943-7.846a1.309,1.309,0,0,1,.09-.4c-.045.045-.045.09-.09.134-.045.135,0,1.345,0,1.524,0,3.676,19.368,6.77,45.462,7.622a66.954,66.954,0,0,0-1.48,15.154v1.749l28.335,28.335a134.679,134.679,0,0,0,3.587-30.084,67.383,67.383,0,0,0-1.48-15.2c26.094-.852,45.462-3.9,45.462-7.577C227.162,258.624,227.207,257.459,227.162,257.369Z" transform="translate(-107.256 -249.658)"/><path class="an" d="M167.243,256.192c33.088,0,59.943-3.5,59.943-7.846v-.179c-.673-4.259-27.259-7.667-59.943-7.667-32.056,0-58.24,3.318-59.854,7.442a1.309,1.309,0,0,0-.09.4C107.3,252.695,134.156,256.192,167.243,256.192Z" transform="translate(-107.28 -240.5)"/></g><g transform="translate(8.987)"><g transform="translate(29.277)"><ellipse class="bv" cx="4.797" cy="0.807" rx="4.797" ry="0.807" transform="translate(0 6.635)"/><g transform="translate(1.516)"><path class="bw" d="M202.266,234.1H196.3c-.224,0-.359.269-.314.583l.224,1.3c.045.224.179.359.314.359h5.559a.32.32,0,0,0,.314-.359l.224-1.3C202.67,234.369,202.49,234.1,202.266,234.1Z" transform="translate(-195.981 -234.1)"/><path class="bx" d="M198.4,249.1l.045.269c.045.314.224.538.448.538h3.5c.224,0,.4-.224.448-.538l.045-.269Z" transform="translate(-197.315 -242.375)"/><path class="by" d="M196.6,240.59l.448,3.632a.1.1,0,0,0,.09.09h4.977a.1.1,0,0,0,.09-.09l.448-3.632a.1.1,0,0,0-.09-.09H196.69A.1.1,0,0,0,196.6,240.59Z" transform="translate(-196.322 -237.631)"/><path class="bz" d="M202.78,239.5H197.4l.045.448h5.29Z" transform="translate(-196.764 -237.079)"/></g></g><g transform="translate(59.495 7.532)"><path class="bw" d="M270.895,257.356,260,256.908l10.177-6.008,10.895.448Z" transform="translate(-260 -250.9)"/><path class="ca" d="M285.66,259.9l-10.76-1.883,10.895-4.618,10.76,1.838Z" transform="translate(-268.22 -252.279)"/></g><g transform="translate(0 6.501)"><path class="bw" d="M138.24,255.056l-10.94-.448,10.177-6.008,10.94.448Z" transform="translate(-127.3 -248.6)"/><path class="ca" d="M153.06,257.6l-10.76-1.883,10.895-4.618,10.76,1.838Z" transform="translate(-135.575 -249.979)"/><path class="ca" d="M174.26,264l-10.76-1.883,10.895-4.618,10.76,1.883Z" transform="translate(-147.27 -253.51)"/></g><g transform="translate(53.936 8.07)"><ellipse class="cb" cx="4.797" cy="0.807" rx="4.797" ry="0.807" transform="translate(0 6.635)"/><g transform="translate(1.516)"><path class="bw" d="M257.266,252.1H251.3c-.224,0-.359.269-.314.583l.224,1.3c.045.224.179.359.314.359h5.559a.32.32,0,0,0,.314-.359l.224-1.3C257.67,252.369,257.49,252.1,257.266,252.1Z" transform="translate(-250.981 -252.1)"/><path class="bx" d="M253.4,267.1l.045.269c.045.314.224.538.448.538h3.5c.224,0,.4-.224.448-.538l.045-.269Z" transform="translate(-252.315 -260.375)"/><path class="by" d="M251.6,258.59l.448,3.632a.1.1,0,0,0,.09.09h4.977a.1.1,0,0,0,.09-.09l.448-3.632a.1.1,0,0,0-.09-.09H251.69A.1.1,0,0,0,251.6,258.59Z" transform="translate(-251.322 -255.631)"/><path class="bz" d="M257.78,257.5H252.4l.045.448h5.29Z" transform="translate(-251.764 -255.079)"/></g></g><g transform="translate(88.458 0.897)"><ellipse class="cc" cx="4.797" cy="0.807" rx="4.797" ry="0.807" transform="translate(0 6.635)"/><g transform="translate(1.516)"><path class="bw" d="M334.266,236.1H328.3c-.224,0-.359.269-.314.583l.224,1.3c.045.224.179.359.314.359h5.559a.32.32,0,0,0,.314-.359l.224-1.3C334.67,236.369,334.49,236.1,334.266,236.1Z" transform="translate(-327.981 -236.1)"/><path class="bx" d="M330.4,251.1l.045.269c.045.314.224.538.448.538h3.5c.224,0,.4-.224.448-.538l.045-.269Z" transform="translate(-329.315 -244.375)"/><path class="by" d="M328.6,242.59l.448,3.632a.1.1,0,0,0,.09.09h4.977a.1.1,0,0,0,.09-.09l.448-3.632a.1.1,0,0,0-.09-.09H328.69A.1.1,0,0,0,328.6,242.59Z" transform="translate(-328.322 -239.631)"/><path class="bz" d="M334.78,241.5H329.4l.045.448h5.29Z" transform="translate(-328.764 -239.079)"/></g></g></g></g><rect class="cd" width="18.216" height="7.646" transform="translate(5.74 86.807)"/><g transform="translate(35.058 89.579)"><path class="as" d="M82.37,230.948c6.1-7.353,13.719-16.813,13.719-16.813L92.726,212.7,78.2,225.164Q80.218,228.123,82.37,230.948Z" transform="translate(-78.2 -206.916)"/><path class="as" d="M115.91,205.224a1.778,1.778,0,0,1,1.883.09,1.279,1.279,0,0,1,.538,1.166c.045.538-.179,1.7-.673,1.928-1.031.538-3,2.062-5.111,1.211-.762-.314-2.331-.583-1.928-1.166A16.408,16.408,0,0,1,115.91,205.224Z" transform="translate(-96.049 -202.669)"/><path class="as" d="M121.9,207.685c.314-1.211,3.856-1.928,4.977-1.524a1.912,1.912,0,0,1,.807,2.152c-.673,0-.538-.807-.942-1.121-.359-.269-.717-.045-1.166.134C124.411,207.775,123.245,209.03,121.9,207.685Z" transform="translate(-102.307 -203.247)"/><path class="as" d="M121.4,204.592c.09-1.255,3.452-2.645,4.618-2.421a1.925,1.925,0,0,1,1.211,1.973c-.673.134-.673-.673-1.121-.9-.4-.179-.717.09-1.121.314C123.911,204.188,122.969,205.668,121.4,204.592Z" transform="translate(-102.032 -201.094)"/><path class="as" d="M120.1,208.409c.628-1.076,4.259-.807,5.2-.135a2.025,2.025,0,0,1,.224,2.331c-.628-.179-.314-.9-.628-1.3-.269-.359-.673-.224-1.166-.179C122.476,209.171,121,210.068,120.1,208.409Z" transform="translate(-101.314 -204.15)"/><path class="as" d="M121,210.466c.538-.762,3.183-.4,3.856.179a1.412,1.412,0,0,1,.045,1.7c-.448-.179-.179-.673-.4-.986-.179-.269-.493-.179-.852-.224C122.749,211.138,121.583,211.766,121,210.466Z" transform="translate(-101.811 -205.444)"/><path class="ce" d="M118.062,203.073a18.752,18.752,0,0,0,3.183-3.273c1.076.538-.9,2.466-.9,3.183-.045,3.587-2.825,3.183-3.049,3.407" transform="translate(-99.77 -199.8)"/></g><g transform="translate(0 56.393)"><g transform="translate(26.115)"><path class="cf" d="M90.035,151.962a.973.973,0,0,0-.986-.762H86.986a.973.973,0,0,0-.986.762v.852a2.039,2.039,0,0,0,2.062,1.973h.269a1.8,1.8,0,0,0,1.793-1.793v-.583Zm-.448,1.031a1.3,1.3,0,0,1-1.3,1.3h-.269a1.55,1.55,0,0,1-1.569-1.524v-.583a.518.518,0,0,1,.538-.538h2.062a.545.545,0,0,1,.538.538v.807Z" transform="translate(-73.56 -139.804)"/><path class="cg" d="M59.171,133.68a2.263,2.263,0,0,1-.852-2.2,4,4,0,0,1,2.018-2.78c1.3-.673,2.421-.448,3.811-.314A15.8,15.8,0,0,0,68,128.211a2.671,2.671,0,0,0,1.614-.717,1,1,0,0,0-.224-1.524,5.451,5.451,0,0,1,5.649,1.749,3.959,3.959,0,0,1-.762,5.515c.583.179.538.986.359,1.569-1.48,4.349-6.591,6.546-8.339,10.76a.965.965,0,0,1-.448.628,1.007,1.007,0,0,1-.717-.045,12.134,12.134,0,0,0-4.349-.717,7.106,7.106,0,0,0-.538-3.587c-.448-1.255-1.3-2.331-1.7-3.632C58.14,136.863,58.006,134.8,59.171,133.68Z" transform="translate(-58.254 -125.781)"/><g transform="translate(1.097 6.33)"><path class="ch" d="M62.18,166.576l-1.48,6.411,8.384,4.035.673-5.873a.715.715,0,0,1,.807-.628l2.6.448-4.3-6.635-.4-.135-1.569,2.645Z" transform="translate(-60.7 -153.305)"/><path class="ci" d="M81.78,155.188l-.09-15.288H79.628l-.314,3.811-.942,1.076-.717,4.259h-.807L76.8,148.1a1.6,1.6,0,0,0-1.524-1.524h-.045a1.535,1.535,0,0,0-1.435,1.569v1.076a1.54,1.54,0,0,0,1.524,1.524.957.957,0,0,1,.942.986v1.435c0,2.2,4.887,6.86,5.515,2.959A3.312,3.312,0,0,0,81.78,155.188Z" transform="translate(-67.927 -139.9)"/></g><path class="cf" d="M82.479,152.7h-6.86a3.675,3.675,0,0,0-2.421.9l-.09.09a.276.276,0,0,0-.045.314.338.338,0,0,0,.359.045l.09-.09a3.288,3.288,0,0,1,2.107-.762h6.86Z" transform="translate(-66.408 -140.631)"/></g><g transform="translate(50.517 26.421)"><path class="cj" d="M137.975,202.78l-19.548,21.655s-2.914-1.3-5.066-1.973c-1.614-2.869,0-8.294,1.121-9.953l2.825,2.107c6.77-5.425,18.472-13.316,18.472-13.316Z" transform="translate(-112.68 -193.863)"/><path class="ck" d="M168.69,190.615a1.692,1.692,0,0,0-1.211-.762,5.458,5.458,0,0,0-1.48.045c-.628.09-2.152,3.049-2.6,5.38.673.493,1.345,1.031,2.018,1.524a3.041,3.041,0,0,1,.4-.269c.942-.448,1.928-1.973,2.69-3.766A2.325,2.325,0,0,0,168.69,190.615Z" transform="translate(-140.66 -187.526)"/><path class="cl" d="M170.069,190.081c.807-.762-.045-3.856-.807-4.573a1.768,1.768,0,0,0-2.062.224c.269.538.852.135,1.255.314.359.179.314.538.359.986C168.949,188.108,168.455,189.543,170.069,190.081Z" transform="translate(-142.756 -185.02)"/><path class="cm" d="M172.235,189.907c.986-.493,1.121-3.676.583-4.618a1.715,1.715,0,0,0-2.018-.4c.09.583.762.359,1.121.672.269.269.135.628.09,1.031C171.786,187.71,170.845,188.921,172.235,189.907Z" transform="translate(-144.742 -184.711)"/><path class="cn" d="M167.849,192.413c.986-.538.9-3.721.314-4.618a1.751,1.751,0,0,0-2.062-.269c.134.583.807.314,1.166.583.314.269.179.628.135,1.031C167.266,190.261,166.414,191.517,167.849,192.413Z" transform="translate(-142.149 -186.142)"/><path class="co" d="M166.524,192.939c.673-.448.448-2.78,0-3.407a1.275,1.275,0,0,0-1.524-.09c.134.4.583.179.852.4.224.179.179.448.135.762C165.986,191.37,165.4,192.356,166.524,192.939Z" transform="translate(-141.543 -187.205)"/><path class="cp" d="M168.792,194.519a15.289,15.289,0,0,0,1.883-4.752c-.762-.583-1.435,1.345-1.793,1.793-.359.493-1.166.538-1.524,1.076a1.851,1.851,0,0,0-.179,1.614,1.669,1.669,0,0,1,.09.807" transform="translate(-142.69 -187.44)"/></g><g transform="translate(32.502 77.841)"><path class="cq" d="M115.765,309.264a2.553,2.553,0,0,0-.583-3.945c-8.249-5.021-31.115-3.587-35.688-5.918A120.317,120.317,0,0,1,72.5,312.357c8.07,2.107,24.7.448,26.318,1.928-5.739,2.466-4.977,4.887-9.55,13.316-.045.045-.045.134-.09.179.045,1.3-1.614,1.749-2.331,2.869-.045.09-.045.135-.09.224-.09.538.179,1.211-.179,1.479-.045.045-.045.09-.09.135-.135.224-1.883,1.166-2.018,1.39a.561.561,0,0,0,.135.762c1.255.852,3.363,1.435,4.8,2.376-.045-.045.4-.807.493-1.166,0-.045.09-.09.135-.179,1.659-.134,1.749-.672,1.793-1.569.09-.224.224-.538.314-.762,1.928-.224,1.345-.807,1.928-2.107.045-.09.134-.134.179-.224C100.88,323.879,111.326,314.688,115.765,309.264Z" transform="translate(-72.5 -299.4)"/><path class="cr" d="M102.634,390.264c-1.928-4.259-3.721-7.532-3.542-8.563,0-.135.045-.224.045-.314-1.614-.717-3.228-1.524-4.887-2.287-1.345,1.345-3.99,3.811-3.766,4.932.224,1.211,2.78,2.825,4.663,3.587,2.107.852,1.838,2.152,3.587,3.5,1.166.9,7.218,4.573,7.353,3.138C106.131,393.4,102.678,390.353,102.634,390.264Z" transform="translate(-82.413 -343.367)"/></g><g transform="translate(18.11 73.066)"><path class="cs" d="M65.642,294.915c-2.69-.269-4.259-3.318-5.694-5.828a.689.689,0,0,0-1.031-.179s-18.561,2.825-18.517,3.049c.493,8.608.628,16.813,6.187,18.337,10.76,2.959,34.881-3.318,39.185-1.659-3.632,4.439-1.838,14.481-1.39,24.121v.179c.717,1.211-.493,2.242-.538,3.587a1.942,1.942,0,0,0,.045.224c.179.538.762,1.076.628,1.479v.179c0,.269-.986,1.793-.986,2.062a.714.714,0,0,0,.538.673c1.524.359,3.721-.628,5.47-.269,0-.045-.135.179-.314-.583a1.94,1.94,0,0,0,.045-.224c1.345-.717,1.166-1.3.717-2.107-.045-.269-.09-.628-.135-.852h0c1.524-.9.717-1.255.538-2.69,0-.09.045-.179.045-.269C92.273,325,95.5,308.9,96.487,302.134a3.079,3.079,0,0,0-2.511-3.5C82.723,296.619,68.825,295.229,65.642,294.915Z" transform="translate(-40.4 -288.751)"/><path class="cr" d="M149.585,411.084c-3.856-2.645-7.084-4.528-7.487-5.47a2.188,2.188,0,0,1-.135-.314c-1.793.224-3.542.4-5.335.583-.448,1.838-1.435,5.335-.673,6.142.807.9,3.856.986,5.873.628,2.242-.359,2.645.9,4.887,1.121,1.48.179,8.563.179,7.891-1.121C154.2,411.935,149.63,411.128,149.585,411.084Z" transform="translate(-92.959 -353.046)"/></g><path class="ct" d="M46.346,180.751c-6.86,3.094-12.329,13.226-11.791,20.713.628,8.743,1.928,31.249,1.973,31.249a16,16,0,0,0,.135,2.556c.538,2.331,4.08,2.869,6.053,3.094,4.573.493,11.074-1.569,15.288-3.542,1.883-.9,1.749-1.569,1.973-3.632l1.211-33.536c.673-5.335-.762-9.37-5.156-13.63C53.923,182.006,47.064,180.437,46.346,180.751Z" transform="translate(-19.045 -156.083)"/><g transform="translate(28.797 28.372)"><path class="cu" d="M88.475,205.892a.157.157,0,0,1,.045-.09c-1.524-1.614-3.407-2.825-4.663-4.663a11.668,11.668,0,0,0-1.211-1.7,2.227,2.227,0,0,0-.852-.583c-1.211-1.3-4.8-5.156-4.842-5.2-3.99-6.232-10.715-5.828-12.554-.538-1.076,3.138,3.318,8.653,8.788,13.361,1.838,1.659,3.676,3.318,5.515,4.932a2.735,2.735,0,0,0,.717.538c.224.134.493.179.762.314a3.278,3.278,0,0,1,1.749,1.883,3.154,3.154,0,0,1,2.152.583c.314.179.673.359.986.538.628.359.986.538,1.39.762a3.887,3.887,0,0,0,1.211-.628c.673-1.928,2.645-3.318,2.331-5.47C89.82,208.806,92.107,207.6,88.475,205.892Z" transform="translate(-64.236 -189.062)"/></g><g transform="translate(0 51.12)"><path class="cv" d="M75.822,350.5H69.5l.717,13.988h4.842Z" transform="translate(-38.343 -300.869)"/><path class="cw" d="M45.1,411.411H73.256a12.178,12.178,0,0,0-7.4-2.511H52.542a12.12,12.12,0,0,0-7.442,2.511Z" transform="translate(-24.882 -333.085)"/><path class="cx" d="M72.7,382.3l.448,11.657h2.511l.448-11.657Z" transform="translate(-40.108 -318.411)"/><g transform="translate(4.692 12.105)"><path class="ap" d="M33.933,304.326c-1.435-.269-2.959-.448-4.439-.583-1.749-.179-3.542-.4-5.29-.762-6.5-1.3-11.388-5.47-13.092-11.119a15.914,15.914,0,0,1,.135-9.37,17.586,17.586,0,0,1,3.094-5.335c.448-.583.942-1.211,1.345-1.838,1.121-1.659,2.78-4.752,1.749-7.308l2.959-1.211c1.524,3.721-.269,7.667-2.062,10.357q-.74,1.076-1.48,2.018a13.725,13.725,0,0,0-2.6,4.394,12.42,12.42,0,0,0-.135,7.442c1.345,4.483,5.335,7.846,10.671,8.922,1.659.314,3.273.493,5.021.717,1.524.179,3.094.359,4.663.628Z" transform="translate(-10.471 -266.8)"/></g><ellipse class="cy" cx="13.181" cy="5.111" rx="13.181" ry="5.111" transform="translate(20.711 43.175)"/><path class="cz" d="M71.6,337.52c0,2.152-7.756,3.9-17.351,3.9S36.9,339.672,36.9,337.52,44.656,336,54.251,336,71.6,335.367,71.6,337.52Z" transform="translate(-20.359 -292.82)"/><path class="da" d="M26.949,248.722c1.7,4.932-2.869,8.922-10.222,8.922S2.066,253.654.362,248.722,3.231,239.8,10.584,239.8,25.245,243.79,26.949,248.722Z" transform="translate(-0.006 -239.8)"/></g></g><path class="db" d="M278.086,140.2a.359.359,0,0,0,0,.717A.359.359,0,0,0,278.086,140.2Z" transform="translate(-153.226 -77.342)"/><path class="dc" d="M280.5,140.7v.314C280.948,141.014,280.948,140.7,280.5,140.7Z" transform="translate(-154.743 -77.618)"/><path class="dd" d="M278.579,140.5a.246.246,0,0,0-.179.269c0,.045.045.045.045,0a.448.448,0,0,1,.179-.224A.044.044,0,0,0,278.579,140.5Z" transform="translate(-153.584 -77.508)"/><path class="dd" d="M279.245,141.375l-.045.045s0,.045.045,0c0,0,.045,0,0-.045C279.334,141.375,279.29,141.331,279.245,141.375Z" transform="translate(-154.025 -77.98)"/><path class="de" d="M364.381,151.156c2.062-.269,3.856,1.211,5.38,2.556a15.584,15.584,0,0,1,4.663-2.869c-.224-.807.09-6.591.045-7.173-.269-3.587-1.255-8.519-5.694-8.832-.314-.045-1.345.179-1.524-.09-.045-.09.09-.314.09-.448a.915.915,0,0,0-.359-.673c-1.7-1.345-4.214-1.211-6.232-.942a11.153,11.153,0,0,0-6.277,3c-.942.852-1.793,2.062-.4,2.645-.4-.045-1.121,2.914-1.211,3.273-.538,2.511-.09,5.784,2.869,6.322.9.179,1.883.448,2.2,1.255a8.984,8.984,0,0,1,.179,1.076c.224.717,1.121.359,1.48.942.09.179.09.359.179.538a1.109,1.109,0,0,0,1.121.448C362.094,152.1,363.171,151.335,364.381,151.156Z" transform="translate(-194.552 -73.099)"/><g transform="translate(163.418 68.776)"><path class="df" d="M390.153,172.9l5.111,6.86-7.756,5.38-2.735-5.246a.686.686,0,0,0-.986-.269L381.5,180.97l1.614-7.711.314-.269,2.376,1.883Z" transform="translate(-373.878 -164.157)"/><path class="dg" d="M369.88,168.464l-5.38-14.3,1.928-.762,1.659,3.407,1.255.673,2.2,3.721.762-.269-.314-.9a1.562,1.562,0,0,1,.9-1.973h.045a1.576,1.576,0,0,1,1.928.942l.4.986a1.562,1.562,0,0,1-.9,1.973.994.994,0,0,0-.538,1.255l.493,1.345c.762,2.062-2.062,8.16-4.08,4.752C370.1,169,369.97,168.733,369.88,168.464Z" transform="translate(-364.5 -153.4)"/></g><g transform="translate(137.833 132.149)"><path class="dh" d="M338.31,300.915c2.69-.269,4.259-3.318,5.694-5.828a.689.689,0,0,1,1.031-.179s18.561,2.825,18.517,3.049c-.493,8.608-.628,16.813-6.187,18.337-10.76,2.959-34.881-3.318-39.185-1.659,3.632,4.439,1.838,14.481,1.39,24.121v.179c-.717,1.211.493,2.242.538,3.587a1.941,1.941,0,0,1-.045.224c-.179.538-.762,1.076-.628,1.48v.179c0,.269.986,1.793.986,2.062a.714.714,0,0,1-.538.673c-1.524.359-3.721-.628-5.47-.269,0-.045.135.179.314-.583a1.94,1.94,0,0,1-.045-.224c-1.345-.717-1.166-1.3-.717-2.107.045-.269.09-.628.134-.852h0c-1.524-.9-.717-1.255-.538-2.69,0-.09-.045-.179-.045-.269-1.838-9.146-5.066-25.242-6.053-32.012a3.078,3.078,0,0,1,2.511-3.5C321.228,302.619,335.126,301.229,338.31,300.915Z" transform="translate(-307.434 -294.751)"/></g><path class="di" d="M300.066,417.084c3.856-2.645,7.084-4.528,7.487-5.47a2.188,2.188,0,0,0,.135-.314c1.793.224,3.542.4,5.335.583.448,1.838,1.435,5.335.673,6.142-.807.9-3.856.986-5.873.628-2.242-.359-2.645.9-4.887,1.121-1.48.179-8.563.179-7.891-1.121C295.448,417.935,300.021,417.128,300.066,417.084Z" transform="translate(-162.742 -226.897)"/><path class="dj" d="M393.646,186.751c6.86,3.094,12.329,13.226,11.791,20.713-.628,8.743-1.928,31.249-1.973,31.249a16,16,0,0,1-.134,2.556c-.538,2.331-4.08,2.869-6.053,3.094-4.573.493-11.074-1.569-15.288-3.542-1.883-.9-1.749-1.569-1.973-3.632l-1.211-33.536c-.673-5.335.762-9.37,5.156-13.63C386.069,188.006,392.929,186.437,393.646,186.751Z" transform="translate(-208.887 -103)"/><path class="dk" d="M389.4,356.5h6.322L395,370.488h-4.842Z" transform="translate(-214.818 -196.666)"/><path class="dl" d="M393.256,417.411H365.1a12.178,12.178,0,0,1,7.4-2.511h13.316a12.12,12.12,0,0,1,7.442,2.511Z" transform="translate(-201.413 -228.883)"/><path class="dm" d="M396.107,388.3l-.448,11.657h-2.511L392.7,388.3Z" transform="translate(-216.639 -214.209)"/><g transform="translate(160.818 110.202)"><g transform="translate(22.552 12.106)"><path class="dn" d="M409.538,310.326c1.435-.269,2.959-.448,4.439-.583,1.749-.179,3.542-.4,5.29-.762,6.5-1.3,11.388-5.47,13.092-11.119a15.914,15.914,0,0,0-.135-9.37,17.586,17.586,0,0,0-3.094-5.335c-.448-.583-.942-1.211-1.345-1.838-1.121-1.659-2.78-4.752-1.748-7.308l-2.959-1.211c-1.524,3.721.269,7.667,2.062,10.357q.74,1.076,1.48,2.018a13.725,13.725,0,0,1,2.6,4.394,12.42,12.42,0,0,1,.135,7.443c-1.345,4.483-5.335,7.846-10.671,8.922-1.659.314-3.273.493-5.021.717-1.524.179-3.094.359-4.663.628Z" transform="translate(-409 -272.8)"/></g><ellipse class="do" cx="13.181" cy="5.111" rx="13.181" ry="5.111" transform="translate(4.17 43.176)"/><path class="dp" d="M358.7,343.52c0,2.152,7.756,3.9,17.351,3.9s17.351-1.749,17.351-3.9S385.645,342,376.051,342,358.7,341.367,358.7,343.52Z" transform="translate(-358.7 -298.819)"/><path class="dq" d="M412.462,254.722c-1.7,4.932,2.869,8.922,10.222,8.922s14.661-3.99,16.365-8.922-2.869-8.922-10.222-8.922C421.518,245.755,414.166,249.79,412.462,254.722Z" transform="translate(-388.162 -245.799)"/></g><g transform="translate(135.442 119.591)"><path class="dr" d="M338.326,283.8a4.722,4.722,0,0,1-2.959,1.659c-1.345.135-4.708.448-8.967.941-3.228-2.914-5.784-5.021-7.129-5.38a12.737,12.737,0,0,1-.762,6.322c-1.659,4.932-5.335,10.491-8.429,16.275-.045.045-.045.134-.09.179-1.121.673-.538,2.331-1.121,3.542a.619.619,0,0,1-.135.179c-.4.359-1.076.493-1.121.942-.045.045-.045.09-.09.134a1.861,1.861,0,0,0-.045.583,10.463,10.463,0,0,1-.045,1.838.606.606,0,0,1-.717.314c-1.39-.583-3.049-2.018-4.618-2.735.045,0,.493-.762.717-1.076a.336.336,0,0,0,.045-.224c-.807-1.479-.4-1.838.314-2.331.134-.224.314-.493.448-.717-.852-1.7-.045-1.569.717-2.78a.637.637,0,0,1,.09-.269c.269-1.076.583-2.287.9-3.542.673-2.69,1.48-5.694,2.287-8.743,2.018-7.8,4.259-15.961,5.559-20.22a2.564,2.564,0,0,1,3.587-1.7c6.815,3.228,15.468,8.653,21.027,12.105l.09,2.152A5.638,5.638,0,0,0,338.326,283.8Z" transform="translate(-302.1 -266.741)"/></g><path class="di" d="M274.227,363.228c4.618-.717,8.339-1.031,9.1-1.7.09-.09.179-.134.224-.224l4.573,2.825c-.359,1.838-.986,5.425-2.018,5.873-1.121.493-3.9-.762-5.559-1.928-1.838-1.3-2.78-.359-4.887-1.076-1.39-.493-7.8-3.542-6.635-4.394C269.7,362.017,274.183,363.228,274.227,363.228Z" transform="translate(-148.336 -199.314)"/><g transform="translate(147.386 92.748)"><path class="ds" d="M359,223.194l-17.62-4.394-1.076,2.287,18.2,10.4Z" transform="translate(-335.117 -213.451)"/><path class="dt" d="M335.909,209.211c-.269-.583-.583-1.211-1.211-1.345a1.383,1.383,0,0,0-1.166.314,4.077,4.077,0,0,0-.807.942c-.448.628,1.7,5.873,3.407,5.918.538,0,.538-.493.807-.942C337.792,212.708,336.537,210.735,335.909,209.211Z" transform="translate(-330.906 -207.404)"/><path class="du" d="M333.071,207.69c-.359-.852-3.049-1.031-3.811-.583a1.5,1.5,0,0,0-.4,1.7c.493-.09.314-.628.583-.9.224-.224.538-.09.852-.045C331.233,208,332.22,208.811,333.071,207.69Z" transform="translate(-328.741 -206.869)"/><path class="dv" d="M333.071,210.39c-.359-.852-3.049-1.031-3.811-.583a1.5,1.5,0,0,0-.4,1.7c.493-.09.314-.628.583-.9.224-.224.538-.09.852-.045C331.233,210.7,332.22,211.511,333.071,210.39Z" transform="translate(-328.741 -208.358)"/><path class="dw" d="M333.071,212.49c-.359-.852-3.049-1.031-3.811-.583a1.5,1.5,0,0,0-.4,1.7c.493-.09.314-.628.583-.9.224-.224.538-.09.852-.045C331.233,212.8,332.22,213.611,333.071,212.49Z" transform="translate(-328.741 -209.517)"/><path class="dx" d="M333.17,214.248c-.269-.628-2.242-.762-2.825-.448a1.1,1.1,0,0,0-.269,1.255c.359-.045.224-.493.448-.673.179-.179.4-.09.628-.045C331.825,214.472,332.587,215.055,333.17,214.248Z" transform="translate(-329.423 -210.602)"/></g><path class="dy" d="M335.161,209.38c-1.121-1.749-1.345.179-4.17-2.78-.852.538.717,1.928.986,2.421.314.538.045,1.345.448,1.928a1.984,1.984,0,0,0,1.48.807c.269.045.628.045.807.224" transform="translate(-182.458 -113.973)"/><path class="as" d="M305.587,238.533a31.6,31.6,0,0,0-7.129.135.622.622,0,0,0,0,.4A2.862,2.862,0,0,0,300.073,241c1.928,1.211,4.8,2.78,6.456,2.376.717-.179,1.39-.224,1.435-.942C308.188,240.64,306.8,239.205,305.587,238.533Z" transform="translate(-164.631 -131.514)"/><g transform="translate(128.53 87.113)"><path class="dz" d="M289.292,214.52h0l-2.2-20.22h0a.388.388,0,0,0-.4.448l2.062,19.279A.573.573,0,0,0,289.292,214.52Z" transform="translate(-286.685 -194.3)"/><path class="ea" d="M289.8,214.52h12.6l-2.2-20.175-12.6-.045Z" transform="translate(-287.19 -194.3)"/><path class="av" d="M290.938,213.161l11.433.045L300.533,195.9H289.1Z" transform="translate(-288.017 -195.183)"/></g><path class="eb" d="M300.7,233.533c-1.076-2.152.986-1.211-.269-5.828,1.031-.538,1.48,1.883,1.838,2.421.359.628,1.3.852,1.659,1.569a2.341,2.341,0,0,1-.09,1.973,1.409,1.409,0,0,0-.224.942" transform="translate(-165.709 -125.572)"/><path class="ec" d="M340.374,224.5l-6.635,11.029-20.848-2.511-3.99,1.973s19.055,6.68,28.784,9.639l10.805-13.9Z" transform="translate(-170.41 -123.847)"/><path class="ed" d="M385.953,199.442a12.9,12.9,0,0,1,5.559,2.152,5.559,5.559,0,0,1,2.69,4.977,7.755,7.755,0,0,1-.986,2.556,43.719,43.719,0,0,1-6.1,8.474,45.728,45.728,0,0,1-7.8-4.932,3.668,3.668,0,0,1-1.435-1.659,1.389,1.389,0,0,1,.762-1.838c-.4.09.583-4.708.717-5.066a6.956,6.956,0,0,1,2.825-3.99A6.006,6.006,0,0,1,385.953,199.442Z" transform="translate(-208.412 -109.998)"/></g></g></svg>