<svg xmlns="http://www.w3.org/2000/svg" xmlns:xlink="http://www.w3.org/1999/xlink" viewBox="0 0 317.116 331.644"><defs><style>.a{fill:rgba(239,63,97,0.14);}.b{clip-path:url(#a);}.c{fill:#ffcc80;}.d{fill:url(#b);}.e{fill:url(#c);}.f{fill:url(#d);}.g{fill:#ffe0b2;}.h{fill:url(#e);}.i{fill:#424242;}.j{fill:#fbe9e7;}.k{fill:#fafafa;}.l{fill:#00acc1;}.m{fill:#b2ebf2;}.n{fill:url(#f);}.o{fill:url(#g);}.p{fill:url(#h);}.q{fill:url(#i);}.r{fill:url(#j);}.s{fill:url(#k);}.t{fill:url(#l);}.u{fill:#e0e0e0;}.v{fill:#fff;}.w{fill:#f5f5f5;}.x{fill:#e6e7e7;}.y{fill:url(#m);}.z{fill:url(#n);}.aa{fill:url(#o);}.ab{fill:url(#p);}.ac{fill:url(#q);}.ad{fill:url(#r);}.ae{fill:url(#s);}.af{fill:url(#t);}.ag{fill:#5d4037;}.ah{fill:url(#u);}.ai{fill:url(#v);}.aj{fill:#263238;}.ak{fill:url(#w);}.al{fill:url(#x);}.am{fill:#90a4ae;}.an{fill:url(#y);}.ao{fill:url(#z);}.ap{fill:url(#aa);}.aq{fill:url(#ab);}.ar{fill:url(#ac);}.as{fill:url(#ad);}.at{fill:url(#ae);}.au{fill:url(#af);}.av{fill:url(#ag);}.aw{fill:url(#ah);}.ax{fill:url(#ai);}.ay{fill:url(#aj);}.az{fill:url(#ak);}.ba{fill:url(#al);}.bb{fill:url(#am);}.bc{fill:url(#an);}.bd{fill:#b0bec5;}.be{fill:url(#ao);}.bf{fill:url(#ap);}.bg{fill:#e0f7fa;}.bh{fill:url(#aq);}.bi{fill:url(#ar);}.bj{fill:url(#as);}.bk{fill:#ff8a80;}.bl{fill:url(#at);}.bm{fill:url(#au);}.bn{fill:url(#av);}.bo{fill:url(#aw);}.bp{fill:url(#ax);}.bq{fill:url(#ay);}.br{fill:url(#az);}.bs{fill:url(#ba);}.bt{fill:url(#bb);}.bu{fill:url(#bc);}.bv{fill:url(#bd);}.bw{fill:url(#be);}.bx{fill:url(#bf);}.by{fill:url(#bg);}.bz{fill:url(#bh);}.ca{fill:#d50000;}.cb{fill:#ff1744;}.cc{fill:#ff5252;}.cd,.ce{fill:#3a3a59;}.cd{opacity:0.42;}.ce{opacity:0.91;}</style><clipPath id="a"><path d="M156.487,251.361h-7.85L147.4,239.8h4.805l2.569,4.853,2.807,5.376C157.915,250.648,157.344,251.361,156.487,251.361Z" transform="translate(-147.4 -239.8)"/></clipPath><linearGradient id="b" x1="0.667" y1="0.468" x2="1.487" y2="0.468" gradientUnits="objectBoundingBox"><stop offset="0.002" stop-color="#dedede"/><stop offset="1" stop-color="#757575"/></linearGradient><linearGradient id="c" x1="0.487" y1="0.735" x2="0.445" y2="-0.101" gradientUnits="objectBoundingBox"><stop offset="0.036" stop-color="#d81b60"/><stop offset="1" stop-color="#ad1457"/></linearGradient><linearGradient id="d" x1="0.028" y1="0.082" x2="0.028" y2="0.646" xlink:href="#c"/><linearGradient id="e" x1="0.5" y1="0.32" x2="0.5" y2="1.591" gradientUnits="objectBoundingBox"><stop offset="0" stop-color="#ba68c8"/><stop offset="1" stop-color="#8e24aa"/></linearGradient><linearGradient id="f" x1="0.779" y1="0.5" x2="-0.011" y2="0.5" gradientUnits="objectBoundingBox"><stop offset="0.011" stop-color="#ffa726"/><stop offset="1" stop-color="#f26522"/></linearGradient><linearGradient id="g" x1="0.5" y1="0.133" x2="0.5" y2="0.67" xlink:href="#f"/><linearGradient id="h" x1="0.779" y1="0.5" x2="-0.011" y2="0.5" xlink:href="#f"/><linearGradient id="i" x1="0.501" y1="-0.395" x2="0.501" y2="0.142" xlink:href="#f"/><linearGradient id="j" x1="0.5" y1="0.804" x2="0.5" y2="-0.629" gradientUnits="objectBoundingBox"><stop offset="0" stop-color="#f26522"/><stop offset="1" stop-color="#f26522"/></linearGradient><linearGradient id="k" x1="0.5" y1="0.805" x2="0.5" y2="-0.629" xlink:href="#f"/><linearGradient id="l" x1="-0.001" y1="0.499" x2="1" y2="0.499" gradientUnits="objectBoundingBox"><stop offset="0" stop-color="#c4c4c4"/><stop offset="1" stop-color="#757575"/></linearGradient><linearGradient id="m" x1="0.499" y1="0.649" x2="0.499" y2="0.937" xlink:href="#c"/><linearGradient id="n" x1="0.001" y1="0.501" x2="1" y2="0.501" xlink:href="#c"/><linearGradient id="o" x1="0.002" y1="0.501" x2="1.002" y2="0.501" xlink:href="#c"/><linearGradient id="p" x1="0.002" y1="0.511" x2="1.002" y2="0.511" xlink:href="#c"/><linearGradient id="q" x1="0.002" y1="0.498" x2="1.002" y2="0.498" xlink:href="#c"/><radialGradient id="r" cx="228.434" cy="201.938" r="3.302" gradientTransform="translate(0.042 -0.547) scale(1.646 1.646)" gradientUnits="userSpaceOnUse"><stop offset="0" stop-color="#26a69a"/><stop offset="0.161" stop-color="#25a397"/><stop offset="0.315" stop-color="#229d91"/><stop offset="0.524" stop-color="#1b8c80"/><stop offset="0.763" stop-color="#0f7063"/><stop offset="1" stop-color="#004d40"/></radialGradient><linearGradient id="s" x1="21.762" y1="0.439" x2="21.762" y2="-0.092" xlink:href="#f"/><linearGradient id="t" x1="2.775" y1="0.666" x2="2.584" y2="-0.504" gradientUnits="objectBoundingBox"><stop offset="0" stop-color="#bcaaa4"/><stop offset="0.778" stop-color="#8d6e63"/></linearGradient><linearGradient id="u" x1="0.561" y1="0.522" x2="0.076" y2="0.585" gradientUnits="objectBoundingBox"><stop offset="0" stop-color="#bcaaa4"/><stop offset="0.696" stop-color="#9b8077"/><stop offset="1" stop-color="#8d6e63"/></linearGradient><linearGradient id="v" x1="0.488" y1="0.251" x2="0.667" y2="1.2" gradientUnits="objectBoundingBox"><stop offset="0" stop-color="#c51162"/><stop offset="1" stop-color="#072759"/></linearGradient><linearGradient id="w" x1="20.985" y1="0.662" x2="21.29" y2="-0.049" gradientUnits="objectBoundingBox"><stop offset="0.036" stop-color="#b0bec5"/><stop offset="1" stop-color="#546e7a"/></linearGradient><linearGradient id="x" x1="-2.009" y1="0.563" x2="-0.573" y2="-1.164" xlink:href="#w"/><linearGradient id="y" x1="0.46" y1="0.363" x2="0.659" y2="0.902" gradientUnits="objectBoundingBox"><stop offset="0" stop-color="#263238"/><stop offset="1" stop-color="#000001"/></linearGradient><linearGradient id="z" x1="0.455" y1="0.124" x2="0.412" y2="-0.071" xlink:href="#w"/><linearGradient id="aa" x1="4.134" y1="-45.091" x2="5.783" y2="-47.729" xlink:href="#w"/><linearGradient id="ab" x1="7.606" y1="-39.485" x2="11.511" y2="-41.749" xlink:href="#w"/><linearGradient id="ac" x1="5.887" y1="-46.66" x2="9.157" y2="-49.409" xlink:href="#w"/><linearGradient id="ad" x1="4.495" y1="-45.277" x2="7.869" y2="-47.944" xlink:href="#w"/><linearGradient id="ae" x1="9.878" y1="-60.33" x2="14.603" y2="-63.77" xlink:href="#w"/><linearGradient id="af" x1="0.002" y1="0.509" x2="1.001" y2="0.509" xlink:href="#y"/><linearGradient id="ag" x1="0.001" y1="0.501" x2="0.999" y2="0.501" xlink:href="#y"/><linearGradient id="ah" x1="0.501" y1="0.27" x2="0.501" y2="1.169" xlink:href="#y"/><linearGradient id="ai" x1="1.2" y1="11.801" x2="1.2" y2="12.691" xlink:href="#y"/><linearGradient id="aj" x1="0.502" y1="0.273" x2="0.502" y2="1.17" xlink:href="#y"/><linearGradient id="ak" x1="0" y1="0.5" x2="1.001" y2="0.5" xlink:href="#y"/><linearGradient id="al" x1="0.5" y1="0.904" x2="0.5" y2="0.473" xlink:href="#y"/><linearGradient id="am" x1="0.5" y1="0.267" x2="0.5" y2="1.162" xlink:href="#y"/><linearGradient id="an" x1="0.489" y1="0.272" x2="0.489" y2="1.169" xlink:href="#y"/><linearGradient id="ao" x1="0.254" y1="0.63" x2="0.789" y2="0.604" gradientUnits="objectBoundingBox"><stop offset="0" stop-color="#f16461"/><stop offset="0.964" stop-color="#ffab91"/></linearGradient><linearGradient id="ap" x1="-0.315" y1="0.696" x2="0.023" y2="1.156" gradientUnits="objectBoundingBox"><stop offset="0.036" stop-color="#ffab91"/><stop offset="1" stop-color="#f16461"/></linearGradient><linearGradient id="aq" x1="11.05" y1="16.734" x2="11.834" y2="17.367" xlink:href="#w"/><linearGradient id="ar" x1="0.755" y1="-0.029" x2="0.836" y2="-0.256" xlink:href="#w"/><linearGradient id="as" x1="0.502" y1="0.472" x2="0.833" y2="0.81" xlink:href="#w"/><linearGradient id="at" x1="0.512" y1="0.117" x2="0.501" y2="0.642" gradientUnits="objectBoundingBox"><stop offset="0.036" stop-color="#ff5252"/><stop offset="1" stop-color="#d50000"/></linearGradient><linearGradient id="au" x1="25.94" y1="-11.113" x2="26.48" y2="-10.537" xlink:href="#w"/><linearGradient id="av" x1="0.568" y1="0.304" x2="0.24" y2="1" gradientUnits="objectBoundingBox"><stop offset="0.036" stop-color="#ffc400"/><stop offset="1" stop-color="#ffab00"/></linearGradient><linearGradient id="aw" x1="24.718" y1="-2.729" x2="25.098" y2="-3.571" xlink:href="#w"/><linearGradient id="ax" x1="-32.955" y1="-2.063" x2="-31.749" y2="-3.803" xlink:href="#w"/><linearGradient id="ay" x1="1.72" y1="-0.236" x2="1.726" y2="0.131" gradientUnits="objectBoundingBox"><stop offset="0.034" stop-color="#1976d2"/><stop offset="1" stop-color="#0d47a1"/></linearGradient><linearGradient id="az" x1="1.342" y1="0.423" x2="1.202" y2="-0.596" xlink:href="#ay"/><linearGradient id="ba" x1="0.637" y1="0.142" x2="1.331" y2="1.15" xlink:href="#at"/><linearGradient id="bb" x1="3.927" y1="0.271" x2="3.927" y2="1.17" xlink:href="#y"/><linearGradient id="bc" x1="-9.393" y1="11.804" x2="-9.393" y2="12.695" xlink:href="#y"/><linearGradient id="bd" x1="6.809" y1="0.271" x2="6.809" y2="1.17" xlink:href="#y"/><linearGradient id="be" x1="-0.567" y1="0.499" x2="0.435" y2="0.499" xlink:href="#y"/><linearGradient id="bf" x1="1.29" y1="0.905" x2="1.29" y2="0.473" xlink:href="#y"/><linearGradient id="bg" x1="1.1" y1="0.275" x2="1.1" y2="1.171" xlink:href="#y"/><linearGradient id="bh" x1="-0.231" y1="0.27" x2="-0.231" y2="1.169" xlink:href="#y"/></defs><g transform="translate(-36.442 7)"><path class="a" d="M115.679,28.665c51.21-88.976,115.679,51.791,115.679,115.679A115.679,115.679,0,0,1,0,144.344C0,80.456,64.468,117.641,115.679,28.665Z" transform="matrix(0.914, 0.407, -0.407, 0.914, 142.203, -7)"/><g transform="translate(95.527 107.005)"><g transform="translate(0)"><g transform="translate(18.463 22.238)"><g transform="translate(42.392 21.22)"><g class="b"><rect class="c" width="10.467" height="11.561"/></g></g><g transform="translate(39.109 25.775)"><rect class="d" width="6.661" height="0.476" transform="translate(0 6.769)"/><path class="e" d="M161.594,254.905l-2.807-5.376a.36.36,0,0,0-.381-.143.212.212,0,0,0-.143.285l2.807,5.376a.569.569,0,0,1-.048.666.93.93,0,0,1-.714.333H154.6v.476h5.709A1.477,1.477,0,0,0,161.5,256,1,1,0,0,0,161.594,254.905Z" transform="translate(-147.892 -249.373)"/></g><path class="f" d="M196.3,221.273h0l2.855-26.073h0a.528.528,0,0,1,.523.619L196.966,220.7A.712.712,0,0,1,196.3,221.273Z" transform="translate(-130.642 -195.2)"/><path class="g" d="M152.737,221.273H113.2l2.807-26.073h39.585Z" transform="translate(-87.08 -195.2)"/><path class="h" d="M153.462,219.366H115.4l2.426-22.266h38.062Z" transform="translate(-88.233 -196.196)"/><g transform="translate(30.26 3.283)"><path class="i" d="M157.4,202.861l.048-.761H126.1l-.1.761Z" transform="translate(-124.049 -202.1)"/><path class="j" d="M123.8,204.7l-1.9,17.176h31.4l1.856-17.176Z" transform="translate(-121.9 -203.463)"/></g><g transform="translate(31.687 13.607)"><path class="g" d="M154.571,224.085V223.8H126.548l-.048.285Z" transform="translate(-125.739 -223.8)"/><path class="k" d="M125.661,224.8l-.761,6.661h28.071l.714-6.661Z" transform="translate(-124.9 -224.324)"/></g><g transform="translate(32.686 6.375)"><path class="l" d="M137.24,208.838l.048-.238h-9.04l-.048.238Z" transform="translate(-127.629 -208.6)"/><path class="m" d="M127.571,209.4,127,214.348h9.087l.523-4.948Z" transform="translate(-127 -209.019)"/><g transform="translate(9.611)"><path class="l" d="M157.44,208.838V208.6H148.4v.238Z" transform="translate(-147.829 -208.6)"/><path class="m" d="M147.723,209.4l-.523,4.948h9.04l.571-4.948Z" transform="translate(-147.2 -209.019)"/></g><g transform="translate(19.221)"><path class="l" d="M177.54,208.838l.048-.238h-9.04l-.048.238Z" transform="translate(-167.977 -208.6)"/><path class="m" d="M167.923,209.4l-.523,4.948h9.04l.523-4.948Z" transform="translate(-167.4 -209.019)"/></g></g><g transform="translate(0 32.115)"><g transform="translate(99.248 1.38)"><path class="n" d="M268.232,333.922H266.9V271.214l16.081-5.614h1.285Z" transform="translate(-266.9 -265.6)"/><path class="o" d="M285.734,324.692l-16.034,9.23V271.214l16.034-5.614Z" transform="translate(-268.368 -265.6)"/></g><g transform="translate(12.323 1.38)"><path class="p" d="M85.485,333.922H84.2V271.214l16.081-5.614h1.285Z" transform="translate(-84.2 -265.6)"/><path class="q" d="M102.981,324.692,86.9,333.922V271.214l16.081-5.614Z" transform="translate(-85.615 -265.6)"/></g><path class="r" d="M170.346,270.788H59.2a.9.9,0,0,1-.9-.9h0L186.713,262.7v.333a.879.879,0,0,1-.523.809Z" transform="translate(-58.3 -262.7)"/><path class="s" d="M170.346,269.884H58.3L74.762,262.7h112Z" transform="translate(-58.3 -262.7)"/></g><g transform="translate(29.879 31.497)"><path class="t" d="M141.987,266.348H121.1v-.714l27.024-4.234v.714Z" transform="translate(-121.1 -261.4)"/><path class="u" d="M141.987,265.634H121.1l6.138-4.234h20.887Z" transform="translate(-121.1 -261.4)"/><g transform="translate(5.424 0.428)"><path class="v" d="M133.547,262.871H132.5l.856-.571H134.4Z" transform="translate(-132.5 -262.3)"/><path class="v" d="M137.047,262.871H136l.856-.571H137.9Z" transform="translate(-134.335 -262.3)"/><path class="v" d="M140.547,262.871H139.5l.856-.571H141.4Z" transform="translate(-136.17 -262.3)"/><path class="v" d="M144.047,262.871H143l.856-.571H144.9Z" transform="translate(-138.004 -262.3)"/><path class="v" d="M147.547,262.871H146.5l.856-.571H148.4Z" transform="translate(-139.839 -262.3)"/><path class="v" d="M151.047,262.871H150l.856-.571H151.9Z" transform="translate(-141.674 -262.3)"/><path class="v" d="M154.547,262.871H153.5l.856-.571H155.4Z" transform="translate(-143.509 -262.3)"/><path class="v" d="M158.047,262.871H157l.856-.571H158.9Z" transform="translate(-145.343 -262.3)"/><path class="v" d="M161.547,262.871H160.5l.856-.571H162.4Z" transform="translate(-147.178 -262.3)"/><path class="v" d="M165.047,262.871H164l.856-.571H165.9Z" transform="translate(-149.013 -262.3)"/><path class="v" d="M168.547,262.871H167.5l.856-.571H169.4Z" transform="translate(-150.848 -262.3)"/><path class="v" d="M172.047,262.871H171l.856-.571H172.9Z" transform="translate(-152.682 -262.3)"/></g><g transform="translate(4.139 1.332)"><path class="v" d="M130.8,264.771h-1l.856-.571h1Z" transform="translate(-129.8 -264.2)"/><path class="v" d="M134.3,264.771h-1l.856-.571h1Z" transform="translate(-131.635 -264.2)"/><path class="v" d="M137.8,264.771h-1l.856-.571h1Z" transform="translate(-133.47 -264.2)"/><path class="v" d="M141.3,264.771h-1l.856-.571h1Z" transform="translate(-135.304 -264.2)"/><path class="v" d="M144.8,264.771h-1l.856-.571h1Z" transform="translate(-137.139 -264.2)"/><path class="v" d="M148.3,264.771h-1l.856-.571h1Z" transform="translate(-138.974 -264.2)"/><path class="v" d="M151.847,264.771H150.8l.856-.571h1Z" transform="translate(-140.809 -264.2)"/><path class="v" d="M155.347,264.771H154.3l.856-.571h1Z" transform="translate(-142.643 -264.2)"/><path class="v" d="M158.847,264.771H157.8l.856-.571H159.7Z" transform="translate(-144.478 -264.2)"/><path class="v" d="M162.347,264.771H161.3l.856-.571H163.2Z" transform="translate(-146.313 -264.2)"/><path class="v" d="M165.847,264.771H164.8l.856-.571H166.7Z" transform="translate(-148.148 -264.2)"/><path class="v" d="M169.347,264.771H168.3l.856-.571H170.2Z" transform="translate(-149.982 -264.2)"/></g><g transform="translate(2.807 2.236)"><path class="v" d="M128.047,266.671H127l.856-.571H128.9Z" transform="translate(-127 -266.1)"/><path class="v" d="M131.547,266.671H130.5l.856-.571H132.4Z" transform="translate(-128.835 -266.1)"/><path class="v" d="M135.047,266.671H134l.856-.571H135.9Z" transform="translate(-130.67 -266.1)"/><path class="v" d="M138.547,266.671H137.5l.856-.571H139.4Z" transform="translate(-132.504 -266.1)"/><path class="v" d="M142.047,266.671H141l.856-.571H142.9Z" transform="translate(-134.339 -266.1)"/><path class="v" d="M145.547,266.671H144.5l.856-.571H146.4Z" transform="translate(-136.174 -266.1)"/><path class="v" d="M149.047,266.671H148l.856-.571H149.9Z" transform="translate(-138.009 -266.1)"/><path class="v" d="M152.547,266.671H151.5l.856-.571H153.4Z" transform="translate(-139.843 -266.1)"/><path class="v" d="M156.047,266.671H155l.856-.571H156.9Z" transform="translate(-141.678 -266.1)"/><path class="v" d="M159.547,266.671H158.5l.856-.571H160.4Z" transform="translate(-143.513 -266.1)"/><path class="v" d="M163.047,266.671H162l.856-.571H163.9Z" transform="translate(-145.348 -266.1)"/><path class="v" d="M166.547,266.671H165.5l.856-.571H167.4Z" transform="translate(-147.182 -266.1)"/></g><g transform="translate(1.475 3.14)"><path class="v" d="M125.247,268.571H124.2l.856-.571H126.1Z" transform="translate(-124.2 -268)"/><path class="v" d="M128.747,268.571H127.7l.856-.571H129.6Z" transform="translate(-126.035 -268)"/><path class="v" d="M132.247,268.571H131.2l.856-.571H133.1Z" transform="translate(-127.87 -268)"/><path class="v" d="M144.02,268.571H134.6l.856-.571h9.42Z" transform="translate(-129.652 -268)"/><path class="v" d="M156.8,268.571h-1l.809-.571h1.047Z" transform="translate(-140.765 -268)"/><path class="v" d="M160.3,268.571h-1l.809-.571h1.047Z" transform="translate(-142.6 -268)"/><path class="v" d="M163.8,268.571h-1l.809-.571h1.047Z" transform="translate(-144.435 -268)"/></g></g><g transform="translate(88.209 30.83)"><path class="w" d="M252.787,266.138l-9.087.9,7.708-6.138,9.087-.9Z" transform="translate(-243.7 -260)"/><path class="x" d="M264.435,267.376l-9.135-.285L263.769,262l9.135.285Z" transform="translate(-249.781 -261.048)"/><path class="x" d="M281.687,270.076l-9.087-.285,8.469-5.091,9.087.285Z" transform="translate(-258.85 -262.464)"/></g><g transform="translate(46.722 30.069)"><g transform="translate(6.804)"><path class="i" d="M185.169,266.393H170.8v-.381h14.369a.952.952,0,1,0,0-1.9h-3.045a.952.952,0,1,1,0-1.9h16.462a.571.571,0,1,0,0-1.142h-2.664a1.332,1.332,0,1,1,0-2.664h10.943v.381H195.921a.952.952,0,1,0,0,1.9h2.664a.952.952,0,1,1,0,1.9H182.124a.571.571,0,1,0,0,1.142h3.045a1.33,1.33,0,0,1,1.332,1.332A1.3,1.3,0,0,1,185.169,266.393Z" transform="translate(-170.8 -258.4)"/></g><path class="y" d="M161.829,268.5H158.5a2.01,2.01,0,0,0-2,2h0a2.01,2.01,0,0,0,2,2h3.33a2.01,2.01,0,0,0,2-2h0A2.01,2.01,0,0,0,161.829,268.5Z" transform="translate(-156.5 -263.695)"/></g><path class="l" d="M155.066,221.038l.1-.238H127l-.1.238Z" transform="translate(-94.262 -208.62)"/><path class="l" d="M155.066,222.49l.048-.19H126.948l-.048.19Z" transform="translate(-94.262 -209.406)"/><g transform="translate(72.889 2.803)"><g transform="translate(0 10.233)"><path class="g" d="M222.443,222.6h-8.231c-1.189,0-2.712.952-2.712,2.093v21.22h8.564v-21.22A2.378,2.378,0,0,1,222.443,222.6Z" transform="translate(-211.5 -222.6)"/><path class="z" d="M231.351,222.8a1.929,1.929,0,0,0-1.951,1.951V245.78l11.894-4V224.608a1.807,1.807,0,0,0-1.808-1.808Z" transform="translate(-220.884 -222.705)"/><g transform="translate(0.952 3.568)"><path class="aa" d="M220.542,231.48H213.5V230.1h7.042Zm-6.661-.381h6.28v-.619h-6.28Z" transform="translate(-213.5 -230.1)"/></g><g transform="translate(0.952 5.662)"><path class="ab" d="M220.542,235.88H213.5V234.5h7.042Zm-6.661-.381h6.28v-.619h-6.28Z" transform="translate(-213.5 -234.5)"/></g><g transform="translate(0.952 12.941)"><path class="ac" d="M220.542,259.078H213.5V249.8h7.042Zm-6.661-.381h6.28v-8.516h-6.28Z" transform="translate(-213.5 -249.8)"/></g></g><g transform="translate(8.088)"><path class="ad" d="M232.782,202.713a.477.477,0,0,0-.476.476v.666c0,.19,0,.333-.143.333h-.333v-2.331a.763.763,0,0,0-.809-.761.746.746,0,0,0-.619.809v3.568s-.381,0-.381-.048c-.1-.048-.333-.048-.381-.143a1.35,1.35,0,0,1-.19-.619v-1.142c0-.381-.1-.666-.476-.666s-.476.285-.476.666v1.618a1.431,1.431,0,0,0,1.427,1.427h.428v1.475a.763.763,0,0,0,.809.761.746.746,0,0,0,.618-.809v-2.9h.476a.9.9,0,0,0,.9-.9v-1.047C233.258,202.951,233.067,202.713,232.782,202.713Z" transform="translate(-228.5 -201.092)"/><path class="ae" d="M233.769,216.081l-.333,2.426a.4.4,0,0,1-.381.333h-2.95a.4.4,0,0,1-.381-.333l-.333-2.426a.337.337,0,0,1,.333-.381h3.759A.3.3,0,0,1,233.769,216.081Z" transform="translate(-228.964 -208.75)"/></g></g></g><g transform="translate(0 2.995)"><g transform="translate(16.988 73.112)"><path class="af" d="M79.274,314.311c-2.569-.285-4.044-3.14-5.424-5.567a.651.651,0,0,0-.952-.19s-17.7,2.712-17.7,2.9c.476,8.231.619,16.034,5.9,17.509,10.229,2.807,33.257-3.14,37.349-1.618-3.473,4.234-1.76,13.845-1.332,23.028v.19c.714,1.189-.476,2.141-.523,3.426,0,.1.048.143.048.238.19.523.761,1,.571,1.38v.143c0,.238-.952,1.713-.952,1.951a.613.613,0,0,0,.523.618c1.475.333,3.568-.618,5.186-.238,0-.048-.143.19-.285-.523,0-.048.048-.143.048-.19,1.285-.714,1.094-1.237.714-2.046a4.688,4.688,0,0,1-.1-.809h0c1.427-.856.666-1.189.523-2.569a2.058,2.058,0,0,1,.048-.238c1.76-8.754,4.805-24.074,5.757-30.545a2.941,2.941,0,0,0-2.426-3.33C95.594,315.929,82.319,314.644,79.274,314.311Z" transform="translate(-55.2 -308.422)"/><path class="ag" d="M154.1,418.771c-3.663-2.522-6.756-4.33-7.137-5.186l-.143-.285c-1.713.19-3.378.381-5.091.571-.428,1.76-1.332,5.091-.618,5.9.761.856,3.663.952,5.614.618,2.141-.333,2.522.856,4.663,1.094,1.38.143,8.183.143,7.517-1.094C158.521,419.58,154.144,418.819,154.1,418.771Z" transform="translate(-100.095 -363.401)"/></g><g transform="translate(37.828 61.338)"><path class="ah" d="M99,299.769a4.438,4.438,0,0,0,2.807,1.57c1.285.143,6.09.666,10.182,1.142,3.093-2.76,5.329-5.234,5.186-5.329a12.425,12.425,0,0,0,.714,6.042c1.57,4.71,5.091,10.039,8.041,15.558.048.048.048.1.1.143,1.094.666.523,2.189,1.047,3.378.048.048.1.143.143.19.381.381,1.047.476,1.094.9.048.048.048.1.1.143a1.492,1.492,0,0,1,.048.571,9.206,9.206,0,0,0,.048,1.76.561.561,0,0,0,.714.285c1.332-.571,2.9-1.9,4.425-2.569-.048,0-.476-.761-.666-1a.286.286,0,0,1-.048-.19c.761-1.38.381-1.76-.285-2.236a5.228,5.228,0,0,1-.428-.666c.809-1.618.048-1.475-.666-2.664,0-.1-.048-.19-.048-.285-.285-1.047-.571-2.189-.856-3.378-.666-2.569-1.38-5.424-2.141-8.326-1.951-7.422-4.044-15.225-5.329-19.269a2.425,2.425,0,0,0-3.426-1.618c-6.471,3.093-14.749,8.279-20.078,11.514l-.1,2.046A10.439,10.439,0,0,1,99,299.769Z" transform="translate(-99 -283.676)"/><path class="ag" d="M176.174,370.056c-4.377-.714-7.946-1-8.659-1.665a.835.835,0,0,0-.238-.19c-1.427.9-2.9,1.808-4.377,2.712.333,1.76.952,5.186,1.951,5.567,1.047.476,3.711-.714,5.329-1.856,1.76-1.237,2.664-.333,4.663-1,1.332-.428,7.422-3.378,6.328-4.234C180.5,368.914,176.222,370.056,176.174,370.056Z" transform="translate(-132.498 -327.985)"/></g><g transform="translate(0 0)"><path class="ai" d="M85.808,166.766c-.476.19-1,.428-1.475.619-.1,1-.238,2.046-.333,3.045a3.311,3.311,0,0,1-.523,1.76,1.3,1.3,0,0,1-1.618.523,46.159,46.159,0,0,1-1.951,4.425c-1.713-.048-3.426-.143-5.186-.19a1.922,1.922,0,0,1-1.285-1.618,16.808,16.808,0,0,1-.048-2.189,11.4,11.4,0,0,0-1-3.283,32.594,32.594,0,0,1-1.57-5.186,6.027,6.027,0,0,1-.1-3.045,2.471,2.471,0,0,1,2.189-1.856,2.214,2.214,0,0,1,.048-2.664c1.285-2,3.949-2.569,6.28-2.284s4.52,1.285,6.8,1.76a1.721,1.721,0,0,0,1.094,0c.333-.143.619-.523.476-.856-.19-.1-.428-.19-.619-.285,2.093.1,3.663,2.141,4.139,4.187a4.209,4.209,0,0,1-.714,3.9c-1.047,1.094-2.76,1.189-4.282,1.142A5.861,5.861,0,0,0,85.808,166.766Z" transform="translate(-46.267 -154.755)"/><g transform="translate(26.361 7.919)"><path class="aj" d="M103.834,183.109a1.033,1.033,0,0,0-1.047-.809h-2.141a1.114,1.114,0,0,0-1.047.809v.856a2.113,2.113,0,0,0,2.141,2.046h.285a1.858,1.858,0,0,0,1.856-1.856v-.618Zm-.428,1.094a1.381,1.381,0,0,1-1.38,1.38h-.285a1.6,1.6,0,0,1-1.618-1.57v-.619a.55.55,0,0,1,.571-.571h2.141a.55.55,0,0,1,.571.571v.809Z" transform="translate(-87.848 -177.114)"/><path class="ak" d="M76.47,197.574l-1.57,6.661,8.707,4.187.714-6.09a.7.7,0,0,1,.856-.618l2.712.428-4.425-6.9-.428-.143-1.618,2.712Z" transform="translate(-74.9 -183.824)"/><path class="al" d="M96.026,187.243l-.1-15.843H93.79l-.333,3.949-.952,1.094-.761,4.425h-.856l-.048-1a1.616,1.616,0,0,0-1.57-1.57h-.048a1.617,1.617,0,0,0-1.522,1.618v1.094a1.616,1.616,0,0,0,1.57,1.57,1,1,0,0,1,.952,1v1.475c0,2.284,5.043,7.137,5.709,3.093A1.453,1.453,0,0,0,96.026,187.243Z" transform="translate(-81.61 -171.4)"/><path class="aj" d="M96.767,183.9H89.63a4.088,4.088,0,0,0-2.522.9l-.1.1a.238.238,0,0,0,.285.381l.1-.1a3.363,3.363,0,0,1,2.189-.809h7.137V183.9Z" transform="translate(-81.209 -177.953)"/></g><g transform="translate(31.547 48.154)"><path class="am" d="M87.418,269.191c6.613-3.9,14.226-8.707,14.226-8.707l-1.427-2.284L85.8,263.719C86.276,265.527,86.8,267.383,87.418,269.191Z" transform="translate(-85.8 -257.137)"/><path class="am" d="M119.865,256c.666,0,1,.048,1.38.571.285.333.19.618.1,1.047a3.915,3.915,0,0,1-.571,1.189c-.428.714-5.947,1.237-6.756-.381-.238-.523.1-.9.571-1.237A14.2,14.2,0,0,1,119.865,256Z" transform="translate(-100.549 -255.983)"/><path class="am" d="M124.9,258.392c.571-.809,3.473-.428,4.187.19a1.57,1.57,0,0,1,.048,1.856c-.523-.19-.19-.761-.428-1.094-.19-.285-.523-.238-.9-.238C126.8,259.106,125.566,259.772,124.9,258.392Z" transform="translate(-106.297 -256.996)"/><path class="am" d="M126,256.362c.618-.809,3.473-.238,4.187.428a1.572,1.572,0,0,1-.048,1.856c-.476-.19-.143-.761-.381-1.094-.19-.333-.523-.238-.9-.285C127.856,257.219,126.571,257.79,126,256.362Z" transform="translate(-106.874 -255.965)"/><path class="am" d="M123.7,257.905c.761-.619,3.426.523,4,1.332a1.493,1.493,0,0,1-.476,1.808c-.428-.333,0-.761-.1-1.189-.1-.333-.476-.333-.809-.476C125.318,259.142,123.938,259.428,123.7,257.905Z" transform="translate(-105.668 -256.89)"/><path class="am" d="M123.9,259.486c.619-.428,2.522.571,2.855,1.189a1.221,1.221,0,0,1-.428,1.332c-.285-.238.048-.571-.048-.856-.048-.238-.333-.285-.571-.381C125.042,260.485,124,260.628,123.9,259.486Z" transform="translate(-105.773 -257.757)"/><path class="am" d="M124.35,258.985c-.761.714,1.713,2.76,2.189,3.33-.523.809-1.808-.714-2.284-1-.523-.285-1.285-.1-1.856-.428a1.873,1.873,0,0,1-.761-1.427,1.438,1.438,0,0,0-.238-.761" transform="translate(-104.462 -257.399)"/></g><path class="an" d="M60.144,212.052a17.124,17.124,0,0,0-9.9,16.938c.619,8.326,2.046,32.305,2.046,32.305a14.393,14.393,0,0,0,.143,2.474c.523,2.189,3.9,2.712,5.757,2.95,4.377.476,10.562-1.475,14.559-3.378,1.76-.856,1.665-1.475,1.856-3.426L75.8,227.9c.666-5.091-.761-8.945-4.9-12.989C68.9,212.909,60.81,211.767,60.144,212.052Z" transform="translate(-35.591 -184.769)"/><g transform="translate(30.33 42.699)"><path class="ao" d="M116.764,254.729l-19.935,5.8S92.975,244.5,92.785,244.5c-1.713.333-10.087,1.237-9.516,3.949.619,3,9.373,20.506,9.42,21.172,7.565-3.426,25.359-12.37,25.359-12.37Z" transform="translate(-83.241 -244.5)"/><path class="ap" d="M157.677,264.58a2.408,2.408,0,0,1,1.9.761,1.721,1.721,0,0,1,.1,1.38,6.208,6.208,0,0,1-.666,1.237c-.476.714-6.946.428-7.66-1.38-.19-.571.238-.9.714-1.237C152.824,264.77,155.821,264.485,157.677,264.58Z" transform="translate(-118.921 -255.017)"/><path class="aq" d="M164.46,265.75c1-.381,3.235,1.713,3.521,2.664a1.682,1.682,0,0,1-1.094,1.665c-.333-.476.285-.761.285-1.189,0-.381-.333-.523-.666-.761C165.65,267.558,164.175,267.367,164.46,265.75Z" transform="translate(-125.799 -255.616)"/><path class="ar" d="M164.4,265.1c.856-.666,3.616.666,4.139,1.523a1.646,1.646,0,0,1-.523,1.9c-.428-.333.048-.809-.1-1.237-.1-.381-.476-.381-.856-.523C166.065,266.434,164.638,266.719,164.4,265.1Z" transform="translate(-125.786 -255.205)"/><path class="as" d="M160.8,267.438c.856-.618,3.568.856,4.044,1.713a1.6,1.6,0,0,1-.666,1.856c-.428-.381.1-.809,0-1.237-.1-.381-.476-.428-.809-.571C162.418,268.865,160.943,269.055,160.8,267.438Z" transform="translate(-123.899 -256.447)"/><path class="at" d="M161.2,269.319c.666-.381,2.569.809,2.9,1.475a1.181,1.181,0,0,1-.571,1.332c-.285-.285.1-.618.048-.9s-.333-.333-.571-.428C162.294,270.413,161.2,270.509,161.2,269.319Z" transform="translate(-124.109 -257.472)"/></g><path class="au" d="M82.219,211.129a2.138,2.138,0,0,1,.285.571c.238.666.523,1.38.761,2.046a46.774,46.774,0,0,0-12.465-3,10.872,10.872,0,0,1,.571-1.76,1.267,1.267,0,0,1,.285-.476,1.377,1.377,0,0,1,1.142-.238,29.146,29.146,0,0,1,8.707,2.331A4.628,4.628,0,0,1,82.219,211.129Z" transform="translate(-46.389 -182.798)"/><g transform="translate(28.165 31.886)"><path class="av" d="M91.066,232.682c-.19-1.237-.333-2.236-.333-2.236-1.189-7.279-6.423-10.657-10.753-7.47-2.379,1.713-1,7.8.428,13.893C83.977,235.489,87.45,233.919,91.066,232.682Z" transform="translate(-78.692 -221.774)"/></g><g transform="translate(0 52.167)"><path class="aw" d="M87.995,364H82l.714,13.322h4.615Z" transform="translate(-52.261 -316.612)"/><path class="ax" d="M60.1,418.826H86.934a11.618,11.618,0,0,0-7.089-2.426H67.189a11.618,11.618,0,0,0-7.089,2.426Z" transform="translate(-40.78 -344.082)"/><path class="ay" d="M84.9,392.5l.428,11.133h2.379l.428-11.133Z" transform="translate(-53.781 -331.553)"/><g transform="translate(4.485 11.514)"><path class="az" d="M51.32,324.474c-1.38-.238-2.807-.428-4.234-.571-1.665-.19-3.378-.381-5.043-.714-6.185-1.237-10.848-5.234-12.513-10.61a15.111,15.111,0,0,1,.143-8.945,17.055,17.055,0,0,1,2.95-5.091c.428-.571.9-1.142,1.285-1.76,1.047-1.57,2.664-4.568,1.665-6.994l2.855-1.189c1.475,3.568-.238,7.327-1.951,9.849-.476.666-.952,1.332-1.427,1.9a13.9,13.9,0,0,0-2.474,4.187,12.025,12.025,0,0,0-.143,7.089c1.285,4.282,5.091,7.47,10.182,8.516,1.57.333,3.14.476,4.805.666,1.427.143,2.95.333,4.425.619Z" transform="translate(-28.921 -288.6)"/></g><ellipse class="ba" cx="12.608" cy="4.901" rx="12.608" ry="4.901" transform="translate(19.748 41.202)"/><path class="bb" d="M85.814,352.416c0,2.046-7.422,3.759-16.557,3.759S52.7,354.51,52.7,352.416c0-2.046,7.422-1.427,16.557-1.427S85.814,350.323,85.814,352.416Z" transform="translate(-36.901 -309.739)"/><path class="bc" d="M45.189,272.916c1.618,4.71-2.76,8.516-9.753,8.516s-13.988-3.806-15.606-8.516,2.76-8.516,9.753-8.516S43.571,268.206,45.189,272.916Z" transform="translate(-19.493 -264.4)"/></g></g></g><g transform="translate(117.271)"><g transform="translate(0 21.096)"><path class="bd" d="M285.144,225.069a31.229,31.229,0,0,0-6.423-2.569.957.957,0,0,0-.19.381,2.92,2.92,0,0,0,.714,2.331c1.285,1.808,3.235,4.282,4.9,4.52.666.1,1.332.333,1.665-.285A4.029,4.029,0,0,0,285.144,225.069Z" transform="translate(-272.523 -208.369)"/><path class="be" d="M272.077,213.8h0l-5.852-15.7h0a.34.34,0,0,0-.238.428l5.567,14.987A.454.454,0,0,0,272.077,213.8Z" transform="translate(-265.975 -195.578)"/><path class="bf" d="M272.352,211.022l10.087-2.522-5.852-15.7L266.5,195.322Z" transform="translate(-266.25 -192.8)"/><path class="bg" d="M272.9,209.9l9.135-2.284-5-13.417-9.135,2.284Z" transform="translate(-266.984 -193.534)"/><path class="bh" d="M283.449,225.9c-.856-2.141,1.047-1.094.143-5.662,1.047-.428,1.285,1.9,1.57,2.474.333.666,1.19.952,1.475,1.665a2.236,2.236,0,0,1-.19,1.9,1.682,1.682,0,0,0-.285.9" transform="translate(-275.016 -207.159)"/><path class="bi" d="M288.83,233.1l-4.33.238s6.042,5.424,12.323,10.991l4.187-4.282Z" transform="translate(-275.686 -213.926)"/></g><g transform="translate(24.314 16.29)"><path class="bj" d="M343.093,205.8c-5.424-4.567-10.8-8.9-10.8-8.9l-3.093.952,10.134,11.942C340.619,208.461,341.856,207.129,343.093,205.8Z" transform="translate(-323.432 -190.144)"/><path class="bk" d="M348.572,209.3a18.442,18.442,0,0,0-4.472,5.138c.9.761,1.808,1.522,2.664,2.331l4.425-4.948Z" transform="translate(-331.243 -196.644)"/><path class="bl" d="M364.983,224.7a26.813,26.813,0,0,0-3.283-6.613c-.809-.476-1.618-.9-2.474-1.38-.761-.381-1.475-.761-2.236-1.142l-.714-.381a3.693,3.693,0,0,0-3.093-.571l-.1-.1-4.425,4.948h0a3.8,3.8,0,0,1-.714,2.046c-.333.666-.523,1.57.048,2.046a1.78,1.78,0,0,0,.9.048l-.1.714c.476.1.571.143.856.19.523.714,1.047,1.38,1.57,2.093.666.1,1.332.19,2,.238a1.32,1.32,0,0,0,.666,1.618,13.531,13.531,0,0,0,1.808.619c1.57.523,2.76,1.9,4.377,2.189a5.147,5.147,0,0,0,2.093-.1,17.693,17.693,0,0,0,4.377-1.523C366.078,227.987,365.6,226.321,364.983,224.7Z" transform="translate(-333.095 -199.344)"/><path class="bd" d="M325.74,188.275a2.455,2.455,0,0,0-2.046-1,1.781,1.781,0,0,0-1.189.9,6.737,6.737,0,0,0-.523,1.475c-.238.9,2.093,4.092,4.044,3.378.618-.238,2.9-.143,3.045-.809A39.2,39.2,0,0,0,325.74,188.275Z" transform="translate(-319.64 -185.087)"/><path class="bd" d="M322.8,186.268c.1-1.142-5.8-4.139-5.709-3.473-.19.571,2.236,1.76,2.569,2.046C320.561,185.554,321.228,187.029,322.8,186.268Z" transform="translate(-317.078 -182.699)"/><path class="bd" d="M323.083,189.219c-.428-1.094-3.759-1.427-4.758-.952a1.834,1.834,0,0,0-.571,2.093c.618-.048.428-.809.761-1.094.285-.285.666-.1,1.094,0C320.751,189.5,321.941,190.551,323.083,189.219Z" transform="translate(-317.363 -185.508)"/><path class="bd" d="M324.285,192.46c-.143-1.142-3.283-2.331-4.377-2.093a1.816,1.816,0,0,0-1.047,1.9c.619.1.619-.666,1.047-.9.381-.19.666.1,1.047.285C321.954,192.174,322.858,193.506,324.285,192.46Z" transform="translate(-317.994 -186.702)"/><path class="bd" d="M324.141,194.3c-.143-.856-2.569-1.523-3.33-1.332a1.277,1.277,0,0,0-.666,1.427c.476.048.428-.523.714-.714.238-.143.476,0,.809.143C322.429,194.2,323.142,195.153,324.141,194.3Z" transform="translate(-318.659 -188.063)"/><path class="bm" d="M329.314,189.292a26.71,26.71,0,0,0-3.521-4.092c-1.094.476.571,2.426.809,3.045.285.714-.143,1.618.238,2.379a2.279,2.279,0,0,0,1.665,1.189c.285.1.809-.19,1.38-.238" transform="translate(-321.453 -184.01)"/></g><g transform="translate(38.159)"><path class="bn" d="M353.849,167.748c2.093,1.047,3,3.426,3.616,5.471a18.425,18.425,0,0,1,5.995.523c.238-.809,3.711-5.424,4-5.947,1.76-3.14,3.521-7.85-.476-10.943a11.582,11.582,0,0,1-1.047-2.189c-.856-2.189-3.283-3.616-5.329-4.71a13.186,13.186,0,0,0-7.565-1.427,4.808,4.808,0,0,0-1.427.333c-.286.143-.666.285-.666.666,0,1.427-1.856,2.379-2.807,3.188a4.914,4.914,0,0,0-1.713,5.329c.476,1.332,2,1.9,2.379,3.188.19.809-.619,1.38-.333,2.093.143.333.428.523.571.809a3.284,3.284,0,0,1,.19,1.189C349.376,166.987,352.754,167.177,353.849,167.748Z" transform="translate(-346.178 -148.46)"/><g transform="translate(4.478 9.344)"><path class="bo" d="M369.657,196.964l.856,9.849-9.849-1.189.619-5.852a.674.674,0,0,0-.666-.761L358,198.867l5.614-5.519.428-.048.952,2.9Z" transform="translate(-356.854 -181.31)"/><path class="bp" d="M355.833,182.992l3.426-14.892,2,.428-.523,3.759.666,1.237-.238,4.33.809.19.238-.9A1.541,1.541,0,0,1,364.016,176h.048a1.55,1.55,0,0,1,1.094,1.808l-.238,1.047a1.556,1.556,0,0,1-1.808,1.142,1,1,0,0,0-1.142.761l-.333,1.38c-.476,2.141-6.233,5.662-6.042,1.665A4.017,4.017,0,0,0,355.833,182.992Z" transform="translate(-355.59 -168.1)"/></g></g><g transform="translate(21.9 77.238)"><g transform="translate(5.199)"><path class="bq" d="M322.964,313.75a2.46,2.46,0,0,1,2.426-2.95c9.23,0,20.268.761,25.169,1.142a115.861,115.861,0,0,0-.714,14.083c-7.66-2.284-14.511-4.615-16.6-4.234,3.473,4.853,1.76,14.178,1.332,23.313v.19c-.714,1.047.476,2.236.523,3.521,0,.1-.048.143-.048.238-.19.476-.761.856-.571,1.285v.143c0,.238.952,1.9.952,2.141a.568.568,0,0,1-.523.571c-1.427.1-3.473-.476-5.091-.476.048-.048.1-.856.19-1.237a2.062,2.062,0,0,1-.048-.238c-1.285-.952-1.094-1.427-.714-2.141a4.688,4.688,0,0,0,.1-.809c-1.427-1.142-.666-1.332-.523-2.664,0-.1-.048-.19-.048-.285C326.961,336.3,323.916,320.363,322.964,313.75Z" transform="translate(-322.932 -310.8)"/></g><path class="i" d="M316.807,405.319c3.664-2.522,6.8-4.33,7.137-5.234l.143-.285c1.713.19,3.426.381,5.091.571.428,1.76,1.38,5.091.666,5.9-.761.856-3.663.952-5.614.618-2.141-.333-2.569.856-4.663,1.094-1.38.143-8.183.143-7.517-1.094C312.383,406.128,316.76,405.319,316.807,405.319Z" transform="translate(-312.004 -357.456)"/></g><g transform="translate(4.058 76.059)"><g transform="translate(5.152)"><path class="br" d="M314.958,314.211c2.569-.285,4.044-3.188,5.424-5.567a.651.651,0,0,1,.952-.19s17.747,2.712,17.7,2.95c-.476,8.231-.618,16.081-5.947,17.556-10.277,2.807-33.3-3.14-37.444-1.618,3.473,4.234,1.76,13.845,1.332,23.075v.19c-.714,1.189.476,2.141.523,3.426,0,.1-.048.143-.048.238-.19.523-.761,1-.571,1.38v.143c0,.238.952,1.713.952,1.951a.613.613,0,0,1-.523.619c-1.475.333-3.568-.619-5.234-.238,0-.048.143.19.286-.523,0-.048-.048-.143-.048-.19-1.285-.714-1.094-1.237-.714-2.046a4.687,4.687,0,0,0,.1-.809h0c-1.427-.856-.666-1.237-.523-2.569,0-.1-.048-.19-.048-.285-1.76-8.754-4.853-24.122-5.757-30.593a2.941,2.941,0,0,1,2.426-3.33C298.638,315.781,311.913,314.5,314.958,314.211Z" transform="translate(-285.332 -308.322)"/></g><path class="i" d="M279.307,418.719c3.663-2.522,6.8-4.33,7.137-5.234l.143-.285c1.713.19,3.426.381,5.091.571.428,1.76,1.38,5.091.666,5.9-.761.856-3.664.952-5.614.619-2.141-.333-2.569.856-4.663,1.094-1.38.143-8.183.143-7.517-1.094C274.883,419.528,279.26,418.767,279.307,418.719Z" transform="translate(-274.504 -363.301)"/></g><path class="bs" d="M365.714,212.033a16.843,16.843,0,0,1,9.706,16.843c-.618,8.374-2.046,32.353-2.046,32.353a14.4,14.4,0,0,1-.143,2.474c-.523,2.189-3.9,2.712-5.8,2.95-4.377.476-10.562-1.475-14.606-3.426-1.808-.856-1.665-1.475-1.9-3.426l-1.189-32.068c-.666-5.091.761-8.945,4.9-13.036C356.721,212.746,365,211.7,365.714,212.033Z" transform="translate(-309.797 -181.754)"/><g transform="translate(31.271 55.067)"><path class="bt" d="M359.4,363.9h6.042l-.714,13.322h-4.615Z" transform="translate(-346.221 -316.465)"/><path class="bu" d="M364.382,418.826H337.5a11.618,11.618,0,0,1,7.089-2.426h12.7a11.517,11.517,0,0,1,7.089,2.426Z" transform="translate(-334.74 -343.986)"/><path class="bv" d="M365.583,392.5l-.428,11.133h-2.426L362.3,392.5Z" transform="translate(-347.741 -331.458)"/><g transform="translate(21.6 11.561)"><path class="bw" d="M377.576,324.374c1.38-.238,2.855-.428,4.234-.571,1.665-.19,3.378-.381,5.091-.714,6.185-1.237,10.9-5.234,12.513-10.61a15.106,15.106,0,0,0-.143-8.945,17.055,17.055,0,0,0-2.95-5.091c-.428-.571-.9-1.142-1.285-1.76-1.047-1.57-2.664-4.568-1.665-6.994l-2.855-1.189c-1.475,3.568.238,7.327,1.951,9.9.476.666.952,1.332,1.427,1.9a13.9,13.9,0,0,1,2.474,4.187,12.182,12.182,0,0,1,.143,7.137c-1.285,4.282-5.091,7.47-10.182,8.516-1.57.333-3.14.476-4.805.666-1.427.143-2.95.333-4.425.618Z" transform="translate(-377.1 -288.5)"/></g><ellipse class="bx" cx="12.608" cy="4.901" rx="12.608" ry="4.901" transform="translate(3.997 41.25)"/><path class="by" d="M331.7,352.216c0,2.046,7.422,3.759,16.6,3.759s16.6-1.665,16.6-3.759-7.422-1.427-16.6-1.427S331.7,350.171,331.7,352.216Z" transform="translate(-331.7 -309.539)"/><path class="bz" d="M380.23,272.716c-1.618,4.71,2.76,8.516,9.753,8.516s14.036-3.806,15.653-8.516-2.76-8.516-9.753-8.516S381.847,268.006,380.23,272.716Z" transform="translate(-356.964 -264.2)"/></g><path class="ca" d="M376.459,213.8a1.023,1.023,0,0,1,0,.381,1.038,1.038,0,0,1-.809.714,2.82,2.82,0,0,1-1.094,0,22.549,22.549,0,0,1-6.756-2l5.519,3.426a24.651,24.651,0,0,0,5.234,2.95,9.464,9.464,0,0,0,5,.618C382.835,217.039,379.457,214.851,376.459,213.8Z" transform="translate(-319.354 -182.241)"/><path class="cb" d="M394.091,217.734a7.661,7.661,0,0,0-6.185-5.186,20.26,20.26,0,0,0-3.806-.1,2.019,2.019,0,0,1,.952,1.142c3,1.047,6.375,3.235,7.089,6.042a6.121,6.121,0,0,0,.9-.19,1.6,1.6,0,0,0,1.142-.9A4.192,4.192,0,0,0,394.091,217.734Z" transform="translate(-327.898 -181.984)"/><path class="bk" d="M379.824,217.319a7.742,7.742,0,0,0-2.855-3.093c-1.76-1.094-5.567-2.664-8.564-2.141.048.1.048.19.1.285a25.021,25.021,0,0,1,7.279,3.045,4.146,4.146,0,0,1,1.237,1.332,1.592,1.592,0,0,1-.048,1.713,2.179,2.179,0,0,1-1.808.619c-4.472,0-8.279-3-12.132-5.281-1.38-.809-2.95-1.618-4.52-1.237a5.566,5.566,0,0,0-2.9,2.236A21.171,21.171,0,0,0,352.8,219.6c.856-1,1.713-2,2.522-3a4.386,4.386,0,0,1,2.189-1.665c1.475-.381,2.855.809,3.9,1.9a53.669,53.669,0,0,1,5.329,6.09c1.9,2.617,3.521,5.709,6.518,6.946a2.892,2.892,0,0,0,1.665.285c1.522-.238,2.236-2.046,2.379-3.568s.143-3.235,1.142-4.377l.856-.856A3.8,3.8,0,0,0,379.824,217.319Z" transform="translate(-311.49 -181.759)"/><path class="bk" d="M307.8,241.131c-1-.761-2-1.522-2.95-2.331a20.782,20.782,0,0,0-3.949,5.567c.952.666,1.951,1.38,2.9,2.046a.6.6,0,0,1,.048.285l3.949-5.567Z" transform="translate(-284.283 -195.818)"/><path class="cc" d="M337.75,225.445a6.087,6.087,0,0,0-2.093-3.711,5.008,5.008,0,0,0-4.044-.619,9.941,9.941,0,0,0-3.711,1.951,33.274,33.274,0,0,0-8.754,11.276c-.856-.428-1.76-.761-2.664-1.142-.761-.285-1.57-.618-2.331-.9-.238-.1-.523-.19-.761-.285-1-.381-2.189-.809-3.14-.238l-3.949,5.614a4.556,4.556,0,0,1-.523,1.856,1.7,1.7,0,0,0,.286,2.046,2.032,2.032,0,0,0,.9-.048v.714c.476.048.571.048.856.1.619.618,1.189,1.285,1.808,1.9.666,0,1.332.048,2,.048a1.264,1.264,0,0,0,.856,1.522,13.051,13.051,0,0,0,1.856.428c1.618.333,2.95,1.618,4.567,1.713a6.356,6.356,0,0,0,2.093-.285c5.471-1.665,9.42-6.328,13.084-10.8a17.687,17.687,0,0,0,3.568-5.757A11.417,11.417,0,0,0,337.75,225.445Z" transform="translate(-286.734 -186.46)"/></g></g><ellipse class="cd" cx="30.618" cy="4.263" rx="30.618" ry="4.263" transform="translate(14.208 125.593)"/><ellipse class="ce" cx="30.23" cy="2.713" rx="30.23" ry="2.713" transform="translate(120.401 128.693)"/></g></g></svg>