<svg width="350px" height="350px" xmlns="http://www.w3.org/2000/svg" xmlns:xlink="http://www.w3.org/1999/xlink" viewBox="0 0 319.03 333.646"><defs><style>.a{fill:rgba(239,63,97,0.14);}.b{fill:#fff;}.c{fill:#f6c59a;}.d{fill:#fafbfb;}.e{fill:#ffa96a;}.f{fill:#dee3e5;}.g{fill:#f7f8f8;}.h{fill:#555574;opacity:0.33;}.i{fill:url(#a);}.j{fill:url(#b);}.k{fill:url(#c);}.l{fill:url(#d);}.m{fill:url(#e);}.n{fill:url(#f);}.o{fill:url(#g);}.p{fill:url(#h);}.q{fill:#444;}.r{fill:url(#i);}.s{fill:url(#j);}.t{fill:url(#k);}.u{fill:url(#l);}.v{fill:url(#m);}.w{fill:url(#n);}.x{fill:url(#o);}.y{fill:#eaa537;}.z{fill:url(#p);}.aa{fill:url(#q);}.ab{fill:url(#r);}.ac{fill:#325897;}.ad{fill:url(#s);}.ae{fill:url(#t);}.af{fill:url(#u);}.ag{fill:url(#v);}.ah{fill:url(#w);}.ai{fill:url(#x);}.aj{fill:url(#y);}.ak{fill:url(#z);}.al{fill:url(#aa);}.am{fill:url(#ab);}.an{fill:url(#ac);}.ao{fill:url(#ad);}.ap{fill:url(#ae);}.aq{fill:url(#af);}.ar{fill:url(#ag);}.as{fill:url(#ah);}.at{fill:url(#ai);}.au{fill:url(#aj);}.av{fill:url(#ak);}.aw{fill:url(#al);}.ax{fill:#b3bdc3;}.ay{fill:url(#am);}.az{fill:#f2ccd1;}.ba{fill:url(#an);}.bb{fill:url(#ao);}.bc{fill:url(#ap);}.bd{fill:url(#aq);}.be{fill:url(#ar);}.bf{fill:url(#as);}.bg{fill:url(#at);}.bh{fill:url(#au);}.bi,.dn{fill:#3a3a59;}.bi{opacity:0.36;}.bj{fill:url(#av);}.bk{fill:#57423a;}.bl{fill:url(#aw);}.bm{fill:url(#ax);}.bn{fill:url(#ay);}.bo{fill:url(#az);}.bp{fill:url(#ba);}.bq{fill:url(#bb);}.br{fill:#eaa991;}.bs{fill:url(#bc);}.bt{fill:url(#bd);}.bu{fill:url(#be);}.bv{fill:url(#bf);}.bw{fill:url(#bg);}.bx{fill:url(#bh);}.by{fill:#ab9b88;}.bz{fill:url(#bi);}.ca{fill:#38419b;}.cb{fill:#262626;}.cc{fill:url(#bj);}.cd{fill:url(#bk);}.ce{fill:url(#bl);}.cf{fill:url(#bm);}.cg{fill:#e6f7fa;}.ch{fill:url(#bn);}.ci{fill:url(#bo);}.cj{fill:url(#bp);}.ck{fill:url(#bq);}.cl{fill:url(#br);}.cm{fill:url(#bs);}.cn{fill:url(#bt);}.co{fill:url(#bu);}.cp{fill:url(#bv);}.cq{fill:url(#bw);}.cr{fill:url(#bx);}.cs{fill:url(#by);}.ct{fill:url(#bz);}.cu{fill:url(#ca);}.cv{fill:url(#cb);}.cw{fill:url(#cc);}.cx{fill:url(#cd);}.cy{fill:url(#ce);}.cz{fill:url(#cf);}.da{fill:url(#cg);}.db{fill:url(#ch);}.dc{fill:url(#ci);}.dd{fill:#2e353a;}.de{fill:#f0c32e;}.df{fill:url(#cj);}.dg{fill:url(#ck);}.dh{fill:url(#cl);}.di{fill:url(#cm);}.dj{fill:url(#cn);}.dk{fill:url(#co);}.dl{fill:url(#cp);}.dm{fill:url(#cq);}.dn{opacity:0.37;}</style><radialGradient id="a" cx="78.493" cy="132.61" r="55.067" gradientTransform="translate(59.38 124.772) scale(0.243 0.059)" gradientUnits="userSpaceOnUse"><stop offset="0" stop-color="#d0d7db"/><stop offset="1" stop-color="#d0d7db" stop-opacity="0"/></radialGradient><linearGradient id="b" x1="-0.334" y1="0.294" x2="0.826" y2="0.294" gradientUnits="objectBoundingBox"><stop offset="0" stop-color="#3b695d"/><stop offset="1" stop-color="#98c686"/></linearGradient><linearGradient id="c" x1="-0.907" y1="-0.136" x2="0.124" y2="-0.136" xlink:href="#b"/><linearGradient id="d" x1="-3.833" y1="-0.524" x2="-2.899" y2="-0.524" xlink:href="#b"/><linearGradient id="e" x1="-1.832" y1="-0.435" x2="-0.839" y2="-0.435" xlink:href="#b"/><linearGradient id="f" x1="-5.779" y1="-0.59" x2="-4.949" y2="-0.59" xlink:href="#b"/><linearGradient id="g" x1="-3.235" y1="-0.442" x2="-2.14" y2="-0.442" xlink:href="#b"/><linearGradient id="h" x1="-5.991" y1="-0.972" x2="-5.136" y2="-0.972" xlink:href="#b"/><linearGradient id="i" x1="1.337" y1="0.314" x2="2.275" y2="0.314" xlink:href="#b"/><linearGradient id="j" x1="0.91" y1="0.534" x2="1.951" y2="0.534" xlink:href="#b"/><linearGradient id="k" x1="-1.401" y1="0.894" x2="-0.297" y2="0.894" xlink:href="#b"/><linearGradient id="l" x1="-0.098" y1="0.73" x2="0.988" y2="0.73" xlink:href="#b"/><linearGradient id="m" x1="-4.134" y1="1.079" x2="-2.905" y2="1.079" xlink:href="#b"/><linearGradient id="n" x1="-1.023" y1="1.424" x2="-0.045" y2="1.424" xlink:href="#b"/><linearGradient id="o" x1="-6.039" y1="1.307" x2="-4.737" y2="1.307" xlink:href="#b"/><linearGradient id="p" x1="0.499" y1="0.428" x2="0.499" y2="-0.1" gradientUnits="objectBoundingBox"><stop offset="0.011" stop-color="#eaa537"/><stop offset="1" stop-color="#d5652c"/></linearGradient><radialGradient id="q" cx="23.824" cy="132.61" r="55.067" gradientTransform="translate(18.023 124.772) scale(0.243 0.059)" xlink:href="#a"/><linearGradient id="r" x1="0.64" y1="0.26" x2="0.49" y2="0.848" gradientUnits="objectBoundingBox"><stop offset="0.002" stop-color="#7458be"/><stop offset="1" stop-color="#1e1641"/></linearGradient><linearGradient id="s" x1="0.881" y1="0.331" x2="0.702" y2="1.095" xlink:href="#r"/><linearGradient id="t" x1="4.874" y1="-0.628" x2="4.705" y2="0.209" xlink:href="#r"/><linearGradient id="u" x1="0.5" y1="0.431" x2="0.5" y2="-0.098" xlink:href="#p"/><radialGradient id="v" cx="-7.102" cy="138.1" r="248.41" gradientTransform="translate(-6.288 136.291) scale(0.115 0.013)" xlink:href="#a"/><linearGradient id="w" x1="0.499" y1="0.17" x2="0.499" y2="0.636" gradientUnits="objectBoundingBox"><stop offset="0" stop-color="#62a499"/><stop offset="1" stop-color="#366064"/></linearGradient><linearGradient id="x" x1="0.341" y1="-0.035" x2="0.607" y2="0.861" gradientUnits="objectBoundingBox"><stop offset="0.036" stop-color="#b3bdc3"/><stop offset="1" stop-color="#5d6e79"/></linearGradient><linearGradient id="y" x1="-0.482" y1="-0.693" x2="-0.281" y2="0.118" gradientUnits="objectBoundingBox"><stop offset="0" stop-color="#f2ccd1"/><stop offset="1" stop-color="#cc7272"/></linearGradient><linearGradient id="z" x1="0.372" y1="0.843" x2="0.544" y2="0.381" gradientUnits="objectBoundingBox"><stop offset="0" stop-color="#2e353a"/><stop offset="1" stop-color="#000006"/></linearGradient><linearGradient id="aa" x1="10.878" y1="1.176" x2="10.867" y2="0.789" xlink:href="#y"/><linearGradient id="ab" x1="7.989" y1="0.537" x2="7.989" y2="0.241" xlink:href="#x"/><linearGradient id="ac" x1="5.673" y1="0.085" x2="5.673" y2="1.167" xlink:href="#y"/><linearGradient id="ad" x1="0.499" y1="0.26" x2="0.499" y2="-0.313" xlink:href="#z"/><linearGradient id="ae" x1="1.305" y1="-0.65" x2="1.305" y2="1.11" xlink:href="#y"/><linearGradient id="af" x1="0.528" y1="0.537" x2="0.502" y2="0.162" xlink:href="#y"/><linearGradient id="ag" x1="0.497" y1="0.231" x2="0.497" y2="-0.096" xlink:href="#x"/><linearGradient id="ah" x1="0.5" y1="-0.27" x2="0.5" y2="1.037" xlink:href="#y"/><linearGradient id="ai" x1="0.45" y1="0.168" x2="0.679" y2="1.527" xlink:href="#y"/><linearGradient id="aj" x1="1.008" y1="1.008" x2="1.031" y2="-0.036" xlink:href="#x"/><linearGradient id="ak" x1="0.536" y1="0.221" x2="0.625" y2="-0.133" xlink:href="#x"/><linearGradient id="al" x1="0.5" y1="0.692" x2="0.5" y2="1.193" xlink:href="#x"/><linearGradient id="am" x1="0.832" y1="0.265" x2="1.07" y2="-0.002" xlink:href="#x"/><linearGradient id="an" x1="0.515" y1="0.295" x2="0.681" y2="1.148" xlink:href="#x"/><linearGradient id="ao" x1="-0.056" y1="0.5" x2="0.273" y2="0.5" gradientUnits="objectBoundingBox"><stop offset="0.036" stop-color="#eaa991"/><stop offset="1" stop-color="#e68e6c"/></linearGradient><linearGradient id="ap" x1="1.935" y1="-12.289" x2="3.652" y2="-14.489" xlink:href="#x"/><linearGradient id="aq" x1="3.772" y1="-16.297" x2="7.07" y2="-19.05" xlink:href="#x"/><linearGradient id="ar" x1="6.523" y1="-15.612" x2="9.331" y2="-20.275" xlink:href="#x"/><linearGradient id="as" x1="2.855" y1="-20.084" x2="5.845" y2="-23.593" xlink:href="#x"/><linearGradient id="at" x1="4.317" y1="-26.142" x2="8.47" y2="-30.458" xlink:href="#x"/><linearGradient id="au" x1="-0.299" y1="3.243" x2="0.072" y2="4.127" xlink:href="#x"/><linearGradient id="av" x1="0.761" y1="0.875" x2="0.416" y2="0.254" gradientUnits="objectBoundingBox"><stop offset="0" stop-color="#73c5d8"/><stop offset="1" stop-color="#1b2b58"/></linearGradient><linearGradient id="aw" x1="0.343" y1="0.385" x2="0.971" y2="-0.691" xlink:href="#av"/><linearGradient id="ax" x1="0.061" y1="0.054" x2="0.541" y2="0.583" xlink:href="#ao"/><linearGradient id="ay" x1="0.523" y1="0.207" x2="0.465" y2="0.64" gradientUnits="objectBoundingBox"><stop offset="0.036" stop-color="#7e7627"/><stop offset="0.991" stop-color="#5f5b28"/></linearGradient><linearGradient id="az" x1="2.037" y1="0.672" x2="2.439" y2="0.1" xlink:href="#x"/><linearGradient id="ba" x1="0.375" y1="0.566" x2="1.237" y2="-1.4" xlink:href="#x"/><linearGradient id="bb" x1="0.715" y1="0.17" x2="0.912" y2="-0.166" xlink:href="#x"/><linearGradient id="bc" x1="0.986" y1="-6.982" x2="2.768" y2="-8.906" xlink:href="#x"/><linearGradient id="bd" x1="0.953" y1="-18.42" x2="2.463" y2="-22.357" xlink:href="#x"/><linearGradient id="be" x1="1.795" y1="-12.344" x2="4.888" y2="-15.455" xlink:href="#x"/><linearGradient id="bf" x1="1.426" y1="-15.359" x2="4.288" y2="-19.384" xlink:href="#x"/><linearGradient id="bg" x1="1.941" y1="-21.035" x2="5.902" y2="-26.146" xlink:href="#x"/><linearGradient id="bh" x1="0.499" y1="0.352" x2="0.499" y2="-0.108" xlink:href="#x"/><linearGradient id="bi" x1="0.499" y1="0.175" x2="0.499" y2="-0.122" gradientUnits="objectBoundingBox"><stop offset="0.011" stop-color="#8b7864"/><stop offset="1" stop-color="#473c32"/></linearGradient><linearGradient id="bj" x1="-3.65" y1="0.237" x2="-3.65" y2="-0.281" xlink:href="#x"/><linearGradient id="bk" x1="3.14" y1="-1.236" x2="3.806" y2="-1.366" xlink:href="#x"/><linearGradient id="bl" x1="0.592" y1="0.6" x2="1.25" y2="0.575" gradientUnits="objectBoundingBox"><stop offset="0.036" stop-color="#df582a"/><stop offset="1" stop-color="#eaa991"/></linearGradient><linearGradient id="bm" x1="0.714" y1="0.99" x2="0.513" y2="0.405" xlink:href="#bl"/><linearGradient id="bn" x1="-13.559" y1="1.45" x2="-12.776" y2="2.055" xlink:href="#x"/><linearGradient id="bo" x1="-0.004" y1="0.503" x2="0.996" y2="0.503" gradientUnits="objectBoundingBox"><stop offset="0" stop-color="#38419b"/><stop offset="1" stop-color="#13124a"/></linearGradient><linearGradient id="bp" x1="0.434" y1="0.343" x2="0.668" y2="0.902" gradientUnits="objectBoundingBox"><stop offset="0.063" stop-color="#493b38"/><stop offset="1" stop-color="#151211"/></linearGradient><linearGradient id="bq" x1="0.5" y1="0.142" x2="0.5" y2="0.954" gradientUnits="objectBoundingBox"><stop offset="0.036" stop-color="#b9215e"/><stop offset="1" stop-color="#941b56"/></linearGradient><linearGradient id="br" x1="-8.889" y1="0.741" x2="-8.587" y2="0.118" xlink:href="#x"/><linearGradient id="bs" x1="0.503" y1="0.185" x2="0.503" y2="-0.09" xlink:href="#x"/><linearGradient id="bt" x1="1.206" y1="0.441" x2="1.933" y2="0.249" xlink:href="#x"/><linearGradient id="bu" x1="-4.845" y1="-24.899" x2="-4.527" y2="-23.717" xlink:href="#x"/><linearGradient id="bv" x1="0.376" y1="0.89" x2="0.747" y2="0.381" xlink:href="#bi"/><linearGradient id="bw" x1="0.852" y1="0.888" x2="0.383" y2="0.201" gradientUnits="objectBoundingBox"><stop offset="0" stop-color="#2c499d"/><stop offset="1" stop-color="#1b2b58"/></linearGradient><linearGradient id="bx" x1="2.36" y1="-2.215" x2="2.046" y2="0.57" xlink:href="#x"/><linearGradient id="by" x1="5.753" y1="-2.889" x2="4.65" y2="0.903" xlink:href="#x"/><linearGradient id="bz" x1="7.919" y1="-5.691" x2="6.195" y2="1.818" xlink:href="#x"/><linearGradient id="ca" x1="8.247" y1="-5.986" x2="6.523" y2="1.523" xlink:href="#x"/><linearGradient id="cb" x1="8.497" y1="-6.211" x2="6.773" y2="1.298" xlink:href="#x"/><linearGradient id="cc" x1="11.547" y1="-8.628" x2="9.212" y2="1.383" xlink:href="#x"/><linearGradient id="cd" x1="-2.375" y1="-0.075" x2="-2.004" y2="0.809" xlink:href="#x"/><linearGradient id="ce" x1="0.498" y1="0.35" x2="0.332" y2="-0.874" xlink:href="#bw"/><linearGradient id="cf" x1="0.743" y1="0.232" x2="0.491" y2="0.655" gradientUnits="objectBoundingBox"><stop offset="0.036" stop-color="#f0c32e"/><stop offset="1" stop-color="#eaa928"/></linearGradient><linearGradient id="cg" x1="0.493" y1="0.968" x2="0.507" y2="-0.118" xlink:href="#x"/><linearGradient id="ch" x1="0.447" y1="0.183" x2="0.609" y2="0.651" gradientUnits="objectBoundingBox"><stop offset="0.036" stop-color="#de5353"/><stop offset="1" stop-color="#b60100"/></linearGradient><linearGradient id="ci" x1="0.578" y1="0.321" x2="0.731" y2="-0.401" xlink:href="#x"/><linearGradient id="cj" x1="0.524" y1="0.268" x2="0.125" y2="1.503" xlink:href="#x"/><linearGradient id="ck" x1="-0.262" y1="1.618" x2="-2.213" y2="4.648" xlink:href="#x"/><linearGradient id="cl" x1="-0.288" y1="5.964" x2="-1.808" y2="16.111" xlink:href="#x"/><linearGradient id="cm" x1="-0.221" y1="5.509" x2="-1.741" y2="15.554" xlink:href="#x"/><linearGradient id="cn" x1="-0.175" y1="5.243" x2="-1.696" y2="15.39" xlink:href="#x"/><linearGradient id="co" x1="-0.379" y1="6.508" x2="-2.464" y2="20.08" xlink:href="#x"/><linearGradient id="cp" x1="1.842" y1="0.722" x2="2.441" y2="0.697" gradientUnits="objectBoundingBox"><stop offset="0" stop-color="#d46461"/><stop offset="0.964" stop-color="#eaa991"/></linearGradient><linearGradient id="cq" x1="0.832" y1="0.774" x2="1.183" y2="1.237" gradientUnits="objectBoundingBox"><stop offset="0.036" stop-color="#eaa991"/><stop offset="1" stop-color="#d46461"/></linearGradient></defs><g transform="translate(16.555 -5.895)"><path class="a" d="M116.377,28.838c51.519-89.513,116.377,52.1,116.377,116.377A116.377,116.377,0,0,1,0,145.215C0,80.942,64.858,118.352,116.377,28.838Z" transform="matrix(0.914, 0.407, -0.407, 0.914, 89.844, 5.895)"/><rect class="b" width="19.792" height="24.351" transform="translate(224.682 100.442)"/><rect class="c" width="17.955" height="7.537" transform="translate(59.694 145.686)"/><rect class="d" width="10.608" height="18.018" transform="translate(211.921 102.786)"/><rect class="e" width="28.183" height="10.608" transform="translate(42.563 132.038)"/><rect class="c" width="28.183" height="10.608" transform="translate(152.441 115.931)"/><g transform="translate(125.148 207.949)"><rect class="f" width="17.955" height="7.537" transform="translate(17.132 13.648)"/><rect class="g" width="28.183" height="10.608" transform="translate(0 0)"/></g><rect class="f" width="96.393" height="1.488" transform="translate(56.996 147.122)"/><ellipse class="h" cx="15.206" cy="1.56" rx="15.206" ry="1.56" transform="translate(50.162 251.956)"/><g transform="translate(167.006 117.249)"><ellipse class="i" cx="13.395" cy="3.262" rx="13.395" ry="3.262" transform="translate(74.828 126.519)"/><g transform="translate(34.364)"><path class="j" d="M694.668,99.874a64.518,64.518,0,0,1,12.477,4.053c1.932.823,3.832,2.09,5.827,2.692a17.648,17.648,0,0,1,6.08,3.135,75.445,75.445,0,0,1,9.722,9.088c1.552,1.678,3.008,3.42,4.4,5.257,1.71,2.217,3.642,4.275,2.723,7.252a4.01,4.01,0,0,1-3.832,2.818c-2.818-.127-3.895-1.868-5.447-3.895-1.3-1.71-2.692-3.357-4.117-4.972a101.841,101.841,0,0,0-9.057-8.677A33.749,33.749,0,0,1,709.2,112.1a26.73,26.73,0,0,0-4.4-3.832,120.925,120.925,0,0,0-10.672-7.188C693.464,100.666,693.971,99.748,694.668,99.874Z" transform="translate(-693.818 -99.862)"/><path class="k" d="M724.1,222.7c.982-1.172,1.488-2.628,2.787-3.515a11.213,11.213,0,0,1,3.737-1.457,22.744,22.744,0,0,1,10.007.507c5.985,1.488,13.11,4.718,16.91,9.785a4.686,4.686,0,0,1,.538,5.415,4.264,4.264,0,0,1-4.465,2.027c-2.122-.317-3.1-2.058-4.592-3.357a24.022,24.022,0,0,0-7.062-4.022c-3.008-1.172-5.953-2.312-8.9-3.673-2.153-1.013-6.523-2.945-8.708-1.393C724.134,223.211,723.976,222.863,724.1,222.7Z" transform="translate(-714.482 -180.165)"/><path class="l" d="M862.211,205.832c6.27-.507,11.4,5.162,13.807,10.418a.266.266,0,0,1-.317.38c-1.963-.792-3.737-1.995-5.763-2.628a12.936,12.936,0,0,0-5.827-.317c-3.7.6-4.5,4.433-5.225,7.6a4.52,4.52,0,0,1-5.573,3.04c-2.533-.728-3.483-3.2-3.04-5.573C851.445,212.545,855.435,206.338,862.211,205.832Z" transform="translate(-800.658 -172.253)"/><path class="m" d="M757.184,300.983c1.457-2.185,2.66-4.243,4.845-5.763a14.687,14.687,0,0,1,8.043-2.723c6.175-.095,13.268,4.243,15.232,10.228,1.425,4.338-4.528,6.9-7.41,4.022-1.267-1.267-2.122-2.818-3.61-3.895a14.658,14.658,0,0,0-5.13-2.28c-3.42-.887-8.138-1.077-11.115,1.14C757.6,302.092,756.8,301.585,757.184,300.983Z" transform="translate(-737.05 -231.495)"/><path class="n" d="M877.913,281.439a8.956,8.956,0,0,1,6.84-1.045c2.217.6,3.23,2.058,4.782,3.515.317.285-.032.95-.475.76-2.122-.918-5.953,1.52-7.347,3.072-1.995,2.185-2.375,5.383-2.248,8.17.253,5.668-8.962,5.573-8.867-.158C870.725,290.052,872.752,284.384,877.913,281.439Z" transform="translate(-814.618 -223.034)"/><path class="o" d="M784.492,357.207c2.913-2.533,5.827-2.85,9.373-1.2,3.99,1.837,6.967,4.94,10.007,8.012,4.053,4.148-2.628,10.482-6.555,6.175-2.185-2.375-4.085-4.908-6.143-7.41-1.362-1.647-3.99-4.37-6.27-4.592A.566.566,0,0,1,784.492,357.207Z" transform="translate(-755.65 -274.197)"/><path class="p" d="M885.17,371.831a5.849,5.849,0,0,0,3.262-2.312,16.993,16.993,0,0,1,5.193-4.433,8.51,8.51,0,0,1,5.225-.76c1.963.317,2.755,1.108,3.832,2.66a.59.59,0,0,1-.6.95c-3.1-.7-5.067,4.75-6.333,6.523-2.153,2.945-4.94,5.542-8.645,6.207C881.4,381.68,879.438,372.876,885.17,371.831Z" transform="translate(-822.223 -280.494)"/><path class="q" d="M758.04,185.989a44.359,44.359,0,0,1,28.4,20.457c.633,1.045,1.235,2.153,1.8,3.262a144.961,144.961,0,0,0-7.917-24.541A152.34,152.34,0,0,0,770.1,165.343c-.127-.19.19-.38.317-.158a137.8,137.8,0,0,1,16.4,36.353c.38,1.33.76,2.692,1.108,4.022a62.247,62.247,0,0,1,5.6-17.733c1.108-2.343,2.217-5.542,4.5-7.03a3.34,3.34,0,0,1,4.623.665.031.031,0,0,1-.032.032,2.95,2.95,0,0,0-3.357-.95,5.861,5.861,0,0,0-3.008,2.85,49.735,49.735,0,0,0-3.42,7.473,102.521,102.521,0,0,0-4.37,15.58c-.032.127.7,4.18,1.108,6.175a10.806,10.806,0,0,1,.665,3.515c.95,5.352,2.058,17.7,2.09,18.145.032-.1.063-.158.095-.253a.379.379,0,0,1,.222-.222c3.262-4.813,4.085-10.387,5.32-15.992,1.013-4.465,2.6-11.115,7.41-13.015.032-.032.063.032.032.063-4.813,3.388-5.953,9.5-7.062,14.915-1.045,5.162-1.932,10.83-5.447,14.978a45.593,45.593,0,0,0-.412,6.365c0,2.122.032,6.238.127,6.238,4.18.1,6.618-3.768,8.708-6.808,1.837-2.66,4.085-5.32,7.473-5.763.063,0,.1.1.032.1-7.568,1.33-7.853,13.49-16.245,13.3-.127,0-1.045,10.133-1.932,15.2-.032.253-.475.19-.412-.063q1.092-7.742,1.425-15.58c-3.927-1.172-6.682-4.877-8.772-8.2-2.438-3.832-4.4-7.758-8.138-10.513a.079.079,0,1,1,.095-.127c3.452,1.9,5.7,5.478,7.727,8.708,2.407,3.832,4.877,7.41,9.088,9.31.158-4.718.127-9.468-.158-14.187-2.312-.823-4.053-3.357-5.13-5.383-1.393-2.6-2.122-5.478-3.167-8.233a15.121,15.121,0,0,0-5.637-7.695,13.543,13.543,0,0,0-8.8-2.153c-.063,0-.063-.1,0-.127a13.565,13.565,0,0,1,13.9,7.062c1.52,2.787,2.28,5.89,3.515,8.8a18.118,18.118,0,0,0,2.407,4.243,12.4,12.4,0,0,0,2.85,2.47c-.19-2.692-.443-5.415-.792-8.107-.412-3.135-.887-6.27-1.488-9.4a52.738,52.738,0,0,0-2.818-6.27,43.393,43.393,0,0,0-5.13-7.315,46.717,46.717,0,0,0-13.775-10.957,44.167,44.167,0,0,0-9.5-3.61C757.882,186.116,757.945,185.958,758.04,185.989Z" transform="translate(-737.621 -144.431)"/></g><g transform="translate(0 57.248)"><path class="r" d="M585.649,290.168a51.632,51.632,0,0,1,10.2-2.755,46.584,46.584,0,0,0,5.13-.76,14.521,14.521,0,0,1,5.478-.57,63.188,63.188,0,0,1,10.577,1.837c1.773.475,3.547.982,5.257,1.615,2.122.76,4.338,1.3,5.035,3.7a3.231,3.231,0,0,1-1.33,3.578c-1.963,1.14-3.452.475-5.383-.222-1.647-.57-3.293-1.108-4.972-1.552a75.884,75.884,0,0,0-9.912-1.868,25.219,25.219,0,0,1-4.845-1.2,20.865,20.865,0,0,0-4.655-.633,94.159,94.159,0,0,0-10.355-.158A.523.523,0,0,1,585.649,290.168Z" transform="translate(-585.3 -284.325)"/><path class="s" d="M664.2,351.41c.158-1.2-.158-2.438.317-3.578a9.483,9.483,0,0,1,1.868-2.628,18.184,18.184,0,0,1,6.967-4.053c4.687-1.647,10.925-2.6,15.706-.855a3.865,3.865,0,0,1,2.755,3.42,3.4,3.4,0,0,1-2.122,3.325c-1.552.7-3.008-.032-4.56-.253a19.66,19.66,0,0,0-6.523.38c-2.533.538-5.035,1.077-7.6,1.457-1.9.285-5.7.887-6.492,2.882C664.453,351.727,664.2,351.6,664.2,351.41Z" transform="translate(-639.215 -320.772)"/><path class="t" d="M754.548,282.374c4.022-3.1,9.943-1.552,13.9.95.127.1.158.348-.032.38-1.678.348-3.388.317-5.067.76a11.007,11.007,0,0,0-4.085,2.343c-2.248,2.027-1.077,4.972-.19,7.41a3.617,3.617,0,1,1-6.935,2.058C750.241,291.652,750.178,285.73,754.548,282.374Z" transform="translate(-698.466 -280.647)"/><path class="u" d="M724.1,390.987c.032-2.09-.063-4.053.728-6.017a12.021,12.021,0,0,1,4.243-5.383c4.117-2.787,10.83-2.977,14.788.19,2.882,2.312,0,6.65-3.23,5.985-1.425-.285-2.66-.982-4.148-1.045a11.914,11.914,0,0,0-4.465.728c-2.692.918-5.953,2.882-7,5.668C724.858,391.557,724.066,391.589,724.1,390.987Z" transform="translate(-680.145 -346.796)"/><path class="v" d="M798.074,328.063a7.047,7.047,0,0,1,4.148-3.7c1.742-.57,3.072-.032,4.782.253.348.063.38.665.032.728-1.837.317-3.325,3.642-3.61,5.288-.38,2.343.76,4.655,2.09,6.492,2.66,3.7-3.578,7.695-6.048,3.8C797,337.056,795.889,332.338,798.074,328.063Z" transform="translate(-729.896 -310.344)"/><path class="w" d="M761.355,425.858c.855-2.977,2.66-4.465,5.795-4.94,3.515-.538,6.872.253,10.26,1.013,4.56,1.013,2.85,8.2-1.71,7.062-2.533-.633-4.908-1.52-7.378-2.28-1.647-.507-4.623-1.172-6.238-.348C761.7,426.555,761.228,426.3,761.355,425.858Z" transform="translate(-705.59 -376.378)"/><path class="x" d="M843.185,382.433a4.824,4.824,0,0,0,1.2-3.008,13.991,13.991,0,0,1,1.552-5.288,7.081,7.081,0,0,1,3.2-2.818,4.092,4.092,0,0,1,3.737.1.478.478,0,0,1,0,.918c-2.407.887-1.33,5.447-1.393,7.188-.158,2.945-.918,5.922-3.1,7.98C844.958,390.73,839.765,385.631,843.185,382.433Z" transform="translate(-760.757 -342.326)"/><path class="q" d="M683.593,310.905a35.677,35.677,0,0,1,28.151,1.3c.887.443,1.773.887,2.66,1.393a116.655,116.655,0,0,0-16.15-13.078,122.29,122.29,0,0,0-15.611-8.867.142.142,0,0,1,.127-.253,111.659,111.659,0,0,1,27.043,17.29c.855.728,1.678,1.488,2.5,2.248a49.838,49.838,0,0,1-4.022-14.408c-.285-2.058-.95-4.718-.063-6.713a2.732,2.732,0,0,1,3.42-1.615c.032,0,0,.032,0,.032a2.313,2.313,0,0,0-2.66.855,4.66,4.66,0,0,0-.76,3.23,38.544,38.544,0,0,0,.982,6.555,85.857,85.857,0,0,0,3.895,12.445c.032.1,2.312,2.533,3.452,3.673a8.588,8.588,0,0,1,1.995,2.058c3.008,3.167,9.183,11.02,9.4,11.3,0-.063-.032-.158-.032-.222a.246.246,0,0,1,.063-.253c.1-4.687-1.837-8.8-3.452-13.142-1.3-3.452-3.135-8.645-.728-12.033.032-.032.063,0,.063.032-1.773,4.4.158,9.025,1.8,13.173,1.583,3.927,3.452,8.138,2.913,12.508a34.129,34.129,0,0,0,2.533,4.465c.95,1.425,2.755,4.212,2.85,4.148,2.85-1.773,2.818-5.447,2.882-8.423.063-2.6.412-5.383,2.5-7.157.032-.032.1.032.063.063-4.528,4.243.633,12.572-5.1,16.118-.095.063,3.737,7.283,5.383,11.083.063.19-.222.317-.317.158a120.047,120.047,0,0,0-5.89-11.115c-3.167.95-6.65-.348-9.5-1.678-3.325-1.52-6.365-3.293-10.1-3.515a.064.064,0,1,1,0-.127c3.167-.222,6.27,1.2,9.057,2.47,3.325,1.52,6.555,2.85,10.228,2.248q-2.945-4.892-6.365-9.5c-1.9.443-4.212-.507-5.827-1.393a56.44,56.44,0,0,1-5.763-4.148,12.437,12.437,0,0,0-7.188-2.723,11.155,11.155,0,0,0-6.9,2.407c-.032.032-.1-.032-.063-.063a10.916,10.916,0,0,1,12.477-1.33c2.248,1.2,4.117,2.977,6.238,4.37a14.558,14.558,0,0,0,3.483,1.805,9.987,9.987,0,0,0,3.008.412q-2-2.612-4.085-5.13c-1.647-1.932-3.357-3.832-5.162-5.668a47.266,47.266,0,0,0-4.687-3.008,35.954,35.954,0,0,0-6.682-2.692,37.2,37.2,0,0,0-14.092-1.33,36.555,36.555,0,0,0-8.012,1.742C683.561,311.063,683.53,310.937,683.593,310.905Z" transform="translate(-651.768 -285.682)"/></g><g transform="translate(81.682 118.919)"><path class="y" d="M855.708,475.4h-11.78a.678.678,0,0,0-.665.823l.443,1.932a.651.651,0,0,0,.665.507H855.3a.713.713,0,0,0,.665-.507l.443-1.932A.735.735,0,0,0,855.708,475.4Z" transform="translate(-843.247 -475.4)"/><path class="z" d="M847.3,486.7l.95,6.587a.916.916,0,0,0,.887.792h6.9a.889.889,0,0,0,.887-.792l.95-6.587Z" transform="translate(-846.016 -483.122)"/></g></g><g transform="translate(8.92 139.443)"><ellipse class="aa" cx="13.395" cy="3.262" rx="13.395" ry="3.262" transform="translate(14.415 104.325)"/><path class="ab" d="M86.5,227.916c-.507-2.312-.76-4.813.475-7a4.644,4.644,0,0,1,2.312-2.09c3.2-1.267,6.017,1.552,7.632,4.275,1.235,2.122,2.248,4.433,4.4,5.827a4.77,4.77,0,0,0,2.755.823c3.578-.1,4.592-4.117,3.42-6.872-.982-2.312-3.008-3.99-4.782-5.795a39.166,39.166,0,0,1-9.943-16.878c-1.14-3.99-1.552-8.613,1.52-11.843a5.71,5.71,0,0,1,6.238-1.52c2.66,1.045,3.167,3.61,3.578,5.985.348,1.963.792,4.085,2.5,5.288a2.949,2.949,0,0,0,3.642.032c1.045-.887.918-2.185.823-3.388a29.024,29.024,0,0,1,7.188-20.742c2.723-3.072,7.41-5.668,10.767-2.882a5.792,5.792,0,0,1,1.773,2.787c.792,2.565.19,5.13-.38,7.632l-3.2,13.712a1.464,1.464,0,0,0,2.28,1.52l9.563-6.555a5.958,5.958,0,0,1,2.977-1.077c3.547-.222,4.528,2.818,4.592,5.415.1,5.732-2.977,11.147-7.03,15.2-4.085,4.053-9.12,7-14.028,10.007-1.52.918-3.135,1.963-3.673,3.768a2.711,2.711,0,0,0,.728,2.882c1.362,1.172,3.293.38,4.718-.57,4.4-2.882,8.043-6.967,13.395-8.2a9.578,9.578,0,0,1,5.732.38c5.6,2.28,5.32,8.265,2.66,12.128-2.818,4.053-7,6.713-10.957,9.532-7.98,5.637-19.063,15.8-29.766,12.572-6.27-1.868-11.78-6.65-15.77-11.653A31,31,0,0,1,86.5,227.916Z" transform="translate(-86.079 -169.951)"/><g transform="translate(7.702 19.864)"><g transform="translate(20.173)"><path class="ac" d="M175.244,309.32a.3.3,0,0,1-.285-.253,286.72,286.72,0,0,1,4.275-76.158.273.273,0,0,1,.538.1,286.861,286.861,0,0,0-4.275,76c.063.19-.063.317-.253.317Z" transform="translate(-174.106 -232.681)"/></g><g transform="translate(4.286 4.926)"><path class="ac" d="M142.07,266.655a14.216,14.216,0,0,1-5.067-.887,18.192,18.192,0,0,1-8.36-7.188,53.484,53.484,0,0,1-4.687-9.975.271.271,0,0,1,.507-.19,51.463,51.463,0,0,0,4.623,9.88,17.677,17.677,0,0,0,8.075,6.967c4.813,1.837,11.02.665,16.213-3.008,4.75-3.357,8.2-8.138,11.527-12.762a.272.272,0,0,1,.443.317c-3.357,4.655-6.84,9.468-11.653,12.888A20.235,20.235,0,0,1,142.07,266.655Z" transform="translate(-123.936 -248.236)"/></g><g transform="translate(0 35.674)"><path class="ac" d="M129.653,363.945a16.621,16.621,0,0,1-5.352-.855c-6.872-2.28-11.21-8.867-13.87-13.648a.277.277,0,1,1,.475-.285c2.628,4.687,6.9,11.147,13.553,13.363,5.7,1.9,12.667.443,18.652-3.927l1.14-.823a107.442,107.442,0,0,0,14.883-12.35.269.269,0,0,1,.38.38,108.256,108.256,0,0,1-14.978,12.413l-1.14.823A23.247,23.247,0,0,1,129.653,363.945Z" transform="translate(-110.4 -345.336)"/></g></g><g transform="translate(22.298 53.803)"><path class="ad" d="M156.5,362.86a4.807,4.807,0,0,1,1.045-3.262,2.412,2.412,0,0,1,1.33-.728c1.647-.222,2.66,1.425,3.072,2.913a7.686,7.686,0,0,0,1.393,3.262,2.215,2.215,0,0,0,1.2.7c1.678.38,2.628-1.425,2.407-2.85A10.125,10.125,0,0,0,165.4,359.6a18.98,18.98,0,0,1-2.692-9.12c-.063-2.027.285-4.243,2.09-5.415a2.772,2.772,0,0,1,3.1,0c1.108.823,1.045,2.09.982,3.23a3.833,3.833,0,0,0,.538,2.787,1.43,1.43,0,0,0,1.71.443c.57-.285.665-.918.792-1.52a14.265,14.265,0,0,1,5.795-8.993c1.647-1.14,4.148-1.837,5.383-.127a2.9,2.9,0,0,1,.507,1.52,7.26,7.26,0,0,1-1.077,3.578l-3.1,6.112a.709.709,0,0,0,.887.982l5.257-1.995a2.769,2.769,0,0,1,1.52-.158c1.678.317,1.8,1.868,1.52,3.1a10.656,10.656,0,0,1-5.067,6.365,35.526,35.526,0,0,1-7.727,3.1,3.5,3.5,0,0,0-2.153,1.362,1.415,1.415,0,0,0,0,1.457c.507.728,1.488.538,2.28.285,2.407-.855,4.592-2.375,7.22-2.343a4.539,4.539,0,0,1,2.628.823c2.375,1.71,1.52,4.528-.158,6.048-1.773,1.583-4.053,2.375-6.238,3.23-4.4,1.742-10.767,5.257-15.422,2.5a16.1,16.1,0,0,1-6.017-7.347A14.571,14.571,0,0,1,156.5,362.86Z" transform="translate(-156.495 -339.857)"/><g transform="translate(3.129 8.527)"><g transform="translate(5.575 0.138)"><path class="ac" d="M184.24,403.251h-.032a.261.261,0,0,1-.222-.317,141.809,141.809,0,0,1,10.862-35.561.283.283,0,0,1,.507.253,141.894,141.894,0,0,0-10.83,35.4A.277.277,0,0,1,184.24,403.251Z" transform="translate(-183.981 -367.222)"/></g><g transform="translate(5.988)"><path class="ac" d="M193.871,378.094a7.816,7.816,0,0,1-4.4-1.267,8.884,8.884,0,0,1-3.135-4.433,27.387,27.387,0,0,1-1.045-5.288.287.287,0,0,1,.57-.063,23.251,23.251,0,0,0,1.013,5.162,8.305,8.305,0,0,0,2.913,4.148,8.43,8.43,0,0,0,7.79.443,25.263,25.263,0,0,0,6.84-4.687.27.27,0,0,1,.348.412,26.12,26.12,0,0,1-7,4.782A9.962,9.962,0,0,1,193.871,378.094Z" transform="translate(-185.285 -366.785)"/></g><g transform="translate(0 15.799)"><path class="ac" d="M176.168,426.5a8.8,8.8,0,0,1-4.813-1.33c-2.977-1.9-4.275-5.542-4.972-8.138a.281.281,0,1,1,.538-.158c.665,2.5,1.9,6.017,4.75,7.822a9.925,9.925,0,0,0,9.057.285l.633-.253a51.175,51.175,0,0,0,8.392-4.117.277.277,0,1,1,.285.475,53.5,53.5,0,0,1-8.487,4.148l-.633.253A12.572,12.572,0,0,1,176.168,426.5Z" transform="translate(-166.375 -416.675)"/></g></g></g><g transform="translate(5.422 70.548)"><path class="ae" d="M126.73,404.821a3.285,3.285,0,0,0-1.2-2.058,1.645,1.645,0,0,0-1.013-.285c-1.14.1-1.583,1.362-1.647,2.438a5.387,5.387,0,0,1-.443,2.438,1.569,1.569,0,0,1-.7.665c-1.108.507-1.995-.57-2.058-1.583a6.123,6.123,0,0,1,.57-2.47,13.521,13.521,0,0,0,.443-6.65c-.253-1.393-.823-2.85-2.248-3.388a1.908,1.908,0,0,0-2.122.475,2.315,2.315,0,0,0-.19,2.343,2.568,2.568,0,0,1,.032,1.995.958.958,0,0,1-1.077.538c-.443-.127-.6-.538-.76-.918A9.937,9.937,0,0,0,109,393.1c-1.3-.538-3.1-.633-3.7.728a1.9,1.9,0,0,0-.127,1.108,5.422,5.422,0,0,0,1.267,2.28l3.04,3.7a.505.505,0,0,1-.443.823l-3.895-.57a1.82,1.82,0,0,0-1.077.127c-1.108.475-.95,1.552-.57,2.343a7.3,7.3,0,0,0,4.433,3.578,24.914,24.914,0,0,0,5.763.95,2.486,2.486,0,0,1,1.678.6.95.95,0,0,1,.222.982c-.222.57-.95.6-1.52.538-1.773-.222-3.483-.918-5.288-.507a3.252,3.252,0,0,0-1.678.982c-1.362,1.52-.348,3.325,1.013,4.085a13.728,13.728,0,0,0,4.75,1.267c3.262.538,8.138,1.963,10.893-.633a11.412,11.412,0,0,0,3.008-5.922A10.039,10.039,0,0,0,126.73,404.821Z" transform="translate(-103.203 -392.736)"/><g transform="translate(2.508 3.504)"><g transform="translate(5.1 1.686)"><path class="ac" d="M140.264,432.266a.265.265,0,0,1-.253-.19,98.652,98.652,0,0,0-12.73-22.515.272.272,0,1,1,.443-.317,99.055,99.055,0,0,1,12.793,22.641.239.239,0,0,1-.158.348C140.359,432.266,140.3,432.266,140.264,432.266Z" transform="translate(-127.226 -409.126)"/></g><path class="ac" d="M118.081,413.142a9.287,9.287,0,0,1-1.3-.1,17.073,17.073,0,0,1-5.51-2.217.283.283,0,1,1,.253-.507,17.427,17.427,0,0,0,5.352,2.153,5.784,5.784,0,0,0,5.193-1.457,5.622,5.622,0,0,0,1.33-3.23,15.712,15.712,0,0,0-.1-3.673.287.287,0,0,1,.57-.063,16.764,16.764,0,0,1,.1,3.8,6.419,6.419,0,0,1-1.488,3.547A5.865,5.865,0,0,1,118.081,413.142Z" transform="translate(-111.122 -403.8)"/><g transform="translate(3.389 9.907)"><path class="ac" d="M130.556,443.576a9.979,9.979,0,0,1-1.647-.158l-.475-.1a38.488,38.488,0,0,1-6.428-1.552.271.271,0,1,1,.19-.507,33.907,33.907,0,0,0,6.333,1.52l.475.1a6.915,6.915,0,0,0,6.08-1.552c1.647-1.647,1.932-4.212,2.027-5.985a.256.256,0,0,1,.285-.253.242.242,0,0,1,.253.285c-.1,1.868-.412,4.592-2.185,6.365A6.769,6.769,0,0,1,130.556,443.576Z" transform="translate(-121.823 -435.085)"/></g></g></g><g transform="translate(21.523 96.408)"><path class="y" d="M166.508,474.4h-11.78a.678.678,0,0,0-.665.823l.443,1.932a.651.651,0,0,0,.665.507h10.893a.713.713,0,0,0,.665-.507l.443-1.932A.666.666,0,0,0,166.508,474.4Z" transform="translate(-154.047 -474.4)"/><path class="af" d="M158.1,485.6l.95,6.587a.916.916,0,0,0,.887.792h6.9a.889.889,0,0,0,.887-.792l.95-6.587Z" transform="translate(-156.816 -482.053)"/></g></g><g transform="translate(41.796 128.892)"><ellipse class="ag" cx="28.468" cy="3.262" rx="28.468" ry="3.262" transform="translate(0 121.557)"/><g transform="translate(11.986)"><path class="ah" d="M272.4,139.979c1.932.032,2.755-2.122,4.37-2.755,2.565-1.045,6.143-.792,8.012,1.457.507.633.918,1.742,1.615,2.153,1.108.7,2.248.285,3.23,1.425,2.248,2.628-1.3,6.112.158,9.12.982,1.995,3.832,1.488,5.383,2.945a4.394,4.394,0,0,1,1.2,5.352c-.412.823-1.932,2.5-.507,3.167a3.767,3.767,0,0,0,.855.222,9.16,9.16,0,0,1,6.555,4.782c3.04,6.523-3.008,11.812-8.613,13.9a19.4,19.4,0,0,1-13.807-.285c-6.587-2.565-15.01-7.315-14.725-15.453.063-1.995,1.615-3.99.887-5.953a35.194,35.194,0,0,0-1.995-3.547,8.35,8.35,0,0,1-.855-4.18,5.523,5.523,0,0,1,.633-2.375c.792-1.393,2.312-1.552,3.325-2.628a4.4,4.4,0,0,0,1.14-2.66c.063-1.045-.507-1.995-.127-3.04C269.579,140.264,271.131,139.979,272.4,139.979Z" transform="translate(-252.622 -136.632)"/><path class="ai" d="M326.478,226.7l4.465,8.075-2.438,2.153-5.6-7.948Z" transform="translate(-292.769 -198.179)"/><path class="aj" d="M312.006,217.568c.285-.222,4.085-3.357,4.117-3.832-.792-.222-.253-.538-.475-1.045-.158-.38-.792-.285-.665-.855-.475-.285-.665-.887-.95-1.362a6.456,6.456,0,0,0-1.488-1.583,3.7,3.7,0,0,0-3.1-.982,2.61,2.61,0,0,0-2.28,1.33c-.6,1.172.253,2.565.982,3.7a14.869,14.869,0,0,0,1.2,1.583,1,1,0,0,1,.317.95c.158.127.443.127.57.253.222.19.127.475.443.57C310.676,216.587,311.658,217.632,312.006,217.568Z" transform="translate(-281.875 -185.31)"/><g transform="translate(3.088 52.746)"><path class="ak" d="M275.938,303.2c-6.587,2.375-12.255-.063-15.042,3.388-1.8,2.217-.982,7.125-1.172,8.487-1.077,7.093.95,11.558,2.5,20.71-3.673,1.963-6.112,6.333-6.682,9.532a42.018,42.018,0,0,1-1.52,5.383c-1.077,3.167-2.47,6.587-3.325,8.645a5.1,5.1,0,0,0,2.692.95,64.606,64.606,0,0,1,4.4-8.012c2.755-4.37,5.763-8.74,7.632-13.11,3.547-3.7,7.41-16.878,8.36-21.913C274.513,313.4,275.21,307.95,275.938,303.2Z" transform="translate(-246.52 -303.2)"/><g transform="translate(0 56.335)"><path class="al" d="M239.59,488.3l-2.09,6.333.317.127,2.312-4.718Z" transform="translate(-237.5 -486.02)"/><path class="am" d="M250.644,486.832c.032-1.773-.222-3.1.253-4.56-.032.1-.253.222-1.33-.222-1.393-.538-1.3-.95-1.3-.95a1.3,1.3,0,0,1-.665.6c.6,2.977-.918,5.795.063,8.9.38,1.362,1.33,1.045,2.533.918-.032-.127,0-.285-.063-.633C249.82,489.333,250.612,488.352,250.644,486.832Z" transform="translate(-244.215 -481.1)"/><path class="an" d="M245.047,492c-1.013-3.1.507-5.922-.063-8.9-.507.19-1.013.095-1.33.823-.443.982.127,1.71.57,2.6.792,1.583.127,3.135,0,4.718a2.332,2.332,0,0,0,1.013,2.28,5.7,5.7,0,0,0,2.407,1.172c1.045.412,1.647-.253.665-1.045-.57-.475-.7-.538-.728-.728C246.409,493.043,245.459,493.36,245.047,492Z" transform="translate(-241.596 -482.467)"/></g></g><g transform="translate(14.384 49.104)"><path class="ao" d="M285.784,293.98a22.576,22.576,0,0,1-9.183-2.28c-.127.6-5.763,5.478-2.312,15.327,2.185,8.867,5.1,17.163,6.08,24.256-2.628,3.23-3.167,8.233-2.438,11.368a40.929,40.929,0,0,1,.7,5.542c.222,3.325.285,7.03.285,9.278a4.9,4.9,0,0,0,2.85-.158,62.4,62.4,0,0,1,.95-9.12c.823-5.1,1.9-10.292,1.932-15.042,1.837-4.782,2.122-26.346,2.47-29.988.38-3.958,1.742-1.393,3.42-4.972a16,16,0,0,0,.918-5.447A12.014,12.014,0,0,1,285.784,293.98Z" transform="translate(-273.172 -291.7)"/><path class="ap" d="M300.2,500.2v.032C300.232,500.2,300.2,500.2,300.2,500.2Z" transform="translate(-291.641 -434.176)"/><g transform="translate(4.41 66.024)"><path class="aq" d="M288.2,509.2l.57,6.65h.317l.285-5.257Z" transform="translate(-287.851 -506.35)"/><path class="ar" d="M294.782,504.538c-.665-1.647-1.393-2.755-1.52-4.307,0,.1-.158.285-1.33.317-1.488.032-1.552-.348-1.552-.348a1.321,1.321,0,0,1-.38.792c1.71,2.5,1.393,5.7,3.515,8.17.887,1.108,1.647.443,2.692-.158-.063-.1-.127-.253-.317-.57C295,507.167,295.352,505.963,294.782,504.538Z" transform="translate(-289.081 -500.2)"/><path class="as" d="M291.531,510.87c-2.122-2.5-1.837-5.668-3.515-8.17-.38.38-.887.475-.918,1.267-.032,1.077.792,1.52,1.52,2.153,1.33,1.14,1.33,2.818,1.837,4.338.348,1.077.792,1.3,1.8,1.71.95.38,1.393.19,2.692.158,1.108-.032,1.425-.855.19-1.2-.7-.19-.855-.253-.95-.412C293.178,511.345,292.418,512.01,291.531,510.87Z" transform="translate(-287.097 -501.908)"/></g></g><path class="at" d="M285.212,221.556c.032.95-2.66,5.763-3.927,8.423,1.362,1.583,4.782,2.66,7.5,2.787a19.583,19.583,0,0,0,7.378-.76l-1.077-13.775s4.972-1.488,2.66-5.32c-2.153-3.547-5.637-10.608-8.012-10.608a3.013,3.013,0,0,0-2.375-.918,5.812,5.812,0,0,0-5.32,3.357c-1.14,1.995-2.438,4.877-1.8,7.062Z" transform="translate(-263.505 -180.874)"/><g transform="translate(21.543 9.078)"><path class="au" d="M300.433,186l-.633,5.067,6.872,9.658-2.407-7.853.57-3.895Z" transform="translate(-298.528 -179.445)"/><path class="av" d="M305.414,165.3a4.2,4.2,0,0,1-1.71,3.7c-1.013.76-4.148,1.9-5.732.728a.19.19,0,0,1-.032-.127h-.032l.032-.728a1.028,1.028,0,0,0-.982-1.077h-.032a1.021,1.021,0,0,0-1.077.95l-.063.792a1.083,1.083,0,0,0,.982,1.14.669.669,0,0,1,.57.728l-.032.443c-.127,1.52,6.523,5.288,7.22,3.768a40.332,40.332,0,0,0,1.615-7.283,14.926,14.926,0,0,0-.032-2.66A2.98,2.98,0,0,0,305.414,165.3Z" transform="translate(-295.782 -165.3)"/></g><g transform="translate(30.411 19.153)"><path class="aw" d="M338.605,209.7l3.072,13.332c.76,2.248-1.362,4.053-3.167,2.882a2.219,2.219,0,0,1-.95-1.742c-.253-7.41-.76-13.9-.76-13.9Z" transform="translate(-332.679 -205.715)"/><path class="ax" d="M330.907,201.3a1.553,1.553,0,0,0-1.267-.538,1.138,1.138,0,0,0-.7.57,2.852,2.852,0,0,0-.253.887c-.1.57,1.393,2.407,2.565,1.9.348-.158,1.742-.19,1.8-.57A30.926,30.926,0,0,0,330.907,201.3Z" transform="translate(-327.135 -199.597)"/><path class="ax" d="M327.369,199.075c0-.7-3.642-2.28-3.578-1.9-.095.348,1.393.982,1.615,1.14C326.007,198.726,326.451,199.581,327.369,199.075Z" transform="translate(-323.786 -197.117)"/><path class="ax" d="M327.9,202.232c-.285-.633-2.312-.728-2.913-.412a1.02,1.02,0,0,0-.253,1.267c.38-.063.222-.475.443-.7.158-.19.412-.1.665-.032C326.537,202.485,327.3,203.118,327.9,202.232Z" transform="translate(-324.347 -200.21)"/><path class="ax" d="M329.232,204.851c-.127-.7-2.058-1.267-2.723-1.108a1.084,1.084,0,0,0-.57,1.172c.38.032.348-.412.6-.57.222-.127.412.032.633.127C327.807,204.787,328.409,205.547,329.232,204.851Z" transform="translate(-325.238 -201.626)"/><path class="ax" d="M329.62,206.776c-.127-.507-1.583-.823-2.058-.665a.769.769,0,0,0-.348.887c.285,0,.222-.317.412-.443.158-.1.285,0,.475.063C328.575,206.808,329.05,207.346,329.62,206.776Z" transform="translate(-326.101 -203.235)"/></g><g transform="translate(0 22.283)"><g transform="translate(0 4.687)"><path class="ay" d="M233.782,234.277l9.025,11.622-1.552,1.045-13.047-11.052a1.023,1.023,0,0,1-.285-1.425L242.111,221.8l3.768,4.053Z" transform="translate(-227.75 -221.8)"/><path class="ax" d="M274.655,298.265c.443.127.982.317,1.14.728a.978.978,0,0,1-.1.887,3.352,3.352,0,0,1-.6.728c-.412.412-4.592-.57-4.813-1.837-.063-.38.317-.475.6-.728C271.837,297.283,273.483,297.948,274.655,298.265Z" transform="translate(-256.811 -273.66)"/><path class="ax" d="M286.076,300.7c.665.158,1.108,2.153.918,2.787a1.067,1.067,0,0,1-1.2.475c0-.38.443-.317.6-.538.158-.19,0-.412-.063-.665C286.044,302.093,285.316,301.46,286.076,300.7Z" transform="translate(-267.376 -275.715)"/><path class="ax" d="M283.22,301.1c.665.158,1.108,2.153.918,2.787a1.067,1.067,0,0,1-1.2.475c0-.38.443-.317.6-.538.158-.19,0-.412-.063-.665C283.22,302.525,282.492,301.86,283.22,301.1Z" transform="translate(-265.439 -275.989)"/><path class="ax" d="M281.02,301.5c.665.158,1.108,2.153.918,2.787a1.067,1.067,0,0,1-1.2.475c0-.38.443-.317.6-.538.158-.19,0-.412-.063-.665C281.02,302.925,280.292,302.26,281.02,301.5Z" transform="translate(-263.936 -276.262)"/><path class="ax" d="M279.8,303.1c.507.127.823,1.583.665,2.058a.812.812,0,0,1-.887.348c0-.285.317-.222.443-.412.1-.158,0-.285-.063-.475C279.8,304.113,279.257,303.638,279.8,303.1Z" transform="translate(-263.155 -277.355)"/></g><path class="az" d="M271.906,211.812c.285.253.7.887,1.045,1.235.6.6,1.267,1.172,1.805,1.8.285.317.982,1.52,1.457,1.488-.032-.792.443-.285.855-.57.317-.19.032-.792.633-.728.127-.507.665-.728,1.013-1.045a5.542,5.542,0,0,0,1.077-1.615,3.423,3.423,0,0,0,0-3.135,3.479,3.479,0,0,0-1.995-2.122c-1.33-.475-2.375.475-3.293,1.3a9.511,9.511,0,0,0-1.172,1.33.766.766,0,0,1-.823.38c-.063.19.032.443-.063.6-.127.253-.412.158-.443.475C271.811,211.242,271.748,211.464,271.906,211.812Z" transform="translate(-257.862 -206.998)"/></g></g></g><g transform="translate(149.088 162.872)"><path class="ba" d="M558.94,277.08a2.024,2.024,0,0,1-1.045-.158L545.862,269.1l-1.362,1.425s13.395,13.078,14.757,13.363c.507.1,5.035-4.75,8.582-9.912a36.024,36.024,0,0,0-5.668-3.895C561.41,271.792,559.161,276.985,558.94,277.08Z" transform="translate(-539.503 -261.132)"/><path class="bb" d="M608.628,245.572c-2.248-2.945-6.555-1.868-7.79,2.882,0,.032-2.343,4.18-2.438,4.433a46.437,46.437,0,0,1,6.333,4.56C607.773,252.95,610.148,247.567,608.628,245.572Z" transform="translate(-576.335 -243.937)"/><path class="bc" d="M534.373,264.3a1.707,1.707,0,0,0-1.425.127,1.125,1.125,0,0,0-.348.887,3.374,3.374,0,0,0,.19.95c.19.57,4.528,1.678,5.352.633.253-.317-.063-.57-.222-.95C537.477,264.746,535.64,264.588,534.373,264.3Z" transform="translate(-531.371 -257.791)"/><path class="bd" d="M531.67,265.448c-.57-.443-2.5.475-2.85,1.077a1.142,1.142,0,0,0,.38,1.3c.317-.253-.032-.57.063-.855.063-.253.317-.285.57-.348C530.53,266.4,531.544,266.556,531.67,265.448Z" transform="translate(-528.731 -258.556)"/><path class="be" d="M532.165,264.5c-.253-.7-2.375-.918-3.008-.6a1.163,1.163,0,0,0-.348,1.33c.38-.032.285-.507.507-.7.19-.19.412-.063.7,0C530.708,264.687,531.468,265.352,532.165,264.5Z" transform="translate(-528.719 -257.478)"/><path class="bf" d="M534.218,268c-.443-.57-2.533-.158-3.04.317a1.143,1.143,0,0,0,.063,1.362c.348-.158.127-.538.253-.823.127-.222.38-.19.665-.19C532.857,268.635,533.807,269.047,534.218,268Z" transform="translate(-530.266 -260.192)"/><path class="bg" d="M535.274,269.944c-.38-.412-1.868.032-2.217.412a.914.914,0,0,0,.095,1.013c.253-.127.063-.412.158-.6.095-.158.285-.158.475-.19C534.324,270.451,535.021,270.7,535.274,269.944Z" transform="translate(-531.607 -261.596)"/><path class="bh" d="M536.287,264.77c-.285.7-2.312-.412-2.85-.57-.412.57.982,1.045,1.3,1.3.348.285.412.855.792,1.108a1.389,1.389,0,0,0,1.172.127c.19-.032.412-.127.57-.063" transform="translate(-531.892 -257.783)"/></g><ellipse class="bi" cx="12.867" cy="1.17" rx="12.867" ry="1.17" transform="translate(213.923 253.516)"/><path class="y" d="M500.38,327.2H455.033a.633.633,0,1,0,0,1.267h9.912v67.988a.633.633,0,1,0,1.267,0V328.467H488.79v67.988a.633.633,0,0,0,1.267,0V328.467H500.38a.635.635,0,0,0,.633-.633A.657.657,0,0,0,500.38,327.2Z" transform="translate(-328.846 -137.962)"/><g transform="translate(155.079 142.53)"><g transform="translate(5.484 58.9)"><path class="bj" d="M578.365,365.763c-.57.507-1.108.982-1.52,1.425A134.14,134.14,0,0,0,565.1,385.65c-.412.792.127,2.977,1.013,3.167,3.167.633,15.8,3.8,16.72,3.42.063,0,.127-.032.19-.032a1.138,1.138,0,0,1,.823.443h.127a5.74,5.74,0,0,0,1.013-.063,16.793,16.793,0,0,0,.918-2.755.435.435,0,0,0-.127-.095,1.1,1.1,0,0,0-1.14-.823.4.4,0,0,0-.19.032.953.953,0,0,1-1.3.222,1.938,1.938,0,0,1-.19-.127,8.5,8.5,0,0,0-2.343-.918c-.063,0-.095-.032-.158-.032a21.262,21.262,0,0,0-6.587-3.7c-.38-1.488,16.973-10.545,19.76-14.092a5.873,5.873,0,0,0,1.013-4.592H578.365Z" transform="translate(-564.956 -365.7)"/><path class="bk" d="M630.662,450.24c-.253-.158-.158-.412,0-.6-.032,0-.063-.032-.095-.032a.439.439,0,0,1-.19-.538c.412-1.2-.412-4.053-.918-4.37-.063-.032-.1-.063-.158-.1.285-.982.538-1.995.792-3.008,1.077-.1,2.755-.475,3.167,0a4.567,4.567,0,0,1,.76,2.533c-.095,1.3-.222,2.6-.253,3.895-.032.855.412,2.027.095,2.755-.285.633-3.23,2.6-4.053,2.375C628.635,452.837,630.5,450.747,630.662,450.24Z" transform="translate(-608.924 -417.402)"/></g><g transform="translate(15.473 62.764)"><path class="y" d="M619.97,397.6H602.838a.508.508,0,1,0,0,1.013h7.473v16.213h1.077V398.645h8.582a.528.528,0,0,0,.538-.507A.555.555,0,0,0,619.97,397.6Z" transform="translate(-600.463 -391.362)"/><rect class="y" width="2.248" height="1.678" transform="translate(9.278 23.908)"/><path class="y" d="M620.487,476.566h-5.763V460.1h-2.248v16.467h-5.763a.412.412,0,1,0,0,.823h5.763v7.79h2.248v-7.79h5.763a.412.412,0,0,0,0-.823Z" transform="translate(-603.197 -434.07)"/><path class="y" d="M610.357,540.9l-7.157,1.457h16.53l-7.157-1.457Z" transform="translate(-601.078 -489.284)"/><path class="bk" d="M616.576,384.138H598.052a1.554,1.554,0,0,1-1.552-1.552v-3.135a1.554,1.554,0,0,1,1.552-1.552h18.525a1.554,1.554,0,0,1,1.552,1.552v3.135A1.554,1.554,0,0,1,616.576,384.138Z" transform="translate(-596.5 -377.9)"/></g><g transform="translate(0 51.775)"><path class="bl" d="M567.259,349.343c1.393-1.267,1.045-3.61.792-5.6a.49.49,0,0,1,.507-.538l12.762.538a.483.483,0,0,1,.38.222c3.23,5.035,2.913,8.107.127,10.988-3.135,3.262-23.022,10.925-24.795,13.585,3.863,1.013,6.967,7.378,10.672,12.983a.165.165,0,0,1,.063.127c.095.982,1.2,1.045,1.742,1.8.032.063.063.095.063.158.127.38,0,.918.253,1.077.032.032.032.063.063.095.095.158.222.285.317.443a.478.478,0,0,1-.032.6c-.728.823-1.077,1.267-1.9,2.185a2.783,2.783,0,0,0-.253-.222.437.437,0,0,0-.127-.095c-1.077.158-1.172-.253-1.267-.887-.095-.158-.19-.38-.285-.538h0c-1.235.1-.918-.412-1.425-1.3a.691.691,0,0,0-.158-.127c-4.782-4.37-13.173-12.1-16.5-15.485a2.171,2.171,0,0,1-.032-3.008C553.864,360.553,565.612,350.832,567.259,349.343Z" transform="translate(-547.637 -343.2)"/><path class="bk" d="M606.779,486.2c-.158-.253.032-.443.222-.57l-.063-.063a.435.435,0,0,1,.032-.57c.823-.982,1.14-3.927.792-4.37-.032-.063-.063-.1-.095-.158.633-.823,1.235-1.647,1.868-2.47,1.045.317,2.723.6,2.945,1.2a4.366,4.366,0,0,1-.253,2.628c-.6,1.172-1.172,2.312-1.71,3.515-.348.76-.412,2.027-.95,2.565-.507.475-3.99,1.2-4.655.7C603.929,487.88,606.431,486.613,606.779,486.2Z" transform="translate(-586.619 -435.314)"/></g><path class="bm" d="M612.4,236.1a12.611,12.611,0,0,1,12.16,10.767s-1.678,23.306-1.678,23.338a10.914,10.914,0,0,1-.1,1.773c-.38,1.615-2.85,1.995-4.212,2.153-3.167.348-6.84.317-9.785-1.077-1.3-.633-1.2-1.077-1.362-2.5l-1.678-21.913C605.175,244.08,608.057,239.013,612.4,236.1Z" transform="translate(-587.296 -218.239)"/><path class="bn" d="M612.8,185.43a2.717,2.717,0,0,0-1.33-1.33c-.475-.222-1.013-.158-1.425-.538-.475-.443-.57-.918-1.235-1.2a5.3,5.3,0,0,0-1.742-.317,5.689,5.689,0,0,1-2.977-.823c-.823-.6-1.457-1.552-2.6-1.52-3.293.127-3.832,5.922-1.457,7.5l1.425.982a.285.285,0,0,1,.158.032,8.132,8.132,0,0,1-.032-1.52.084.084,0,0,1,.095-.1c.887-.1,1.742-.222,2.628-.253a7.642,7.642,0,0,1,1.9.063.657.657,0,0,1,.507.443,9.942,9.942,0,0,0,.38,1.615,8.644,8.644,0,0,1,.792,1.52c.285.792.538,1.615.823,2.407.317.918.507,1.837.823,2.755a.609.609,0,0,0,.38-.127c.76-.665.475-2.565.855-3.452.475-1.077,1.52-1.71,2.058-2.787A3.787,3.787,0,0,0,612.8,185.43Z" transform="translate(-582.448 -179.698)"/><g transform="translate(18.386 5.479)"><path class="bo" d="M621.268,224.3l1.045,4.465-6.713,6.808.918-3.99-.538-4.592Z" transform="translate(-612.465 -215.655)"/><path class="bp" d="M605.7,207.64l.063-10.64h6.428l.222,2.628.665.76.507,2.977h.57l.032-.665a1.082,1.082,0,0,1,1.077-1.045h.032a1.076,1.076,0,0,1,1.013,1.077v.728a1.061,1.061,0,0,1-1.077,1.045.691.691,0,0,0-.665.665v.982c0,1.52-8.36,4.782-8.835,2.058A3.078,3.078,0,0,1,605.7,207.64Z" transform="translate(-605.7 -197)"/></g><g transform="translate(0.36 24.485)"><path class="bq" d="M582.26,282.86c-.38.095-1.077-.317-1.077-.317L569.815,272.6l-1.615,1.267s11.97,15.612,13.363,16.15c.507.19,5.922-4.18,10.418-9.057a38.958,38.958,0,0,0-5.32-4.908C585.648,277.73,582.545,282.8,582.26,282.86Z" transform="translate(-562.049 -267.666)"/><path class="br" d="M636.348,259.229c-1.868-3.42-6.555-2.913-8.55,1.805-.032.032-3.072,3.99-3.2,4.243a50.016,50.016,0,0,1,5.89,5.7C634.353,266.765,637.615,261.54,636.348,259.229Z" transform="translate(-600.589 -257.018)"/><path class="bs" d="M558.738,265.628a1.651,1.651,0,0,0-1.488-.063,1.338,1.338,0,0,0-.507.855,2.742,2.742,0,0,0,.063,1.013c.1.6,4.465,2.407,5.478,1.457.317-.285.032-.633-.095-1.045C561.873,266.546,560.005,266.134,558.738,265.628Z" transform="translate(-554.202 -262.752)"/><path class="bt" d="M553.184,265.523c-.253-.728-4.623-.982-4.4-.6.032.38,1.837.475,2.09.57C551.632,265.65,552.424,266.41,553.184,265.523Z" transform="translate(-548.774 -262.299)"/><path class="bu" d="M555.6,266.971c-.538-.538-2.66.127-3.135.7a1.164,1.164,0,0,0,.222,1.425c.348-.19.063-.6.19-.887.1-.253.38-.222.665-.285C554.27,267.763,555.283,268.111,555.6,266.971Z" transform="translate(-551.19 -263.684)"/><path class="bv" d="M557.826,269.9c-.38-.665-2.628-.538-3.23-.1a1.2,1.2,0,0,0-.158,1.425c.38-.1.19-.57.38-.823.158-.222.412-.127.7-.127C556.338,270.344,557.256,270.914,557.826,269.9Z" transform="translate(-552.53 -265.504)"/><path class="bw" d="M558.856,271.913c-.317-.475-1.963-.253-2.375.1a.855.855,0,0,0-.032,1.045c.285-.1.127-.412.253-.6.1-.158.317-.127.507-.127C557.779,272.293,558.476,272.673,558.856,271.913Z" transform="translate(-553.908 -267.01)"/></g></g><g transform="translate(187.822 122.897)"><g transform="translate(22.165 63.428)"><path class="bx" d="M747.8,475.563l.823,10.83,2.28.348,1.552-11.242Z" transform="translate(-739.324 -425.625)"/><path class="by" d="M747.3,470.3l.063,1.2h4.718l.19-1.2Z" transform="translate(-738.982 -422.072)"/><path class="bz" d="M735.487,359.071c.317-2.375-.792-4.877-1.013-7.22-.443-4.718.443-9.31.76-14,.127-2.185.285-4.37.412-6.555a9.066,9.066,0,0,1,.158-2.787,13.134,13.134,0,0,0,1.077-5.922c0-.317-.158-4.5-.507-4.5L721.3,318l.285,8.138c.1.95,3.895,9.975,4.592,13.743.412,2.28.792,4.592,1.235,6.872a90.725,90.725,0,0,1,1.932,13.775v.855c-.633,1.013-.665,1.362-.158,2.248v.222a1,1,0,0,0-.19.475.707.707,0,0,0,.19.412c.095.127.222.317.348.475v.222c.032.475.032.792.032.792h4.94s.032-.222.095-.6a.588.588,0,0,1,.063-.222,1.357,1.357,0,0,0,.507-.918v-.19c-.063-.032-.1-.095-.158-.158-.032-.063-.063-.095-.1-.158a3.255,3.255,0,0,0,.222-1.995v-.38C735.138,361.573,735.487,359.071,735.487,359.071Z" transform="translate(-721.215 -318)"/><g transform="translate(0 59.216)"><path class="ca" d="M732.512,513.3c3.008-1.267,7.188.728,9.563-1.393a13.525,13.525,0,0,1-.633-1.773,36.822,36.822,0,0,1-.19-4.212c-.507.158-.633.507-1.235.57a4.418,4.418,0,0,1-1.425-.19,3.642,3.642,0,0,0-.348-1.045A7.172,7.172,0,0,0,736.85,505a21.483,21.483,0,0,1,.507,2.787c.095,1.077.38,2.312-.538,3.008a20.875,20.875,0,0,1-4.718,1.615C732.48,512.5,732.353,512.98,732.512,513.3Z" transform="translate(-728.595 -505)"/><path class="cb" d="M734.512,526.7c-2.375,2.122-6.555.127-9.563,1.393-.19-.317-.032-.792-.412-.887-.823.19-1.488.348-1.837.412-.285.032-1.3-.032-1.488.158-.475.475.095.887.507,1.045,1.678.665,4.18.285,5.858-.095a11.09,11.09,0,0,1,4.212-.507c.887.127,1.932.57,2.692-.285C734.733,527.65,734.67,527.207,734.512,526.7Z" transform="translate(-721.032 -519.828)"/><path class="cb" d="M755.052,519.5a.851.851,0,0,0-.855.855.872.872,0,0,0,.855.855.851.851,0,0,0,.855-.855A.9.9,0,0,0,755.052,519.5Z" transform="translate(-743.693 -514.908)"/></g></g><g transform="translate(30.325 104.879)"><path class="cc" d="M751.3,456.21l8.8,6.365,1.742-1.552-7.6-8.423Z" transform="translate(-749.875 -451.428)"/><path class="by" d="M746.8,452.668l.95.76,3.072-3.642L750,448.9Z" transform="translate(-746.8 -448.9)"/><g transform="translate(8.328 8.138)"><path class="ca" d="M776.678,486.032c.95-3.135,5.193-5.035,5.067-8.2a10.4,10.4,0,0,1-1.773-.665,41.041,41.041,0,0,1-3.357-2.565c-.19.475-.032.823-.348,1.33a5.126,5.126,0,0,1-1.045.982,3.921,3.921,0,0,0-1.013-.412c-.38.285-.76.57-1.108.887.823.475,1.71.887,2.47,1.393.887.633,1.995,1.172,1.932,2.343a20.337,20.337,0,0,1-1.8,4.655C776.077,485.557,776.33,485.968,776.678,486.032Z" transform="translate(-773.1 -474.6)"/><path class="cb" d="M783.893,484.8c.095,3.2-4.117,5.1-5.067,8.2-.348-.063-.633-.475-.95-.253-.38.76-.7,1.393-.855,1.678-.158.253-.855.982-.823,1.235.032.665.728.507,1.14.285,1.583-.855,2.913-3.008,3.7-4.528a12.028,12.028,0,0,1,2.312-3.547c.665-.6,1.71-1.108,1.52-2.248C784.748,485.212,784.368,484.99,783.893,484.8Z" transform="translate(-775.216 -481.57)"/><path class="cb" d="M790.285,484.58a.854.854,0,1,0,1.2-.1A.882.882,0,0,0,790.285,484.58Z" transform="translate(-784.712 -481.223)"/></g></g><g transform="translate(0 24.351)"><g transform="translate(4.325 10.128)"><path class="cd" d="M682.577,236.3l-1.077,1.837s1.995,1.172,4.655,2.755a20.556,20.556,0,0,1,1.2-2.882Z" transform="translate(-676.178 -233.223)"/><path class="ax" d="M669,233.274c-.507-.19-1.045-.475-1.172-.982a1.211,1.211,0,0,1,.222-.982,3.335,3.335,0,0,1,.76-.728c.507-.38,5.035,1.3,5.1,2.723.032.443-.38.538-.792.728C672.2,234.445,670.3,233.812,669,233.274Z" transform="translate(-666.815 -229.279)"/><path class="ax" d="M668.267,230.2c-.792.032-1.9-1.932-1.868-2.692a1.217,1.217,0,0,1,1.14-.918c.127.412-.38.475-.475.792-.095.253.127.443.285.665C667.824,228.679,668.805,229.154,668.267,230.2Z" transform="translate(-665.859 -226.584)"/><path class="ax" d="M666.47,232.123c-.6.127-1.71-1.3-1.773-1.868a.975.975,0,0,1,.792-.855c.158.285-.222.412-.285.665-.032.222.158.317.317.475C665.932,230.983,666.755,231.237,666.47,232.123Z" transform="translate(-664.695 -228.508)"/><path class="ax" d="M671.446,230.225c-.76.222-2.343-1.425-2.47-2.153a1.245,1.245,0,0,1,.887-1.172c.222.348-.222.57-.253.887-.032.285.222.38.443.57C670.623,228.863,671.7,229.053,671.446,230.225Z" transform="translate(-667.613 -226.8)"/><path class="ax" d="M673.306,229.933c-.57.127-1.647-1.172-1.71-1.71a.946.946,0,0,1,.7-.823c.158.285-.19.412-.253.633-.032.19.158.317.317.443C672.8,228.888,673.56,229.11,673.306,229.933Z" transform="translate(-669.41 -227.142)"/></g><path class="ce" d="M654.731,210.77h0l-3.483-11.97h0a.226.226,0,0,0-.19.317l3.325,11.432A.319.319,0,0,0,654.731,210.77Z" transform="translate(-651.037 -197.47)"/><path class="cf" d="M655.183,207.9l7.6-1.33L659.3,194.6l-7.6,1.33Z" transform="translate(-651.49 -194.6)"/><path class="cg" d="M656.177,207.532l6.9-1.2L660.1,196.1l-6.9,1.2Z" transform="translate(-652.515 -195.625)"/><path class="ch" d="M679.945,229.2c-.158-1.457-.887-.317-1.742-3.1-.728.063-.158,1.457-.158,1.868.032.443-.38.887-.348,1.362a1.432,1.432,0,0,0,.665.982c.158.127.38.222.443.412" transform="translate(-669.253 -216.125)"/><path class="ci" d="M702.778,240.62c-.19-.1-.538-.38-.76-.38-.412,0-.19.127-.443.317-.222.158-.063.412-.412.38-.222,0-.348-.38-.538-.443a.668.668,0,0,0-.918.222c-.38-.127-.412-.665-.728-.792-.538-.19-.538.412-.855.443-.507.063-1.488-1.868-1.932-.538-.728-.222-1.742-.538-2.312-.728-.823.19-1.552,2.723-1.488,3.547.032.317,1.71,1.33,2.28,1.615-.823,1.742,1.8.887,2.407,1.583.158.19.032.633.285.792.317.222.285-.032.538-.032.285,0,.348-.158.7.1.253.19.127.538.317.7.348.317.982-.032,1.457.222a15.115,15.115,0,0,0,3.705.918c.063,0,.127.032.19.032a24.57,24.57,0,0,0-.982-7.822A.721.721,0,0,1,702.778,240.62Z" transform="translate(-679.294 -225.008)"/></g><path class="cj" d="M719.6,128.15c0,.253-.285.475-.317.728s.253.507.222.76-.348.443-.412.665c-.063.253.158.538.095.792-.063.222-.412.38-.507.6s.095.57,0,.792-.475.317-.6.538,0,.57-.127.792-.507.253-.665.443-.063.57-.222.76-.538.158-.7.348c-.158.158-.158.538-.348.7s-.57.1-.76.222c-.19.158-.222.538-.443.665-.19.127-.57,0-.792.127s-.317.475-.538.6c-.222.1-.57-.063-.792,0-.222.1-.38.443-.6.507s-.538-.158-.792-.1-.443.38-.665.412c-.253.032-.507-.222-.76-.222-.253.032-.475.317-.728.317s-.475-.285-.728-.317-.507.253-.76.222-.443-.348-.665-.412c-.253-.063-.538.158-.792.1-.222-.063-.38-.412-.6-.507s-.57.1-.792,0-.317-.475-.538-.6-.57,0-.792-.127-.253-.507-.443-.665-.57-.063-.76-.222-.158-.538-.348-.7c-.158-.158-.538-.158-.7-.348s-.095-.57-.222-.76c-.158-.19-.538-.222-.665-.443-.127-.19,0-.57-.127-.792s-.475-.317-.6-.538c-.095-.222.063-.57,0-.792-.095-.222-.443-.38-.507-.6s.158-.538.095-.792-.38-.443-.412-.665c-.032-.253.222-.507.222-.76-.032-.253-.317-.475-.317-.728s.285-.475.317-.728-.253-.507-.222-.76.348-.443.412-.665c.063-.253-.158-.538-.095-.792.063-.222.412-.38.507-.6s-.095-.57,0-.792.475-.317.6-.538,0-.57.127-.792.507-.253.665-.443.063-.57.222-.76.538-.158.7-.348c.158-.158.158-.538.348-.7s.57-.1.76-.222c.19-.158.222-.538.443-.665.19-.127.57,0,.792-.127s.317-.475.538-.6c.222-.1.57.063.792,0,.222-.1.38-.443.6-.507s.538.158.792.1.443-.38.665-.412c.253-.032.507.222.76.222.253-.032.475-.317.728-.317s.475.285.728.317.507-.253.76-.222.443.348.665.412c.253.063.538-.158.792-.1.222.063.38.412.6.507s.57-.1.792,0,.317.475.538.6.57,0,.792.127.253.507.443.665.57.063.76.222.158.538.348.7c.158.158.538.158.7.348s.095.57.222.76c.158.19.538.222.665.443.127.19,0,.57.127.792s.475.317.6.538c.095.222-.063.57,0,.792.095.222.443.38.507.6s-.158.538-.095.792.38.443.412.665c.032.253-.222.507-.222.76S719.6,127.928,719.6,128.15Z" transform="translate(-683.607 -117.7)"/><path class="ck" d="M721.307,189.3h0a12.443,12.443,0,0,1,12,10.64l-1.583,27.613c-.063,1.425,1.457,2.755.57,3.008-.38.1-.792.222-1.172.348a21.232,21.232,0,0,1-14.25-.063c-1.33-.507-.222-1.457-.38-2.85l-1.773-26.283C714.15,197.185,716.525,194.208,721.307,189.3Z" transform="translate(-694.497 -166.627)"/><g transform="translate(20.16 10.482)"><path class="cl" d="M730.857,177.6,731.9,182l-.032.032a4.926,4.926,0,0,1-5.732,2.723h0l-.538-4.528Z" transform="translate(-722.148 -169.113)"/><path class="cm" d="M714.732,161.282l.063-8.835a1.662,1.662,0,0,1,1.678-1.647h2.5a2.348,2.348,0,0,1,2.343,2.153l.032.443.633.728.475,2.913h.57l.032-.7a1.021,1.021,0,0,1,1.045-.982h.032a1.014,1.014,0,0,1,.982,1.013v.792a1.082,1.082,0,0,1-1.077,1.045.686.686,0,0,0-.633.665v.982c0,1.488-8.265,4.718-8.708,2.027A4.036,4.036,0,0,0,714.732,161.282Z" transform="translate(-714.7 -150.8)"/></g><g transform="translate(8.297 25.787)"><g transform="translate(0 21.618)"><path class="cn" d="M702.253,270.517,702,272.67s2.343.317,5.478.7a21.145,21.145,0,0,1-.032-3.167Z" transform="translate(-694.159 -269.313)"/><path class="ax" d="M687.916,273.134a1.838,1.838,0,0,1-1.488-.443,1.269,1.269,0,0,1-.19-1.013,3.8,3.8,0,0,1,.412-.982c.317-.57,5.225-.823,5.89.475.19.412-.19.6-.443.982C691.336,273.324,689.341,273.1,687.916,273.134Z" transform="translate(-683.368 -269.334)"/><path class="ax" d="M681.786,275.927c-.507.633-4.877-.633-4.528-.918.19-.38,1.963.158,2.248.19C680.3,275.262,681.342,274.818,681.786,275.927Z" transform="translate(-677.238 -272.507)"/><path class="ax" d="M685.475,271.3c-.728.348-2.565-1.045-2.85-1.773a1.254,1.254,0,0,1,.7-1.33c.285.317-.158.6-.127.918.032.285.285.348.538.507C684.43,270.068,685.57,270.1,685.475,271.3Z" transform="translate(-680.896 -267.947)"/><path class="ax" d="M688.565,270.27c-.6.507-2.755-.38-3.2-1.013a1.28,1.28,0,0,1,.348-1.457c.348.253,0,.633.095.918s.38.285.665.348C687.235,269.32,688.343,269.067,688.565,270.27Z" transform="translate(-682.718 -267.673)"/><path class="ax" d="M689.989,269.363c-.475.348-1.995-.412-2.312-.918a.9.9,0,0,1,.348-1.045c.253.19-.032.443.032.7.063.19.253.222.475.285C689.07,268.6,689.894,268.477,689.989,269.363Z" transform="translate(-684.332 -267.4)"/><path class="co" d="M688.646,273.821c.127-.76-2.312-.855-2.85-.982-.063-.728,1.425-.412,1.837-.475.443-.063.823-.538,1.3-.57a1.465,1.465,0,0,1,1.108.507,1.259,1.259,0,0,0,.507.38" transform="translate(-683.084 -270.401)"/></g><path class="ca" d="M735.239,224.455a.652.652,0,0,0,.1-.475c-.19-2.312.348-4.592.475-6.9a41.672,41.672,0,0,0-.982-11.02c-.412-2.058-1.2-6.017-3.61-6.745a4.224,4.224,0,0,0-5.257,2.628,6.4,6.4,0,0,0-.063,3.927c.57,2.153.6,4.4,1.108,6.555h.063c0,.412,0,.823-.032,1.172-.032.475-.253.665-.348,1.045-.222.7.127.57.412,1.108.317.6-.222.823-.317,1.267-.127.633.412.665.6,1.172.285.728-.222.823-.855.792-.222,0-.665-.158-.855-.063-.38.158-.127.19-.285.475-.127.222.127.412-.253.538-.222.063-.475-.19-.7-.19-.412,0-.728.158-.792.57-.412.032-.665-.443-1.013-.443-.57.032-.348.6-.6.76-.443.253-2.122-1.14-2.027.285-.76.1-1.837.222-2.47.253-.7.538-.348,3.167.032,3.927.158.285,2.153.538,2.787.6-.063,1.963,2.058.1,2.882.507.222.127.285.57.6.633.38.063.253-.158.507-.253.285-.1.285-.285.665-.19.317.1.348.443.57.507.443.158.918-.412,1.457-.412a16.143,16.143,0,0,0,3.863-.633C731.882,225.721,734.669,225.5,735.239,224.455Z" transform="translate(-704.502 -199.132)"/></g><path class="cp" d="M717.265,360.685c-.063-.063-.1-.127-.158-.19a1.312,1.312,0,0,0-.38-.982.316.316,0,0,0-.158-.127c-.063,0-.127.032-.19.032s-.127-.032-.19-.032a3.278,3.278,0,0,0-1.393-1.457,2.233,2.233,0,0,1-.285-.222l-1.71-1.868c-1.552-1.742-4.117-2.5-6.048-3.8l2.5-8.075,1.742-3.737-1.14-6.3a9,9,0,0,0-1.615-3.642,5.96,5.96,0,0,1-1.108-2.85c-.348-2.66-.57-6.935-.57-6.935L699.5,351.058v4.117l4.307,2.122a63.942,63.942,0,0,1,6.175,4.18c.1.063.19.158.285.222.063.063.127.1.19.158a3.949,3.949,0,0,1,.253.38c.317.95.6,1.2,1.552,1.362.063.063.127.1.19.158a1.935,1.935,0,0,0,.222.443.67.67,0,0,0,.443.127c.158.032.38.032.6.063a.662.662,0,0,0,.19.127c.38.285.6.475.6.475l3.2-3.8C717.677,361.16,717.518,360.97,717.265,360.685Z" transform="translate(-684.154 -256.281)"/></g><g transform="translate(97.213 143.377)"><g transform="translate(5.447 55.076)"><path class="cq" d="M394.482,356.3l10.228,27.3s1.235,14.06,1.963,22.578v.127c.032.063.063.095.1.158.222,1.172-.6,1.71.412,2.5v.158a3.292,3.292,0,0,1-.19.7c.032.063.032.1.063.158a1.835,1.835,0,0,1,.1,1.773v.127l.032.443-2.5.253a.245.245,0,0,0-.032-.1c-.158-.38-1.267-.095-1.013-.918a1.159,1.159,0,0,0,.317-.855c0-.032-.032-.063-.032-.127a1.192,1.192,0,0,1-.76-1.045v-.348c-.348-.38.19-.918-.317-1.33-.032-.032-.032-.095-.063-.127-1.393-3.578-3.008-7.853-3.008-7.853a25.146,25.146,0,0,1-1.045-8.107l.158-3.832L382.1,362.57Z" transform="translate(-382.1 -356.3)"/><path class="q" d="M459.092,536.677c-1.963-1.362-3.642-2.343-3.832-2.818-.032-.063-.032-.095-.063-.158-.918.127-1.837.19-2.755.317-.253.95-.728,2.723-.348,3.167.412.475,1.963.507,3.008.348,1.14-.19,1.362.443,2.5.57.76.095,4.4.095,4.053-.57C461.467,537.12,459.123,536.708,459.092,536.677Z" transform="translate(-429.832 -477.524)"/></g><g transform="translate(0.728 61.916)"><path class="y" d="M390.57,397.6H373.438a.508.508,0,1,0,0,1.013h7.473v16.213h1.077V398.645h8.582a.528.528,0,0,0,.538-.507A.534.534,0,0,0,390.57,397.6Z" transform="translate(-371.095 -391.362)"/><rect class="y" width="2.248" height="1.678" transform="translate(9.247 23.908)"/><path class="y" d="M391.317,475.77h-5.478V460H383.59v15.77h-5.478a.419.419,0,0,0-.412.412h0a.419.419,0,0,0,.412.412h5.478v8.518h2.248v-8.518h5.478a.419.419,0,0,0,.412-.412h0A.382.382,0,0,0,391.317,475.77Z" transform="translate(-374.375 -434.002)"/><path class="y" d="M380.957,540.9l-7.157,1.457h16.53L383.2,540.9Z" transform="translate(-371.71 -489.284)"/><path class="bk" d="M387.277,384.138H368.752a1.554,1.554,0,0,1-1.552-1.552v-3.135a1.554,1.554,0,0,1,1.552-1.552h18.525a1.554,1.554,0,0,1,1.552,1.552v3.135A1.575,1.575,0,0,1,387.277,384.138Z" transform="translate(-367.2 -377.9)"/></g><g transform="translate(16.815 40.858)"><path class="cr" d="M419.045,311.4l14.788,3.135-.063,1.9L418,317.48Z" transform="translate(-418 -311.4)"/><path class="cs" d="M469.364,313.945a1.438,1.438,0,0,1,1.267-.507,1.092,1.092,0,0,1,.7.6,4.667,4.667,0,0,1,.253.887c.095.57-3.1,3.42-4.243,2.882-.348-.158-.19-.538-.253-.918C466.957,315.687,468.445,314.737,469.364,313.945Z" transform="translate(-451.535 -312.773)"/><path class="ct" d="M476.8,313.312c.538-.443,2.407.317,2.787.855a1.12,1.12,0,0,1-.285,1.267c-.317-.222,0-.538-.1-.823-.063-.222-.317-.253-.57-.317C477.94,314.136,476.99,314.357,476.8,313.312Z" transform="translate(-458.18 -312.616)"/><path class="cu" d="M475.5,315.912c.538-.443,2.407.317,2.787.855a1.12,1.12,0,0,1-.285,1.267c-.317-.222,0-.538-.1-.823-.063-.222-.317-.253-.57-.317C476.672,316.736,475.722,316.957,475.5,315.912Z" transform="translate(-457.292 -314.392)"/><path class="cv" d="M474.6,317.912c.538-.443,2.407.317,2.787.855a1.12,1.12,0,0,1-.285,1.267c-.317-.222,0-.538-.1-.823-.063-.222-.317-.253-.57-.317C475.74,318.736,474.79,318.957,474.6,317.912Z" transform="translate(-456.677 -315.759)"/><path class="cw" d="M475.1,319.967c.38-.348,1.773.222,2.058.633a.841.841,0,0,1-.222.95c-.222-.158,0-.412-.063-.6-.063-.158-.253-.19-.412-.222C475.923,320.569,475.227,320.727,475.1,319.967Z" transform="translate(-457.018 -317.18)"/><path class="cx" d="M471.682,315.97c.285.7,2.312-.412,2.85-.57.412.57-.982,1.045-1.3,1.3-.348.285-.412.855-.792,1.108a1.389,1.389,0,0,1-1.172.127c-.19-.032-.412-.127-.57-.063" transform="translate(-454.012 -314.133)"/></g><path class="cy" d="M386,345.845c-1.425-1.488-1.457-2.248-1.108-4.37L370.641,341c-1.013,4.148-1.8,7.885.823,10.988,2.913,3.452,20.267,12.667,19.918,14.187-.348,1.647-4.623,8.233-8.645,13.585l-.1.095c-.158.982-1.267.982-1.868,1.678-.032.063-.063.1-.063.158-.127.38-.063.918-.317,1.045-.032.032-.063.063-.063.1-.19.253-.38.475-.57.7.823,1.077,1.14,1.52,1.995,2.6.032-.032.127-.1.253-.222a.437.437,0,0,1,.127-.1c1.2.253,1.2-.317,1.393-1.108.032-.032.095-.063.127-.127a.436.436,0,0,1,.127-.095c1.2.19.95-.38,1.488-1.2.063-.032.1-.1.158-.127,5.257-4.212,14.567-11.748,17.8-14.725a1.677,1.677,0,0,0,.158-2.312C398.381,360.19,387.583,347.46,386,345.845Z" transform="translate(-368.171 -290.769)"/><path class="cz" d="M377.06,236.1h0a12.611,12.611,0,0,0-12.16,10.767l1.678,21.913c.063,1.583-.348,3.293.855,4.338,3.8,3.357,14.155-.665,14.155-.665,1.425,0,.285-1.9.443-3.325l1.678-20.52C384.28,244.08,381.62,236.1,377.06,236.1Z" transform="translate(-364.9 -219.087)"/><g transform="translate(7.662)"><path class="da" d="M395.613,224.3l-1.013,4.465,4.972,3.768,1.045-.665.317-4.877Z" transform="translate(-392.857 -211.024)"/><path class="db" d="M403.569,184.726a2.909,2.909,0,0,0-2.787-2.343,4.979,4.979,0,0,0-1.678.19c-.158.063-1.393.633-1.267.76-1.52-1.583-4.782-.982-5.035,1.552,0,0-.6-.032-.633-.032a3.339,3.339,0,0,0-2.692,1.71,2.484,2.484,0,0,0,.095,2.787c.127.158.412.57.57.6-.063.127.032.38.063.538.063.317,1.393,4.4,1.393,5.13a7.684,7.684,0,0,1,.792.1,4.745,4.745,0,0,1,.728-2.027,3.35,3.35,0,0,1,.222-.348.4.4,0,0,1,.032-.19c.158-.7.032-1.583.538-2.153.158-.19.507-.253.633-.443s0-2.312.285-2.787c.317-.507,4.813-.57,5.193-.222.38.38.348,3.673.38,3.642.095-.1.063-.285.095-.443.127-.792.507-1.52.6-2.343.063-.57.6-.6,1.013-.792A2.655,2.655,0,0,0,403.569,184.726Z" transform="translate(-389.096 -182.375)"/><path class="dc" d="M402.808,207.64,402.745,197h-6.428l-.222,2.628-.665.76-.507,2.977h-.57l-.032-.665a1.082,1.082,0,0,0-1.077-1.045h-.032a1.076,1.076,0,0,0-1.013,1.077v.728a1.061,1.061,0,0,0,1.077,1.045.691.691,0,0,1,.665.665v.982c0,1.52,8.36,4.782,8.835,2.058A3.075,3.075,0,0,0,402.808,207.64Z" transform="translate(-391.217 -192.369)"/><path class="dd" d="M401.835,207.4h-1.552a.806.806,0,0,0-.76.665h-.317a.848.848,0,0,0-.823-.665h-1.742a.848.848,0,0,0-.823.665h-2.723a2.954,2.954,0,0,0-1.963.728l-.1.1a.2.2,0,0,0,.253.317l.1-.1a2.6,2.6,0,0,1,1.71-.633h2.692v.317a1.69,1.69,0,0,0,1.71,1.647h.253a1.487,1.487,0,0,0,1.488-1.488v-.475h.253v.317a1.618,1.618,0,0,0,1.552,1.647h.222a1.423,1.423,0,0,0,1.362-1.488v-.665A.848.848,0,0,0,401.835,207.4Zm-2.977,1.552a1.068,1.068,0,0,1-1.077,1.077h-.253a1.277,1.277,0,0,1-1.3-1.267v-.507a.433.433,0,0,1,.443-.443h1.742a.487.487,0,0,1,.475.475v.665Zm3.388,0a1.027,1.027,0,0,1-.95,1.077h-.222a1.255,1.255,0,0,1-1.172-1.267v-.507a.424.424,0,0,1,.38-.443h1.552a.433.433,0,0,1,.38.475v.665Z" transform="translate(-390.37 -199.475)"/></g><g transform="translate(27.154 21.636)"><rect class="cb" width="0.538" height="0.665" transform="matrix(0.99, -0.139, 0.139, 0.99, 0, 0.831)"/><rect class="cb" width="5.162" height="0.665" transform="matrix(0.99, -0.139, 0.139, 0.99, 0.624, 0.741)"/><path class="cb" d="M469.153,250.7h-.127l-.127.032.095.665.127-.032a.116.116,0,0,0,.1-.032Z" transform="translate(-463.12 -250.7)"/><path class="cb" d="M470.2,251.3c.38-.1.982-.317.95-.443s-.633-.158-1.045-.158Z" transform="translate(-463.94 -250.7)"/></g><path class="de" d="M386.519,261.132a1.245,1.245,0,0,1-1.045.19c-.285-.095-.475-.285-.76-.38s-1.457-3.293-1.583-3.547c-.095-.19-.317-.317-.443-.475a1.2,1.2,0,0,1-.127-.665,5.212,5.212,0,0,0-.76-1.9,19.753,19.753,0,0,1-1.488-4.022c0-.032-.032-.1-.032-.127a4.613,4.613,0,0,0-7.758-1.9,4.236,4.236,0,0,0-.95,1.583c-.855,2.47.348,5.13,1.362,7.5a1.815,1.815,0,0,1,.19.792c-.063.412-.412.76-.348,1.14.1.633,1.077.728,1.362,1.33.127.285.032.6.127.918a1.858,1.858,0,0,0,.412.6,16.507,16.507,0,0,1,2.565,3.99,33.828,33.828,0,0,0,3.008,4.307,2.454,2.454,0,0,0,2.438.982c1.3-.348,2.185-2.122,3.483-1.773a1.672,1.672,0,0,0,.38.1c.57.032.76-.728.728-1.3h0a.9.9,0,0,0,.95-.57,1.186,1.186,0,0,1,.222-.38c.253-.317.6-.507.823-.823a.963.963,0,0,0,.158-.222C389.02,265.343,386.994,262.272,386.519,261.132Z" transform="translate(-369.26 -226.449)"/><g transform="translate(17.227 21.407)"><path class="df" d="M419.3,274.475l11.083-8.075,1.362,1.3-9.753,12.413Z" transform="translate(-419.3 -261.2)"/><path class="dg" d="M453.761,254.343a1.494,1.494,0,0,1,.475-1.3,1.1,1.1,0,0,1,.887-.127,3.339,3.339,0,0,1,.823.412c.475.317.475,4.592-.7,5.1-.348.158-.538-.19-.855-.443C453.444,257.32,453.729,255.578,453.761,254.343Z" transform="translate(-442.804 -251.961)"/><path class="dh" d="M454.5,251.473c.032-.7,1.837-1.583,2.5-1.488a1.1,1.1,0,0,1,.76,1.077c-.348.1-.412-.348-.665-.475-.222-.1-.412.1-.6.222C455.862,251.156,455.387,252.011,454.5,251.473Z" transform="translate(-443.353 -249.978)"/><path class="di" d="M455.5,254.073c.032-.7,1.837-1.583,2.5-1.488a1.1,1.1,0,0,1,.76,1.077c-.348.1-.412-.348-.665-.475-.222-.1-.412.1-.6.222C456.893,253.788,456.418,254.643,455.5,254.073Z" transform="translate(-444.037 -251.754)"/><path class="dj" d="M456.4,256.173c.032-.7,1.837-1.583,2.5-1.488a1.1,1.1,0,0,1,.76,1.077c-.348.095-.412-.348-.665-.475-.222-.095-.412.1-.6.222C457.793,255.856,457.318,256.711,456.4,256.173Z" transform="translate(-444.652 -253.189)"/><path class="dk" d="M458.2,258c0-.507,1.362-1.172,1.837-1.108a.79.79,0,0,1,.538.792c-.253.063-.285-.253-.507-.348-.158-.063-.285.063-.443.158C459.213,257.778,458.865,258.411,458.2,258Z" transform="translate(-445.882 -254.699)"/></g><path class="q" d="M397.3,484.58c.158-.285-.063-.443-.285-.538l.063-.063a.436.436,0,0,0-.063-.57c-.918-.918-1.425-3.832-1.108-4.307.032-.063.063-.1.1-.158-.7-.76-1.362-1.552-2.058-2.343-1.013.38-2.692.792-2.85,1.425a4.493,4.493,0,0,0,.443,2.6c.665,1.108,1.362,2.248,1.963,3.388.412.76.538,1.995,1.14,2.5.538.443,4.053.918,4.687.348C400.279,486.037,397.683,484.96,397.3,484.58Z" transform="translate(-382.768 -383.429)"/></g><g transform="translate(142.666 158.427)"><path class="dl" d="M513.113,249.348h0L508.68,235.7h0a.281.281,0,0,0-.222.38l4.243,13.047A.345.345,0,0,0,513.113,249.348Z" transform="translate(-508.438 -233.863)"/><g transform="translate(0.241)"><path class="dm" d="M513.633,245.385l8.708-1.8-4.433-13.68-8.708,1.837Z" transform="translate(-509.2 -229.9)"/><path class="cg" d="M514.7,245.032l7.885-1.647L518.817,231.7l-7.917,1.647Z" transform="translate(-510.362 -231.13)"/></g></g><ellipse class="dn" cx="38.601" cy="1.56" rx="38.601" ry="1.56" transform="translate(107.088 257.415)"/></g></svg>